<?xml version="1.0" encoding="UTF-8"?>
<svg width="217px" height="360px" viewBox="0 0 217 360" version="1.1" xmlns="http://www.w3.org/2000/svg" xmlns:xlink="http://www.w3.org/1999/xlink">
    <!-- Generator: Sketch 58 (84663) - https://sketch.com -->
    <title>Iconos/Soluciones</title>
    <desc>Created with Sketch.</desc>
    <defs>
        <rect id="path-1" x="0" y="0" width="217" height="360"></rect>
    </defs>
    <g id="Iconos/Soluciones" stroke="none" stroke-width="1" fill="none" fill-rule="evenodd">
        <mask id="mask-2" fill="white">
            <use xlink:href="#path-1"></use>
        </mask>
        <g id="Background"></g>
        <path d="M183.2238,107.9999 L183.2238,255.0499 L37.9998,255.0499 L37.9998,211.333008 L44.9998,211.333008 L44.9998,248.0499 L176.2238,248.0499 L176.2238,150.0099 L103.7148,150.0099 L103.7148,143.0099 L176.2238,143.0099 L176.2238,107.9999 L183.2238,107.9999 Z M141.712,107.9999 L141.712,114.9999 L80.33,114.9999 L80.33,142.0999 L73.33,142.0999 L73.33,114.9999 L45,114.9999 L45,178.0209 L114.613,178.0209 L114.613,199.9009 L141.712,199.9009 L141.712,206.9009 L114.613,206.9009 L114.613,229.3779 L107.613,229.3779 L107.613,185.0209 L80.33,185.0209 L80.33,212.1249 L73.33,212.1249 L73.33,185.0209 L38,185.0209 L38,107.9999 L141.712,107.9999 Z M47.6929434,191 L49.2398888,192.54834 L43.129264,198.622595 L49.2398888,204.69685 L47.6929434,206.245189 L41.6204207,200.131868 L35.5478979,206.245189 L34,204.69685 L40.1125299,198.622595 L34,192.54834 L35.5478979,191 L41.6204207,197.114274 L47.6929434,191 Z M158.660428,105 C159.670134,105 160.641737,105.186754 161.572381,105.558355 C162.503025,105.930909 163.3146,106.449246 164.007106,107.11527 C164.697706,107.781294 165.243519,108.578808 165.642638,109.508765 C166.041758,110.440627 166.240841,111.464913 166.240841,112.582576 C166.240841,113.753597 166.041758,114.804562 165.642638,115.735472 C165.243519,116.667334 164.697706,117.464848 164.007106,118.129919 C163.3146,118.794991 162.503025,119.31428 161.572381,119.685881 C160.641737,120.060341 159.670134,120.245189 158.660428,120.245189 C156.585768,120.245189 154.790207,119.553439 153.273743,118.169938 C151.758232,116.786437 151,114.924618 151,112.582576 C151,110.295798 151.758232,108.458752 153.273743,107.075251 C154.790207,105.69175 156.585768,105 158.660428,105 Z M158.660428,107.872765 C157.384007,107.872765 156.305718,108.285338 155.428417,109.109531 C154.551116,109.93563 154.111989,111.093312 154.111989,112.582576 C154.111989,114.127104 154.551116,115.29622 155.428417,116.094687 C156.305718,116.8922 157.384007,117.291434 158.660428,117.291434 C159.936848,117.291434 161.014185,116.8922 161.892439,116.094687 C162.76974,115.29622 163.208866,114.127104 163.208866,112.582576 C163.208866,111.093312 162.76974,109.93563 161.892439,109.109531 C161.014185,108.285338 159.936848,107.872765 158.660428,107.872765 Z" id="Combined-Shape" fill="#99FF99" mask="url(#mask-2)"></path>
    </g>
</svg>