<?xml version="1.0" encoding="UTF-8"?>
<svg width="217px" height="360px" viewBox="0 0 217 360" version="1.1" xmlns="http://www.w3.org/2000/svg" xmlns:xlink="http://www.w3.org/1999/xlink">
    <!-- Generator: Sketch 58 (84663) - https://sketch.com -->
    <title>Iconos/Startups</title>
    <desc>Created with Sketch.</desc>
    <defs>
        <rect id="path-1" x="0" y="0" width="217" height="360"></rect>
    </defs>
    <g id="Iconos/Startups" stroke="none" stroke-width="1" fill="none" fill-rule="evenodd">
        <mask id="mask-2" fill="white">
            <use xlink:href="#path-1"></use>
        </mask>
        <g id="Background"></g>
        <path d="M88.7936959,283 L92.9730937,284.879674 C89.7041494,290.831973 87.6207856,296.885098 86.7284325,303.039049 C85.8324594,309.1948 86.0351847,315.852877 87.3329882,323.011481 C88.6289816,330.170084 90.775697,336.478874 93.7767545,341.936049 C96.7705718,347.395024 100.846797,352.346272 106,356.78619 L102.743726,360 C97.7679075,355.687914 93.4219853,350.529614 89.7113895,344.514298 C85.9989837,338.498983 83.4486279,331.646456 82.0548919,323.956719 C80.6611559,316.268782 80.6484856,308.964342 82.0168809,302.036196 C83.3816562,295.111652 85.6424045,288.766853 88.7936959,283 Z M128.206237,283 C131.357184,288.766853 133.615876,295.111652 134.984122,302.036196 C136.352368,308.962541 136.337889,316.268782 134.944305,323.956719 C133.552531,331.646456 131.000644,338.498983 127.288643,344.512498 C123.576642,350.527814 119.234814,355.687914 114.257729,360 L111,356.78619 C116.152641,352.344471 120.228421,347.396825 123.227341,341.936049 C126.224452,336.478874 128.370933,330.170084 129.666785,323.011481 C130.964447,315.852877 131.16715,309.1966 130.271275,303.039049 C129.377209,296.885098 127.294073,290.831973 124.025485,284.877873 L128.206237,283 Z M74.1068943,260 C74.1068943,263.199766 74.6794716,265.486565 75.8228368,266.863902 C76.9679913,268.237734 79.1563101,268.92465 82.3913716,268.92465 L95.2779385,268.92465 C98.9603261,268.92465 101.805319,269.417056 103.812918,270.400117 C105.822307,271.381425 107.384369,272.771028 108.500895,274.568925 C109.615631,272.771028 111.177693,271.381425 113.187082,270.400117 C115.194681,269.417056 118.039674,268.92465 121.720272,268.92465 L134.606839,268.92465 C137.841901,268.92465 140.033798,268.237734 141.177163,266.863902 C142.318739,265.486565 142.891316,263.199766 142.891316,260 L149,260 L149,260.336449 C149,263.367991 148.679715,265.907126 148.037354,267.95736 C147.396784,270.007593 146.475292,271.64778 145.276459,272.883178 C144.075836,274.118575 142.583556,274.989486 140.79962,275.494159 C139.013895,276.000584 136.979456,276.252921 134.690936,276.252921 L119.628576,276.252921 C118.624776,276.252921 117.633502,276.407126 116.658331,276.715537 C115.681371,277.023949 114.817138,277.502336 114.063841,278.147196 C113.310544,278.792056 112.696812,279.591121 112.224436,280.547897 C111.748481,281.501168 111.512293,282.652453 111.512293,284 L105.487707,284 C105.487707,282.652453 105.249729,281.501168 104.777353,280.547897 C104.301398,279.591121 103.687667,278.792056 102.93437,278.147196 C102.181073,277.502336 101.316839,277.023949 100.341669,276.715537 C99.3647087,276.407126 98.3734344,276.252921 97.3714242,276.252921 L82.3090636,276.252921 C80.0223332,276.252921 77.9861053,276.000584 76.20038,275.494159 C74.4146546,274.989486 72.9080607,274.118575 71.6805982,272.883178 C70.454925,271.64778 69.5334335,270.007593 68.9197022,267.95736 C68.305971,265.907126 68,263.367991 68,260.336449 L68,260 L74.1068943,260 Z M68.7155635,80 L77,85.7512605 C67.6153846,97.497479 60.7567084,109.929661 56.4257603,123.049611 C52.0894454,136.173171 49.9230769,150.822098 49.9230769,167 C49.9230769,183.177902 52.0894454,197.826829 56.4257603,210.950389 C60.6535906,223.757959 67.2902139,235.910122 76.3339662,247.408557 L77,248.248739 L68.7155635,254 C62.9593218,246.760027 57.9052386,238.852803 53.523568,230.305187 L52.9302326,229.135636 L4.52772809,224.144351 L2,215.862247 L39.1788909,184.289885 C38.5205725,178.683038 38.1645796,172.928167 38.1645796,167 C38.1645796,149.625272 40.9946333,133.627887 46.6529517,119.006038 C52.3076923,104.385994 59.6636852,91.3851852 68.7155635,80 Z M140,85.753006 L148.284634,80 C157.334939,91.3868722 164.691108,104.387547 170.347772,119.005633 C176.006226,133.62733 178.834558,149.62455 178.834558,166.999097 C178.834558,172.471195 178.531219,177.795633 177.966754,182.992289 L177.820222,184.288803 L215,215.862643 L212.472212,224.144661 L164.068553,229.134089 C159.747846,237.739778 154.756063,245.707953 149.065022,253.008598 L148.284634,254 L140,248.246994 C149.38305,236.500897 156.24189,224.07065 160.57473,210.949031 C164.90936,197.825606 167.07578,183.176832 167.07578,166.999097 C167.07578,150.821363 164.90936,136.172589 160.57473,123.050969 C156.345053,110.24177 149.70823,98.0896909 140.665925,86.5930536 L140,85.753006 L148.284634,80 Z M41.0502747,194 L14,216.730748 L49,220 C48.3062189,218.344288 47.628614,216.673907 46.9797669,214.977856 C44.4131361,208.276164 42.457608,201.271932 41.0502747,194 Z M203,216.730748 L175.949725,194 C174.542392,201.273766 172.586864,208.276164 170.022031,214.977856 C169.534047,216.251269 169.030899,217.509212 168.517134,218.756325 L168,220 L203,216.730748 L175.949725,194 Z M108.5,122 C112.224279,122 115.661801,122.662247 118.812565,123.984955 C121.959768,125.309448 124.65279,127.192656 126.88807,129.636364 C129.12335,132.080071 130.865265,135.016448 132.12094,138.443708 C133.373053,141.872753 134,145.690935 134,149.898253 C134,154.107357 133.389083,157.941604 132.170811,161.40278 C130.950758,164.86574 129.226654,167.818182 126.991374,170.26189 C124.756094,172.703812 122.063072,174.606656 118.914088,175.965064 C115.763323,177.319903 112.291961,178 108.5,178 C104.706258,178 101.252707,177.319903 98.1375637,175.965064 C95.0206398,174.606656 92.3472096,172.703812 90.1119299,170.26189 C87.8766501,167.818182 86.1311727,164.86574 84.8790599,161.40278 C83.6251659,157.941604 83,154.107357 83,149.898253 C83,145.690935 83.6251659,141.872753 84.8790599,138.443708 C86.1311727,135.016448 87.89268,132.080071 90.1618007,129.636364 C92.4309213,127.192656 95.1221625,125.309448 98.2390864,123.984955 C101.354229,122.662247 104.77394,122 108.5,122 Z M109,133 C104.906543,133 101.71397,134.562854 99.4294589,137.683149 C97.1413584,140.808858 96,145.044447 96,150.397133 C96,155.818397 97.1413584,160.108126 99.4294589,163.264515 C101.71397,166.422708 104.906543,168 109,168 C113.095251,168 116.282441,166.422708 118.570541,163.264515 C120.856847,160.108126 122,155.818397 122,150.397133 C122,145.044447 120.856847,140.808858 118.570541,137.683149 C116.282441,134.562854 113.095251,133 109,133 Z M113.31894,0 L145,74.5562122 L135.59719,78 L108.5,13.0863936 L81.406372,78 L72,74.5562122 L103.673936,0 L113.31894,0 Z" id="Combined-Shape" fill="#99FF99" mask="url(#mask-2)"></path>
    </g>
</svg>