<?xml version="1.0" encoding="UTF-8"?>
<svg width="136px" height="171px" viewBox="0 0 136 171" version="1.1" xmlns="http://www.w3.org/2000/svg" xmlns:xlink="http://www.w3.org/1999/xlink">
    <!-- Generator: Sketch 58 (84663) - https://sketch.com -->
    <title>Avatar_MonoLazo</title>
    <desc>Created with Sketch.</desc>
    <g id="Symbols" stroke="none" stroke-width="1" fill="none" fill-rule="evenodd">
        <g id="Avatar/ProductOwner" transform="translate(-11.000000, -2.000000)" fill="#99FF99">
            <path d="M63.5576959,116.482231 L66.4464971,118.476069 C64.3229888,121.190148 62.7102078,124.142179 61.6105482,127.330563 C60.5092925,130.518947 59.9490885,133.989199 59.9291382,137.740521 C59.909188,141.491843 60.4318854,144.968484 61.4988266,148.168047 C62.5657678,151.366811 64.1466283,154.336408 66.2406101,157.072845 L63.3302627,159.035542 C61.0607184,156.239218 59.2396564,153.028476 57.8678749,149.401719 C56.4952953,145.774962 55.8209757,141.88071 55.8433201,137.718962 C55.8656644,133.558013 56.5814806,129.670947 57.9923647,126.058563 C59.4024507,122.446977 61.2586252,119.255399 63.5576959,116.482231 Z M95.1495294,116.482151 C97.4478021,119.255319 99.3039765,122.446897 100.714063,126.058483 C102.124947,129.670867 102.840763,133.557933 102.863107,137.718882 C102.885452,141.88063 102.211132,145.774882 100.838552,149.401639 C99.4667709,153.028396 97.6457089,156.239138 95.3761646,159.035462 L92.4658172,157.072765 C94.560597,154.336328 96.1414575,151.36753 97.2076007,148.167967 C98.2745419,144.968404 98.7972393,141.491763 98.777289,137.740441 C98.7573388,133.989119 98.1971348,130.518867 97.0958791,127.330483 C95.9962194,124.142099 94.3834385,121.190867 92.2599302,118.475989 L95.1495294,116.482151 Z M80.4011622,121.170186 L85.3584088,129.864981 L83.4671218,130.835949 L79.3533732,123.625553 L75.2388267,130.835949 L73.3483377,129.864981 L78.3055843,121.170186 L80.4011622,121.170186 Z M56.0507232,74.3466124 L59.2603249,76.5624316 C56.9014033,79.5775427 55.1098678,82.8577537 53.8865164,86.3998704 C52.663963,89.9427857 52.0415141,93.7987104 52.0183718,97.9660475 C51.9968255,102.134982 52.5777778,105.997294 53.7628246,109.552187 C54.8738061,112.885647 56.4869736,115.993128 58.6023271,118.874629 L59.0320937,119.447916 L55.7985516,121.627803 C53.5609278,118.871403 51.7390678,115.73013 50.2866871,112.247901 C50.0871843,112.331742 49.8437908,112.421972 49.5573048,112.519388 C48.9875246,112.713422 48.2780925,112.891486 47.4306045,113.051185 C46.5831164,113.210085 45.5991684,113.330658 44.4787604,113.410507 C43.3575545,113.489558 42.1493653,113.486364 40.8533948,113.39853 C38.6014067,113.247614 36.5752559,112.738974 34.7749423,111.874206 C32.9738306,111.008639 31.456811,109.821279 30.2262775,108.312925 C28.9949459,106.804571 28.086011,104.982409 27.5026647,102.85123 C26.9169244,100.719253 26.7142295,98.3101981 26.895378,95.6248648 C27.0757286,92.9395315 27.6447107,90.5823789 28.6023244,88.5534072 C29.55914,86.5252339 30.7800974,84.8483977 32.2636005,83.5213017 C33.7463056,82.1950041 35.4388877,81.2240362 37.3389528,80.6075992 C39.2398158,79.9911623 41.2388343,79.7540098 43.3368062,79.8945446 C44.662303,79.9839759 45.852138,80.157249 46.903917,80.4135653 C47.9556959,80.6706802 48.8662269,80.9493544 49.6371059,81.247991 C50.2515746,81.4883375 50.768686,81.7206991 51.1964201,81.9474712 C52.5458573,79.1607292 54.1610323,76.6239156 56.0507232,74.3466124 Z M99.4461024,76.5623518 L102.655704,74.3465326 C104.545395,76.6238358 106.16057,79.1606493 107.510007,81.9473913 C107.937741,81.7206192 108.454853,81.4882576 109.069321,81.2479111 C109.8402,80.9492746 110.750731,80.6706004 111.80251,80.4134855 C112.854289,80.1571691 114.044124,79.983896 115.369621,79.8952633 C117.468391,79.7539299 119.466611,79.9910825 121.366677,80.6075194 C123.26754,81.2239563 124.959324,82.1957228 126.442827,83.5220203 C127.92633,84.8483179 129.147287,86.525154 130.104103,88.5533273 C131.061717,90.5822991 131.630699,92.9402501 131.811049,95.6247849 C131.9914,98.3101183 131.789503,100.719173 131.203763,102.85115 C130.620416,104.983128 129.711481,106.804491 128.48015,108.313644 C127.249616,109.821199 125.732597,111.008559 123.931485,111.874126 C122.131171,112.738894 120.104223,113.247534 117.853032,113.399248 C116.557062,113.486284 115.348873,113.489478 114.227667,113.410427 C113.107259,113.330578 112.122513,113.210005 111.275823,113.051105 C110.428335,112.891406 109.718903,112.713342 109.148325,112.519308 C108.862636,112.421892 108.619243,112.331663 108.41974,112.247821 C107.064185,115.498647 105.386772,118.451071 103.350519,121.071334 L102.908674,121.627723 L99.6743336,119.447836 C102.002133,116.406374 103.758556,113.107798 104.942805,109.552107 C106.12865,105.997214 106.709602,102.134902 106.687257,97.9659676 C106.664913,93.7986305 106.042464,89.9435043 104.819911,86.3997906 C103.673019,83.0798047 102.026746,79.9886059 99.8817509,77.1307998 L99.4461024,76.5623518 L102.655704,74.3465326 Z M38.8950749,84.4323827 C37.497757,84.9282471 36.2839817,85.6987932 35.2537491,86.7464166 C34.2227184,87.7924429 33.3999687,89.0939872 32.7839039,90.6486539 C32.1678391,92.2049175 31.7935718,93.9703864 31.6611019,95.9450606 C31.5326221,97.8598478 31.6387576,99.6181303 31.9811045,101.221505 C32.3210573,102.826477 32.9020096,104.221445 33.7207692,105.408805 C34.5403269,106.595366 35.600086,107.542379 36.9000465,108.249844 C38.200805,108.958108 39.744957,109.371727 41.5340985,109.4923 C43.6009479,109.631238 45.3270465,109.530627 46.7139903,109.188872 C47.6037729,108.970884 48.3363474,108.762477 48.944432,108.562853 C47.9533019,105.215569 47.4593329,101.677445 47.4792832,97.9420927 C47.5024255,93.5559684 48.2286158,89.4477198 49.6402979,85.6109589 C49.1630871,85.3809928 48.6356016,85.1470343 48.0434772,84.9082847 C47.3930979,84.6487744 46.6812718,84.4212038 45.9040087,84.2295653 C45.1267457,84.0379269 44.3367144,83.9157574 43.534713,83.8606614 C41.8381408,83.7472753 40.2915948,83.9381153 38.8950749,84.4323827 Z M115.171714,83.8605815 C114.369713,83.9156776 113.579682,84.0378471 112.802419,84.2294855 C112.025155,84.4219224 111.313329,84.6486945 110.66295,84.9082049 C110.070826,85.1469544 109.54334,85.380913 109.066129,85.6108791 C110.477811,89.4484384 111.204002,93.5558885 111.227144,97.9420128 C111.247094,101.677365 110.753125,105.216288 109.761995,108.562774 C110.37008,108.762397 111.102654,108.970804 111.992437,109.188792 C113.379381,109.530548 115.105479,109.631158 117.172329,109.49222 C118.96147,109.371647 120.50642,108.958028 121.806381,108.249764 C123.106341,107.543098 124.1661,106.595286 124.985658,105.408725 C125.804418,104.221365 126.38537,102.826397 126.726121,101.222224 C127.06767,99.6180505 127.173805,97.859768 127.046123,95.9449808 C126.912855,93.9711051 126.538588,92.2056362 125.922523,90.648574 C125.306459,89.0939073 124.483709,87.7923631 123.452678,86.7463367 C122.422446,85.6987134 121.20867,84.9281672 119.811352,84.4323028 C118.414832,83.9380354 116.868286,83.7471955 115.171714,83.8605815 Z M105.272064,70.3662825 L105.272064,72.7617627 L53.434842,72.7617627 L53.434842,70.3662825 L105.272064,70.3662825 Z M61.1710833,30.4125469 L67.5551742,67.4929838 L64.4732544,67.4929838 L58.0891634,30.4125469 L61.1710833,30.4125469 Z M100.617184,30.4129461 L94.2330931,67.4933831 L91.1511732,67.4933831 L97.5352642,30.4129461 L100.617184,30.4129461 Z M79.3129939,17.6152527 C83.4722291,17.5928949 87.3641305,18.2684203 90.9886981,19.641829 C94.6124677,21.0136407 97.8220694,22.8366011 100.617503,25.1067179 L98.6559913,28.0188234 C95.9204084,25.9235766 92.9534021,24.3417612 89.7557706,23.2741755 C86.557341,22.2065898 83.0835976,21.6835766 79.3345402,21.7043375 C75.5854828,21.7242998 72.1181234,22.2840437 68.930866,23.3867631 C65.7444067,24.487087 62.7949567,26.1000437 60.081718,28.2256331 L58.0890836,25.3342885 C60.8605771,23.033829 64.0502285,21.1765333 67.6596339,19.766394 C71.2698373,18.3546576 75.1537586,17.638409 79.3129939,17.6152527 Z" id="Combined-Shape"></path>
        </g>
    </g>
</svg>