<?xml version="1.0" encoding="UTF-8"?>
<svg width="137px" height="114px" viewBox="0 0 137 114" version="1.1" xmlns="http://www.w3.org/2000/svg" xmlns:xlink="http://www.w3.org/1999/xlink">
    <!-- Generator: Sketch 58 (84663) - https://sketch.com -->
    <title>Avatar_MonoLazo Copy</title>
    <desc>Created with Sketch.</desc>
    <g id="Symbols" stroke="none" stroke-width="1" fill="none" fill-rule="evenodd">
        <g id="Group-11" transform="translate(-26.000000, -38.000000)" fill="#99FF99">
            <g id="Avatar/Analista" transform="translate(15.000000, 7.000000)">
                <path d="M63.8181564,87.5371128 L66.7868534,89.5380878 C64.6046151,92.2618819 62.9472292,95.2244788 61.8171561,98.4242758 C60.6854429,101.624073 60.1097453,105.106747 60.0892432,108.870695 C60.0687412,112.636247 60.6058949,116.12453 61.7023446,119.336348 C62.7987944,122.546562 64.4233769,125.525987 66.5752723,128.273021 L63.584433,130.242743 C61.2521196,127.43641 59.3806923,124.213373 57.9709712,120.573634 C56.5604301,116.934697 55.8674607,113.026505 55.890423,108.849059 C55.9133853,104.673216 56.648999,100.773037 58.098904,97.1469214 C59.5479891,93.5232094 61.4554999,90.320207 63.8181564,87.5371128 Z M95.1826637,87.5371128 C97.5445001,90.320207 99.4520109,93.5232094 100.901096,97.1469214 C102.351001,100.773037 103.086615,104.673216 103.109577,108.849059 C103.132539,113.026505 102.43957,116.934697 101.029029,120.574436 C99.6193077,124.213373 97.7478804,127.43641 95.415567,130.242743 L92.4247277,128.273021 C94.5774431,125.525987 96.2020257,122.547363 97.2976554,119.336348 C98.3941051,116.12453 98.9312588,112.636247 98.9107568,108.870695 C98.8902547,105.106747 98.3145571,101.624073 97.1828439,98.4242758 C96.0527708,95.2244788 94.3953849,92.2626833 92.2131466,89.5380878 L95.1826637,87.5371128 Z M80.0758627,92.080265 L84.9484914,101.071082 L83.0894878,102.0752 L79.0459591,94.6186349 L75.0016459,102.0752 L73.1434267,101.071082 L78.0160554,92.080265 L80.0758627,92.080265 Z M56.2859205,45.740113 L59.5221983,47.9536155 C57.1434577,50.9674579 55.3374811,54.2446225 54.1042686,57.7851094 C52.8718606,61.3255962 52.2443943,65.1788779 52.2210654,69.3433586 C52.1993455,73.5094352 52.7849806,77.3683025 53.9795798,80.9215565 C55.1039085,84.2650446 56.7384494,87.3816398 58.8832026,90.270677 L59.2913229,90.8097046 L56.0317162,92.9888954 C53.7760555,90.2335875 51.9395101,87.0952655 50.4762266,83.6154226 C50.2743112,83.6992069 50.0297603,83.7893748 49.7401604,83.8867242 C49.1657875,84.0806251 48.4506369,84.2585671 47.5963175,84.4173584 C46.741998,84.5769476 45.7501187,84.6966395 44.6206795,84.7772321 C43.4904358,84.8562287 42.2725077,84.853037 40.9660908,84.7652629 C38.6959501,84.6136531 36.6534671,84.1061594 34.8386416,83.2411858 C33.0230118,82.3770102 31.4937639,81.1904644 30.2533114,79.6823462 C29.0120545,78.175824 28.0957929,76.354911 27.5077444,74.2251929 C26.9172826,72.0938788 26.7137583,69.6872734 26.8955626,67.0037807 C27.0773669,64.31949 27.6509354,61.9639531 28.6162681,59.93717 C29.5807963,57.9103869 30.8115955,56.2347001 32.3070567,54.9085137 C33.8017135,53.5831252 35.507939,52.6128227 37.4233199,51.9960104 C39.3395053,51.380794 41.3546372,51.143804 43.4695202,51.2834445 C44.806506,51.3736125 46.0051274,51.5467668 47.0653845,51.8029075 C48.1256415,52.0590482 49.043512,52.3383293 49.8206048,52.6367611 C50.4400266,52.8769429 50.9613063,53.1091452 51.3924882,53.3357619 C52.7528029,50.5501321 54.3809973,48.0158553 56.2859205,45.740113 Z M102.713354,45.740113 C104.618323,48.0158553 106.246557,50.5501321 107.606905,53.3357619 C108.038097,53.1091452 108.559389,52.8769429 109.178826,52.6367611 C109.955938,52.3383293 110.873831,52.0590482 111.934114,51.8029075 C112.994396,51.5467668 114.193851,51.3736125 115.530065,51.2842425 C117.645804,51.143804 119.66018,51.380794 121.575608,51.9960104 C123.49184,52.6128227 125.197302,53.5839232 126.6928,54.9093116 C128.188297,56.2347001 129.419126,57.9103869 130.383678,59.93717 C131.349034,61.9639531 131.922617,64.3202879 132.104425,67.0037807 C132.286234,69.6872734 132.082705,72.0938788 131.493033,74.2251929 C130.904166,76.3557089 129.987882,78.175824 128.746595,79.6831442 C127.506112,81.1904644 125.976827,82.3770102 124.161153,83.2411858 C122.346284,84.1061594 120.302947,84.6136531 118.033555,84.7660608 C116.727107,84.853037 115.509149,84.8562287 114.378878,84.7772321 C113.249411,84.6966395 112.257508,84.5769476 111.403168,84.4173584 C110.548828,84.2585671 109.83366,84.0806251 109.259273,83.8867242 C108.97047,83.7893748 108.725109,83.6992069 108.523993,83.6154226 C107.157478,86.8640207 105.466503,89.813726 103.413787,92.4327492 L102.968369,92.9888954 L99.7078783,90.8097046 C102.054498,87.7703279 103.825122,84.4740126 105.018946,80.9215565 C106.214379,77.3683025 106.800028,73.5094352 106.777503,69.3433586 C106.754978,65.1788779 106.127496,61.3263942 104.895059,57.7851094 C103.73436,54.4536375 102.066287,51.3540062 99.8915101,48.4882113 L99.4778017,47.9536155 L102.713354,45.740113 Z M38.9919855,55.8189702 C37.5834042,56.3144947 36.3598451,57.0845127 35.321308,58.13062 C34.2819665,59.1767274 33.4525848,60.4773795 32.8315541,62.0309806 C32.2105234,63.5853796 31.8332392,65.3496384 31.6997015,67.323757 C31.5701861,69.2372318 31.6771771,70.9943091 32.0222835,72.5965849 C32.3649766,74.1996586 32.9506118,75.5944684 33.7759713,76.7810142 C34.6021351,77.9667621 35.6704366,78.9123282 36.9808757,79.6201064 C38.2921193,80.3278846 39.8487183,80.7412207 41.6522815,80.8617106 C43.7357912,81.0005532 45.4758033,80.899214 46.8739268,80.558491 C47.7708818,80.3398538 48.5093613,80.1323878 49.1223475,79.9329013 C48.1232282,76.5871133 47.6252774,73.0522121 47.6453885,69.3194202 C47.6687174,64.9363023 48.4007614,60.8308696 49.8238226,56.9967386 C49.3427652,56.7669301 48.8110277,56.5331319 48.2141304,56.2945461 C47.5585086,56.0344156 46.8409446,55.8077989 46.0574163,55.6154939 C45.2738879,55.4239869 44.4774885,55.3019011 43.6690223,55.2476408 C41.9587746,55.1343324 40.3997623,55.3242436 38.9919855,55.8189702 Z M115.330558,55.2476408 C114.522072,55.3019011 113.725654,55.4239869 112.942106,55.6154939 C112.158559,55.8085969 111.440977,56.0344156 110.78534,56.2945461 C110.188428,56.5331319 109.656678,56.7669301 109.175608,56.9967386 C110.598704,60.8316676 111.330766,64.9363023 111.354095,69.3194202 C111.374207,73.0522121 110.876244,76.5879113 109.877101,79.9329013 C110.490102,80.1323878 111.228599,80.3398538 112.125576,80.558491 C113.523733,80.899214 115.264592,81.0005532 117.347348,80.8617106 C119.150955,80.7412207 120.708396,80.3278846 122.018867,79.6201064 C123.329338,78.9131262 124.397666,77.9667621 125.22385,76.7810142 C126.049229,75.5944684 126.634878,74.1996586 126.978384,72.5973828 C127.322695,70.9943091 127.429688,69.2372318 127.300974,67.323757 C127.166629,65.3504363 126.789335,63.5861775 126.16829,62.0309806 C125.547244,60.4773795 124.717842,59.1767274 123.678475,58.13062 C122.639913,57.0845127 121.416324,56.3144947 120.007709,55.8189702 C118.599898,55.3242436 117.040847,55.1343324 115.330558,55.2476408 Z M88.3048774,59.9609004 C94.7078926,59.9609004 98.1907182,64.0062961 98.3679527,68.7309436 C98.3679527,69.1140683 98.5159268,69.5289807 98.6630649,69.9422201 C99.4597842,72.2451511 100.256504,74.8726507 100.965442,77.5603795 L98.811039,78.2981874 C98.5159268,76.6151154 98.0435801,74.4594114 97.5419729,72.4810489 L97.4232592,72.4810489 C96.2729068,75.7886367 92.9974122,78.1509605 87.8918875,78.1509605 C82.0180679,78.1509605 77.8279762,74.6367529 77.8279762,69.2328537 C77.8279762,63.8582326 81.9302866,59.9609004 88.3048774,59.9609004 Z M88.2446845,62.7063488 C83.9367152,62.6770708 79.923022,64.8034967 79.923022,69.1450195 C79.923022,73.3669203 84.0253324,75.4339535 88.0097652,75.4339535 C92.5543259,75.4339535 96.2729068,73.1310225 96.2729068,69.0262341 C96.2729068,65.0101164 92.4657086,62.6770708 88.2446845,62.7063488 Z" id="Combined-Shape"></path>
            </g>
        </g>
    </g>
</svg>