<svg xmlns="http://www.w3.org/2000/svg" width="72" height="58" viewBox="0 0 72 58">
    <path fill="#9F9" fill-rule="evenodd" d="M25.173 29.642l1.98 1.355c-1.455 1.845-2.56 3.852-3.314 6.02-.755 2.166-1.14 4.525-1.153 7.074-.014 2.55.345 4.913 1.076 7.089.73 2.174 1.814 4.192 3.25 6.053l-1.995 1.334c-1.555-1.901-2.804-4.084-3.744-6.55-.94-2.464-1.403-5.11-1.387-7.94.015-2.829.506-5.47 1.473-7.926.966-2.454 2.238-4.624 3.814-6.509zm26.8-28.64c1.294 1.548 2.401 3.27 3.326 5.166.294-.154.648-.312 1.07-.475.527-.203 1.152-.393 1.873-.568.721-.174 1.536-.291 2.445-.353 1.438-.095 2.808.066 4.11.485 1.303.419 2.463 1.08 3.48 1.981 1.017.902 1.854 2.042 2.51 3.42.655 1.379 1.045 2.981 1.169 4.807.124 1.825-.015 3.462-.416 4.911-.4 1.45-1.023 2.688-1.867 3.713-.843 1.026-1.883 1.833-3.117 2.42-.979.467-2.054.78-3.226.942-.327 2.632-1.073 5.25-2.24 7.854-1.257 2.806-3.06 5.376-5.41 7.707-1.154 1.146-2.366 2.16-3.636 3.044-.16 2.093-.6 4.08-1.317 5.962-.94 2.465-2.19 4.648-3.744 6.549l-1.995-1.335c1.435-1.86 2.519-3.877 3.25-6.052.358-1.066.627-2.177.806-3.333-.373.188-.75.366-1.133.534-2.829 1.249-5.675 2.012-8.537 2.291l-.522-2.734c2.73-.345 5.303-1.108 7.72-2.29.936-.459 1.85-.986 2.742-1.583v.026c-.014-2.549-.398-4.908-1.153-7.075-.753-2.167-1.859-4.173-3.314-6.019l1.98-1.355c1.576 1.885 2.848 4.054 3.814 6.509.726 1.841 1.183 3.787 1.373 5.837.458-.4.911-.823 1.358-1.266 2.118-2.102 3.772-4.35 4.964-6.748 1.004-2.02 1.708-4.15 2.112-6.391-.186-.007-.367-.016-.544-.029-.768-.055-1.443-.136-2.023-.244-.58-.108-1.068-.23-1.458-.361-.197-.067-.363-.128-.5-.185-.995 2.367-2.244 4.502-3.778 6.376l-2.216-1.482c1.595-2.068 2.799-4.31 3.611-6.726.812-2.417 1.21-5.042 1.196-7.876-.015-2.832-.443-5.453-1.28-7.861-.839-2.409-2.067-4.638-3.684-6.688zM36.718 32.829l3.398 5.91-1.296.66L36 34.496l-2.82 4.901-1.296-.66 3.398-5.91h1.436zM20.028 1.002l2.2 1.505c-1.617 2.05-2.845 4.28-3.684 6.688-.838 2.408-1.265 5.029-1.28 7.861-.015 2.834.384 5.459 1.195 7.876.813 2.416 2.017 4.658 3.612 6.726l-2.216 1.482c-1.534-1.874-2.783-4.01-3.778-6.376-.137.057-.303.118-.5.185-.39.131-.877.253-1.458.36-.58.11-1.255.19-2.023.245-.769.054-1.597.052-2.485-.008-1.544-.103-2.932-.448-4.167-1.036-1.234-.588-2.274-1.395-3.117-2.421C1.483 23.064.86 21.826.46 20.377c-.402-1.45-.54-3.087-.416-4.913.123-1.825.513-3.427 1.17-4.806.655-1.378 1.492-2.518 2.509-3.42 1.017-.902 2.176-1.562 3.48-1.981 1.302-.419 2.672-.58 4.11-.485.91.062 1.724.18 2.446.353.72.175 1.344.365 1.872.568.422.163.776.321 1.07.475.924-1.895 2.032-3.618 3.327-5.166zm-8.58 6.467c-1.162-.077-2.222.052-3.179.388-.958.337-1.79.861-2.496 1.573-.707.711-1.271 1.596-1.693 2.653-.423 1.057-.68 2.257-.77 3.6-.088 1.3-.015 2.496.22 3.586.233 1.09.63 2.04 1.192 2.846.562.807 1.288 1.45 2.179 1.931.892.482 1.95.763 3.177.845 1.416.094 2.6.026 3.55-.206.61-.149 1.112-.29 1.529-.426-.68-2.276-1.018-4.68-1.005-7.219.016-2.981.514-5.774 1.482-8.382-.327-.156-.689-.315-1.095-.477-.445-.177-.934-.331-1.466-.462-.533-.13-1.075-.213-1.624-.25z"/>
</svg>
