<svg xmlns="http://www.w3.org/2000/svg" width="134" height="108" viewBox="0 0 134 108">
    <path fill="#9F9" fill-rule="evenodd" d="M46.85 55.435l3.685 2.534c-2.708 3.45-4.766 7.203-6.169 11.256-1.405 4.053-2.12 8.464-2.145 13.232-.025 4.77.642 9.188 2.003 13.256 1.36 4.066 3.377 7.84 6.049 11.32l-3.713 2.494c-2.895-3.554-5.22-7.637-6.968-12.247-1.751-4.61-2.611-9.56-2.583-14.85.029-5.29.942-10.23 2.742-14.823 1.799-4.59 4.165-8.648 7.098-12.172zM96.726 1.873c2.41 2.895 4.47 6.118 6.191 9.662.547-.288 1.205-.583 1.99-.889.983-.38 2.144-.735 3.486-1.061 1.343-.325 2.86-.546 4.551-.66 2.677-.178 5.226.124 7.65.906 2.425.784 4.584 2.019 6.476 3.705 1.893 1.687 3.45 3.819 4.67 6.397 1.221 2.578 1.947 5.574 2.177 8.988.231 3.413-.027 6.475-.773 9.186-.746 2.71-1.905 5.026-3.476 6.942-1.569 1.919-3.504 3.428-5.802 4.527-1.82.872-3.822 1.459-6.004 1.76-.607 4.923-1.995 9.819-4.167 14.689-2.34 5.248-5.697 10.054-10.069 14.414-2.148 2.141-4.403 4.038-6.766 5.69-.299 3.916-1.116 7.633-2.453 11.152-1.75 4.61-4.074 8.691-6.968 12.246l-3.713-2.495c2.672-3.48 4.688-7.252 6.05-11.32.666-1.993 1.167-4.071 1.5-6.234-.695.353-1.398.686-2.109 1.001-5.265 2.335-10.562 3.762-15.89 4.285l-.97-5.113c5.081-.645 9.87-2.073 14.366-4.284 1.743-.857 3.444-1.843 5.104-2.958v.048c-.025-4.768-.74-9.18-2.144-13.232-1.403-4.053-3.46-7.805-6.17-11.256l3.686-2.534c2.933 3.524 5.3 7.582 7.1 12.172 1.349 3.443 2.2 7.082 2.553 10.916.855-.75 1.698-1.54 2.528-2.368 3.942-3.93 7.021-8.136 9.238-12.62 1.869-3.776 3.179-7.761 3.932-11.952-.344-.012-.682-.03-1.013-.053-1.43-.103-2.685-.255-3.765-.458-1.081-.202-1.987-.428-2.714-.675-.365-.123-.676-.24-.93-.345-1.852 4.426-4.176 8.419-7.03 11.924l-4.126-2.772c2.969-3.866 5.21-8.06 6.721-12.578 1.512-4.52 2.253-9.429 2.226-14.728-.029-5.298-.824-10.2-2.384-14.703-1.56-4.504-3.846-8.672-6.855-12.506zm-28.39 59.521l6.323 11.052-2.412 1.234L67 64.514 61.75 73.68l-2.412-1.234 6.324-11.052h2.673zM37.272 1.874l4.096 2.815c-3.01 3.834-5.296 8.002-6.856 12.506-1.56 4.504-2.354 9.405-2.382 14.703-.029 5.299.713 10.208 2.224 14.728 1.513 4.518 3.753 8.711 6.722 12.578l-4.125 2.772c-2.855-3.505-5.179-7.498-7.03-11.924-.255.107-.566.222-.932.345-.727.247-1.632.473-2.713.675-1.081.203-2.336.356-3.766.458-1.43.1-2.971.097-4.623-.015-2.874-.193-5.458-.838-7.755-1.939C7.835 48.477 5.9 46.968 4.33 45.05 2.76 43.133 1.6 40.817.856 38.108.108 35.396-.15 32.334.082 28.92c.229-3.414.955-6.41 2.176-8.988 1.221-2.579 2.779-4.71 4.671-6.397 1.892-1.686 4.05-2.92 6.475-3.705 2.424-.783 4.974-1.084 7.65-.906 1.693.114 3.21.335 4.552.66 1.34.326 2.502.682 3.486 1.061.784.306 1.443.601 1.989.89 1.721-3.544 3.783-6.768 6.192-9.663zM21.307 13.966c-2.164-.144-4.137.098-5.917.727-1.784.63-3.332 1.61-4.647 2.94-1.315 1.331-2.364 2.986-3.15 4.962-.786 1.977-1.264 4.221-1.433 6.733-.163 2.433-.028 4.669.409 6.707.434 2.039 1.174 3.813 2.22 5.322 1.044 1.509 2.396 2.712 4.055 3.612 1.659.9 3.629 1.426 5.912 1.58 2.636.175 4.838.047 6.607-.386 1.135-.278 2.07-.542 2.845-.796-1.263-4.256-1.894-8.753-1.869-13.5.03-5.576.956-10.799 2.757-15.676-.609-.292-1.282-.59-2.037-.893-.829-.33-1.738-.62-2.73-.864-.99-.243-1.999-.399-3.022-.468z"/>
</svg>
