<?xml version="1.0" encoding="UTF-8"?>
<svg width="164px" height="173px" viewBox="0 0 164 173" version="1.1" xmlns="http://www.w3.org/2000/svg" xmlns:xlink="http://www.w3.org/1999/xlink">
    <!-- Generator: Sketch 58 (84663) - https://sketch.com -->
    <title>Iconos/AuditoriaProcesos</title>
    <desc>Created with Sketch.</desc>
    <defs>
        <rect id="path-1" x="0" y="0" width="147" height="244"></rect>
    </defs>
    <g id="Symbols" stroke="none" stroke-width="1" fill="none" fill-rule="evenodd">
        <g id="Iconos/Thumbs/Auditoría-de-procesos" transform="translate(-104.000000, -63.000000)">
            <g id="Iconos/AuditoriaProcesos" transform="translate(112.000000, 26.000000)">
                <mask id="mask-2" fill="white">
                    <use xlink:href="#path-1"></use>
                </mask>
                <g id="Background"></g>
                <path d="M137.10184,161.988889 L141.580645,168.931083 C132.714884,176.311636 122.590917,182.310143 111.208744,186.923559 C99.8236554,191.535453 87.3669771,193.844444 73.8387097,193.844444 C60.3089843,193.844444 47.8523061,191.535453 36.468675,186.923559 C25.0865019,182.310143 14.962535,176.311636 6.09677419,168.931083 L10.5741219,161.988889 C19.721266,169.684512 29.4005599,175.310109 39.6178352,178.867204 C49.8351106,182.421254 61.2420688,184.200563 73.8387097,184.200563 C86.4353506,184.200563 97.8423087,182.421254 108.059584,178.867204 C118.27686,175.310109 127.956153,169.684512 137.10184,161.988889 Z M73.8300826,122.677778 C76.6310408,122.676366 79.2824612,123.134946 81.792971,124.053523 C84.3020429,124.970684 86.5206663,126.316703 88.4459657,128.101487 C90.371265,129.876364 91.9169683,132.058868 93.0859514,134.644753 C94.2506208,137.227808 94.8372692,140.12649 94.8387097,143.342216 C94.8401449,146.556526 94.2549344,149.428316 93.0917028,151.956171 C91.9255955,154.481195 90.38133,156.635392 88.4574686,158.418761 C86.5336071,160.197883 84.3164215,161.575041 81.8087875,162.554478 C79.2982777,163.52967 76.6454194,164.022222 73.8458991,164.022222 C71.0478166,164.023635 68.3604496,163.533916 65.7967389,162.56014 C63.2272767,161.583533 60.9827717,160.206376 59.0574724,158.428668 C57.1307352,156.64813 55.6123513,154.495349 54.5051964,151.968909 C53.39229,149.443885 52.8401503,146.57068 52.8387097,143.357785 C52.8372746,140.142059 53.3879764,137.243377 54.498007,134.657492 C55.6037241,132.073022 57.1206702,129.889103 59.0459695,128.111395 C60.9698309,126.326611 63.2128981,124.979176 65.7823602,124.059184 C68.3446331,123.139192 71.0305622,122.679196 73.8300826,122.677778 Z M73.8387097,91.5 C87.3669771,91.5 99.8236554,93.8196458 111.208744,98.4619815 C122.590917,103.101273 132.714884,109.13631 141.580645,116.561003 L137.10184,123.355556 C127.956153,115.658411 118.27686,110.032813 108.059584,106.478763 C97.8423087,102.921668 86.4353506,101.145404 73.8387097,101.145404 C61.2420688,101.145404 49.8351106,102.921668 39.6178352,106.478763 C29.4005599,110.032813 19.721266,115.658411 10.5741219,123.355556 L6.09677419,116.561003 C14.962535,109.13631 25.0865019,103.101273 36.468675,98.4619815 C47.8523061,93.8196458 60.3089843,91.5 73.8387097,91.5 Z M75.6857876,50.8333333 L84,58.4308931 L61.2428128,85.4 L54.1935484,80.1560483 L75.6857876,50.8333333 Z M102.782562,50.8333333 L111.096774,58.4305663 L88.339587,85.4 L81.2903226,80.1562738 L102.782562,50.8333333 Z" id="Combined-Shape" fill="#99FF99" fill-rule="evenodd" mask="url(#mask-2)"></path>
            </g>
        </g>
    </g>
</svg>