<?xml version="1.0" encoding="UTF-8"?>
<svg width="162px" height="163px" viewBox="0 0 162 163" version="1.1" xmlns="http://www.w3.org/2000/svg" xmlns:xlink="http://www.w3.org/1999/xlink">
    <!-- Generator: Sketch 58 (84663) - https://sketch.com -->
    <title>Iconos/Soluciones</title>
    <desc>Created with Sketch.</desc>
    <defs>
        <rect id="path-1" x="0" y="0" width="190" height="314"></rect>
    </defs>
    <g id="Symbols" stroke="none" stroke-width="1" fill="none" fill-rule="evenodd">
        <g id="Iconos/Thumbs/Soluciones" transform="translate(-105.000000, -67.000000)">
            <g id="Iconos/Soluciones" transform="translate(90.000000, -9.000000)">
                <mask id="mask-2" fill="white">
                    <use xlink:href="#path-1"></use>
                </mask>
                <g id="Background"></g>
                <path d="M160.426369,94.1999128 L160.426369,222.460191 L33.2717143,222.460191 L33.2717143,184.329346 L39.4007465,184.329346 L39.4007465,216.354635 L154.297336,216.354635 L154.297336,130.841968 L90.8101935,130.841968 L90.8101935,124.736413 L154.297336,124.736413 L154.297336,94.1999128 L160.426369,94.1999128 Z M124.079631,94.1999128 L124.079631,100.305468 L70.335023,100.305468 L70.335023,123.942691 L64.2059908,123.942691 L64.2059908,100.305468 L39.4009217,100.305468 L39.4009217,155.273785 L100.352396,155.273785 L100.352396,174.358007 L124.079631,174.358007 L124.079631,180.463563 L100.352396,180.463563 L100.352396,200.068502 L94.2233641,200.068502 L94.2233641,161.379341 L70.335023,161.379341 L70.335023,185.020052 L64.2059908,185.020052 L64.2059908,161.379341 L33.2718894,161.379341 L33.2718894,94.1999128 L124.079631,94.1999128 Z M41.7587984,166.594444 L43.1132667,167.944941 L37.76295,173.243041 L43.1132667,178.541141 L41.7587984,179.891637 L36.441843,174.559463 L31.1248876,179.891637 L29.7695853,178.541141 L35.12157,173.243041 L29.7695853,167.944941 L31.1248876,166.594444 L36.441843,171.92745 L41.7587984,166.594444 Z M138.919269,91.5833333 C139.803343,91.5833333 140.654056,91.7462239 141.468905,92.070343 C142.283755,92.3952932 142.99435,92.8473977 143.600691,93.4283188 C144.205365,94.00924 144.683265,94.7048494 145.032725,95.5159781 C145.382184,96.3287691 145.556497,97.2221742 145.556497,98.1970247 C145.556497,99.2184153 145.382184,100.135091 145.032725,100.94705 C144.683265,101.759841 144.205365,102.455451 143.600691,103.035541 C142.99435,103.615631 142.283755,104.068566 141.468905,104.392685 C140.654056,104.719298 139.803343,104.880526 138.919269,104.880526 C137.102746,104.880526 135.530596,104.277166 134.202816,103.070446 C132.875871,101.863726 132.211982,100.239806 132.211982,98.1970247 C132.211982,96.2024457 132.875871,94.600134 134.202816,93.3934137 C135.530596,92.1866935 137.102746,91.5833333 138.919269,91.5833333 Z M138.919269,94.0890231 C137.801665,94.0890231 136.857541,94.4488784 136.089397,95.1677579 C135.321254,95.8882995 134.936765,96.8980551 134.936765,98.1970247 C134.936765,99.5441965 135.321254,100.563925 136.089397,101.260365 C136.857541,101.955975 137.801665,102.304195 138.919269,102.304195 C140.036872,102.304195 140.980162,101.955975 141.74914,101.260365 C142.517284,100.563925 142.901772,99.5441965 142.901772,98.1970247 C142.901772,96.8980551 142.517284,95.8882995 141.74914,95.1677579 C140.980162,94.4488784 140.036872,94.0890231 138.919269,94.0890231 Z" id="Combined-Shape" fill="#99FF99" fill-rule="evenodd" mask="url(#mask-2)"></path>
            </g>
        </g>
    </g>
</svg>