<svg xmlns="http://www.w3.org/2000/svg" width="224" height="180" viewBox="0 0 224 180">
    <g fill="none" fill-rule="evenodd">
        <path fill="#0A0A0A" stroke="#2E394F" d="M0 0H224V180H0z"/>
        <rect width="214" height="170" x="5" y="5" fill="#0A0A0A" stroke="#2E394F" rx="8"/>
        <path fill="#9F9" d="M145.468 106.907l2.376 3.452c-4.702 3.771-10.07 6.836-16.106 9.192-6.037 2.358-12.643 3.536-19.816 3.536-7.175 0-13.78-1.178-19.816-3.536C86.069 117.195 80.7 114.13 76 110.36l2.375-3.452c4.85 3.91 9.983 6.767 15.4 8.572 5.419 1.807 11.467 2.71 18.147 2.71 6.68 0 12.728-.903 18.147-2.71 5.417-1.805 10.55-4.662 15.4-8.572zm-33.504-23.585c1.757 0 3.352.262 4.783.787 1.43.523 2.658 1.26 3.677 2.21 1.02.95 1.808 2.076 2.36 3.38.552 1.304.829 2.735.829 4.294 0 1.558-.277 2.998-.83 4.315-.551 1.318-1.339 2.444-2.359 3.38-1.02.936-2.246 1.664-3.677 2.19-1.431.523-3.026.786-4.783.786-1.758 0-3.358-.255-4.803-.765-1.446-.51-2.68-1.233-3.7-2.168s-1.813-2.062-2.38-3.38-.85-2.772-.85-4.358c0-1.587.283-3.033.85-4.336.567-1.304 1.36-2.424 2.38-3.36 1.02-.934 2.254-1.665 3.7-2.188 1.445-.525 3.045-.787 4.803-.787zm-.042-18.422c7.174 0 13.779 1.178 19.816 3.536 6.037 2.355 11.404 5.42 16.106 9.192l-2.376 3.451c-4.85-3.91-9.983-6.767-15.4-8.572-5.419-1.806-11.467-2.71-18.146-2.71-6.68 0-12.729.904-18.147 2.71-5.417 1.805-10.55 4.663-15.4 8.572L76 77.628c4.7-3.771 10.069-6.837 16.105-9.192 6.037-2.358 12.642-3.536 19.817-3.536zm11.802-22.221l3.797 1.503c-.902 1.304-1.705 2.545-2.406 3.722-.702 1.178-1.315 2.357-1.841 3.534-.526 1.178-.966 2.394-1.316 3.645-.35 1.254-.627 2.607-.826 4.06h-6.09c.298-1.503.76-3.018 1.383-4.548.624-1.528 1.323-2.994 2.098-4.398.772-1.403 1.609-2.744 2.507-4.022.897-1.278 1.796-2.443 2.694-3.496zm-12.329 0l3.797 1.503c-.902 1.304-1.704 2.545-2.406 3.722-.703 1.178-1.316 2.357-1.841 3.534-.527 1.178-.966 2.394-1.316 3.645-.352 1.254-.628 2.607-.828 4.06h-6.09c.3-1.503.762-3.018 1.385-4.548.624-1.528 1.323-2.994 2.096-4.398.774-1.403 1.61-2.744 2.509-4.022.897-1.278 1.796-2.443 2.694-3.496z"/>
    </g>
</svg>
