<svg xmlns="http://www.w3.org/2000/svg" width="224" height="180" viewBox="0 0 224 180">
    <g fill="none" fill-rule="evenodd">
        <path fill="#0A0A0A" stroke="#2E394F" d="M0 0H224V180H0z"/>
        <rect width="214" height="170" x="5" y="5" fill="#0A0A0A" stroke="#2E394F" rx="8"/>
        <path fill="#9F9" d="M104.646 126.423l1.468.663c-1.148 2.102-1.879 4.238-2.192 6.41-.315 2.173-.243 4.524.212 7.05.454 2.527 1.209 4.754 2.262 6.68 1.051 1.927 2.483 3.675 4.293 5.242l-1.144 1.135c-1.748-1.522-3.273-3.343-4.575-5.466-1.305-2.124-2.2-4.542-2.69-7.257-.488-2.713-.494-5.292-.013-7.737.48-2.445 1.274-4.685 2.38-6.72zm14.08 0c1.107 2.035 1.9 4.275 2.38 6.72.48 2.444.476 5.024-.013 7.737-.489 2.715-1.386 5.133-2.689 7.256-1.303 2.123-2.828 3.945-4.575 5.466l-1.145-1.134c1.81-1.567 3.24-3.314 4.294-5.241 1.053-1.927 1.806-4.154 2.261-6.68.456-2.528.528-4.877.213-7.05-.314-2.173-1.046-4.31-2.193-6.411l1.468-.663zm-19.255-8.173c0 1.16.203 1.99.61 2.49.406.498 1.184.747 2.332.747h4.577c1.308 0 2.32.179 3.033.535.712.356 1.267.86 1.664 1.512.396-.652.95-1.156 1.664-1.512.713-.356 1.724-.535 3.032-.535h4.576c1.15 0 1.928-.25 2.335-.747.405-.5.608-1.33.608-2.49h2.17v.122c0 1.1-.114 2.02-.342 2.764-.228.743-.555 1.339-.98 1.787-.427.448-.957.764-1.59.947-.634.183-1.358.275-2.17.275h-5.35c-.357 0-.71.056-1.055.168-.348.111-.655.285-.922.52-.268.233-.485.523-.653.87-.17.345-.254.763-.254 1.252h-2.139c0-.489-.085-.907-.253-1.252-.169-.347-.386-.637-.653-.87-.268-.235-.576-.409-.922-.52-.347-.112-.698-.168-1.055-.168h-5.35c-.812 0-1.536-.092-2.17-.275-.635-.183-1.169-.499-1.605-.947-.435-.448-.762-1.044-.981-1.787-.218-.743-.326-1.664-.326-2.764v-.122h2.169zM97.7 54.882l2.943 2.025c-3.333 4.136-5.77 8.513-7.308 13.132-1.54 4.62-2.31 9.778-2.31 15.473 0 5.696.77 10.854 2.31 15.474 1.539 4.619 3.975 8.996 7.308 13.131l-2.942 2.025c-2.139-2.666-4.011-5.584-5.617-8.754l-17.187-1.757-.898-2.916 13.2-11.107c-.234-1.976-.351-4.007-.351-6.096 0-6.117 1.004-11.75 3.014-16.897 2.01-5.147 4.624-9.724 7.839-13.733zm27.91 0c3.216 4.009 5.83 8.586 7.839 13.733 2.01 5.148 3.014 10.78 3.014 16.897 0 2.088-.117 4.12-.35 6.095l13.2 11.108-.899 2.916-17.187 1.758c-1.606 3.17-3.478 6.087-5.617 8.753l-2.943-2.025c3.334-4.135 5.77-8.512 7.31-13.131 1.54-4.62 2.31-9.778 2.31-15.474 0-5.695-.77-10.853-2.31-15.473-1.54-4.62-3.976-8.996-7.31-13.132l2.943-2.025zm7.839 47.527c-.23.588-.467 1.168-.712 1.741l12.373-1.133-9.555-7.87c-.497 2.52-1.2 4.94-2.106 7.262zm-45.693-7.262l-9.555 7.87 12.373 1.133c-.245-.573-.482-1.153-.712-1.74-.907-2.323-1.609-4.743-2.106-7.263zm23.93-25.587c1.328 0 2.556.236 3.68.707 1.123.471 2.084 1.142 2.881 2.012.798.87 1.42 1.916 1.867 3.135.446 1.221.67 2.58.67 4.079 0 1.498-.217 2.863-.652 4.096-.435 1.233-1.051 2.284-1.849 3.154-.797.87-1.758 1.547-2.881 2.03-1.125.483-2.363.725-3.716.725-1.354 0-2.586-.242-3.698-.725s-2.066-1.16-2.864-2.03c-.798-.87-1.42-1.921-1.867-3.154-.447-1.233-.67-2.598-.67-4.096 0-1.498.223-2.858.67-4.079.447-1.22 1.075-2.265 1.885-3.135.81-.87 1.77-1.541 2.882-2.012 1.111-.471 2.332-.707 3.662-.707zm0 3.806c-1.45 0-2.58.55-3.39 1.65-.81 1.1-1.214 2.592-1.214 4.477 0 1.909.405 3.42 1.214 4.531.81 1.113 1.94 1.668 3.39 1.668 1.45 0 2.579-.555 3.388-1.668.81-1.111 1.216-2.622 1.216-4.531 0-1.885-.405-3.377-1.216-4.477-.81-1.1-1.938-1.65-3.388-1.65zm1.72-46.787l11.306 26.418-3.355 1.22-9.671-23.001-9.669 23-3.358-1.22 11.305-26.417h3.442z"/>
    </g>
</svg>
