<?xml version="1.0" encoding="UTF-8"?>
<svg width="640px" height="870px" viewBox="0 0 640 870" version="1.1" xmlns="http://www.w3.org/2000/svg" xmlns:xlink="http://www.w3.org/1999/xlink">
    <!-- Generator: Sketch 55.1 (78136) - https://sketchapp.com -->
    <title>Ilustraciones/AuditoriaProcesos</title>
    <desc>Created with Sketch.</desc>
    <defs>
        <rect id="path-1" x="0" y="0" width="240" height="400"></rect>
    </defs>
    <g id="Ilustraciones/AuditoriaProcesos" stroke="none" stroke-width="1" fill="none" fill-rule="evenodd">
        <g id="Nuevas/Ventanas">
            <rect id="Rectangle" stroke="#191E28" stroke-width="2" fill="#0A0A0A" fill-rule="evenodd" x="1" y="1" width="638" height="868" rx="8"></rect>
            <rect id="Rectangle" stroke="#191E28" stroke-width="2" x="20" y="12" width="18" height="18"></rect>
            <rect id="Rectangle" fill="#191E28" fill-rule="evenodd" x="23" y="15" width="12" height="12"></rect>
            <rect id="Rectangle-Copy" stroke="#191E28" stroke-width="1.5" x="596.75" y="11.75" width="18.5" height="18.5"></rect>
            <rect id="Rectangle-Copy" stroke="#191E28" stroke-width="2" x="597" y="12" width="8" height="8"></rect>
            <g id="Lineas" fill-rule="evenodd" stroke-width="1" transform="translate(70.000000, 11.000000)" fill="#191E28">
                <rect id="Rectangle" x="0" y="0" width="500" height="2"></rect>
                <rect id="Rectangle-Copy-4" x="0" y="9" width="500" height="2"></rect>
                <rect id="Rectangle-Copy-7" x="0" y="18" width="500" height="2"></rect>
            </g>
            <path d="" id="Path-2" fill="#4A4A4A" fill-rule="nonzero"></path>
            <path d="M1,41 L639,41 L639,8 C639,4.13400675 635.865993,1 632,1 L8,1 C4.13400675,1 1,4.13400675 1,8 L1,41 Z" id="Rectangle" stroke="#191E28" stroke-width="2"></path>
        </g>
        <g id="Carpetas" opacity="0.33" transform="translate(43.000000, 80.000000)">
            <path d="M7,27 L30,27 C33.3137085,27 36,24.3137085 36,21 L36,10.8686996 C36,7.5549911 33.3137085,4.8686996 30,4.8686996 L22.9744011,4.8686996 C20.7233016,4.8686996 18.5375332,4.11206511 16.7682003,2.72033586 C15.3513794,1.6058869 13.6010912,1 11.798488,1 L7,1 C3.6862915,1 1,3.6862915 1,7 L1,21 C1,24.3137085 3.6862915,27 7,27 Z" id="Carpeta-Copy-2" stroke="#191E28" stroke-width="2"></path>
            <path d="M65,27 L88,27 C91.3137085,27 94,24.3137085 94,21 L94,10.8686996 C94,7.5549911 91.3137085,4.8686996 88,4.8686996 L80.9744011,4.8686996 C78.7233016,4.8686996 76.5375332,4.11206511 74.7682003,2.72033586 C73.3513794,1.6058869 71.6010912,1 69.798488,1 L65,1 C61.6862915,1 59,3.6862915 59,7 L59,21 C59,24.3137085 61.6862915,27 65,27 Z" id="Carpeta-Copy-3" stroke="#191E28" stroke-width="2"></path>
            <path d="M122,27 L145,27 C148.313708,27 151,24.3137085 151,21 L151,10.8686996 C151,7.5549911 148.313708,4.8686996 145,4.8686996 L137.974401,4.8686996 C135.723302,4.8686996 133.537533,4.11206511 131.7682,2.72033586 C130.351379,1.6058869 128.601091,1 126.798488,1 L122,1 C118.686292,1 116,3.6862915 116,7 L116,21 C116,24.3137085 118.686292,27 122,27 Z" id="Carpeta-Copy-4" stroke="#191E28" stroke-width="2"></path>
            <path d="M180,28 L203,28 C206.865993,28 210,24.8659932 210,21 L210,10.8686996 C210,7.00270635 206.865993,3.8686996 203,3.8686996 L195.974401,3.8686996 C193.94755,3.8686996 191.979521,3.18743891 190.386445,1.9343498 C188.793368,0.68126069 186.825339,-2.14868339e-15 184.798488,0 L180,0 C176.134007,7.10171439e-16 173,3.13400675 173,7 L173,21 C173,24.8659932 176.134007,28 180,28 Z" id="Carpeta-Copy-5" fill="#191E28"></path>
            <path d="M237,27 L260,27 C263.313708,27 266,24.3137085 266,21 L266,10.8686996 C266,7.5549911 263.313708,4.8686996 260,4.8686996 L252.974401,4.8686996 C250.723302,4.8686996 248.537533,4.11206511 246.7682,2.72033586 C245.351379,1.6058869 243.601091,1 241.798488,1 L237,1 C233.686292,1 231,3.6862915 231,7 L231,21 C231,24.3137085 233.686292,27 237,27 Z" id="Carpeta-Copy-6" stroke="#191E28" stroke-width="2"></path>
            <path d="M7,75 L30,75 C33.3137085,75 36,72.3137085 36,69 L36,58.8686996 C36,55.5549911 33.3137085,52.8686996 30,52.8686996 L22.9744011,52.8686996 C20.7233016,52.8686996 18.5375332,52.1120651 16.7682003,50.7203359 C15.3513794,49.6058869 13.6010912,49 11.798488,49 L7,49 C3.6862915,49 1,51.6862915 1,55 L1,69 C1,72.3137085 3.6862915,75 7,75 Z" id="Carpeta-Copy-2" stroke="#191E28" stroke-width="2"></path>
            <path d="M7,124 L30,124 C33.8659932,124 37,120.865993 37,117 L37,106.8687 C37,103.002706 33.8659932,99.8686996 30,99.8686996 L22.9744011,99.8686996 C20.9475497,99.8686996 18.9795215,99.1874389 17.3864446,97.9343498 C15.7933676,96.6812607 13.8253394,96 11.798488,96 L7,96 C3.13400675,96 -4.73447626e-16,99.1340068 0,103 L0,117 C4.73447626e-16,120.865993 3.13400675,124 7,124 Z" id="Carpeta-Copy-7" fill="#191E28"></path>
            <path d="M7,171 L30,171 C33.3137085,171 36,168.313708 36,165 L36,154.8687 C36,151.554991 33.3137085,148.8687 30,148.8687 L22.9744011,148.8687 C20.7233016,148.8687 18.5375332,148.112065 16.7682003,146.720336 C15.3513794,145.605887 13.6010912,145 11.798488,145 L7,145 C3.6862915,145 1,147.686292 1,151 L1,165 C1,168.313708 3.6862915,171 7,171 Z" id="Carpeta-Copy-12" stroke="#191E28" stroke-width="2"></path>
            <path d="M65,76 L88,76 C91.8659932,76 95,72.8659932 95,69 L95,58.8686996 C95,55.0027063 91.8659932,51.8686996 88,51.8686996 L80.9744011,51.8686996 C78.9475497,51.8686996 76.9795215,51.1874389 75.3864446,49.9343498 C73.7933676,48.6812607 71.8253394,48 69.798488,48 L65,48 C61.1340068,48 58,51.1340068 58,55 L58,69 C58,72.8659932 61.1340068,76 65,76 Z" id="Carpeta-Copy-3" fill="#191E28"></path>
            <path d="M65,124 L88,124 C91.8659932,124 95,120.865993 95,117 L95,106.8687 C95,103.002706 91.8659932,99.8686996 88,99.8686996 L80.9744011,99.8686996 C78.9475497,99.8686996 76.9795215,99.1874389 75.3864446,97.9343498 C73.7933676,96.6812607 71.8253394,96 69.798488,96 L65,96 C61.1340068,96 58,99.1340068 58,103 L58,117 C58,120.865993 61.1340068,124 65,124 Z" id="Carpeta-Copy-8" fill="#191E28"></path>
            <path d="M65,172 L88,172 C91.8659932,172 95,168.865993 95,165 L95,154.8687 C95,151.002706 91.8659932,147.8687 88,147.8687 L80.9744011,147.8687 C78.9475497,147.8687 76.9795215,147.187439 75.3864446,145.93435 C73.7933676,144.681261 71.8253394,144 69.798488,144 L65,144 C61.1340068,144 58,147.134007 58,151 L58,165 C58,168.865993 61.1340068,172 65,172 Z" id="Carpeta-Copy-13" fill="#191E28"></path>
            <path d="M122,75 L145,75 C148.313708,75 151,72.3137085 151,69 L151,58.8686996 C151,55.5549911 148.313708,52.8686996 145,52.8686996 L137.974401,52.8686996 C135.723302,52.8686996 133.537533,52.1120651 131.7682,50.7203359 C130.351379,49.6058869 128.601091,49 126.798488,49 L122,49 C118.686292,49 116,51.6862915 116,55 L116,69 C116,72.3137085 118.686292,75 122,75 Z" id="Carpeta-Copy-4" stroke="#191E28" stroke-width="2"></path>
            <path d="M122,124 L145,124 C148.865993,124 152,120.865993 152,117 L152,106.8687 C152,103.002706 148.865993,99.8686996 145,99.8686996 L137.974401,99.8686996 C135.94755,99.8686996 133.979521,99.1874389 132.386445,97.9343498 C130.793368,96.6812607 128.825339,96 126.798488,96 L122,96 C118.134007,96 115,99.1340068 115,103 L115,117 C115,120.865993 118.134007,124 122,124 Z" id="Carpeta-Copy-9" fill="#191E28"></path>
            <path d="M122,172 L145,172 C148.865993,172 152,168.865993 152,165 L152,154.8687 C152,151.002706 148.865993,147.8687 145,147.8687 L137.974401,147.8687 C135.94755,147.8687 133.979521,147.187439 132.386445,145.93435 C130.793368,144.681261 128.825339,144 126.798488,144 L122,144 C118.134007,144 115,147.134007 115,151 L115,165 C115,168.865993 118.134007,172 122,172 Z" id="Carpeta-Copy-14" fill="#191E28"></path>
            <path d="M180,75 L203,75 C206.313708,75 209,72.3137085 209,69 L209,58.8686996 C209,55.5549911 206.313708,52.8686996 203,52.8686996 L195.974401,52.8686996 C193.723302,52.8686996 191.537533,52.1120651 189.7682,50.7203359 C188.351379,49.6058869 186.601091,49 184.798488,49 L180,49 C176.686292,49 174,51.6862915 174,55 L174,69 C174,72.3137085 176.686292,75 180,75 Z" id="Carpeta-Copy-5" stroke="#191E28" stroke-width="2"></path>
            <path d="M180,124 L203,124 C206.865993,124 210,120.865993 210,117 L210,106.8687 C210,103.002706 206.865993,99.8686996 203,99.8686996 L195.974401,99.8686996 C193.94755,99.8686996 191.979521,99.1874389 190.386445,97.9343498 C188.793368,96.6812607 186.825339,96 184.798488,96 L180,96 C176.134007,96 173,99.1340068 173,103 L173,117 C173,120.865993 176.134007,124 180,124 Z" id="Carpeta-Copy-10" fill="#191E28"></path>
            <path d="M180,171 L203,171 C206.313708,171 209,168.313708 209,165 L209,154.8687 C209,151.554991 206.313708,148.8687 203,148.8687 L195.974401,148.8687 C193.723302,148.8687 191.537533,148.112065 189.7682,146.720336 C188.351379,145.605887 186.601091,145 184.798488,145 L180,145 C176.686292,145 174,147.686292 174,151 L174,165 C174,168.313708 176.686292,171 180,171 Z" id="Carpeta-Copy-15" stroke="#191E28" stroke-width="2"></path>
            <path d="M237,76 L260,76 C263.865993,76 267,72.8659932 267,69 L267,58.8686996 C267,55.0027063 263.865993,51.8686996 260,51.8686996 L252.974401,51.8686996 C250.94755,51.8686996 248.979521,51.1874389 247.386445,49.9343498 C245.793368,48.6812607 243.825339,48 241.798488,48 L237,48 C233.134007,48 230,51.1340068 230,55 L230,69 C230,72.8659932 233.134007,76 237,76 Z" id="Carpeta-Copy-6" fill="#191E28"></path>
            <path d="M237,124 L260,124 C263.865993,124 267,120.865993 267,117 L267,106.8687 C267,103.002706 263.865993,99.8686996 260,99.8686996 L252.974401,99.8686996 C250.94755,99.8686996 248.979521,99.1874389 247.386445,97.9343498 C245.793368,96.6812607 243.825339,96 241.798488,96 L237,96 C233.134007,96 230,99.1340068 230,103 L230,117 C230,120.865993 233.134007,124 237,124 Z" id="Carpeta-Copy-11" fill="#191E28"></path>
            <path d="M237,171 L260,171 C263.313708,171 266,168.313708 266,165 L266,154.8687 C266,151.554991 263.313708,148.8687 260,148.8687 L252.974401,148.8687 C250.723302,148.8687 248.537533,148.112065 246.7682,146.720336 C245.351379,145.605887 243.601091,145 241.798488,145 L237,145 C233.686292,145 231,147.686292 231,151 L231,165 C231,168.313708 233.686292,171 237,171 Z" id="Carpeta-Copy-16" stroke="#191E28" stroke-width="2"></path>
            <path d="M7,220 L30,220 C33.8659932,220 37,216.865993 37,213 L37,202.8687 C37,199.002706 33.8659932,195.8687 30,195.8687 L22.9744011,195.8687 C20.9475497,195.8687 18.9795215,195.187439 17.3864446,193.93435 C15.7933676,192.681261 13.8253394,192 11.798488,192 L7,192 C3.13400675,192 -4.73447626e-16,195.134007 0,199 L0,213 C4.73447626e-16,216.865993 3.13400675,220 7,220 Z" id="Carpeta-Copy-21" fill="#99FF99"></path>
            <path d="M65,219 L88,219 C91.3137085,219 94,216.313708 94,213 L94,202.8687 C94,199.554991 91.3137085,196.8687 88,196.8687 L80.9744011,196.8687 C78.7233016,196.8687 76.5375332,196.112065 74.7682003,194.720336 C73.3513794,193.605887 71.6010912,193 69.798488,193 L65,193 C61.6862915,193 59,195.686292 59,199 L59,213 C59,216.313708 61.6862915,219 65,219 Z" id="Carpeta-Copy-20" stroke="#191E28" stroke-width="2"></path>
            <path d="M122,220 L145,220 C148.865993,220 152,216.865993 152,213 L152,202.8687 C152,199.002706 148.865993,195.8687 145,195.8687 L137.974401,195.8687 C135.94755,195.8687 133.979521,195.187439 132.386445,193.93435 C130.793368,192.681261 128.825339,192 126.798488,192 L122,192 C118.134007,192 115,195.134007 115,199 L115,213 C115,216.865993 118.134007,220 122,220 Z" id="Carpeta-Copy-19" fill="#191E28"></path>
            <path d="M180,220 L203,220 C206.865993,220 210,216.865993 210,213 L210,202.8687 C210,199.002706 206.865993,195.8687 203,195.8687 L195.974401,195.8687 C193.94755,195.8687 191.979521,195.187439 190.386445,193.93435 C188.793368,192.681261 186.825339,192 184.798488,192 L180,192 C176.134007,192 173,195.134007 173,199 L173,213 C173,216.865993 176.134007,220 180,220 Z" id="Carpeta-Copy-18" fill="#191E28"></path>
            <path d="M237,220 L260,220 C263.865993,220 267,216.865993 267,213 L267,202.8687 C267,199.002706 263.865993,195.8687 260,195.8687 L252.974401,195.8687 C250.94755,195.8687 248.979521,195.187439 247.386445,193.93435 C245.793368,192.681261 243.825339,192 241.798488,192 L237,192 C233.134007,192 230,195.134007 230,199 L230,213 C230,216.865993 233.134007,220 237,220 Z" id="Carpeta-Copy-17" fill="#191E28"></path>
            <path d="M7,268 L30,268 C33.8659932,268 37,264.865993 37,261 L37,250.8687 C37,247.002706 33.8659932,243.8687 30,243.8687 L22.9744011,243.8687 C20.9475497,243.8687 18.9795215,243.187439 17.3864446,241.93435 C15.7933676,240.681261 13.8253394,240 11.798488,240 L7,240 C3.13400675,240 -4.73447626e-16,243.134007 0,247 L0,261 C4.73447626e-16,264.865993 3.13400675,268 7,268 Z" id="Carpeta-Copy-26" fill="#191E28"></path>
            <path d="M65,268 L88,268 C91.8659932,268 95,264.865993 95,261 L95,250.8687 C95,247.002706 91.8659932,243.8687 88,243.8687 L80.9744011,243.8687 C78.9475497,243.8687 76.9795215,243.187439 75.3864446,241.93435 C73.7933676,240.681261 71.8253394,240 69.798488,240 L65,240 C61.1340068,240 58,243.134007 58,247 L58,261 C58,264.865993 61.1340068,268 65,268 Z" id="Carpeta-Copy-25" fill="#191E28"></path>
            <path d="M122,267 L145,267 C148.313708,267 151,264.313708 151,261 L151,250.8687 C151,247.554991 148.313708,244.8687 145,244.8687 L137.974401,244.8687 C135.723302,244.8687 133.537533,244.112065 131.7682,242.720336 C130.351379,241.605887 128.601091,241 126.798488,241 L122,241 C118.686292,241 116,243.686292 116,247 L116,261 C116,264.313708 118.686292,267 122,267 Z" id="Carpeta-Copy-24" stroke="#191E28" stroke-width="2"></path>
            <path d="M180,268 L203,268 C206.865993,268 210,264.865993 210,261 L210,250.8687 C210,247.002706 206.865993,243.8687 203,243.8687 L195.974401,243.8687 C193.94755,243.8687 191.979521,243.187439 190.386445,241.93435 C188.793368,240.681261 186.825339,240 184.798488,240 L180,240 C176.134007,240 173,243.134007 173,247 L173,261 C173,264.865993 176.134007,268 180,268 Z" id="Carpeta-Copy-23" fill="#191E28"></path>
            <path d="M237,267 L260,267 C263.313708,267 266,264.313708 266,261 L266,250.8687 C266,247.554991 263.313708,244.8687 260,244.8687 L252.974401,244.8687 C250.723302,244.8687 248.537533,244.112065 246.7682,242.720336 C245.351379,241.605887 243.601091,241 241.798488,241 L237,241 C233.686292,241 231,243.686292 231,247 L231,261 C231,264.313708 233.686292,267 237,267 Z" id="Carpeta-Copy-22" stroke="#191E28" stroke-width="2"></path>
            <path d="M7,316 L30,316 C33.8659932,316 37,312.865993 37,309 L37,298.8687 C37,295.002706 33.8659932,291.8687 30,291.8687 L22.9744011,291.8687 C20.9475497,291.8687 18.9795215,291.187439 17.3864446,289.93435 C15.7933676,288.681261 13.8253394,288 11.798488,288 L7,288 C3.13400675,288 -4.73447626e-16,291.134007 0,295 L0,309 C4.73447626e-16,312.865993 3.13400675,316 7,316 Z" id="Carpeta-Copy-31" fill="#191E28"></path>
            <path d="M65,315 L88,315 C91.3137085,315 94,312.313708 94,309 L94,298.8687 C94,295.554991 91.3137085,292.8687 88,292.8687 L80.9744011,292.8687 C78.7233016,292.8687 76.5375332,292.112065 74.7682003,290.720336 C73.3513794,289.605887 71.6010912,289 69.798488,289 L65,289 C61.6862915,289 59,291.686292 59,295 L59,309 C59,312.313708 61.6862915,315 65,315 Z" id="Carpeta-Copy-30" stroke="#191E28" stroke-width="2"></path>
            <path d="M122,316 L145,316 C148.865993,316 152,312.865993 152,309 L152,298.8687 C152,295.002706 148.865993,291.8687 145,291.8687 L137.974401,291.8687 C135.94755,291.8687 133.979521,291.187439 132.386445,289.93435 C130.793368,288.681261 128.825339,288 126.798488,288 L122,288 C118.134007,288 115,291.134007 115,295 L115,309 C115,312.865993 118.134007,316 122,316 Z" id="Carpeta-Copy-29" fill="#191E28"></path>
            <path d="M180,316 L203,316 C206.865993,316 210,312.865993 210,309 L210,298.8687 C210,295.002706 206.865993,291.8687 203,291.8687 L195.974401,291.8687 C193.94755,291.8687 191.979521,291.187439 190.386445,289.93435 C188.793368,288.681261 186.825339,288 184.798488,288 L180,288 C176.134007,288 173,291.134007 173,295 L173,309 C173,312.865993 176.134007,316 180,316 Z" id="Carpeta-Copy-28" fill="#191E28"></path>
            <path d="M237,316 L260,316 C263.865993,316 267,312.865993 267,309 L267,298.8687 C267,295.002706 263.865993,291.8687 260,291.8687 L252.974401,291.8687 C250.94755,291.8687 248.979521,291.187439 247.386445,289.93435 C245.793368,288.681261 243.825339,288 241.798488,288 L237,288 C233.134007,288 230,291.134007 230,295 L230,309 C230,312.865993 233.134007,316 237,316 Z" id="Carpeta-Copy-27" fill="#191E28"></path>
            <path d="M7,363 L30,363 C33.3137085,363 36,360.313708 36,357 L36,346.8687 C36,343.554991 33.3137085,340.8687 30,340.8687 L22.9744011,340.8687 C20.7233016,340.8687 18.5375332,340.112065 16.7682003,338.720336 C15.3513794,337.605887 13.6010912,337 11.798488,337 L7,337 C3.6862915,337 1,339.686292 1,343 L1,357 C1,360.313708 3.6862915,363 7,363 Z" id="Carpeta-Copy-2" stroke="#191E28" stroke-width="2"></path>
            <path d="M65,363 L88,363 C91.3137085,363 94,360.313708 94,357 L94,346.8687 C94,343.554991 91.3137085,340.8687 88,340.8687 L80.9744011,340.8687 C78.7233016,340.8687 76.5375332,340.112065 74.7682003,338.720336 C73.3513794,337.605887 71.6010912,337 69.798488,337 L65,337 C61.6862915,337 59,339.686292 59,343 L59,357 C59,360.313708 61.6862915,363 65,363 Z" id="Carpeta-Copy-3" stroke="#191E28" stroke-width="2"></path>
            <path d="M122,363 L145,363 C148.313708,363 151,360.313708 151,357 L151,346.8687 C151,343.554991 148.313708,340.8687 145,340.8687 L137.974401,340.8687 C135.723302,340.8687 133.537533,340.112065 131.7682,338.720336 C130.351379,337.605887 128.601091,337 126.798488,337 L122,337 C118.686292,337 116,339.686292 116,343 L116,357 C116,360.313708 118.686292,363 122,363 Z" id="Carpeta-Copy-4" stroke="#191E28" stroke-width="2"></path>
            <path d="M180,364 L203,364 C206.865993,364 210,360.865993 210,357 L210,346.8687 C210,343.002706 206.865993,339.8687 203,339.8687 L195.974401,339.8687 C193.94755,339.8687 191.979521,339.187439 190.386445,337.93435 C188.793368,336.681261 186.825339,336 184.798488,336 L180,336 C176.134007,336 173,339.134007 173,343 L173,357 C173,360.865993 176.134007,364 180,364 Z" id="Carpeta-Copy-5" fill="#191E28"></path>
            <path d="M237,363 L260,363 C263.313708,363 266,360.313708 266,357 L266,346.8687 C266,343.554991 263.313708,340.8687 260,340.8687 L252.974401,340.8687 C250.723302,340.8687 248.537533,340.112065 246.7682,338.720336 C245.351379,337.605887 243.601091,337 241.798488,337 L237,337 C233.686292,337 231,339.686292 231,343 L231,357 C231,360.313708 233.686292,363 237,363 Z" id="Carpeta-Copy-6" stroke="#191E28" stroke-width="2"></path>
            <path d="M7,411 L30,411 C33.3137085,411 36,408.313708 36,405 L36,394.8687 C36,391.554991 33.3137085,388.8687 30,388.8687 L22.9744011,388.8687 C20.7233016,388.8687 18.5375332,388.112065 16.7682003,386.720336 C15.3513794,385.605887 13.6010912,385 11.798488,385 L7,385 C3.6862915,385 1,387.686292 1,391 L1,405 C1,408.313708 3.6862915,411 7,411 Z" id="Carpeta-Copy-2" stroke="#191E28" stroke-width="2"></path>
            <path d="M7,460 L30,460 C33.8659932,460 37,456.865993 37,453 L37,442.8687 C37,439.002706 33.8659932,435.8687 30,435.8687 L22.9744011,435.8687 C20.9475497,435.8687 18.9795215,435.187439 17.3864446,433.93435 C15.7933676,432.681261 13.8253394,432 11.798488,432 L7,432 C3.13400675,432 -4.73447626e-16,435.134007 0,439 L0,453 C4.73447626e-16,456.865993 3.13400675,460 7,460 Z" id="Carpeta-Copy-7" fill="#191E28"></path>
            <path d="M7,507 L30,507 C33.3137085,507 36,504.313708 36,501 L36,490.8687 C36,487.554991 33.3137085,484.8687 30,484.8687 L22.9744011,484.8687 C20.7233016,484.8687 18.5375332,484.112065 16.7682003,482.720336 C15.3513794,481.605887 13.6010912,481 11.798488,481 L7,481 C3.6862915,481 1,483.686292 1,487 L1,501 C1,504.313708 3.6862915,507 7,507 Z" id="Carpeta-Copy-12" stroke="#191E28" stroke-width="2"></path>
            <path d="M7,699 L30,699 C33.3137085,699 36,696.313708 36,693 L36,682.8687 C36,679.554991 33.3137085,676.8687 30,676.8687 L22.9744011,676.8687 C20.7233016,676.8687 18.5375332,676.112065 16.7682003,674.720336 C15.3513794,673.605887 13.6010912,673 11.798488,673 L7,673 C3.6862915,673 1,675.686292 1,679 L1,693 C1,696.313708 3.6862915,699 7,699 Z" id="Carpeta-Copy-32" stroke="#191E28" stroke-width="2"></path>
            <path d="M65,412 L88,412 C91.8659932,412 95,408.865993 95,405 L95,394.8687 C95,391.002706 91.8659932,387.8687 88,387.8687 L80.9744011,387.8687 C78.9475497,387.8687 76.9795215,387.187439 75.3864446,385.93435 C73.7933676,384.681261 71.8253394,384 69.798488,384 L65,384 C61.1340068,384 58,387.134007 58,391 L58,405 C58,408.865993 61.1340068,412 65,412 Z" id="Carpeta-Copy-3" fill="#191E28"></path>
            <path d="M65,460 L88,460 C91.8659932,460 95,456.865993 95,453 L95,442.8687 C95,439.002706 91.8659932,435.8687 88,435.8687 L80.9744011,435.8687 C78.9475497,435.8687 76.9795215,435.187439 75.3864446,433.93435 C73.7933676,432.681261 71.8253394,432 69.798488,432 L65,432 C61.1340068,432 58,435.134007 58,439 L58,453 C58,456.865993 61.1340068,460 65,460 Z" id="Carpeta-Copy-8" fill="#191E28"></path>
            <path d="M65,508 L88,508 C91.8659932,508 95,504.865993 95,501 L95,490.8687 C95,487.002706 91.8659932,483.8687 88,483.8687 L80.9744011,483.8687 C78.9475497,483.8687 76.9795215,483.187439 75.3864446,481.93435 C73.7933676,480.681261 71.8253394,480 69.798488,480 L65,480 C61.1340068,480 58,483.134007 58,487 L58,501 C58,504.865993 61.1340068,508 65,508 Z" id="Carpeta-Copy-13" fill="#191E28"></path>
            <path d="M65,700 L88,700 C91.8659932,700 95,696.865993 95,693 L95,682.8687 C95,679.002706 91.8659932,675.8687 88,675.8687 L80.9744011,675.8687 C78.9475497,675.8687 76.9795215,675.187439 75.3864446,673.93435 C73.7933676,672.681261 71.8253394,672 69.798488,672 L65,672 C61.1340068,672 58,675.134007 58,679 L58,693 C58,696.865993 61.1340068,700 65,700 Z" id="Carpeta-Copy-33" fill="#191E28"></path>
            <path d="M122,411 L145,411 C148.313708,411 151,408.313708 151,405 L151,394.8687 C151,391.554991 148.313708,388.8687 145,388.8687 L137.974401,388.8687 C135.723302,388.8687 133.537533,388.112065 131.7682,386.720336 C130.351379,385.605887 128.601091,385 126.798488,385 L122,385 C118.686292,385 116,387.686292 116,391 L116,405 C116,408.313708 118.686292,411 122,411 Z" id="Carpeta-Copy-4" stroke="#191E28" stroke-width="2"></path>
            <path d="M122,460 L145,460 C148.865993,460 152,456.865993 152,453 L152,442.8687 C152,439.002706 148.865993,435.8687 145,435.8687 L137.974401,435.8687 C135.94755,435.8687 133.979521,435.187439 132.386445,433.93435 C130.793368,432.681261 128.825339,432 126.798488,432 L122,432 C118.134007,432 115,435.134007 115,439 L115,453 C115,456.865993 118.134007,460 122,460 Z" id="Carpeta-Copy-9" fill="#191E28"></path>
            <path d="M122,508 L145,508 C148.865993,508 152,504.865993 152,501 L152,490.8687 C152,487.002706 148.865993,483.8687 145,483.8687 L137.974401,483.8687 C135.94755,483.8687 133.979521,483.187439 132.386445,481.93435 C130.793368,480.681261 128.825339,480 126.798488,480 L122,480 C118.134007,480 115,483.134007 115,487 L115,501 C115,504.865993 118.134007,508 122,508 Z" id="Carpeta-Copy-14" fill="#99FF99"></path>
            <path d="M122,700 L145,700 C148.865993,700 152,696.865993 152,693 L152,682.8687 C152,679.002706 148.865993,675.8687 145,675.8687 L137.974401,675.8687 C135.94755,675.8687 133.979521,675.187439 132.386445,673.93435 C130.793368,672.681261 128.825339,672 126.798488,672 L122,672 C118.134007,672 115,675.134007 115,679 L115,693 C115,696.865993 118.134007,700 122,700 Z" id="Carpeta-Copy-34" fill="#99FF99"></path>
            <path d="M180,411 L203,411 C206.313708,411 209,408.313708 209,405 L209,394.8687 C209,391.554991 206.313708,388.8687 203,388.8687 L195.974401,388.8687 C193.723302,388.8687 191.537533,388.112065 189.7682,386.720336 C188.351379,385.605887 186.601091,385 184.798488,385 L180,385 C176.686292,385 174,387.686292 174,391 L174,405 C174,408.313708 176.686292,411 180,411 Z" id="Carpeta-Copy-5" stroke="#191E28" stroke-width="2"></path>
            <path d="M180,460 L203,460 C206.865993,460 210,456.865993 210,453 L210,442.8687 C210,439.002706 206.865993,435.8687 203,435.8687 L195.974401,435.8687 C193.94755,435.8687 191.979521,435.187439 190.386445,433.93435 C188.793368,432.681261 186.825339,432 184.798488,432 L180,432 C176.134007,432 173,435.134007 173,439 L173,453 C173,456.865993 176.134007,460 180,460 Z" id="Carpeta-Copy-10" fill="#191E28"></path>
            <path d="M180,507 L203,507 C206.313708,507 209,504.313708 209,501 L209,490.8687 C209,487.554991 206.313708,484.8687 203,484.8687 L195.974401,484.8687 C193.723302,484.8687 191.537533,484.112065 189.7682,482.720336 C188.351379,481.605887 186.601091,481 184.798488,481 L180,481 C176.686292,481 174,483.686292 174,487 L174,501 C174,504.313708 176.686292,507 180,507 Z" id="Carpeta-Copy-15" stroke="#191E28" stroke-width="2"></path>
            <path d="M180,699 L203,699 C206.313708,699 209,696.313708 209,693 L209,682.8687 C209,679.554991 206.313708,676.8687 203,676.8687 L195.974401,676.8687 C193.723302,676.8687 191.537533,676.112065 189.7682,674.720336 C188.351379,673.605887 186.601091,673 184.798488,673 L180,673 C176.686292,673 174,675.686292 174,679 L174,693 C174,696.313708 176.686292,699 180,699 Z" id="Carpeta-Copy-35" stroke="#191E28" stroke-width="2"></path>
            <path d="M237,412 L260,412 C263.865993,412 267,408.865993 267,405 L267,394.8687 C267,391.002706 263.865993,387.8687 260,387.8687 L252.974401,387.8687 C250.94755,387.8687 248.979521,387.187439 247.386445,385.93435 C245.793368,384.681261 243.825339,384 241.798488,384 L237,384 C233.134007,384 230,387.134007 230,391 L230,405 C230,408.865993 233.134007,412 237,412 Z" id="Carpeta-Copy-6" fill="#191E28"></path>
            <path d="M237,460 L260,460 C263.865993,460 267,456.865993 267,453 L267,442.8687 C267,439.002706 263.865993,435.8687 260,435.8687 L252.974401,435.8687 C250.94755,435.8687 248.979521,435.187439 247.386445,433.93435 C245.793368,432.681261 243.825339,432 241.798488,432 L237,432 C233.134007,432 230,435.134007 230,439 L230,453 C230,456.865993 233.134007,460 237,460 Z" id="Carpeta-Copy-11" fill="#191E28"></path>
            <path d="M237,507 L260,507 C263.313708,507 266,504.313708 266,501 L266,490.8687 C266,487.554991 263.313708,484.8687 260,484.8687 L252.974401,484.8687 C250.723302,484.8687 248.537533,484.112065 246.7682,482.720336 C245.351379,481.605887 243.601091,481 241.798488,481 L237,481 C233.686292,481 231,483.686292 231,487 L231,501 C231,504.313708 233.686292,507 237,507 Z" id="Carpeta-Copy-16" stroke="#191E28" stroke-width="2"></path>
            <path d="M237,699 L260,699 C263.313708,699 266,696.313708 266,693 L266,682.8687 C266,679.554991 263.313708,676.8687 260,676.8687 L252.974401,676.8687 C250.723302,676.8687 248.537533,676.112065 246.7682,674.720336 C245.351379,673.605887 243.601091,673 241.798488,673 L237,673 C233.686292,673 231,675.686292 231,679 L231,693 C231,696.313708 233.686292,699 237,699 Z" id="Carpeta-Copy-36" stroke="#191E28" stroke-width="2"></path>
            <path d="M7,556 L30,556 C33.8659932,556 37,552.865993 37,549 L37,538.8687 C37,535.002706 33.8659932,531.8687 30,531.8687 L22.9744011,531.8687 C20.9475497,531.8687 18.9795215,531.187439 17.3864446,529.93435 C15.7933676,528.681261 13.8253394,528 11.798488,528 L7,528 C3.13400675,528 -4.73447626e-16,531.134007 0,535 L0,549 C4.73447626e-16,552.865993 3.13400675,556 7,556 Z" id="Carpeta-Copy-21" fill="#191E28"></path>
            <path d="M65,555 L88,555 C91.3137085,555 94,552.313708 94,549 L94,538.8687 C94,535.554991 91.3137085,532.8687 88,532.8687 L80.9744011,532.8687 C78.7233016,532.8687 76.5375332,532.112065 74.7682003,530.720336 C73.3513794,529.605887 71.6010912,529 69.798488,529 L65,529 C61.6862915,529 59,531.686292 59,535 L59,549 C59,552.313708 61.6862915,555 65,555 Z" id="Carpeta-Copy-20" stroke="#191E28" stroke-width="2"></path>
            <path d="M122,556 L145,556 C148.865993,556 152,552.865993 152,549 L152,538.8687 C152,535.002706 148.865993,531.8687 145,531.8687 L137.974401,531.8687 C135.94755,531.8687 133.979521,531.187439 132.386445,529.93435 C130.793368,528.681261 128.825339,528 126.798488,528 L122,528 C118.134007,528 115,531.134007 115,535 L115,549 C115,552.865993 118.134007,556 122,556 Z" id="Carpeta-Copy-19" fill="#191E28"></path>
            <path d="M180,556 L203,556 C206.865993,556 210,552.865993 210,549 L210,538.8687 C210,535.002706 206.865993,531.8687 203,531.8687 L195.974401,531.8687 C193.94755,531.8687 191.979521,531.187439 190.386445,529.93435 C188.793368,528.681261 186.825339,528 184.798488,528 L180,528 C176.134007,528 173,531.134007 173,535 L173,549 C173,552.865993 176.134007,556 180,556 Z" id="Carpeta-Copy-18" fill="#191E28"></path>
            <path d="M237,556 L260,556 C263.865993,556 267,552.865993 267,549 L267,538.8687 C267,535.002706 263.865993,531.8687 260,531.8687 L252.974401,531.8687 C250.94755,531.8687 248.979521,531.187439 247.386445,529.93435 C245.793368,528.681261 243.825339,528 241.798488,528 L237,528 C233.134007,528 230,531.134007 230,535 L230,549 C230,552.865993 233.134007,556 237,556 Z" id="Carpeta-Copy-17" fill="#191E28"></path>
            <path d="M7,604 L30,604 C33.8659932,604 37,600.865993 37,597 L37,586.8687 C37,583.002706 33.8659932,579.8687 30,579.8687 L22.9744011,579.8687 C20.9475497,579.8687 18.9795215,579.187439 17.3864446,577.93435 C15.7933676,576.681261 13.8253394,576 11.798488,576 L7,576 C3.13400675,576 -4.73447626e-16,579.134007 0,583 L0,597 C4.73447626e-16,600.865993 3.13400675,604 7,604 Z" id="Carpeta-Copy-26" fill="#191E28"></path>
            <path d="M65,604 L88,604 C91.8659932,604 95,600.865993 95,597 L95,586.8687 C95,583.002706 91.8659932,579.8687 88,579.8687 L80.9744011,579.8687 C78.9475497,579.8687 76.9795215,579.187439 75.3864446,577.93435 C73.7933676,576.681261 71.8253394,576 69.798488,576 L65,576 C61.1340068,576 58,579.134007 58,583 L58,597 C58,600.865993 61.1340068,604 65,604 Z" id="Carpeta-Copy-25" fill="#191E28"></path>
            <path d="M122,603 L145,603 C148.313708,603 151,600.313708 151,597 L151,586.8687 C151,583.554991 148.313708,580.8687 145,580.8687 L137.974401,580.8687 C135.723302,580.8687 133.537533,580.112065 131.7682,578.720336 C130.351379,577.605887 128.601091,577 126.798488,577 L122,577 C118.686292,577 116,579.686292 116,583 L116,597 C116,600.313708 118.686292,603 122,603 Z" id="Carpeta-Copy-24" stroke="#191E28" stroke-width="2"></path>
            <path d="M180,604 L203,604 C206.865993,604 210,600.865993 210,597 L210,586.8687 C210,583.002706 206.865993,579.8687 203,579.8687 L195.974401,579.8687 C193.94755,579.8687 191.979521,579.187439 190.386445,577.93435 C188.793368,576.681261 186.825339,576 184.798488,576 L180,576 C176.134007,576 173,579.134007 173,583 L173,597 C173,600.865993 176.134007,604 180,604 Z" id="Carpeta-Copy-23" fill="#191E28"></path>
            <path d="M237,603 L260,603 C263.313708,603 266,600.313708 266,597 L266,586.8687 C266,583.554991 263.313708,580.8687 260,580.8687 L252.974401,580.8687 C250.723302,580.8687 248.537533,580.112065 246.7682,578.720336 C245.351379,577.605887 243.601091,577 241.798488,577 L237,577 C233.686292,577 231,579.686292 231,583 L231,597 C231,600.313708 233.686292,603 237,603 Z" id="Carpeta-Copy-22" stroke="#191E28" stroke-width="2"></path>
            <path d="M7,652 L30,652 C33.8659932,652 37,648.865993 37,645 L37,634.8687 C37,631.002706 33.8659932,627.8687 30,627.8687 L22.9744011,627.8687 C20.9475497,627.8687 18.9795215,627.187439 17.3864446,625.93435 C15.7933676,624.681261 13.8253394,624 11.798488,624 L7,624 C3.13400675,624 -4.73447626e-16,627.134007 0,631 L0,645 C4.73447626e-16,648.865993 3.13400675,652 7,652 Z" id="Carpeta-Copy-31" fill="#191E28"></path>
            <path d="M65,651 L88,651 C91.3137085,651 94,648.313708 94,645 L94,634.8687 C94,631.554991 91.3137085,628.8687 88,628.8687 L80.9744011,628.8687 C78.7233016,628.8687 76.5375332,628.112065 74.7682003,626.720336 C73.3513794,625.605887 71.6010912,625 69.798488,625 L65,625 C61.6862915,625 59,627.686292 59,631 L59,645 C59,648.313708 61.6862915,651 65,651 Z" id="Carpeta-Copy-30" stroke="#191E28" stroke-width="2"></path>
            <path d="M122,652 L145,652 C148.865993,652 152,648.865993 152,645 L152,634.8687 C152,631.002706 148.865993,627.8687 145,627.8687 L137.974401,627.8687 C135.94755,627.8687 133.979521,627.187439 132.386445,625.93435 C130.793368,624.681261 128.825339,624 126.798488,624 L122,624 C118.134007,624 115,627.134007 115,631 L115,645 C115,648.865993 118.134007,652 122,652 Z" id="Carpeta-Copy-29" fill="#191E28"></path>
            <path d="M180,652 L203,652 C206.865993,652 210,648.865993 210,645 L210,634.8687 C210,631.002706 206.865993,627.8687 203,627.8687 L195.974401,627.8687 C193.94755,627.8687 191.979521,627.187439 190.386445,625.93435 C188.793368,624.681261 186.825339,624 184.798488,624 L180,624 C176.134007,624 173,627.134007 173,631 L173,645 C173,648.865993 176.134007,652 180,652 Z" id="Carpeta-Copy-28" fill="#191E28"></path>
            <path d="M237,652 L260,652 C263.865993,652 267,648.865993 267,645 L267,634.8687 C267,631.002706 263.865993,627.8687 260,627.8687 L252.974401,627.8687 C250.94755,627.8687 248.979521,627.187439 247.386445,625.93435 C245.793368,624.681261 243.825339,624 241.798488,624 L237,624 C233.134007,624 230,627.134007 230,631 L230,645 C230,648.865993 233.134007,652 237,652 Z" id="Carpeta-Copy-27" fill="#191E28"></path>
            <path d="M294,27 L317,27 C320.313708,27 323,24.3137085 323,21 L323,10.8686996 C323,7.5549911 320.313708,4.8686996 317,4.8686996 L309.974401,4.8686996 C307.723302,4.8686996 305.537533,4.11206511 303.7682,2.72033586 C302.351379,1.6058869 300.601091,1 298.798488,1 L294,1 C290.686292,1 288,3.6862915 288,7 L288,21 C288,24.3137085 290.686292,27 294,27 Z" id="Carpeta-Copy-2" stroke="#191E28" stroke-width="2"></path>
            <path d="M352,27 L375,27 C378.313708,27 381,24.3137085 381,21 L381,10.8686996 C381,7.5549911 378.313708,4.8686996 375,4.8686996 L367.974401,4.8686996 C365.723302,4.8686996 363.537533,4.11206511 361.7682,2.72033586 C360.351379,1.6058869 358.601091,1 356.798488,1 L352,1 C348.686292,1 346,3.6862915 346,7 L346,21 C346,24.3137085 348.686292,27 352,27 Z" id="Carpeta-Copy-3" stroke="#191E28" stroke-width="2"></path>
            <path d="M409,27 L432,27 C435.313708,27 438,24.3137085 438,21 L438,10.8686996 C438,7.5549911 435.313708,4.8686996 432,4.8686996 L424.974401,4.8686996 C422.723302,4.8686996 420.537533,4.11206511 418.7682,2.72033586 C417.351379,1.6058869 415.601091,1 413.798488,1 L409,1 C405.686292,1 403,3.6862915 403,7 L403,21 C403,24.3137085 405.686292,27 409,27 Z" id="Carpeta-Copy-4" stroke="#191E28" stroke-width="2"></path>
            <path d="M467,28 L490,28 C493.865993,28 497,24.8659932 497,21 L497,10.8686996 C497,7.00270635 493.865993,3.8686996 490,3.8686996 L482.974401,3.8686996 C480.94755,3.8686996 478.979521,3.18743891 477.386445,1.9343498 C475.793368,0.68126069 473.825339,-2.14868339e-15 471.798488,0 L467,0 C463.134007,7.10171439e-16 460,3.13400675 460,7 L460,21 C460,24.8659932 463.134007,28 467,28 Z" id="Carpeta-Copy-5" fill="#191E28"></path>
            <path d="M524,27 L547,27 C550.313708,27 553,24.3137085 553,21 L553,10.8686996 C553,7.5549911 550.313708,4.8686996 547,4.8686996 L539.974401,4.8686996 C537.723302,4.8686996 535.537533,4.11206511 533.7682,2.72033586 C532.351379,1.6058869 530.601091,1 528.798488,1 L524,1 C520.686292,1 518,3.6862915 518,7 L518,21 C518,24.3137085 520.686292,27 524,27 Z" id="Carpeta-Copy-6" stroke="#191E28" stroke-width="2"></path>
            <path d="M294,75 L317,75 C320.313708,75 323,72.3137085 323,69 L323,58.8686996 C323,55.5549911 320.313708,52.8686996 317,52.8686996 L309.974401,52.8686996 C307.723302,52.8686996 305.537533,52.1120651 303.7682,50.7203359 C302.351379,49.6058869 300.601091,49 298.798488,49 L294,49 C290.686292,49 288,51.6862915 288,55 L288,69 C288,72.3137085 290.686292,75 294,75 Z" id="Carpeta-Copy-2" stroke="#191E28" stroke-width="2"></path>
            <path d="M294,124 L317,124 C320.865993,124 324,120.865993 324,117 L324,106.8687 C324,103.002706 320.865993,99.8686996 317,99.8686996 L309.974401,99.8686996 C307.94755,99.8686996 305.979521,99.1874389 304.386445,97.9343498 C302.793368,96.6812607 300.825339,96 298.798488,96 L294,96 C290.134007,96 287,99.1340068 287,103 L287,117 C287,120.865993 290.134007,124 294,124 Z" id="Carpeta-Copy-7" fill="#191E28"></path>
            <path d="M294,171 L317,171 C320.313708,171 323,168.313708 323,165 L323,154.8687 C323,151.554991 320.313708,148.8687 317,148.8687 L309.974401,148.8687 C307.723302,148.8687 305.537533,148.112065 303.7682,146.720336 C302.351379,145.605887 300.601091,145 298.798488,145 L294,145 C290.686292,145 288,147.686292 288,151 L288,165 C288,168.313708 290.686292,171 294,171 Z" id="Carpeta-Copy-12" stroke="#191E28" stroke-width="2"></path>
            <path d="M352,76 L375,76 C378.865993,76 382,72.8659932 382,69 L382,58.8686996 C382,55.0027063 378.865993,51.8686996 375,51.8686996 L367.974401,51.8686996 C365.94755,51.8686996 363.979521,51.1874389 362.386445,49.9343498 C360.793368,48.6812607 358.825339,48 356.798488,48 L352,48 C348.134007,48 345,51.1340068 345,55 L345,69 C345,72.8659932 348.134007,76 352,76 Z" id="Carpeta-Copy-3" fill="#191E28"></path>
            <path d="M352,124 L375,124 C378.865993,124 382,120.865993 382,117 L382,106.8687 C382,103.002706 378.865993,99.8686996 375,99.8686996 L367.974401,99.8686996 C365.94755,99.8686996 363.979521,99.1874389 362.386445,97.9343498 C360.793368,96.6812607 358.825339,96 356.798488,96 L352,96 C348.134007,96 345,99.1340068 345,103 L345,117 C345,120.865993 348.134007,124 352,124 Z" id="Carpeta-Copy-8" fill="#191E28"></path>
            <path d="M352,172 L375,172 C378.865993,172 382,168.865993 382,165 L382,154.8687 C382,151.002706 378.865993,147.8687 375,147.8687 L367.974401,147.8687 C365.94755,147.8687 363.979521,147.187439 362.386445,145.93435 C360.793368,144.681261 358.825339,144 356.798488,144 L352,144 C348.134007,144 345,147.134007 345,151 L345,165 C345,168.865993 348.134007,172 352,172 Z" id="Carpeta-Copy-13" fill="#191E28"></path>
            <path d="M409,75 L432,75 C435.313708,75 438,72.3137085 438,69 L438,58.8686996 C438,55.5549911 435.313708,52.8686996 432,52.8686996 L424.974401,52.8686996 C422.723302,52.8686996 420.537533,52.1120651 418.7682,50.7203359 C417.351379,49.6058869 415.601091,49 413.798488,49 L409,49 C405.686292,49 403,51.6862915 403,55 L403,69 C403,72.3137085 405.686292,75 409,75 Z" id="Carpeta-Copy-4" stroke="#191E28" stroke-width="2"></path>
            <path d="M409,124 L432,124 C435.865993,124 439,120.865993 439,117 L439,106.8687 C439,103.002706 435.865993,99.8686996 432,99.8686996 L424.974401,99.8686996 C422.94755,99.8686996 420.979521,99.1874389 419.386445,97.9343498 C417.793368,96.6812607 415.825339,96 413.798488,96 L409,96 C405.134007,96 402,99.1340068 402,103 L402,117 C402,120.865993 405.134007,124 409,124 Z" id="Carpeta-Copy-9" fill="#99FF99"></path>
            <path d="M409,172 L432,172 C435.865993,172 439,168.865993 439,165 L439,154.8687 C439,151.002706 435.865993,147.8687 432,147.8687 L424.974401,147.8687 C422.94755,147.8687 420.979521,147.187439 419.386445,145.93435 C417.793368,144.681261 415.825339,144 413.798488,144 L409,144 C405.134007,144 402,147.134007 402,151 L402,165 C402,168.865993 405.134007,172 409,172 Z" id="Carpeta-Copy-14" fill="#191E28"></path>
            <path d="M467,75 L490,75 C493.313708,75 496,72.3137085 496,69 L496,58.8686996 C496,55.5549911 493.313708,52.8686996 490,52.8686996 L482.974401,52.8686996 C480.723302,52.8686996 478.537533,52.1120651 476.7682,50.7203359 C475.351379,49.6058869 473.601091,49 471.798488,49 L467,49 C463.686292,49 461,51.6862915 461,55 L461,69 C461,72.3137085 463.686292,75 467,75 Z" id="Carpeta-Copy-5" stroke="#191E28" stroke-width="2"></path>
            <path d="M467,124 L490,124 C493.865993,124 497,120.865993 497,117 L497,106.8687 C497,103.002706 493.865993,99.8686996 490,99.8686996 L482.974401,99.8686996 C480.94755,99.8686996 478.979521,99.1874389 477.386445,97.9343498 C475.793368,96.6812607 473.825339,96 471.798488,96 L467,96 C463.134007,96 460,99.1340068 460,103 L460,117 C460,120.865993 463.134007,124 467,124 Z" id="Carpeta-Copy-10" fill="#191E28"></path>
            <path d="M467,171 L490,171 C493.313708,171 496,168.313708 496,165 L496,154.8687 C496,151.554991 493.313708,148.8687 490,148.8687 L482.974401,148.8687 C480.723302,148.8687 478.537533,148.112065 476.7682,146.720336 C475.351379,145.605887 473.601091,145 471.798488,145 L467,145 C463.686292,145 461,147.686292 461,151 L461,165 C461,168.313708 463.686292,171 467,171 Z" id="Carpeta-Copy-15" stroke="#191E28" stroke-width="2"></path>
            <path d="M524,76 L547,76 C550.865993,76 554,72.8659932 554,69 L554,58.8686996 C554,55.0027063 550.865993,51.8686996 547,51.8686996 L539.974401,51.8686996 C537.94755,51.8686996 535.979521,51.1874389 534.386445,49.9343498 C532.793368,48.6812607 530.825339,48 528.798488,48 L524,48 C520.134007,48 517,51.1340068 517,55 L517,69 C517,72.8659932 520.134007,76 524,76 Z" id="Carpeta-Copy-6" fill="#191E28"></path>
            <path d="M524,124 L547,124 C550.865993,124 554,120.865993 554,117 L554,106.8687 C554,103.002706 550.865993,99.8686996 547,99.8686996 L539.974401,99.8686996 C537.94755,99.8686996 535.979521,99.1874389 534.386445,97.9343498 C532.793368,96.6812607 530.825339,96 528.798488,96 L524,96 C520.134007,96 517,99.1340068 517,103 L517,117 C517,120.865993 520.134007,124 524,124 Z" id="Carpeta-Copy-11" fill="#191E28"></path>
            <path d="M524,171 L547,171 C550.313708,171 553,168.313708 553,165 L553,154.8687 C553,151.554991 550.313708,148.8687 547,148.8687 L539.974401,148.8687 C537.723302,148.8687 535.537533,148.112065 533.7682,146.720336 C532.351379,145.605887 530.601091,145 528.798488,145 L524,145 C520.686292,145 518,147.686292 518,151 L518,165 C518,168.313708 520.686292,171 524,171 Z" id="Carpeta-Copy-16" stroke="#191E28" stroke-width="2"></path>
            <path d="M294,220 L317,220 C320.865993,220 324,216.865993 324,213 L324,202.8687 C324,199.002706 320.865993,195.8687 317,195.8687 L309.974401,195.8687 C307.94755,195.8687 305.979521,195.187439 304.386445,193.93435 C302.793368,192.681261 300.825339,192 298.798488,192 L294,192 C290.134007,192 287,195.134007 287,199 L287,213 C287,216.865993 290.134007,220 294,220 Z" id="Carpeta-Copy-21" fill="#191E28"></path>
            <path d="M352,219 L375,219 C378.313708,219 381,216.313708 381,213 L381,202.8687 C381,199.554991 378.313708,196.8687 375,196.8687 L367.974401,196.8687 C365.723302,196.8687 363.537533,196.112065 361.7682,194.720336 C360.351379,193.605887 358.601091,193 356.798488,193 L352,193 C348.686292,193 346,195.686292 346,199 L346,213 C346,216.313708 348.686292,219 352,219 Z" id="Carpeta-Copy-20" stroke="#191E28" stroke-width="2"></path>
            <path d="M409,220 L432,220 C435.865993,220 439,216.865993 439,213 L439,202.8687 C439,199.002706 435.865993,195.8687 432,195.8687 L424.974401,195.8687 C422.94755,195.8687 420.979521,195.187439 419.386445,193.93435 C417.793368,192.681261 415.825339,192 413.798488,192 L409,192 C405.134007,192 402,195.134007 402,199 L402,213 C402,216.865993 405.134007,220 409,220 Z" id="Carpeta-Copy-19" fill="#191E28"></path>
            <path d="M467,220 L490,220 C493.865993,220 497,216.865993 497,213 L497,202.8687 C497,199.002706 493.865993,195.8687 490,195.8687 L482.974401,195.8687 C480.94755,195.8687 478.979521,195.187439 477.386445,193.93435 C475.793368,192.681261 473.825339,192 471.798488,192 L467,192 C463.134007,192 460,195.134007 460,199 L460,213 C460,216.865993 463.134007,220 467,220 Z" id="Carpeta-Copy-18" fill="#191E28"></path>
            <path d="M524,220 L547,220 C550.865993,220 554,216.865993 554,213 L554,202.8687 C554,199.002706 550.865993,195.8687 547,195.8687 L539.974401,195.8687 C537.94755,195.8687 535.979521,195.187439 534.386445,193.93435 C532.793368,192.681261 530.825339,192 528.798488,192 L524,192 C520.134007,192 517,195.134007 517,199 L517,213 C517,216.865993 520.134007,220 524,220 Z" id="Carpeta-Copy-17" fill="#191E28"></path>
            <path d="M294,268 L317,268 C320.865993,268 324,264.865993 324,261 L324,250.8687 C324,247.002706 320.865993,243.8687 317,243.8687 L309.974401,243.8687 C307.94755,243.8687 305.979521,243.187439 304.386445,241.93435 C302.793368,240.681261 300.825339,240 298.798488,240 L294,240 C290.134007,240 287,243.134007 287,247 L287,261 C287,264.865993 290.134007,268 294,268 Z" id="Carpeta-Copy-26" fill="#191E28"></path>
            <path d="M352,268 L375,268 C378.865993,268 382,264.865993 382,261 L382,250.8687 C382,247.002706 378.865993,243.8687 375,243.8687 L367.974401,243.8687 C365.94755,243.8687 363.979521,243.187439 362.386445,241.93435 C360.793368,240.681261 358.825339,240 356.798488,240 L352,240 C348.134007,240 345,243.134007 345,247 L345,261 C345,264.865993 348.134007,268 352,268 Z" id="Carpeta-Copy-25" fill="#191E28"></path>
            <path d="M409,267 L432,267 C435.313708,267 438,264.313708 438,261 L438,250.8687 C438,247.554991 435.313708,244.8687 432,244.8687 L424.974401,244.8687 C422.723302,244.8687 420.537533,244.112065 418.7682,242.720336 C417.351379,241.605887 415.601091,241 413.798488,241 L409,241 C405.686292,241 403,243.686292 403,247 L403,261 C403,264.313708 405.686292,267 409,267 Z" id="Carpeta-Copy-24" stroke="#191E28" stroke-width="2"></path>
            <path d="M467,268 L490,268 C493.865993,268 497,264.865993 497,261 L497,250.8687 C497,247.002706 493.865993,243.8687 490,243.8687 L482.974401,243.8687 C480.94755,243.8687 478.979521,243.187439 477.386445,241.93435 C475.793368,240.681261 473.825339,240 471.798488,240 L467,240 C463.134007,240 460,243.134007 460,247 L460,261 C460,264.865993 463.134007,268 467,268 Z" id="Carpeta-Copy-23" fill="#191E28"></path>
            <path d="M524,267 L547,267 C550.313708,267 553,264.313708 553,261 L553,250.8687 C553,247.554991 550.313708,244.8687 547,244.8687 L539.974401,244.8687 C537.723302,244.8687 535.537533,244.112065 533.7682,242.720336 C532.351379,241.605887 530.601091,241 528.798488,241 L524,241 C520.686292,241 518,243.686292 518,247 L518,261 C518,264.313708 520.686292,267 524,267 Z" id="Carpeta-Copy-22" stroke="#191E28" stroke-width="2"></path>
            <path d="M294,316 L317,316 C320.865993,316 324,312.865993 324,309 L324,298.8687 C324,295.002706 320.865993,291.8687 317,291.8687 L309.974401,291.8687 C307.94755,291.8687 305.979521,291.187439 304.386445,289.93435 C302.793368,288.681261 300.825339,288 298.798488,288 L294,288 C290.134007,288 287,291.134007 287,295 L287,309 C287,312.865993 290.134007,316 294,316 Z" id="Carpeta-Copy-31" fill="#191E28"></path>
            <path d="M352,315 L375,315 C378.313708,315 381,312.313708 381,309 L381,298.8687 C381,295.554991 378.313708,292.8687 375,292.8687 L367.974401,292.8687 C365.723302,292.8687 363.537533,292.112065 361.7682,290.720336 C360.351379,289.605887 358.601091,289 356.798488,289 L352,289 C348.686292,289 346,291.686292 346,295 L346,309 C346,312.313708 348.686292,315 352,315 Z" id="Carpeta-Copy-30" stroke="#191E28" stroke-width="2"></path>
            <path d="M409,316 L432,316 C435.865993,316 439,312.865993 439,309 L439,298.8687 C439,295.002706 435.865993,291.8687 432,291.8687 L424.974401,291.8687 C422.94755,291.8687 420.979521,291.187439 419.386445,289.93435 C417.793368,288.681261 415.825339,288 413.798488,288 L409,288 C405.134007,288 402,291.134007 402,295 L402,309 C402,312.865993 405.134007,316 409,316 Z" id="Carpeta-Copy-29" fill="#191E28"></path>
            <path d="M467,316 L490,316 C493.865993,316 497,312.865993 497,309 L497,298.8687 C497,295.002706 493.865993,291.8687 490,291.8687 L482.974401,291.8687 C480.94755,291.8687 478.979521,291.187439 477.386445,289.93435 C475.793368,288.681261 473.825339,288 471.798488,288 L467,288 C463.134007,288 460,291.134007 460,295 L460,309 C460,312.865993 463.134007,316 467,316 Z" id="Carpeta-Copy-28" fill="#191E28"></path>
            <path d="M524,316 L547,316 C550.865993,316 554,312.865993 554,309 L554,298.8687 C554,295.002706 550.865993,291.8687 547,291.8687 L539.974401,291.8687 C537.94755,291.8687 535.979521,291.187439 534.386445,289.93435 C532.793368,288.681261 530.825339,288 528.798488,288 L524,288 C520.134007,288 517,291.134007 517,295 L517,309 C517,312.865993 520.134007,316 524,316 Z" id="Carpeta-Copy-27" fill="#191E28"></path>
            <path d="M294,363 L317,363 C320.313708,363 323,360.313708 323,357 L323,346.8687 C323,343.554991 320.313708,340.8687 317,340.8687 L309.974401,340.8687 C307.723302,340.8687 305.537533,340.112065 303.7682,338.720336 C302.351379,337.605887 300.601091,337 298.798488,337 L294,337 C290.686292,337 288,339.686292 288,343 L288,357 C288,360.313708 290.686292,363 294,363 Z" id="Carpeta-Copy-2" stroke="#191E28" stroke-width="2"></path>
            <path d="M352,363 L375,363 C378.313708,363 381,360.313708 381,357 L381,346.8687 C381,343.554991 378.313708,340.8687 375,340.8687 L367.974401,340.8687 C365.723302,340.8687 363.537533,340.112065 361.7682,338.720336 C360.351379,337.605887 358.601091,337 356.798488,337 L352,337 C348.686292,337 346,339.686292 346,343 L346,357 C346,360.313708 348.686292,363 352,363 Z" id="Carpeta-Copy-3" stroke="#191E28" stroke-width="2"></path>
            <path d="M409,363 L432,363 C435.313708,363 438,360.313708 438,357 L438,346.8687 C438,343.554991 435.313708,340.8687 432,340.8687 L424.974401,340.8687 C422.723302,340.8687 420.537533,340.112065 418.7682,338.720336 C417.351379,337.605887 415.601091,337 413.798488,337 L409,337 C405.686292,337 403,339.686292 403,343 L403,357 C403,360.313708 405.686292,363 409,363 Z" id="Carpeta-Copy-4" stroke="#191E28" stroke-width="2"></path>
            <path d="M467,364 L490,364 C493.865993,364 497,360.865993 497,357 L497,346.8687 C497,343.002706 493.865993,339.8687 490,339.8687 L482.974401,339.8687 C480.94755,339.8687 478.979521,339.187439 477.386445,337.93435 C475.793368,336.681261 473.825339,336 471.798488,336 L467,336 C463.134007,336 460,339.134007 460,343 L460,357 C460,360.865993 463.134007,364 467,364 Z" id="Carpeta-Copy-5" fill="#191E28"></path>
            <path d="M524,363 L547,363 C550.313708,363 553,360.313708 553,357 L553,346.8687 C553,343.554991 550.313708,340.8687 547,340.8687 L539.974401,340.8687 C537.723302,340.8687 535.537533,340.112065 533.7682,338.720336 C532.351379,337.605887 530.601091,337 528.798488,337 L524,337 C520.686292,337 518,339.686292 518,343 L518,357 C518,360.313708 520.686292,363 524,363 Z" id="Carpeta-Copy-6" stroke="#191E28" stroke-width="2"></path>
            <path d="M294,411 L317,411 C320.313708,411 323,408.313708 323,405 L323,394.8687 C323,391.554991 320.313708,388.8687 317,388.8687 L309.974401,388.8687 C307.723302,388.8687 305.537533,388.112065 303.7682,386.720336 C302.351379,385.605887 300.601091,385 298.798488,385 L294,385 C290.686292,385 288,387.686292 288,391 L288,405 C288,408.313708 290.686292,411 294,411 Z" id="Carpeta-Copy-2" stroke="#191E28" stroke-width="2"></path>
            <path d="M294,460 L317,460 C320.865993,460 324,456.865993 324,453 L324,442.8687 C324,439.002706 320.865993,435.8687 317,435.8687 L309.974401,435.8687 C307.94755,435.8687 305.979521,435.187439 304.386445,433.93435 C302.793368,432.681261 300.825339,432 298.798488,432 L294,432 C290.134007,432 287,435.134007 287,439 L287,453 C287,456.865993 290.134007,460 294,460 Z" id="Carpeta-Copy-7" fill="#191E28"></path>
            <path d="M294,507 L317,507 C320.313708,507 323,504.313708 323,501 L323,490.8687 C323,487.554991 320.313708,484.8687 317,484.8687 L309.974401,484.8687 C307.723302,484.8687 305.537533,484.112065 303.7682,482.720336 C302.351379,481.605887 300.601091,481 298.798488,481 L294,481 C290.686292,481 288,483.686292 288,487 L288,501 C288,504.313708 290.686292,507 294,507 Z" id="Carpeta-Copy-12" stroke="#191E28" stroke-width="2"></path>
            <path d="M294,699 L317,699 C320.313708,699 323,696.313708 323,693 L323,682.8687 C323,679.554991 320.313708,676.8687 317,676.8687 L309.974401,676.8687 C307.723302,676.8687 305.537533,676.112065 303.7682,674.720336 C302.351379,673.605887 300.601091,673 298.798488,673 L294,673 C290.686292,673 288,675.686292 288,679 L288,693 C288,696.313708 290.686292,699 294,699 Z" id="Carpeta-Copy-37" stroke="#191E28" stroke-width="2"></path>
            <path d="M352,412 L375,412 C378.865993,412 382,408.865993 382,405 L382,394.8687 C382,391.002706 378.865993,387.8687 375,387.8687 L367.974401,387.8687 C365.94755,387.8687 363.979521,387.187439 362.386445,385.93435 C360.793368,384.681261 358.825339,384 356.798488,384 L352,384 C348.134007,384 345,387.134007 345,391 L345,405 C345,408.865993 348.134007,412 352,412 Z" id="Carpeta-Copy-3" fill="#191E28"></path>
            <path d="M352,460 L375,460 C378.865993,460 382,456.865993 382,453 L382,442.8687 C382,439.002706 378.865993,435.8687 375,435.8687 L367.974401,435.8687 C365.94755,435.8687 363.979521,435.187439 362.386445,433.93435 C360.793368,432.681261 358.825339,432 356.798488,432 L352,432 C348.134007,432 345,435.134007 345,439 L345,453 C345,456.865993 348.134007,460 352,460 Z" id="Carpeta-Copy-8" fill="#191E28"></path>
            <path d="M352,508 L375,508 C378.865993,508 382,504.865993 382,501 L382,490.8687 C382,487.002706 378.865993,483.8687 375,483.8687 L367.974401,483.8687 C365.94755,483.8687 363.979521,483.187439 362.386445,481.93435 C360.793368,480.681261 358.825339,480 356.798488,480 L352,480 C348.134007,480 345,483.134007 345,487 L345,501 C345,504.865993 348.134007,508 352,508 Z" id="Carpeta-Copy-13" fill="#191E28"></path>
            <path d="M352,700 L375,700 C378.865993,700 382,696.865993 382,693 L382,682.8687 C382,679.002706 378.865993,675.8687 375,675.8687 L367.974401,675.8687 C365.94755,675.8687 363.979521,675.187439 362.386445,673.93435 C360.793368,672.681261 358.825339,672 356.798488,672 L352,672 C348.134007,672 345,675.134007 345,679 L345,693 C345,696.865993 348.134007,700 352,700 Z" id="Carpeta-Copy-38" fill="#191E28"></path>
            <path d="M409,411 L432,411 C435.313708,411 438,408.313708 438,405 L438,394.8687 C438,391.554991 435.313708,388.8687 432,388.8687 L424.974401,388.8687 C422.723302,388.8687 420.537533,388.112065 418.7682,386.720336 C417.351379,385.605887 415.601091,385 413.798488,385 L409,385 C405.686292,385 403,387.686292 403,391 L403,405 C403,408.313708 405.686292,411 409,411 Z" id="Carpeta-Copy-4" stroke="#191E28" stroke-width="2"></path>
            <path d="M409,460 L432,460 C435.865993,460 439,456.865993 439,453 L439,442.8687 C439,439.002706 435.865993,435.8687 432,435.8687 L424.974401,435.8687 C422.94755,435.8687 420.979521,435.187439 419.386445,433.93435 C417.793368,432.681261 415.825339,432 413.798488,432 L409,432 C405.134007,432 402,435.134007 402,439 L402,453 C402,456.865993 405.134007,460 409,460 Z" id="Carpeta-Copy-9" fill="#191E28"></path>
            <path d="M409,508 L432,508 C435.865993,508 439,504.865993 439,501 L439,490.8687 C439,487.002706 435.865993,483.8687 432,483.8687 L424.974401,483.8687 C422.94755,483.8687 420.979521,483.187439 419.386445,481.93435 C417.793368,480.681261 415.825339,480 413.798488,480 L409,480 C405.134007,480 402,483.134007 402,487 L402,501 C402,504.865993 405.134007,508 409,508 Z" id="Carpeta-Copy-14" fill="#191E28"></path>
            <path d="M409,700 L432,700 C435.865993,700 439,696.865993 439,693 L439,682.8687 C439,679.002706 435.865993,675.8687 432,675.8687 L424.974401,675.8687 C422.94755,675.8687 420.979521,675.187439 419.386445,673.93435 C417.793368,672.681261 415.825339,672 413.798488,672 L409,672 C405.134007,672 402,675.134007 402,679 L402,693 C402,696.865993 405.134007,700 409,700 Z" id="Carpeta-Copy-39" fill="#99FF99"></path>
            <path d="M467,412 L490,412 C493.865993,412 497,408.865993 497,405 L497,394.8687 C497,391.002706 493.865993,387.8687 490,387.8687 L482.974401,387.8687 C480.94755,387.8687 478.979521,387.187439 477.386445,385.93435 C475.793368,384.681261 473.825339,384 471.798488,384 L467,384 C463.134007,384 460,387.134007 460,391 L460,405 C460,408.865993 463.134007,412 467,412 Z" id="Carpeta-Copy-5" fill="#99FF99"></path>
            <path d="M467,460 L490,460 C493.865993,460 497,456.865993 497,453 L497,442.8687 C497,439.002706 493.865993,435.8687 490,435.8687 L482.974401,435.8687 C480.94755,435.8687 478.979521,435.187439 477.386445,433.93435 C475.793368,432.681261 473.825339,432 471.798488,432 L467,432 C463.134007,432 460,435.134007 460,439 L460,453 C460,456.865993 463.134007,460 467,460 Z" id="Carpeta-Copy-10" fill="#191E28"></path>
            <path d="M467,507 L490,507 C493.313708,507 496,504.313708 496,501 L496,490.8687 C496,487.554991 493.313708,484.8687 490,484.8687 L482.974401,484.8687 C480.723302,484.8687 478.537533,484.112065 476.7682,482.720336 C475.351379,481.605887 473.601091,481 471.798488,481 L467,481 C463.686292,481 461,483.686292 461,487 L461,501 C461,504.313708 463.686292,507 467,507 Z" id="Carpeta-Copy-15" stroke="#191E28" stroke-width="2"></path>
            <path d="M467,699 L490,699 C493.313708,699 496,696.313708 496,693 L496,682.8687 C496,679.554991 493.313708,676.8687 490,676.8687 L482.974401,676.8687 C480.723302,676.8687 478.537533,676.112065 476.7682,674.720336 C475.351379,673.605887 473.601091,673 471.798488,673 L467,673 C463.686292,673 461,675.686292 461,679 L461,693 C461,696.313708 463.686292,699 467,699 Z" id="Carpeta-Copy-40" stroke="#191E28" stroke-width="2"></path>
            <path d="M524,412 L547,412 C550.865993,412 554,408.865993 554,405 L554,394.8687 C554,391.002706 550.865993,387.8687 547,387.8687 L539.974401,387.8687 C537.94755,387.8687 535.979521,387.187439 534.386445,385.93435 C532.793368,384.681261 530.825339,384 528.798488,384 L524,384 C520.134007,384 517,387.134007 517,391 L517,405 C517,408.865993 520.134007,412 524,412 Z" id="Carpeta-Copy-6" fill="#191E28"></path>
            <path d="M524,460 L547,460 C550.865993,460 554,456.865993 554,453 L554,442.8687 C554,439.002706 550.865993,435.8687 547,435.8687 L539.974401,435.8687 C537.94755,435.8687 535.979521,435.187439 534.386445,433.93435 C532.793368,432.681261 530.825339,432 528.798488,432 L524,432 C520.134007,432 517,435.134007 517,439 L517,453 C517,456.865993 520.134007,460 524,460 Z" id="Carpeta-Copy-11" fill="#191E28"></path>
            <path d="M524,507 L547,507 C550.313708,507 553,504.313708 553,501 L553,490.8687 C553,487.554991 550.313708,484.8687 547,484.8687 L539.974401,484.8687 C537.723302,484.8687 535.537533,484.112065 533.7682,482.720336 C532.351379,481.605887 530.601091,481 528.798488,481 L524,481 C520.686292,481 518,483.686292 518,487 L518,501 C518,504.313708 520.686292,507 524,507 Z" id="Carpeta-Copy-16" stroke="#191E28" stroke-width="2"></path>
            <path d="M524,699 L547,699 C550.313708,699 553,696.313708 553,693 L553,682.8687 C553,679.554991 550.313708,676.8687 547,676.8687 L539.974401,676.8687 C537.723302,676.8687 535.537533,676.112065 533.7682,674.720336 C532.351379,673.605887 530.601091,673 528.798488,673 L524,673 C520.686292,673 518,675.686292 518,679 L518,693 C518,696.313708 520.686292,699 524,699 Z" id="Carpeta-Copy-41" stroke="#191E28" stroke-width="2"></path>
            <path d="M294,556 L317,556 C320.865993,556 324,552.865993 324,549 L324,538.8687 C324,535.002706 320.865993,531.8687 317,531.8687 L309.974401,531.8687 C307.94755,531.8687 305.979521,531.187439 304.386445,529.93435 C302.793368,528.681261 300.825339,528 298.798488,528 L294,528 C290.134007,528 287,531.134007 287,535 L287,549 C287,552.865993 290.134007,556 294,556 Z" id="Carpeta-Copy-21" fill="#191E28"></path>
            <path d="M352,555 L375,555 C378.313708,555 381,552.313708 381,549 L381,538.8687 C381,535.554991 378.313708,532.8687 375,532.8687 L367.974401,532.8687 C365.723302,532.8687 363.537533,532.112065 361.7682,530.720336 C360.351379,529.605887 358.601091,529 356.798488,529 L352,529 C348.686292,529 346,531.686292 346,535 L346,549 C346,552.313708 348.686292,555 352,555 Z" id="Carpeta-Copy-20" stroke="#191E28" stroke-width="2"></path>
            <path d="M409,556 L432,556 C435.865993,556 439,552.865993 439,549 L439,538.8687 C439,535.002706 435.865993,531.8687 432,531.8687 L424.974401,531.8687 C422.94755,531.8687 420.979521,531.187439 419.386445,529.93435 C417.793368,528.681261 415.825339,528 413.798488,528 L409,528 C405.134007,528 402,531.134007 402,535 L402,549 C402,552.865993 405.134007,556 409,556 Z" id="Carpeta-Copy-19" fill="#191E28"></path>
            <path d="M467,556 L490,556 C493.865993,556 497,552.865993 497,549 L497,538.8687 C497,535.002706 493.865993,531.8687 490,531.8687 L482.974401,531.8687 C480.94755,531.8687 478.979521,531.187439 477.386445,529.93435 C475.793368,528.681261 473.825339,528 471.798488,528 L467,528 C463.134007,528 460,531.134007 460,535 L460,549 C460,552.865993 463.134007,556 467,556 Z" id="Carpeta-Copy-18" fill="#99FF99"></path>
            <path d="M524,556 L547,556 C550.865993,556 554,552.865993 554,549 L554,538.8687 C554,535.002706 550.865993,531.8687 547,531.8687 L539.974401,531.8687 C537.94755,531.8687 535.979521,531.187439 534.386445,529.93435 C532.793368,528.681261 530.825339,528 528.798488,528 L524,528 C520.134007,528 517,531.134007 517,535 L517,549 C517,552.865993 520.134007,556 524,556 Z" id="Carpeta-Copy-17" fill="#191E28"></path>
            <path d="M294,604 L317,604 C320.865993,604 324,600.865993 324,597 L324,586.8687 C324,583.002706 320.865993,579.8687 317,579.8687 L309.974401,579.8687 C307.94755,579.8687 305.979521,579.187439 304.386445,577.93435 C302.793368,576.681261 300.825339,576 298.798488,576 L294,576 C290.134007,576 287,579.134007 287,583 L287,597 C287,600.865993 290.134007,604 294,604 Z" id="Carpeta-Copy-26" fill="#191E28"></path>
            <path d="M352,604 L375,604 C378.865993,604 382,600.865993 382,597 L382,586.8687 C382,583.002706 378.865993,579.8687 375,579.8687 L367.974401,579.8687 C365.94755,579.8687 363.979521,579.187439 362.386445,577.93435 C360.793368,576.681261 358.825339,576 356.798488,576 L352,576 C348.134007,576 345,579.134007 345,583 L345,597 C345,600.865993 348.134007,604 352,604 Z" id="Carpeta-Copy-25" fill="#191E28"></path>
            <path d="M409,603 L432,603 C435.313708,603 438,600.313708 438,597 L438,586.8687 C438,583.554991 435.313708,580.8687 432,580.8687 L424.974401,580.8687 C422.723302,580.8687 420.537533,580.112065 418.7682,578.720336 C417.351379,577.605887 415.601091,577 413.798488,577 L409,577 C405.686292,577 403,579.686292 403,583 L403,597 C403,600.313708 405.686292,603 409,603 Z" id="Carpeta-Copy-24" stroke="#191E28" stroke-width="2"></path>
            <path d="M467,604 L490,604 C493.865993,604 497,600.865993 497,597 L497,586.8687 C497,583.002706 493.865993,579.8687 490,579.8687 L482.974401,579.8687 C480.94755,579.8687 478.979521,579.187439 477.386445,577.93435 C475.793368,576.681261 473.825339,576 471.798488,576 L467,576 C463.134007,576 460,579.134007 460,583 L460,597 C460,600.865993 463.134007,604 467,604 Z" id="Carpeta-Copy-23" fill="#191E28"></path>
            <path d="M524,603 L547,603 C550.313708,603 553,600.313708 553,597 L553,586.8687 C553,583.554991 550.313708,580.8687 547,580.8687 L539.974401,580.8687 C537.723302,580.8687 535.537533,580.112065 533.7682,578.720336 C532.351379,577.605887 530.601091,577 528.798488,577 L524,577 C520.686292,577 518,579.686292 518,583 L518,597 C518,600.313708 520.686292,603 524,603 Z" id="Carpeta-Copy-22" stroke="#191E28" stroke-width="2"></path>
            <path d="M294,652 L317,652 C320.865993,652 324,648.865993 324,645 L324,634.8687 C324,631.002706 320.865993,627.8687 317,627.8687 L309.974401,627.8687 C307.94755,627.8687 305.979521,627.187439 304.386445,625.93435 C302.793368,624.681261 300.825339,624 298.798488,624 L294,624 C290.134007,624 287,627.134007 287,631 L287,645 C287,648.865993 290.134007,652 294,652 Z" id="Carpeta-Copy-31" fill="#191E28"></path>
            <path d="M352,651 L375,651 C378.313708,651 381,648.313708 381,645 L381,634.8687 C381,631.554991 378.313708,628.8687 375,628.8687 L367.974401,628.8687 C365.723302,628.8687 363.537533,628.112065 361.7682,626.720336 C360.351379,625.605887 358.601091,625 356.798488,625 L352,625 C348.686292,625 346,627.686292 346,631 L346,645 C346,648.313708 348.686292,651 352,651 Z" id="Carpeta-Copy-30" stroke="#191E28" stroke-width="2"></path>
            <path d="M409,652 L432,652 C435.865993,652 439,648.865993 439,645 L439,634.8687 C439,631.002706 435.865993,627.8687 432,627.8687 L424.974401,627.8687 C422.94755,627.8687 420.979521,627.187439 419.386445,625.93435 C417.793368,624.681261 415.825339,624 413.798488,624 L409,624 C405.134007,624 402,627.134007 402,631 L402,645 C402,648.865993 405.134007,652 409,652 Z" id="Carpeta-Copy-29" fill="#191E28"></path>
            <path d="M467,652 L490,652 C493.865993,652 497,648.865993 497,645 L497,634.8687 C497,631.002706 493.865993,627.8687 490,627.8687 L482.974401,627.8687 C480.94755,627.8687 478.979521,627.187439 477.386445,625.93435 C475.793368,624.681261 473.825339,624 471.798488,624 L467,624 C463.134007,624 460,627.134007 460,631 L460,645 C460,648.865993 463.134007,652 467,652 Z" id="Carpeta-Copy-28" fill="#191E28"></path>
            <path d="M524,652 L547,652 C550.865993,652 554,648.865993 554,645 L554,634.8687 C554,631.002706 550.865993,627.8687 547,627.8687 L539.974401,627.8687 C537.94755,627.8687 535.979521,627.187439 534.386445,625.93435 C532.793368,624.681261 530.825339,624 528.798488,624 L524,624 C520.134007,624 517,627.134007 517,631 L517,645 C517,648.865993 520.134007,652 524,652 Z" id="Carpeta-Copy-27" fill="#191E28"></path>
        </g>
        <g id="Iconos/AuditoriaProcesos" transform="translate(200.000000, 181.000000)">
            <mask id="mask-2" fill="white">
                <use xlink:href="#path-1"></use>
            </mask>
            <g id="Background"></g>
            <path d="M88.4792627,131.403358 L123.568633,83.3333333 L137.142857,95.7883493 L99.9882658,140 L88.4792627,131.403358 Z M132.718894,131.403728 L167.808264,83.3333333 L181.382488,95.7878136 L144.227897,140 L132.718894,131.403728 Z M120.564733,268.888889 C115.996435,268.891204 111.608897,268.088386 107.423247,266.492032 C103.228207,264.891037 99.5637089,262.633403 96.4203631,259.719128 C93.2746697,256.800213 90.7956756,253.271063 88.9880757,249.129359 C87.1710856,244.989976 86.2696332,240.279803 86.2672811,235.012762 C86.2649382,229.74108 87.164043,224.989142 88.976338,220.749986 C90.7815904,216.513151 93.258237,212.932955 96.4015828,210.01868 C99.5425811,207.092804 103.204732,204.883896 107.399772,203.375712 C111.583074,201.867529 115.968265,201.113437 120.53891,201.111111 C125.111903,201.108796 129.440753,201.860568 133.539544,203.366431 C137.635988,204.869974 141.258231,207.076562 144.401577,210.002438 C147.544922,212.912072 150.06852,216.489948 151.977063,220.729104 C153.878565,224.963619 154.836358,229.715557 154.83871,234.987239 C154.841053,240.2566 153.885607,244.964453 151.986454,249.108477 C150.082605,253.247861 147.561355,256.77933 144.420357,259.702886 C141.279359,262.619481 137.659464,264.877116 133.565367,266.482751 C129.466576,268.081426 125.135379,268.888889 120.564733,268.888889 Z M120.552995,150 C142.639963,150 162.977397,153.802698 181.565297,161.413084 C200.148437,169.01848 216.677362,178.911983 231.152074,191.083611 L223.839738,202.222222 C208.908005,189.603952 193.105077,180.381661 176.423811,174.555349 C159.742545,168.724046 141.11894,165.812137 120.552995,165.812137 C99.9870511,165.812137 81.3634459,168.724046 64.68218,174.555349 C48.000914,180.381661 32.1979853,189.603952 17.2638725,202.222222 L9.95391705,191.083611 C24.4286286,178.911983 40.9575542,169.01848 59.5406939,161.413084 C78.126214,153.802698 98.4636478,150 120.552995,150 Z M120.552995,317.777778 C98.4636478,317.777778 78.126214,313.992546 59.5406939,306.432064 C40.9575542,298.869086 24.4286286,289.035469 9.95391705,276.936202 L17.2638725,265.555556 C32.1979853,278.171331 48.000914,287.393622 64.68218,293.224924 C81.3634459,299.051237 99.9870511,301.968136 120.552995,301.968136 C141.11894,301.968136 159.742545,299.051237 176.423811,293.224924 C193.105077,287.393622 208.908005,278.171331 223.839738,265.555556 L231.152074,276.936202 C216.677362,289.035469 200.148437,298.869086 181.565297,306.432064 C162.977397,313.992546 142.639963,317.777778 120.552995,317.777778 Z" id="Combined-Shape" fill="#99FF99" fill-rule="evenodd" mask="url(#mask-2)"></path>
        </g>
        <path d="M7.05468583,874.944885 L633.054686,870.05426 C636.899223,870.024225 640,866.899128 640,863.054474 L640,803 C640,799.134007 636.865993,796 633,796 L315.090987,796 C311.762284,796 308.498778,795.076974 305.663184,793.33351 L238.132145,751.812076 C236.084216,750.552908 233.727239,749.886278 231.323176,749.886278 L7,749.886278 C3.13400675,749.886278 -4.73447626e-16,753.020284 0,756.886278 L0,867.945099 C-2.19108763e-15,871.811092 3.13400675,874.945099 7,874.945099 C7.01822882,874.945099 7.03645757,874.945028 7.05468583,874.944885 Z" id="Path-3" fill="#191E28"></path>
    </g>
</svg>