<?xml version="1.0" encoding="UTF-8"?>
<svg width="190px" height="190px" viewBox="0 0 190 190" version="1.1" xmlns="http://www.w3.org/2000/svg" xmlns:xlink="http://www.w3.org/1999/xlink">
    <!-- Generator: Sketch 53.1 (72631) - https://sketchapp.com -->
    <title>Avatar/</title>
    <desc>Created with Sketch.</desc>
    <g id="Avatar/" stroke="none" stroke-width="1" fill="none" fill-rule="evenodd">
        <g id="Avatar/Base">
            <rect id="Rectangle" fill="#FFFFFF" fill-rule="evenodd" x="3.5625" y="3.5625" width="182.875" height="182.875"></rect>
            <path d="" id="Path-2" stroke="#979797" stroke-width="1"></path>
            <path d="M182.875,179.263699 L179.263699,179.263699 L179.263699,182.875 L10.7363014,182.875 L10.7363014,179.263699 L7.125,179.263699 L7.125,10.7363014 L10.7363014,10.7363014 L10.7363014,7.125 L179.263699,7.125 L179.263699,10.7363014 L182.875,10.7363014 L182.875,179.263699 Z" id="Combined-Shape" fill="#FCF9B6" fill-rule="nonzero"></path>
            <g id="CajasBordes" fill="#4A4A4A" fill-rule="evenodd">
                <rect id="Rectangle-Copy" x="4" y="0" width="182" height="3"></rect>
                <rect id="Rectangle-Copy-6" transform="translate(188.500000, 95.000000) rotate(-360.000000) translate(-188.500000, -95.000000) " x="187" y="4" width="3" height="182"></rect>
                <rect id="Rectangle-Copy" x="185" y="2" width="3" height="3"></rect>
                <rect id="Rectangle-Copy-4" x="185" y="185" width="3" height="3"></rect>
                <rect id="Rectangle-Copy-2" x="4" y="187" width="182" height="3"></rect>
                <rect id="Rectangle-Copy-7" transform="translate(1.500000, 95.000000) rotate(-360.000000) translate(-1.500000, -95.000000) " x="0" y="4" width="3" height="182"></rect>
                <rect id="Rectangle" x="2" y="2" width="3" height="3"></rect>
                <rect id="Rectangle-Copy-3" x="2" y="185" width="3" height="3"></rect>
            </g>
        </g>
        <g id="Avatar/Diseñador" transform="translate(15.000000, 7.000000)" fill="#4A4A4A" fill-rule="nonzero">
            <path d="M46.8209039,80.6554815 C45.4264791,80.9932923 43.6910702,81.0937653 41.6130724,80.9561094 C39.8142805,80.8366494 38.2617995,80.4268461 36.9540249,79.7251173 C35.6470525,79.0233885 34.5815772,78.0859041 33.757599,76.9102908 C32.934423,75.7338864 32.3503372,74.350998 32.0085507,72.7616258 C31.6643572,71.1730447 31.5576492,69.4309852 31.686822,67.5338649 C31.8200065,65.5766191 32.1962925,63.8274394 32.8156803,62.2863258 C33.435068,60.7460034 34.2622556,59.456468 35.2988475,58.4193017 C36.3346371,57.3821355 37.5549594,56.6186988 38.9598142,56.1274095 C40.3638668,55.6369114 41.9187547,55.4486234 43.624478,55.5609633 C44.4308053,55.6147599 45.2250979,55.7358022 46.0065534,55.9256724 C46.7880089,56.1163338 47.5036746,56.3410136 48.1575619,56.5989207 C48.7528802,56.8354674 49.2832109,57.0672673 49.7629957,57.2951116 C48.3436992,61.0964722 47.6135918,65.1668158 47.5903247,69.5124711 C47.5702668,73.2133588 48.0669002,76.7180472 49.0633764,80.0352387 C48.4520118,80.2330202 47.7154859,80.438713 46.8209039,80.6554815 M52.1538966,69.5362049 C52.1771638,65.4073181 52.80297,61.5869704 54.0321178,58.0767441 C55.2620678,54.5665179 57.0632666,51.3173632 59.4357143,48.3292801 L56.2079981,46.1346964 C54.3081144,48.3909879 52.6842273,50.9036043 51.3275114,53.6654253 C50.8974702,53.4407455 50.3775696,53.2105278 49.7597864,52.9723989 C48.9847494,52.6765177 48.0693072,52.3996236 47.011855,52.1456721 C45.9544029,51.8917207 44.7589524,51.7200463 43.4255037,51.6306491 C41.3162156,51.492202 39.3064146,51.7271665 37.3952985,52.3371247 C35.4849848,52.9486651 33.7832731,53.9106744 32.2925704,55.2247347 C30.8010655,56.5395862 29.5735224,58.2009509 28.6115458,60.2104111 C27.6487669,62.2198712 27.0767158,64.5552753 26.8953924,67.2166233 C26.7140691,69.8771802 26.917055,72.2632164 27.5059547,74.3763141 C28.0924475,76.4878295 29.0062851,78.2931791 30.2442583,79.7868251 C31.4814292,81.2820533 33.0066314,82.4584578 34.8174581,83.3152473 C36.6274824,84.1728279 38.664562,84.6759841 40.9286971,84.826298 C42.2316578,84.9133219 43.4463639,84.9164864 44.5736175,84.8381649 C45.7000688,84.7582612 46.6893241,84.6395923 47.5413834,84.4813671 C48.3934427,84.323933 49.1067014,84.1475119 49.6795549,83.9552683 C49.9683885,83.8587509 50.2122925,83.7693536 50.4136738,83.6862854 C51.8730861,87.1363861 53.7047729,90.2478848 55.9544663,92.9796431 L59.2054497,90.8190778 C56.8650946,87.8056787 55.0991977,84.537537 53.9077588,81.0154439 C52.7163199,77.4925596 52.1322341,73.666674 52.1538966,69.5362049" id="Fill-1"></path>
            <path d="M60.2799297,109.27251 C60.2594819,113.034246 60.7952146,116.518995 61.8887637,119.727558 C62.9823128,122.93452 64.6025975,125.910927 66.7488,128.655177 L63.765873,130.622904 C61.4397297,127.819414 59.5732533,124.599643 58.1672617,120.963592 C56.7604521,117.328341 56.069316,113.424109 56.0922176,109.250895 C56.1151191,105.079283 56.8487867,101.183056 58.294856,97.5606138 C59.7401075,93.9405733 61.642572,90.7408161 63.998978,87.9605417 L66.9598214,89.9594893 C64.7833562,92.6805238 63.1303549,95.6401191 62.0032715,98.8366741 C60.8745522,102.033229 60.3003776,105.512375 60.2799297,109.27251" id="Fill-4"></path>
            <polygon id="Fill-6" points="79.6850891 92.1431262 84.5160714 101.172864 82.6729568 102.181329 78.6639881 94.6924847 74.6542417 102.181329 72.8119048 101.172864 77.642887 92.1431262"></polygon>
            <path d="M109.936073,80.0352387 C110.932574,76.7188383 111.429219,73.2133588 111.409161,69.5124711 C111.385893,65.1668158 110.655768,61.0972634 109.236437,57.2951116 C109.716233,57.0672673 110.246577,56.8354674 110.84191,56.5989207 C111.495813,56.3410136 112.211496,56.1171249 112.99297,55.9256724 C113.774445,55.7358022 114.568757,55.6147599 115.375104,55.5609633 C117.080868,55.4486234 118.635794,55.6369114 120.039881,56.1274095 C121.44477,56.6186988 122.665122,57.3821355 123.700936,58.4193017 C124.737553,59.456468 125.564761,60.7460034 126.184164,62.2863258 C126.803567,63.8282305 127.179862,65.5774102 127.313852,67.5338649 C127.442225,69.4309852 127.335515,71.1730447 126.992115,72.7624169 C126.649518,74.350998 126.065418,75.7338864 125.242222,76.9102908 C124.418224,78.0859041 123.352723,79.0241796 122.045719,79.7251173 C120.738715,80.4268461 119.185394,80.8366494 117.386558,80.9561094 C115.309312,81.0937653 113.573059,80.9932923 112.1786,80.6554815 C111.283996,80.438713 110.547453,80.2330202 109.936073,80.0352387 M105.090771,81.0154439 C103.900105,84.537537 102.134165,87.8056787 99.7937536,90.8190778 L103.045618,92.9796431 C105.294564,90.2478848 107.126295,87.1371772 108.586545,83.6862854 C108.787129,83.7693536 109.031841,83.8587509 109.31988,83.9552683 C109.892747,84.1475119 110.606023,84.323933 111.458103,84.4813671 C112.310183,84.6395923 113.299462,84.7582612 114.425941,84.8381649 C115.553222,84.9164864 116.767958,84.9133219 118.07095,84.8270892 C120.334338,84.6759841 122.372269,84.1728279 124.182337,83.3152473 C125.993208,82.4584578 127.518447,81.2820533 128.755648,79.7876162 C129.993652,78.2931791 130.907511,76.4886206 131.494821,74.3763141 C132.082932,72.2632164 132.285923,69.8771802 132.104595,67.2166233 C131.923268,64.5560665 131.351203,62.2198712 130.3884,60.2104111 C129.426401,58.2009509 128.198828,56.5395862 126.707286,55.2255258 C125.215745,53.9114655 123.514795,52.9486651 121.603632,52.3371247 C119.693272,51.7271665 117.684224,51.492202 115.574083,51.6314402 C114.241404,51.7200463 113.045122,51.8917207 111.987644,52.1456721 C110.930167,52.3996236 110.014702,52.6765177 109.239646,52.9723989 C108.621848,53.2105278 108.101935,53.4407455 107.671883,53.6654253 C106.315134,50.9036043 104.691208,48.3909879 102.791278,46.1346964 L99.5642857,48.3292801 C101.935989,51.3173632 103.737231,54.567309 104.967211,58.0767441 C106.196389,61.5877615 106.82221,65.4073181 106.844676,69.5362049 C106.867141,73.666674 106.283041,77.4925596 105.090771,81.0154439" id="Fill-8"></path>
            <path d="M96.9967285,98.8366741 C95.8696451,95.6401191 94.2166438,92.6813243 92.0401786,89.9594893 L95.0018399,87.9605417 C97.357428,90.7408161 99.2598925,93.9405733 100.705144,97.5606138 C102.151213,101.183056 102.884881,105.079283 102.907782,109.250895 C102.930684,113.424109 102.239548,117.328341 100.832738,120.964392 C99.4267467,124.599643 97.5602703,127.819414 95.234127,130.622904 L92.2512,128.655177 C94.3982204,125.910927 96.0185051,122.935321 97.1112363,119.727558 C98.2047854,116.518995 98.7405181,113.034246 98.7200703,109.27251 C98.6996224,105.512375 98.1254478,102.033229 96.9967285,98.8366741" id="Fill-11"></path>
            <path d="M80.0898624,41.2012205 C80.8309717,41.2012205 81.5275471,41.1450782 82.1795888,41.0327937 C82.8307902,40.9205091 83.4038474,40.7302957 83.8979202,40.4613155 C84.3919931,40.1931733 84.7801931,39.8336951 85.0608399,39.3862327 C85.3414867,38.9379324 85.4818101,38.3781855 85.4818101,37.705316 C85.4818101,36.4291265 84.9591685,35.4881148 83.9147254,34.882281 C82.8702824,34.277285 81.2242133,33.974787 78.9773584,33.974787 C77.6968023,33.974787 76.5725346,34.0476882 75.607076,34.1934906 C74.6407771,34.3392929 73.764386,34.5571585 72.978743,34.8487632 C73.0904976,35.7897749 73.3434158,36.6520198 73.7366574,37.4371738 C74.1298991,38.2206519 74.6348953,38.8926834 75.2533265,39.4532683 C75.8709176,40.0130152 76.5893398,40.4453946 77.4102737,40.7470546 C78.2303673,41.0495526 79.1235636,41.2012205 80.0898624,41.2012205 L80.0898624,41.2012205 Z M90.9082085,38.1762408 C91.1325579,37.5486204 91.3182553,36.8589921 91.4644605,36.1090317 C91.6098255,35.3582334 91.6829281,34.6024075 91.6829281,33.8407159 C91.6829281,32.5628505 91.4812657,31.3981077 91.0771007,30.3448114 C90.6720954,29.2915152 90.0763512,28.3898869 89.2907082,27.6390886 C88.5042249,26.8882903 87.5320442,26.3067568 86.3750064,25.8911363 C85.2179685,25.4763538 83.8752332,25.2702194 82.3476408,25.2702194 C79.8310624,25.2702194 77.7858698,25.8241008 76.2137436,26.9343772 C74.6407771,28.0429778 73.6299444,29.5831198 73.1804054,31.5548033 C74.0341094,31.2858231 74.9667979,31.0788508 75.9776306,30.9330485 C76.9893035,30.7872461 78.0782803,30.7143449 79.2470818,30.7143449 C80.4822638,30.7143449 81.6510653,30.8324951 82.7518058,31.0679575 C83.8533865,31.302582 84.8188451,31.69474 85.6507024,32.2444316 C86.4817194,32.7932853 87.1388026,33.5097278 87.6219521,34.3954352 C88.1051015,35.2803046 88.3470963,36.3721463 88.3470963,37.6717982 C88.3470963,38.8817901 88.1219067,39.9183275 87.6723676,40.7805724 C87.2228286,41.6428173 86.616161,42.3433389 85.8523647,42.8812993 C85.0885685,43.4192597 84.2012541,43.8164454 83.1904214,44.0753702 C82.1795888,44.3317812 81.1225418,44.4616626 80.0218014,44.4616626 C78.8983739,44.4616626 77.8144387,44.2706113 76.7699956,43.8901845 C75.7255526,43.5089197 74.7760589,42.9542005 73.9223549,42.2268646 C73.0678106,41.4978529 72.3376247,40.6247147 71.7317974,39.6049362 C71.1251297,38.5851578 70.6974374,37.4371738 70.450401,36.1593084 C69.7765126,36.5631976 69.2320242,37.0894268 68.8160956,37.7388338 C68.4001669,38.3890787 68.0632227,39.0720035 67.8052629,39.789284 C67.5473031,40.5065645 67.3666473,41.1953549 67.2658161,41.8564931 C67.1649849,42.5167934 67.1028057,43.0497261 67.0809589,43.4536154 L64.4517857,43.0497261 C64.4744727,42.17575 64.5921091,41.2514972 64.8055351,40.2761298 C65.0189611,39.3016003 65.3559054,38.355561 65.8163678,37.4371738 C66.2776704,36.5179486 66.8675329,35.6607314 67.5859551,34.8655221 C68.3052175,34.0694748 69.1816086,33.4150401 70.2151283,32.8997042 C70.2823491,31.3536966 70.5974465,29.9082423 71.1587401,28.5641793 C71.7200337,27.2192784 72.506517,26.0545355 73.5173496,25.0682748 C74.5290225,24.0820141 75.7700864,23.3044016 77.2413814,22.7329235 C78.7126765,22.1606073 80.415043,21.8757062 82.3476408,21.8757062 C84.3029255,21.8757062 86.0380622,22.1832319 87.5547313,22.799959 C89.0714004,23.4150103 90.3469149,24.250441 91.3804345,25.3037372 C92.4131139,26.3561955 93.2004374,27.5896499 93.739044,29.0007484 C94.2784909,30.4126849 94.5482143,31.9134435 94.5482143,33.5038622 C94.5482143,34.5571585 94.4524247,35.5886682 94.2616857,36.5967154 C94.0709467,37.6047627 93.8516388,38.399972 93.6046024,38.9831814 L90.9082085,38.1762408 Z" id="Fill-1"></path>
        </g>
    </g>
</svg>