<?xml version="1.0" encoding="UTF-8"?>
<svg width="190px" height="190px" viewBox="0 0 190 190" version="1.1" xmlns="http://www.w3.org/2000/svg" xmlns:xlink="http://www.w3.org/1999/xlink">
    <!-- Generator: Sketch 53.1 (72631) - https://sketchapp.com -->
    <title>Avatar/</title>
    <desc>Created with Sketch.</desc>
    <g id="Avatar/" stroke="none" stroke-width="1" fill="none" fill-rule="evenodd">
        <g id="Avatar/Base">
            <rect id="Rectangle" fill="#FFFFFF" fill-rule="evenodd" x="3.5625" y="3.5625" width="182.875" height="182.875"></rect>
            <path d="" id="Path-2" stroke="#979797" stroke-width="1"></path>
            <path d="M182.875,179.263699 L179.263699,179.263699 L179.263699,182.875 L10.7363014,182.875 L10.7363014,179.263699 L7.125,179.263699 L7.125,10.7363014 L10.7363014,10.7363014 L10.7363014,7.125 L179.263699,7.125 L179.263699,10.7363014 L182.875,10.7363014 L182.875,179.263699 Z" id="Combined-Shape" fill="#AAD8EC" fill-rule="nonzero"></path>
            <g id="CajasBordes" fill="#4A4A4A" fill-rule="evenodd">
                <rect id="Rectangle-Copy" x="4" y="0" width="182" height="3"></rect>
                <rect id="Rectangle-Copy-6" transform="translate(188.500000, 95.000000) rotate(-360.000000) translate(-188.500000, -95.000000) " x="187" y="4" width="3" height="182"></rect>
                <rect id="Rectangle-Copy" x="185" y="2" width="3" height="3"></rect>
                <rect id="Rectangle-Copy-4" x="185" y="185" width="3" height="3"></rect>
                <rect id="Rectangle-Copy-2" x="4" y="187" width="182" height="3"></rect>
                <rect id="Rectangle-Copy-7" transform="translate(1.500000, 95.000000) rotate(-360.000000) translate(-1.500000, -95.000000) " x="0" y="4" width="3" height="182"></rect>
                <rect id="Rectangle" x="2" y="2" width="3" height="3"></rect>
                <rect id="Rectangle-Copy-3" x="2" y="185" width="3" height="3"></rect>
            </g>
        </g>
        <g id="Avatar/Analista" transform="translate(15.000000, 7.000000)" fill="#4A4A4A" fill-rule="nonzero">
            <path d="M46.8739268,80.558491 C45.4758033,80.899214 43.7357912,81.0005532 41.6522815,80.8617106 C39.8487183,80.7412207 38.2921193,80.3278846 36.9808757,79.6201064 C35.6704366,78.9123282 34.6021351,77.9667621 33.7759713,76.7810142 C32.9506118,75.5944684 32.3649766,74.1996586 32.0222835,72.5965849 C31.6771771,70.9943091 31.5701861,69.2372318 31.6997015,67.323757 C31.8332392,65.3496384 32.2105234,63.5853796 32.8315541,62.0309806 C33.4525848,60.4773795 34.2819665,59.1767274 35.321308,58.13062 C36.3598451,57.0845127 37.5834042,56.3144947 38.9919855,55.8189702 C40.3997623,55.3242436 41.9587746,55.1343324 43.6690223,55.2476408 C44.4774885,55.3019011 45.2738879,55.4239869 46.0574163,55.6154939 C46.8409446,55.8077989 47.5585086,56.0344156 48.2141304,56.2945461 C48.8110277,56.5331319 49.3427652,56.7669301 49.8238226,56.9967386 C48.4007614,60.8308696 47.6687174,64.9363023 47.6453885,69.3194202 C47.6252774,73.0522121 48.1232282,76.5871133 49.1223475,79.9329013 C48.5093613,80.1323878 47.7708818,80.3398538 46.8739268,80.558491 M52.2210654,69.3433586 C52.2443943,65.1788779 52.8718606,61.3255962 54.1042686,57.7851094 C55.3374811,54.2446225 57.1434577,50.9674579 59.5221983,47.9536155 L56.2859205,45.740113 C54.3809973,48.0158553 52.7528029,50.5501321 51.3924882,53.3357619 C50.9613063,53.1091452 50.4400266,52.8769429 49.8206048,52.6367611 C49.043512,52.3383293 48.1256415,52.0590482 47.0653845,51.8029075 C46.0051274,51.5467668 44.806506,51.3736125 43.4695202,51.2834445 C41.3546372,51.143804 39.3395053,51.380794 37.4233199,51.9960104 C35.507939,52.6128227 33.8017135,53.5831252 32.3070567,54.9085137 C30.8115955,56.2347001 29.5807963,57.9103869 28.6162681,59.93717 C27.6509354,61.9639531 27.0773669,64.31949 26.8955626,67.0037807 C26.7137583,69.6872734 26.9172826,72.0938788 27.5077444,74.2251929 C28.0957929,76.354911 29.0120545,78.175824 30.2533114,79.6823462 C31.4937639,81.1904644 33.0230118,82.3770102 34.8386416,83.2411858 C36.6534671,84.1061594 38.6959501,84.6136531 40.9660908,84.7652629 C42.2725077,84.853037 43.4904358,84.8562287 44.6206795,84.7772321 C45.7501187,84.6966395 46.741998,84.5769476 47.5963175,84.4173584 C48.4506369,84.2585671 49.1657875,84.0806251 49.7401604,83.8867242 C50.0297603,83.7893748 50.2743112,83.6992069 50.4762266,83.6154226 C51.9395101,87.0952655 53.7760555,90.2335875 56.0317162,92.9888954 L59.2913229,90.8097046 C56.94476,87.7703279 55.174179,84.4740126 53.9795798,80.9215565 C52.7849806,77.3683025 52.1993455,73.5094352 52.2210654,69.3433586" id="Fill-1"></path>
            <path d="M60.0892432,108.870695 C60.0687412,112.636247 60.6058949,116.12453 61.7023446,119.336348 C62.7987944,122.546562 64.4233769,125.525987 66.5752723,128.273021 L63.584433,130.242743 C61.2521196,127.43641 59.3806923,124.213373 57.9709712,120.573634 C56.5604301,116.934697 55.8674607,113.026505 55.890423,108.849059 C55.9133853,104.673216 56.648999,100.773037 58.098904,97.1469214 C59.5479891,93.5232094 61.4554999,90.320207 63.8181564,87.5371128 L66.7868534,89.5380878 C64.6046151,92.2618819 62.9472292,95.2244788 61.8171561,98.4242758 C60.6854429,101.624073 60.1097453,105.106747 60.0892432,108.870695" id="Fill-4"></path>
            <polygon id="Fill-6" points="80.0758627 92.080265 84.9484914 101.071082 83.0894878 102.0752 79.0459591 94.6186349 75.0016459 102.0752 73.1434267 101.071082 78.0160554 92.080265"></polygon>
            <path d="M109.877101,79.9329013 C110.876244,76.5879113 111.374207,73.0522121 111.354095,69.3194202 C111.330766,64.9363023 110.598704,60.8316676 109.175608,56.9967386 C109.656678,56.7669301 110.188428,56.5331319 110.78534,56.2945461 C111.440977,56.0344156 112.158559,55.8085969 112.942106,55.6154939 C113.725654,55.4239869 114.522072,55.3019011 115.330558,55.2476408 C117.040847,55.1343324 118.599898,55.3242436 120.007709,55.8189702 C121.416324,56.3144947 122.639913,57.0845127 123.678475,58.13062 C124.717842,59.1767274 125.547244,60.4773795 126.16829,62.0309806 C126.789335,63.5861775 127.166629,65.3504363 127.300974,67.323757 C127.429688,69.2372318 127.322695,70.9943091 126.978384,72.5973828 C126.634878,74.1996586 126.049229,75.5944684 125.22385,76.7810142 C124.397666,77.9667621 123.329338,78.9131262 122.018867,79.6201064 C120.708396,80.3278846 119.150955,80.7412207 117.347348,80.8617106 C115.264592,81.0005532 113.523733,80.899214 112.125576,80.558491 C111.228599,80.3398538 110.490102,80.1323878 109.877101,79.9329013 M105.018946,80.9215565 C103.825122,84.4740126 102.054498,87.7703279 99.7078783,90.8097046 L102.968369,92.9888954 C105.22328,90.2335875 107.05987,87.0960634 108.523993,83.6154226 C108.725109,83.6992069 108.97047,83.7893748 109.259273,83.8867242 C109.83366,84.0806251 110.548828,84.2585671 111.403168,84.4173584 C112.257508,84.5769476 113.249411,84.6966395 114.378878,84.7772321 C115.509149,84.8562287 116.727107,84.853037 118.033555,84.7660608 C120.302947,84.6136531 122.346284,84.1061594 124.161153,83.2411858 C125.976827,82.3770102 127.506112,81.1904644 128.746595,79.6831442 C129.987882,78.175824 130.904166,76.3557089 131.493033,74.2251929 C132.082705,72.0938788 132.286234,69.6872734 132.104425,67.0037807 C131.922617,64.3202879 131.349034,61.9639531 130.383678,59.93717 C129.419126,57.9103869 128.188297,56.2347001 126.6928,54.9093116 C125.197302,53.5839232 123.49184,52.6128227 121.575608,51.9960104 C119.66018,51.380794 117.645804,51.143804 115.530065,51.2842425 C114.193851,51.3736125 112.994396,51.5467668 111.934114,51.8029075 C110.873831,52.0590482 109.955938,52.3383293 109.178826,52.6367611 C108.559389,52.8769429 108.038097,53.1091452 107.606905,53.3357619 C106.246557,50.5501321 104.618323,48.0158553 102.713354,45.740113 L99.4778017,47.9536155 C101.855796,50.9674579 103.661816,54.2454205 104.895059,57.7851094 C106.127496,61.3263942 106.754978,65.1788779 106.777503,69.3433586 C106.800028,73.5094352 106.214379,77.3683025 105.018946,80.9215565" id="Fill-8"></path>
            <path d="M97.1828439,98.4242758 C96.0527708,95.2244788 94.3953849,92.2626833 92.2131466,89.5380878 L95.1826637,87.5371128 C97.5445001,90.320207 99.4520109,93.5232094 100.901096,97.1469214 C102.351001,100.773037 103.086615,104.673216 103.109577,108.849059 C103.132539,113.026505 102.43957,116.934697 101.029029,120.574436 C99.6193077,124.213373 97.7478804,127.43641 95.415567,130.242743 L92.4247277,128.273021 C94.5774431,125.525987 96.2020257,122.547363 97.2976554,119.336348 C98.3941051,116.12453 98.9312588,112.636247 98.9107568,108.870695 C98.8902547,105.106747 98.3145571,101.624073 97.1828439,98.4242758" id="Fill-11"></path>
            <path d="M96.2729068,69.0262341 C96.2729068,65.0101164 92.4657086,62.6770708 88.2446845,62.7063488 C83.9367152,62.6770708 79.923022,64.8034967 79.923022,69.1450195 C79.923022,73.3669203 84.0253324,75.4339535 88.0097652,75.4339535 C92.5543259,75.4339535 96.2729068,73.1310225 96.2729068,69.0262341 L96.2729068,69.0262341 Z M98.811039,78.2981874 C98.5159268,76.6151154 98.0435801,74.4594114 97.5419729,72.4810489 L97.4232592,72.4810489 C96.2729068,75.7886367 92.9974122,78.1509605 87.8918875,78.1509605 C82.0180679,78.1509605 77.8279762,74.6367529 77.8279762,69.2328537 C77.8279762,63.8582326 81.9302866,59.9609004 88.3048774,59.9609004 C94.7078926,59.9609004 98.1907182,64.0062961 98.3679527,68.7309436 C98.3679527,69.1140683 98.5159268,69.5289807 98.6630649,69.9422201 C99.4597842,72.2451511 100.256504,74.8726507 100.965442,77.5603795 L98.811039,78.2981874 Z" id="Fill-1"></path>
        </g>
    </g>
</svg>