<?xml version="1.0" encoding="UTF-8"?>
<svg width="190px" height="190px" viewBox="0 0 190 190" version="1.1" xmlns="http://www.w3.org/2000/svg" xmlns:xlink="http://www.w3.org/1999/xlink">
    <!-- Generator: Sketch 53.1 (72631) - https://sketchapp.com -->
    <title>Avatar/</title>
    <desc>Created with Sketch.</desc>
    <g id="Avatar/" stroke="none" stroke-width="1" fill="none" fill-rule="evenodd">
        <g id="Avatar/Base">
            <rect id="Rectangle" fill="#FFFFFF" fill-rule="evenodd" x="3.5625" y="3.5625" width="182.875" height="182.875"></rect>
            <path d="" id="Path-2" stroke="#979797" stroke-width="1"></path>
            <path d="M182.875,179.263699 L179.263699,179.263699 L179.263699,182.875 L10.7363014,182.875 L10.7363014,179.263699 L7.125,179.263699 L7.125,10.7363014 L10.7363014,10.7363014 L10.7363014,7.125 L179.263699,7.125 L179.263699,10.7363014 L182.875,10.7363014 L182.875,179.263699 Z" id="Combined-Shape" fill="#002E3A" fill-rule="evenodd"></path>
            <g id="CajasBordes" fill="#4A4A4A" fill-rule="evenodd">
                <rect id="Rectangle-Copy" x="4" y="0" width="182" height="3"></rect>
                <rect id="Rectangle-Copy-6" transform="translate(188.500000, 95.000000) rotate(-360.000000) translate(-188.500000, -95.000000) " x="187" y="4" width="3" height="182"></rect>
                <rect id="Rectangle-Copy" x="185" y="2" width="3" height="3"></rect>
                <rect id="Rectangle-Copy-4" x="185" y="185" width="3" height="3"></rect>
                <rect id="Rectangle-Copy-2" x="4" y="187" width="182" height="3"></rect>
                <rect id="Rectangle-Copy-7" transform="translate(1.500000, 95.000000) rotate(-360.000000) translate(-1.500000, -95.000000) " x="0" y="4" width="3" height="182"></rect>
                <rect id="Rectangle" x="2" y="2" width="3" height="3"></rect>
                <rect id="Rectangle-Copy-3" x="2" y="185" width="3" height="3"></rect>
            </g>
        </g>
        <g id="Avatar/ProductOwner" transform="translate(15.000000, 7.000000)" fill="#FFFFFF" fill-rule="nonzero">
            <polygon id="Fill-1" points="58.0891634 30.4125469 61.1710833 30.4125469 67.5551742 67.4929838 64.4732544 67.4929838"></polygon>
            <polygon id="Fill-2" points="94.2330931 67.4933831 91.1511732 67.4933831 97.5352642 30.4129461 100.617184 30.4129461"></polygon>
            <path d="M68.930866,23.3867631 C65.7444067,24.487087 62.7949567,26.1000437 60.081718,28.2256331 L58.0890836,25.3342885 C60.8605771,23.033829 64.0502285,21.1765333 67.6596339,19.766394 C71.2698373,18.3546576 75.1537586,17.638409 79.3129939,17.6152527 C83.4722291,17.5928949 87.3641305,18.2684203 90.9886981,19.641829 C94.6124677,21.0136407 97.8220694,22.8366011 100.617503,25.1067179 L98.6559913,28.0188234 C95.9204084,25.9235766 92.9534021,24.3417612 89.7557706,23.2741755 C86.557341,22.2065898 83.0835976,21.6835766 79.3345402,21.7043375 C75.5854828,21.7242998 72.1181234,22.2840437 68.930866,23.3867631" id="Fill-3"></path>
            <polygon id="Fill-6" points="53.434842 72.7617627 105.272064 72.7617627 105.272064 70.3662825 53.434842 70.3662825"></polygon>
            <path d="M46.7139903,109.188872 C45.3270465,109.530627 43.6009479,109.631238 41.5340985,109.4923 C39.744957,109.371727 38.200805,108.958108 36.9000465,108.249844 C35.600086,107.542379 34.5403269,106.595366 33.7207692,105.408805 C32.9020096,104.221445 32.3210573,102.826477 31.9811045,101.221505 C31.6387576,99.6181303 31.5326221,97.8598478 31.6611019,95.9450606 C31.7935718,93.9703864 32.1678391,92.2049175 32.7839039,90.6486539 C33.3999687,89.0939872 34.2227184,87.7924429 35.2537491,86.7464166 C36.2839817,85.6987932 37.497757,84.9282471 38.8950749,84.4323827 C40.2915948,83.9381153 41.8381408,83.7472753 43.534713,83.8606614 C44.3367144,83.9157574 45.1267457,84.0379269 45.9040087,84.2295653 C46.6812718,84.4212038 47.3930979,84.6487744 48.0434772,84.9082847 C48.6356016,85.1470343 49.1630871,85.3809928 49.6402979,85.6109589 C48.2286158,89.4477198 47.5024255,93.5559684 47.4792832,97.9420927 C47.4593329,101.677445 47.9533019,105.215569 48.944432,108.562853 C48.3363474,108.762477 47.6037729,108.970884 46.7139903,109.188872 M52.0183718,97.9660475 C52.0415141,93.7987104 52.663963,89.9427857 53.8865164,86.3998704 C55.1098678,82.8577537 56.9014033,79.5775427 59.2603249,76.5624316 L56.0507232,74.3466124 C54.1610323,76.6239156 52.5458573,79.1607292 51.1964201,81.9474712 C50.768686,81.7206991 50.2515746,81.4883375 49.6371059,81.247991 C48.8662269,80.9493544 47.9556959,80.6706802 46.903917,80.4135653 C45.852138,80.157249 44.662303,79.9839759 43.3368062,79.8945446 C41.2388343,79.7540098 39.2398158,79.9911623 37.3389528,80.6075992 C35.4388877,81.2240362 33.7463056,82.1950041 32.2636005,83.5213017 C30.7800974,84.8483977 29.55914,86.5252339 28.6023244,88.5534072 C27.6447107,90.5823789 27.0757286,92.9395315 26.895378,95.6248648 C26.7142295,98.3101981 26.9169244,100.719253 27.5026647,102.85123 C28.086011,104.982409 28.9949459,106.804571 30.2262775,108.312925 C31.456811,109.821279 32.9738306,111.008639 34.7749423,111.874206 C36.5752559,112.738974 38.6014067,113.247614 40.8533948,113.39853 C42.1493653,113.486364 43.3575545,113.489558 44.4787604,113.410507 C45.5991684,113.330658 46.5831164,113.210085 47.4306045,113.051185 C48.2780925,112.891486 48.9875246,112.713422 49.5573048,112.519388 C49.8437908,112.421972 50.0871843,112.331742 50.2866871,112.247901 C51.7390678,115.73013 53.5609278,118.871403 55.7985516,121.627803 L59.0320937,119.447916 C56.7042945,116.406454 54.9478715,113.107878 53.7628246,109.552187 C52.5777778,105.997294 51.9968255,102.134982 52.0183718,97.9660475" id="Fill-8"></path>
            <path d="M59.9291382,137.740521 C59.909188,141.491843 60.4318854,144.968484 61.4988266,148.168047 C62.5657678,151.366811 64.1466283,154.336408 66.2406101,157.072845 L63.3302627,159.035542 C61.0607184,156.239218 59.2396564,153.028476 57.8678749,149.401719 C56.4952953,145.774962 55.8209757,141.88071 55.8433201,137.718962 C55.8656644,133.558013 56.5814806,129.670947 57.9923647,126.058563 C59.4024507,122.446977 61.2586252,119.255399 63.5576959,116.482231 L66.4464971,118.476069 C64.3229888,121.190148 62.7102078,124.142179 61.6105482,127.330563 C60.5092925,130.518947 59.9490885,133.989199 59.9291382,137.740521" id="Fill-9"></path>
            <polygon id="Fill-10" points="80.4011622 121.170186 85.3584088 129.864981 83.4671218 130.835949 79.3533732 123.625553 75.2388267 130.835949 73.3483377 129.864981 78.3055843 121.170186"></polygon>
            <path d="M109.761995,108.562774 C110.753125,105.216288 111.247094,101.677365 111.227144,97.9420128 C111.204002,93.5558885 110.477811,89.4484384 109.066129,85.6108791 C109.54334,85.380913 110.070826,85.1469544 110.66295,84.9082049 C111.313329,84.6486945 112.025155,84.4219224 112.802419,84.2294855 C113.579682,84.0378471 114.369713,83.9156776 115.171714,83.8605815 C116.868286,83.7471955 118.414832,83.9380354 119.811352,84.4323028 C121.20867,84.9281672 122.422446,85.6987134 123.452678,86.7463367 C124.483709,87.7923631 125.306459,89.0939073 125.922523,90.648574 C126.538588,92.2056362 126.912855,93.9711051 127.046123,95.9449808 C127.173805,97.859768 127.06767,99.6180505 126.726121,101.222224 C126.38537,102.826397 125.804418,104.221365 124.985658,105.408725 C124.1661,106.595286 123.106341,107.543098 121.806381,108.249764 C120.50642,108.958028 118.96147,109.371647 117.172329,109.49222 C115.105479,109.631158 113.379381,109.530548 111.992437,109.188792 C111.102654,108.970804 110.37008,108.762397 109.761995,108.562774 M104.942805,109.552107 C103.758556,113.107798 102.002133,116.406374 99.6743336,119.447836 L102.908674,121.627723 C105.1455,118.871324 106.967359,115.730849 108.41974,112.247821 C108.619243,112.331663 108.862636,112.421892 109.148325,112.519308 C109.718903,112.713342 110.428335,112.891406 111.275823,113.051105 C112.122513,113.210005 113.107259,113.330578 114.227667,113.410427 C115.348873,113.489478 116.557062,113.486284 117.853032,113.399248 C120.104223,113.247534 122.131171,112.738894 123.931485,111.874126 C125.732597,111.008559 127.249616,109.821199 128.48015,108.313644 C129.711481,106.804491 130.620416,104.983128 131.203763,102.85115 C131.789503,100.719173 131.9914,98.3101183 131.811049,95.6247849 C131.630699,92.9402501 131.061717,90.5822991 130.104103,88.5533273 C129.147287,86.525154 127.92633,84.8483179 126.442827,83.5220203 C124.959324,82.1957228 123.26754,81.2239563 121.366677,80.6075194 C119.466611,79.9910825 117.468391,79.7539299 115.369621,79.8952633 C114.044124,79.983896 112.854289,80.1571691 111.80251,80.4134855 C110.750731,80.6706004 109.8402,80.9492746 109.069321,81.2479111 C108.454853,81.4882576 107.937741,81.7206192 107.510007,81.9473913 C106.16057,79.1606493 104.545395,76.6238358 102.655704,74.3465326 L99.4461024,76.5623518 C101.805024,79.5774629 103.596559,82.8584723 104.819911,86.3997906 C106.042464,89.9435043 106.664913,93.7986305 106.687257,97.9659676 C106.709602,102.134902 106.12865,105.997214 104.942805,109.552107" id="Fill-11"></path>
            <path d="M97.0958791,127.330483 C95.9962194,124.142099 94.3834385,121.190867 92.2599302,118.475989 L95.1495294,116.482151 C97.4478021,119.255319 99.3039765,122.446897 100.714063,126.058483 C102.124947,129.670867 102.840763,133.557933 102.863107,137.718882 C102.885452,141.88063 102.211132,145.774882 100.838552,149.401639 C99.4667709,153.028396 97.6457089,156.239138 95.3761646,159.035462 L92.4658172,157.072765 C94.560597,154.336328 96.1414575,151.36753 97.2076007,148.167967 C98.2745419,144.968404 98.7972393,141.491763 98.777289,137.740441 C98.7573388,133.989119 98.1971348,130.518867 97.0958791,127.330483" id="Fill-12"></path>
        </g>
    </g>
</svg>