<?xml version="1.0" encoding="UTF-8"?>
<svg width="190px" height="192px" viewBox="0 0 190 192" version="1.1" xmlns="http://www.w3.org/2000/svg" xmlns:xlink="http://www.w3.org/1999/xlink">
    <!-- Generator: Sketch 55.1 (78136) - https://sketchapp.com -->
    <title>Group 18</title>
    <desc>Created with Sketch.</desc>
    <g id="Symbols" stroke="none" stroke-width="1" fill="none" fill-rule="evenodd">
        <g id="Group-18">
            <g id="Group-15">
                <g id="Avatar/Base">
                    <path d="" id="Path-2" stroke="#979797" stroke-width="1"></path>
                    <rect id="Rectangle" stroke="#2e394f" stroke-width="2" fill="#0A0A0A" fill-rule="evenodd" x="1" y="1" width="188" height="189.1875" rx="8"></rect>
                </g>
                <g id="Avatar/Programador" transform="translate(15.000000, 14.000000)" fill="#99FF99">
                    <path d="M46.8739268,80.558491 C47.7708818,80.3398538 48.5093613,80.1323878 49.1223475,79.9329013 C48.1232282,76.5871133 47.6252774,73.0522121 47.6453885,69.3194202 C47.6687174,64.9363023 48.4007614,60.8308696 49.8238226,56.9967386 C49.3427652,56.7669301 48.8110277,56.5331319 48.2141304,56.2945461 C47.5585086,56.0344156 46.8409446,55.8077989 46.0574163,55.6154939 C45.2738879,55.4239869 44.4774885,55.3019011 43.6690223,55.2476408 C41.9587746,55.1343324 40.3997623,55.3242436 38.9919855,55.8189702 C37.5834042,56.3144947 36.3598451,57.0845127 35.321308,58.13062 C34.2819665,59.1767274 33.4525848,60.4773795 32.8315541,62.0309806 C32.2105234,63.5853796 31.8332392,65.3496384 31.6997015,67.323757 C31.5701861,69.2372318 31.6771771,70.9943091 32.0222835,72.5965849 C32.3649766,74.1996586 32.9506118,75.5944684 33.7759713,76.7810142 C34.6021351,77.9667621 35.6704366,78.9123282 36.9808757,79.6201064 C38.2921193,80.3278846 39.8487183,80.7412207 41.6522815,80.8617106 C43.7357912,81.0005532 45.4758033,80.899214 46.8739268,80.558491 Z M52.2210654,69.3433586 C52.1993455,73.5094352 52.7849806,77.3683025 53.9795798,80.9215565 C55.174179,84.4740126 56.94476,87.7703279 59.2913229,90.8097046 L56.0317162,92.9888954 C53.7760555,90.2335875 51.9395101,87.0952655 50.4762266,83.6154226 C50.2743112,83.6992069 50.0297603,83.7893748 49.7401604,83.8867242 C49.1657875,84.0806251 48.4506369,84.2585671 47.5963175,84.4173584 C46.741998,84.5769476 45.7501187,84.6966395 44.6206795,84.7772321 C43.4904358,84.8562287 42.2725077,84.853037 40.9660908,84.7652629 C38.6959501,84.6136531 36.6534671,84.1061594 34.8386416,83.2411858 C33.0230118,82.3770102 31.4937639,81.1904644 30.2533114,79.6823462 C29.0120545,78.175824 28.0957929,76.354911 27.5077444,74.2251929 C26.9172826,72.0938788 26.7137583,69.6872734 26.8955626,67.0037807 C27.0773669,64.31949 27.6509354,61.9639531 28.6162681,59.93717 C29.5807963,57.9103869 30.8115955,56.2347001 32.3070567,54.9085137 C33.8017135,53.5831252 35.507939,52.6128227 37.4233199,51.9960104 C39.3395053,51.380794 41.3546372,51.143804 43.4695202,51.2834445 C44.806506,51.3736125 46.0051274,51.5467668 47.0653845,51.8029075 C48.1256415,52.0590482 49.043512,52.3383293 49.8206048,52.6367611 C50.4400266,52.8769429 50.9613063,53.1091452 51.3924882,53.3357619 C52.7528029,50.5501321 54.3809973,48.0158553 56.2859205,45.740113 L59.5221983,47.9536155 C57.1434577,50.9674579 55.3374811,54.2446225 54.1042686,57.7851094 C52.8718606,61.3255962 52.2443943,65.1788779 52.2210654,69.3433586 Z M60.0892432,108.870695 C60.0687412,112.636247 60.6058949,116.12453 61.7023446,119.336348 C62.7987944,122.546562 64.4233769,125.525987 66.5752723,128.273021 L63.584433,130.242743 C61.2521196,127.43641 59.3806923,124.213373 57.9709712,120.573634 C56.5604301,116.934697 55.8674607,113.026505 55.890423,108.849059 C55.9133853,104.673216 56.648999,100.773037 58.098904,97.1469214 C59.5479891,93.5232094 61.4554999,90.320207 63.8181564,87.5371128 L66.7868534,89.5380878 C64.6046151,92.2618819 62.9472292,95.2244788 61.8171561,98.4242758 C60.6854429,101.624073 60.1097453,105.106747 60.0892432,108.870695 Z M80.0758627,92.080265 L84.9484914,101.071082 L83.0894878,102.0752 L79.0459591,94.6186349 L75.0016459,102.0752 L73.1434267,101.071082 L78.0160554,92.080265 L80.0758627,92.080265 Z M109.877101,79.9329013 C110.490102,80.1323878 111.228599,80.3398538 112.125576,80.558491 C113.523733,80.899214 115.264592,81.0005532 117.347348,80.8617106 C119.150955,80.7412207 120.708396,80.3278846 122.018867,79.6201064 C123.329338,78.9131262 124.397666,77.9667621 125.22385,76.7810142 C126.049229,75.5944684 126.634878,74.1996586 126.978384,72.5973828 C127.322695,70.9943091 127.429688,69.2372318 127.300974,67.323757 C127.166629,65.3504363 126.789335,63.5861775 126.16829,62.0309806 C125.547244,60.4773795 124.717842,59.1767274 123.678475,58.13062 C122.639913,57.0845127 121.416324,56.3144947 120.007709,55.8189702 C118.599898,55.3242436 117.040847,55.1343324 115.330558,55.2476408 C114.522072,55.3019011 113.725654,55.4239869 112.942106,55.6154939 C112.158559,55.8085969 111.440977,56.0344156 110.78534,56.2945461 C110.188428,56.5331319 109.656678,56.7669301 109.175608,56.9967386 C110.598704,60.8316676 111.330766,64.9363023 111.354095,69.3194202 C111.374207,73.0522121 110.876244,76.5879113 109.877101,79.9329013 Z M105.018946,80.9215565 C106.214379,77.3683025 106.800028,73.5094352 106.777503,69.3433586 C106.754978,65.1788779 106.127496,61.3263942 104.895059,57.7851094 C103.661816,54.2454205 101.855796,50.9674579 99.4778017,47.9536155 L102.713354,45.740113 C104.618323,48.0158553 106.246557,50.5501321 107.606905,53.3357619 C108.038097,53.1091452 108.559389,52.8769429 109.178826,52.6367611 C109.955938,52.3383293 110.873831,52.0590482 111.934114,51.8029075 C112.994396,51.5467668 114.193851,51.3736125 115.530065,51.2842425 C117.645804,51.143804 119.66018,51.380794 121.575608,51.9960104 C123.49184,52.6128227 125.197302,53.5839232 126.6928,54.9093116 C128.188297,56.2347001 129.419126,57.9103869 130.383678,59.93717 C131.349034,61.9639531 131.922617,64.3202879 132.104425,67.0037807 C132.286234,69.6872734 132.082705,72.0938788 131.493033,74.2251929 C130.904166,76.3557089 129.987882,78.175824 128.746595,79.6831442 C127.506112,81.1904644 125.976827,82.3770102 124.161153,83.2411858 C122.346284,84.1061594 120.302947,84.6136531 118.033555,84.7660608 C116.727107,84.853037 115.509149,84.8562287 114.378878,84.7772321 C113.249411,84.6966395 112.257508,84.5769476 111.403168,84.4173584 C110.548828,84.2585671 109.83366,84.0806251 109.259273,83.8867242 C108.97047,83.7893748 108.725109,83.6992069 108.523993,83.6154226 C107.05987,87.0960634 105.22328,90.2335875 102.968369,92.9888954 L99.7078783,90.8097046 C102.054498,87.7703279 103.825122,84.4740126 105.018946,80.9215565 Z M97.1828439,98.4242758 C96.0527708,95.2244788 94.3953849,92.2626833 92.2131466,89.5380878 L95.1826637,87.5371128 C97.5445001,90.320207 99.4520109,93.5232094 100.901096,97.1469214 C102.351001,100.773037 103.086615,104.673216 103.109577,108.849059 C103.132539,113.026505 102.43957,116.934697 101.029029,120.574436 C99.6193077,124.213373 97.7478804,127.43641 95.415567,130.242743 L92.4247277,128.273021 C94.5774431,125.525987 96.2020257,122.547363 97.2976554,119.336348 C98.3941051,116.12453 98.9312588,112.636247 98.9107568,108.870695 C98.8902547,105.106747 98.3145571,101.624073 97.1828439,98.4242758 Z M96.1706626,72.4799614 C97.2909185,71.4510456 97.8510465,70.0774849 97.8510465,68.3609522 C97.8510465,67.4006308 97.817606,66.6502751 97.7482171,66.1132312 C97.6805001,65.5753509 97.5994069,65.1462177 97.5091176,64.8266682 L86.2572334,64.8266682 C85.9370409,65.2148121 85.6285525,65.7752784 85.3309322,66.5080672 C85.034148,67.2400195 84.8845019,68.0405662 84.8845019,68.9097073 C84.8845019,69.8248567 85.0508682,70.6095096 85.382765,71.2619928 C85.7138257,71.9136395 86.1711242,72.4456642 86.7546605,72.8572305 C87.3381968,73.2696334 88.0237266,73.5665969 88.8129218,73.7506306 C89.6021171,73.9329913 90.4540132,74.0250081 91.3686102,74.0250081 C93.4494438,74.0250081 95.0495706,73.5097137 96.1706626,72.4799614 Z M73.9151897,71.2619928 C74.2470864,70.6095096 74.4134528,69.8248567 74.4134528,68.9097073 C74.4134528,68.0405662 74.2638066,67.2400195 73.9670224,66.5080672 C73.6694022,65.7752784 73.3609138,65.2148121 73.0407212,64.8266682 L61.789673,64.8266682 C61.6985477,65.1462177 61.6182906,65.5753509 61.5497376,66.1132312 C61.4803486,66.6502751 61.4469081,67.4006308 61.4469081,68.3609522 C61.4469081,70.0774849 62.0070361,71.4510456 63.1272921,72.4799614 C64.248384,73.5097137 65.8485108,74.0250081 67.9293444,74.0250081 C68.8439415,74.0250081 69.6966736,73.9329913 70.4858688,73.7506306 C71.2742281,73.5665969 71.9605938,73.2696334 72.5432941,72.8572305 C73.1268304,72.4456642 73.584129,71.9136395 73.9151897,71.2619928 Z M100.372458,64.4661295 C100.589822,65.5979368 100.698503,66.9079223 100.698503,68.3960859 C100.698503,69.7688101 100.48114,71.0043456 100.04725,72.1026923 C99.6125236,73.2002025 98.9947108,74.1387744 98.1946474,74.9175717 C97.393748,75.6946959 96.4156141,76.295315 95.2619176,76.7185926 C94.1065492,77.1418701 92.8090587,77.3543454 91.3686102,77.3543454 C90.019287,77.3543454 88.7727932,77.1761673 87.629965,76.8214841 C86.4854647,76.4676375 85.5023147,75.947324 84.6788429,75.2605436 C83.8562072,74.5737632 83.2158221,73.7330637 82.7585236,72.7376086 C82.3012251,71.7421535 82.0721578,70.603654 82.0721578,69.3229466 C82.0721578,68.2931943 82.2100998,67.3830639 82.4834757,66.5942285 C82.7585236,65.8045565 83.0210313,65.2148121 83.2726709,64.8266682 L83.1598093,64.8266682 L76.1381453,64.8266682 L76.0252837,64.8266682 C76.2769233,65.2148121 76.5402671,65.8045565 76.814479,66.5942285 C77.0878549,67.3830639 77.2257968,68.2931943 77.2257968,69.3229466 C77.2257968,70.603654 76.9967296,71.7421535 76.5402671,72.7376086 C76.0821325,73.7330637 75.4417474,74.5737632 74.6191117,75.2605436 C73.79564,75.947324 72.81249,76.4676375 71.6679897,76.8214841 C70.5251614,77.1761673 69.2786676,77.3543454 67.9293444,77.3543454 C66.4888959,77.3543454 65.1914054,77.1418701 64.036037,76.7185926 C62.8823406,76.295315 61.9042066,75.6946959 61.1033072,74.9175717 C60.3032438,74.1387744 59.685431,73.2002025 59.2507049,72.1026923 C58.8168147,71.0043456 58.5994516,69.7688101 58.5994516,68.3960859 C58.5994516,66.9079223 58.7081331,65.5979368 58.9254962,64.4661295 C59.1428593,63.3326491 59.3426662,62.389058 59.5257528,61.6336832 L76.1381453,61.6336832 L83.1598093,61.6336832 L99.7722019,61.6336832 C99.9544525,62.389058 100.155931,63.3326491 100.372458,64.4661295 Z" id="Combined-Shape"></path>
                </g>
            </g>
        </g>
    </g>
</svg>