<?xml version="1.0" encoding="UTF-8"?>
<svg width="68px" height="65px" viewBox="0 0 68 65" version="1.1" xmlns="http://www.w3.org/2000/svg" xmlns:xlink="http://www.w3.org/1999/xlink">
    <!-- Generator: Sketch 55.1 (78136) - https://sketchapp.com -->
    <title>Btn/&lt;</title>
    <desc>Created with Sketch.</desc>
    <g id="Btn/&lt;" stroke="none" stroke-width="1" fill="none" fill-rule="evenodd">
        <rect id="Rectangle-Copy-5" fill="#ED5265" fill-rule="nonzero" x="0" y="0" width="68" height="65"></rect>
        <path d="M40.1129964,33.5 L35.3,22.5916667 L40.6848375,19.5 L48.5,33.5 L40.6848375,47.5 L35.3,44.4083333 L40.1129964,33.5 Z M26.7483755,33.5 L22.3,22.5916667 L27.2768953,19.5 L34.5,33.5 L27.2768953,47.5 L22.3,44.4083333 L26.7483755,33.5 Z" id="Combined-Shape-Copy" fill="#EBEFEE" fill-rule="nonzero" transform="translate(35.400000, 33.500000) scale(-1, 1) translate(-35.400000, -33.500000) "></path>
        <rect id="Rectangle-Copy-6" fill="#0A0A0A" opacity="0.5" transform="translate(67.000000, 33.000000) scale(-1, 1) translate(-67.000000, -33.000000) " x="66" y="12" width="2" height="42"></rect>
        <rect id="Rectangle-Copy-7" fill="#0A0A0A" opacity="0.5" transform="translate(67.500000, 33.000000) scale(-1, 1) translate(-67.500000, -33.000000) " x="67" y="13" width="1" height="40"></rect>
        <path d="M66,65 L0,65 L0,63 L66,63 L66,2 L0,2 L0,0 L66,0 L68,0 L68,65 L66,65 Z" id="Combined-Shape-Copy-2" fill="#0A0A0A" transform="translate(34.000000, 32.500000) scale(-1, 1) translate(-34.000000, -32.500000) "></path>
    </g>
</svg>