<?xml version="1.0" encoding="UTF-8"?>
<svg width="68px" height="65px" viewBox="0 0 68 65" version="1.1" xmlns="http://www.w3.org/2000/svg" xmlns:xlink="http://www.w3.org/1999/xlink">
    <!-- Generator: Sketch 55.1 (78136) - https://sketchapp.com -->
    <title>Btn/&gt;</title>
    <desc>Created with Sketch.</desc>
    <g id="Btn/&gt;" stroke="none" stroke-width="1" fill="none" fill-rule="evenodd">
        <rect id="Rectangle" fill="#ED5265" fill-rule="nonzero" x="0" y="0" width="68" height="65"></rect>
        <path d="M40.1129964,33.5 L35.3,22.5916667 L40.6848375,19.5 L48.5,33.5 L40.6848375,47.5 L35.3,44.4083333 L40.1129964,33.5 Z M26.7483755,33.5 L22.3,22.5916667 L27.2768953,19.5 L34.5,33.5 L27.2768953,47.5 L22.3,44.4083333 L26.7483755,33.5 Z" id="Combined-Shape" fill="#EBEFEE" fill-rule="nonzero"></path>
        <rect id="Rectangle-Copy" fill="#0A0A0A" opacity="0.5" x="0" y="12" width="2" height="42"></rect>
        <rect id="Rectangle-Copy-4" fill="#0A0A0A" opacity="0.5" x="0" y="13" width="1" height="40"></rect>
        <path d="M66,65 L0,65 L0,63 L66,63 L66,2 L0,2 L0,0 L66,0 L68,0 L68,65 L66,65 Z" id="Combined-Shape" fill="#0A0A0A"></path>
    </g>
</svg>