<?xml version="1.0" encoding="UTF-8"?>
<svg width="550px" height="750px" viewBox="0 0 550 750" version="1.1" xmlns="http://www.w3.org/2000/svg" xmlns:xlink="http://www.w3.org/1999/xlink">
    <!-- Generator: Sketch 55.1 (78136) - https://sketchapp.com -->
    <title>Ilustraciones/ComoTrabajamos</title>
    <desc>Created with Sketch.</desc>
    <g id="Ilustraciones/ComoTrabajamos" stroke="none" stroke-width="1" fill="none" fill-rule="evenodd">
        <g id="Nuevas/Ventanas">
            <rect id="Rectangle" stroke="#191E28" stroke-width="2" fill="#0A0A0A" fill-rule="evenodd" x="1" y="1" width="548" height="748" rx="8"></rect>
            <rect id="Rectangle" stroke="#191E28" stroke-width="2" x="20" y="12" width="18" height="18"></rect>
            <rect id="Rectangle" fill="#191E28" fill-rule="evenodd" x="23" y="15" width="12" height="12"></rect>
            <rect id="Rectangle-Copy" stroke="#191E28" stroke-width="1.5" x="506.75" y="11.75" width="18.5" height="18.5"></rect>
            <rect id="Rectangle-Copy" stroke="#191E28" stroke-width="2" x="507" y="12" width="8" height="8"></rect>
            <g id="Lineas" fill-rule="evenodd" stroke-width="1" transform="translate(70.000000, 11.000000)" fill="#191E28">
                <rect id="Rectangle" x="0" y="0" width="410" height="2"></rect>
                <rect id="Rectangle-Copy-4" x="0" y="9" width="410" height="2"></rect>
                <rect id="Rectangle-Copy-7" x="0" y="18" width="410" height="2"></rect>
            </g>
            <path d="" id="Path-2" fill="#4A4A4A" fill-rule="nonzero"></path>
            <path d="M1,41 L549,41 L549,8 C549,4.13400675 545.865993,1 542,1 L8,1 C4.13400675,1 1,4.13400675 1,8 L1,41 Z" id="Rectangle" stroke="#191E28" stroke-width="2"></path>
        </g>
        <g id="Group" transform="translate(0.000000, 112.000000)">
            <rect id="Rectangle-Copy-45" fill="#191E28" x="0" y="457" width="550" height="8"></rect>
            <g id="Avatar/Programador" transform="translate(95.047619, 0.000000)" fill="#99FF99">
                <path d="M77.2387977,133.65386 C78.7167989,133.291121 79.9336645,132.946916 80.9437425,132.61595 C79.2973949,127.064983 78.4768723,121.200261 78.5100113,115.00722 C78.5484526,107.735229 79.7547137,100.923943 82.0996322,94.5627709 C81.3069464,94.1814977 80.4307501,93.7936053 79.4471834,93.3977696 C78.3668506,92.9661896 77.1844496,92.5902119 75.8933526,92.2711604 C74.6022556,91.9534327 73.2899495,91.7508814 71.9577601,91.6608585 C69.139616,91.4728697 66.5706775,91.7879496 64.2509447,92.608746 C61.9298862,93.4308662 59.913707,94.7083961 58.2024069,96.4439832 C56.4897812,98.1795704 55.1231272,100.337471 54.0997936,102.915036 C53.07646,105.493925 52.4547716,108.420991 52.2347283,111.696233 C52.0213129,114.870862 52.1976126,117.786013 52.7662786,120.444334 C53.3309678,123.103979 54.2959767,125.418095 55.6560029,127.386683 C57.0173548,129.353946 58.7777006,130.922726 60.9370405,132.096995 C63.097706,133.271263 65.6626678,133.957025 68.634577,134.156929 C72.0677817,134.387281 74.9349715,134.219151 77.2387977,133.65386 Z M86.0498059,115.046936 C86.0140158,121.958836 86.9790247,128.361047 88.9474837,134.256219 C90.9159427,140.150066 93.8335039,145.618953 97.7001673,150.661555 L92.3289915,154.277031 C88.6121166,149.705725 85.5858594,144.498963 83.1746627,138.725587 C82.8419468,138.864593 82.438976,139.01419 81.9617738,139.175702 C81.0153228,139.497401 79.8368985,139.792623 78.429152,140.056072 C77.0214056,140.320845 75.3869881,140.519425 73.5258995,140.653135 C71.6634854,140.784198 69.6565851,140.778902 67.5038729,140.633277 C63.763138,140.381743 60.397537,139.539764 57.4070699,138.104695 C54.4152772,136.670949 51.8953845,134.702361 49.8513685,132.200256 C47.8060269,129.700799 46.2962122,126.679739 45.3272266,123.146343 C44.3542643,119.610299 44.0188972,115.617522 44.3184742,111.165363 C44.6180511,106.711881 45.5631766,102.803831 47.1538505,99.4412139 C48.743199,96.0785965 50.7713083,93.2984797 53.2355274,91.0982159 C55.6984209,88.8992759 58.5099372,87.2894559 61.6660994,86.2661082 C64.8235873,85.2454082 68.1441192,84.8522202 71.6290208,85.0838966 C73.8321042,85.2334934 75.8071911,85.5207721 77.5542813,85.9457328 C79.3013716,86.3706935 80.8138374,86.8340463 82.09433,87.3291719 C83.1150125,87.7276553 83.9739764,88.1129 84.6844774,88.4888777 C86.9260022,83.8672646 89.608939,79.662669 92.7478689,75.8870056 L98.0806034,79.5594075 C94.1609177,84.559646 91.1850318,89.9967601 89.1529458,95.8707496 C87.1221853,101.744739 86.0882472,108.137684 86.0498059,115.046936 Z M99.0149794,180.626381 C98.9811961,186.873773 99.8663174,192.661153 101.673046,197.989849 C103.479774,203.315887 106.156759,208.259025 109.70265,212.816603 L104.774349,216.084551 C100.931166,211.428589 97.8474301,206.081279 95.5244935,200.042621 C93.2002056,194.005292 92.0583315,187.521247 92.0961688,180.590484 C92.134006,173.662381 93.3461492,167.19163 95.735301,161.175574 C98.1231015,155.163506 101.266295,149.849434 105.159478,145.232028 L110.051293,148.551827 C106.455403,153.07085 103.724365,157.986067 101.862232,163.294821 C99.9973964,168.603575 99.0487626,174.381648 99.0149794,180.626381 Z M131.948906,152.76953 L139.978017,167.686113 L136.914754,169.352036 L130.251832,156.980917 L123.587618,169.352036 L120.525647,167.686113 L128.554758,152.76953 L131.948906,152.76953 Z M181.055348,132.61595 C182.065451,132.946916 183.282346,133.291121 184.760383,133.65386 C187.064265,134.219151 189.93285,134.387281 193.364812,134.156929 C196.336794,133.957025 198.903144,133.271263 201.062536,132.096995 C203.221928,130.92405 204.982317,129.353946 206.343702,127.386683 C207.703761,125.418095 208.668793,123.103979 209.234822,120.445658 C209.802176,117.786013 209.97848,114.870862 209.766385,111.696233 C209.545011,108.422315 208.923307,105.495249 207.899949,102.915036 C206.87659,100.337471 205.509903,98.1795704 203.797236,96.4439832 C202.085894,94.7083961 200.069666,93.4308662 197.748551,92.608746 C195.428762,91.7879496 192.859761,91.4728697 190.041549,91.6608585 C188.709327,91.7508814 187.396989,91.9534327 186.105861,92.2711604 C184.814732,92.5915357 183.632303,92.9661896 182.551944,93.3977696 C181.568353,93.7936053 180.692135,94.1814977 179.89943,94.5627709 C182.244406,100.925267 183.450696,107.735229 183.489138,115.00722 C183.522278,121.200261 182.701736,127.066307 181.055348,132.61595 Z M173.050087,134.256219 C175.019919,128.361047 175.984952,121.958836 175.947835,115.046936 C175.910718,108.137684 174.876755,101.746063 172.845945,95.8707496 C170.81381,89.998084 167.837852,84.559646 163.919397,79.5594075 L169.250935,75.8870056 C172.389941,79.662669 175.072943,83.8672646 177.314522,88.4888777 C178.025041,88.1129 178.884025,87.7276553 179.904733,87.3291719 C181.185256,86.8340463 182.697759,86.3706935 184.444892,85.9457328 C186.192024,85.5207721 188.168485,85.2334934 190.370296,85.0852205 C193.856608,84.8522202 197.175895,85.2454082 200.332134,86.2661082 C203.489698,87.2894559 206.299957,88.9005998 208.764236,91.0995397 C211.228515,93.2984797 213.256674,96.0785965 214.846061,99.4412139 C216.436773,102.803831 217.381922,106.713205 217.681506,111.165363 C217.98109,115.617522 217.645715,119.610299 216.674055,123.146343 C215.70372,126.681063 214.193868,129.700799 212.148477,132.20158 C210.104411,134.702361 207.584458,136.670949 204.592592,138.104695 C201.602053,139.539764 198.235044,140.381743 194.495544,140.634601 C192.34278,140.778902 190.335831,140.784198 188.473371,140.653135 C186.612237,140.519425 184.97778,140.320845 183.57,140.056072 C182.162219,139.792623 180.983766,139.497401 180.037292,139.175702 C179.561404,139.01419 179.157098,138.864593 178.825699,138.725587 C176.413118,144.500287 173.386788,149.705725 169.671148,154.277031 L164.298516,150.661555 C168.165274,145.618953 171.082906,140.150066 173.050087,134.256219 Z M160.137768,163.294821 C158.275635,157.986067 155.544597,153.072179 151.948707,148.551827 L156.841874,145.232028 C160.733705,149.849434 163.876899,155.163506 166.264699,161.175574 C168.653851,167.19163 169.865994,173.662381 169.903831,180.590484 C169.941668,187.521247 168.799794,194.005292 166.475507,200.04395 C164.15257,206.081279 161.068834,211.428589 157.225651,216.084551 L152.29735,212.816603 C155.844592,208.259025 158.521577,203.317217 160.326954,197.989849 C162.133683,192.661153 163.018804,186.873773 162.985021,180.626381 C162.951237,174.381648 162.002604,168.603575 160.137768,163.294821 Z M158.469897,120.250845 C160.315853,118.54378 161.238831,116.264918 161.238831,113.417034 C161.238831,111.823774 161.183728,110.578866 161.069389,109.687861 C160.957805,108.795468 160.82418,108.083498 160.675401,107.553336 L142.134561,107.553336 C141.606948,108.197302 141.098621,109.127166 140.608203,110.34293 C140.119162,111.557305 139.872575,112.885485 139.872575,114.327469 C139.872575,115.845785 140.146714,117.147595 140.693613,118.230124 C141.239134,119.311265 141.99267,120.193943 142.95422,120.876769 C143.915771,121.560983 145.045386,122.053672 146.345821,122.359001 C147.646256,122.661554 149.050009,122.814218 150.557081,122.814218 C153.985876,122.814218 156.622563,121.959298 158.469897,120.250845 Z M121.797357,118.230124 C122.344256,117.147595 122.618394,115.845785 122.618394,114.327469 C122.618394,112.885485 122.371807,111.557305 121.882766,110.34293 C121.392348,109.127166 120.884021,108.197302 120.356409,107.553336 L101.816945,107.553336 C101.666789,108.083498 101.534542,108.795468 101.42158,109.687861 C101.307241,110.578866 101.252138,111.823774 101.252138,113.417034 C101.252138,116.264918 102.175116,118.54378 104.021072,120.250845 C105.868406,121.959298 108.505093,122.814218 111.933888,122.814218 C113.44096,122.814218 114.846091,122.661554 116.146526,122.359001 C117.445583,122.053672 118.576576,121.560983 119.536749,120.876769 C120.498299,120.193943 121.251835,119.311265 121.797357,118.230124 Z M165.393611,106.955169 C165.751781,108.832941 165.930867,111.006326 165.930867,113.475324 C165.930867,115.752799 165.572696,117.802664 164.857732,119.624921 C164.141391,121.44579 163.12336,123.002967 161.805016,124.295062 C160.485295,125.584382 158.873528,126.580864 156.972468,127.283119 C155.068653,127.985375 152.93065,128.337891 150.557081,128.337891 C148.333668,128.337891 146.279697,128.042278 144.396546,127.453826 C142.51064,126.866762 140.890607,126.003515 139.533691,124.864084 C138.178153,123.724653 137.122927,122.329856 136.369391,120.678305 C135.615855,119.026755 135.238398,117.13788 135.238398,115.013071 C135.238398,113.304618 135.465699,111.794629 135.916167,110.485879 C136.369391,109.175741 136.801951,108.197302 137.216602,107.553336 L137.030629,107.553336 L125.46034,107.553336 L125.274367,107.553336 C125.689018,108.197302 126.122956,109.175741 126.574802,110.485879 C127.02527,111.794629 127.252571,113.304618 127.252571,115.013071 C127.252571,117.13788 126.875114,119.026755 126.122956,120.678305 C125.368042,122.329856 124.312816,123.724653 122.957278,124.864084 C121.600363,126.003515 119.980329,126.866762 118.094423,127.453826 C116.211272,128.042278 114.157301,128.337891 111.933888,128.337891 C109.560319,128.337891 107.422316,127.985375 105.518501,127.283119 C103.617442,126.580864 102.005674,125.584382 100.685953,124.295062 C99.3676093,123.002967 98.3495782,121.44579 97.6332369,119.624921 C96.9182732,117.802664 96.5601026,115.752799 96.5601026,113.475324 C96.5601026,111.006326 96.7391879,108.832941 97.0973586,106.955169 C97.4555292,105.074622 97.7847707,103.509119 98.0864605,102.255884 L125.46034,102.255884 L137.030629,102.255884 L164.404509,102.255884 C164.704821,103.509119 165.036818,105.074622 165.393611,106.955169 Z" id="Combined-Shape"></path>
            </g>
            <path d="M279.829421,179.448622 L316.667364,192.551612 C322.628076,194.675396 326.626566,200.422887 326.626566,206.889052 L326.626566,286.716792 L127.12782,286.716792 L127.12782,206.889052 C127.12782,200.422887 131.12631,194.675396 137.087022,192.551612 L173.924965,179.448622" id="Stroke-1-Copy" stroke="#99FF99" stroke-width="3"></path>
            <path d="M365.724311,432.080201 L88.0300752,432.080201 L88.0300752,303.527969 C88.0300752,294.243796 95.5714264,286.716792 104.873296,286.716792 L348.88109,286.716792 C358.18296,286.716792 365.724311,294.243796 365.724311,303.527969 L365.724311,432.080201 Z" id="Stroke-24-Copy" stroke="#99FF99" stroke-width="3"></path>
            <path d="M377.754386,455.137845 L76,455.137845 L76,435.730006 C76,433.715313 77.6669969,432.080201 79.7251328,432.080201 L374.029253,432.080201 C376.087389,432.080201 377.754386,433.715313 377.754386,435.730006 L377.754386,455.137845 Z" id="Stroke-26-Copy" stroke="#99FF99" stroke-width="3"></path>
            <path d="M226.877193,265.66416 L226.877193,286.716792" id="Stroke-30-Copy" stroke="#99FF99" stroke-width="3"></path>
            <polyline id="Stroke-32-Copy" stroke="#99FF99" stroke-width="3" points="174.245614 195.488722 174.245614 248.346125 203.973371 231.889163 226.877193 266.666667 249.781015 231.889163 279.508772 248.346125 279.508772 195.488722"></polyline>
            <path d="M240.115789,341.102584 C240.115789,341.102584 240.385965,350.841957 229.828906,358.455235 C219.270008,366.066614 210.33584,363.267922 210.33584,363.267922 L210.33584,365.508015 C210.33584,365.508015 214.397661,368.922306 221.815539,368.922306 C229.233417,368.922306 243.418546,363.82842 243.418546,349.331461 C243.418546,344.349675 241.253467,341.102584 241.253467,341.102584 L241.253467,339.14369 L242.769758,336.567297 L240.332665,335.839599 L239.628739,338.752291 L240.115789,341.102584 Z" id="Stroke-34-Copy" fill="#99FF99"></path>
            <path d="M421.066285,365.927097 C427.573486,365.692607 430.894737,368.837429 430.894737,372.850245 C430.894737,375.297269 430.046983,377.158065 427.964594,381.059309 C426.402274,384.026372 425.231063,386.180283 425.231063,388.336084 C425.231063,390.42948 427.11684,391.418501 430.698126,391.477124 L430.698126,394.9699 C423.408708,395.261122 420.869674,391.885592 420.869674,388.277461 C420.869674,385.949574 421.654005,383.852395 423.736394,379.835797 C425.231063,377.101334 426.596771,374.949315 426.596771,372.850245 C426.596771,370.756849 424.971028,369.476605 421.066285,369.35936 L421.066285,365.927097 Z M449.136461,365.927097 C455.643661,365.692607 458.964912,368.837429 458.964912,372.850245 C458.964912,375.297269 458.117158,377.158065 456.03477,381.059309 C454.47245,384.026372 453.301238,386.180283 453.301238,388.336084 C453.301238,390.42948 455.187015,391.418501 458.768301,391.477124 L458.768301,394.9699 C451.478884,395.261122 448.93985,391.885592 448.93985,388.277461 C448.93985,385.949574 449.724181,383.852395 451.806569,379.835797 C453.301238,377.101334 454.666947,374.949315 454.666947,372.850245 C454.666947,370.756849 453.041204,369.476605 449.136461,369.35936 L449.136461,365.927097 Z M436.064557,354.899528 C441.270317,354.665039 443.927318,357.809839 443.927318,361.824517 C443.927318,364.269631 443.249115,366.132305 441.583204,370.033521 C440.333348,372.998671 439.396379,375.154457 439.396379,377.308351 C439.396379,379.403624 440.905001,380.392638 443.770029,380.45126 L443.770029,383.942119 C437.938496,384.235231 435.907268,380.857833 435.907268,377.249729 C435.907268,374.921859 436.534733,372.826587 438.200644,368.810018 C439.396379,366.075574 440.488946,363.92168 440.488946,361.824517 C440.488946,359.731135 439.188352,358.450901 436.064557,358.333657 L436.064557,354.899528 Z M457.105917,438.372359 C460.986309,434.627354 462.926504,428.827139 462.926504,420.971715 C462.926504,417.532188 462.835315,415.078697 462.647116,413.605442 L417.933368,413.605442 C417.873222,414.280201 417.828597,415.169567 417.797554,416.275474 C417.76069,417.381382 417.745169,418.885571 417.745169,420.788042 C417.745169,428.58353 419.73775,434.397279 423.70739,438.235088 C427.67703,442.06903 433.241511,443.988901 440.383371,443.988901 C447.647464,443.988901 453.225526,442.115431 457.105917,438.372359 Z M406.641429,424.708987 C407.054691,424.575582 407.413627,424.44991 407.74152,424.322306 C407.64451,422.932188 407.586304,421.511135 407.586304,420.049481 C407.586304,417.472252 407.691075,414.556677 407.910317,411.30469 C407.93942,410.867741 408.007327,410.457859 408.044191,410.02671 C407.555261,409.775367 406.967382,409.529825 406.201005,409.297816 C405.230907,409.003938 404.177381,408.857 403.044307,408.857 C402.064508,408.857 401.148735,409.025206 400.29893,409.363552 C399.447184,409.699964 398.71185,410.204583 398.090987,410.877408 C397.470124,411.550233 396.985076,412.395131 396.63584,413.417902 C396.288545,414.440673 396.113928,415.623917 396.113928,416.9715 C396.113928,418.164411 396.249741,419.260652 396.521369,420.262155 C396.794936,421.259792 397.214019,422.124024 397.780556,422.852918 C398.347093,423.579878 399.066905,424.144433 399.939994,424.546581 C400.811141,424.948729 401.856907,425.14787 403.07729,425.14787 C404.538257,425.14787 405.725657,425.002864 406.641429,424.708987 Z M472.722552,411.39556 C472.90299,414.71135 473,417.655926 473,420.235088 C473,425.575152 472.369436,430.455066 471.106369,434.872897 C469.843302,439.29266 467.874003,443.082134 465.188772,446.243251 C462.511302,449.404368 459.121781,451.844325 455.029908,453.563122 C450.932215,455.281919 446.052623,456.140351 440.383371,456.140351 C434.842173,456.140351 430.022727,455.281919 425.925034,453.563122 C421.82734,451.844325 418.406775,449.404368 415.669159,446.243251 C412.925723,443.082134 410.894338,439.277193 409.571125,434.826495 C408.92892,432.664948 408.449692,430.385464 408.117918,428.001575 C407.844351,428.088579 407.549441,428.177515 407.231249,428.262585 C406.620087,428.423058 405.933258,428.554529 405.170761,428.653133 C404.406324,428.749803 403.589501,428.798138 402.718354,428.798138 C401.018742,428.798138 399.491808,428.537129 398.141432,428.015109 C396.789116,427.495023 395.6444,426.729395 394.707286,425.718224 C393.770171,424.708987 393.050359,423.475474 392.549788,422.01962 C392.047278,420.5657 391.796992,418.893305 391.796992,417.002435 C391.796992,415.113498 392.086082,413.441103 392.66426,411.987182 C393.240498,410.531328 394.030158,409.297816 395.035179,408.286645 C396.03632,407.275474 397.214019,406.511779 398.566335,405.98976 C399.916711,405.467741 401.366037,405.208665 402.914313,405.208665 C403.851428,405.208665 404.701234,405.278267 405.465671,405.419406 C406.228168,405.560544 406.891714,405.71715 407.458252,405.891156 C407.84241,406.011028 408.164483,406.134765 408.459393,406.26237 C408.674754,404.812317 408.93086,403.387397 409.249052,402.005013 L471.430382,402.005013 C472.10557,404.951522 472.534353,408.081704 472.722552,411.39556 Z" id="Combined-Shape-Copy-2" fill="#191E28"></path>
        </g>
    </g>
</svg>