<svg xmlns="http://www.w3.org/2000/svg" viewBox="0 0 477.82 497.49"><defs><style>.cls-1{isolation:isolate;}.cls-2{fill:#ed5265;}.cls-10,.cls-13,.cls-3,.cls-9{fill:none;}.cls-3{stroke:#fff;opacity:0.79;}.cls-13,.cls-3,.cls-9{stroke-linecap:round;stroke-linejoin:round;}.cls-10,.cls-3{stroke-width:3px;}.cls-4{opacity:0.29;}.cls-11,.cls-5{fill:#404041;}.cls-16,.cls-6{fill:#f1f1f2;}.cls-11,.cls-7{opacity:0.2;mix-blend-mode:multiply;}.cls-8{fill:#25a9e0;}.cls-9{stroke:#25a9e0;}.cls-13,.cls-9{stroke-width:0.5px;}.cls-10{stroke:#404041;stroke-miterlimit:10;opacity:0.4;}.cls-12{fill:#557b84;}.cls-13{stroke:#ed5265;}.cls-14{fill:#00e676;}.cls-15{fill:#dad6c9;}.cls-16{font-size:14px;font-family:UbuntuMono-Regular, Ubuntu Mono;}</style></defs><title>DisketsColores</title><g class="cls-1"><g id="Layer_2" data-name="Layer 2"><g id="Layer_1-2" data-name="Layer 1"><polygon class="cls-2" points="416.16 439.76 64.7 491.49 59.92 487.37 6 120.96 14.82 112.64 342.61 64.4 367.86 83.24 419.55 434.44 416.16 439.76"/><polyline class="cls-3" points="61.19 427.81 16.57 124.63 19.36 122 31.59 120.2"/><polyline class="cls-3" points="296.95 81.14 339.98 74.81 358.64 88.74 401.18 377.77"/><g class="cls-4"><path class="cls-5" d="M282.53,73.24l17.69,120.23a8.51,8.51,0,0,1-7.18,9.65l-225,33.1a7.49,7.49,0,0,1-1.24.1,8.51,8.51,0,0,1-8.41-7.27L40.74,108.82,282.53,73.24m2.53-3.4-3,.43L40.3,105.85l-3,.44.43,3L55.46,229.48a11.58,11.58,0,0,0,11.38,9.84,11.88,11.88,0,0,0,1.68-.13l225-33.1A11.52,11.52,0,0,0,303.19,193L285.49,72.8l-.43-3Z"/></g><path class="cls-6" d="M118.18,230.26a10.05,10.05,0,0,1-9.88-8.55L90.39,100l193.4-28.46L301.7,193.25a10,10,0,0,1-8.44,11.35L119.65,230.15A10.28,10.28,0,0,1,118.18,230.26Z"/><path class="cls-5" d="M282.53,73.24l17.69,120.23a8.51,8.51,0,0,1-7.18,9.65L119.43,228.67a8.76,8.76,0,0,1-1.25.09,8.51,8.51,0,0,1-8.4-7.27L92.09,101.27l190.44-28m2.53-3.4-3,.43L91.65,98.3l-3,.43.44,3,17.69,120.23a11.58,11.58,0,0,0,11.37,9.83,10.69,10.69,0,0,0,1.69-.13l173.61-25.54A11.51,11.51,0,0,0,303.19,193L285.49,72.8l-.43-3Z"/><rect class="cls-2" x="214.81" y="101.05" width="47.41" height="102.15" rx="2.83" transform="translate(-19.61 36.35) rotate(-8.37)"/><g class="cls-7"><path class="cls-5" d="M251.73,98.56l-41.3,6.07a2.82,2.82,0,0,0-2.2,1.74,2.81,2.81,0,0,1,1.36-.6l41.3-6.08a2.82,2.82,0,0,1,3.21,2.39l14,95.45A2.75,2.75,0,0,1,268,199a2.83,2.83,0,0,0,1-2.61L255,101A2.83,2.83,0,0,0,251.73,98.56Z"/></g><rect class="cls-5" x="64.15" y="446.31" width="18.44" height="15.8" rx="2.83" transform="translate(-65.35 15.52) rotate(-8.37)"/><rect class="cls-6" x="387.9" y="398.67" width="18.44" height="15.8" rx="2.83" transform="translate(-54.96 62.15) rotate(-8.37)"/><polyline class="cls-3" points="274.08 84.51 103.43 109.63 119.85 221.21"/><path class="cls-5" d="M342.61,64.4l25.25,18.84,51.69,351.2-3.39,5.32L64.7,491.49l-4.78-4.12L6,121l8.82-8.32L342.61,64.4m0-6a6.36,6.36,0,0,0-.87.06L14,106.7a6,6,0,0,0-3.24,1.57L1.88,116.6a6,6,0,0,0-1.82,5.24L54,488.24a6,6,0,0,0,2,3.67L60.78,496a6,6,0,0,0,3.92,1.46,5.1,5.1,0,0,0,.87-.07L417,445.7a6,6,0,0,0,4.19-2.71l3.39-5.32a6,6,0,0,0,.87-4.1L373.8,82.37a6,6,0,0,0-2.35-3.94L346.2,59.59a6,6,0,0,0-3.59-1.19Z"/><path class="cls-6" d="M92.57,487.38,60.72,271a5.67,5.67,0,0,1,4.79-6.43l279.38-41.12a5.67,5.67,0,0,1,6.43,4.79l31.85,216.4Z"/><path class="cls-8" d="M63.7,291.2l-3-20.22a5.67,5.67,0,0,1,4.79-6.43l279.38-41.12a5.67,5.67,0,0,1,6.43,4.79l3,20.21Z"/><line class="cls-9" x1="117.25" y1="466.76" x2="362.98" y2="430.6"/><line class="cls-9" x1="112.61" y1="435.23" x2="358.34" y2="399.07"/><line class="cls-9" x1="107.97" y1="403.69" x2="353.7" y2="367.53"/><line class="cls-9" x1="103.33" y1="372.16" x2="349.06" y2="336"/><line class="cls-9" x1="98.69" y1="340.63" x2="344.42" y2="304.47"/><line class="cls-9" x1="94.05" y1="309.09" x2="339.78" y2="272.93"/><path class="cls-5" d="M344.58,224a8.51,8.51,0,0,1,8.41,7.27L384.8,447.41,96.93,489.78,65.11,273.58a8.51,8.51,0,0,1,7.18-9.65l271-39.89a8.73,8.73,0,0,1,1.24-.09m0-3h0a11.9,11.9,0,0,0-1.69.12L71.85,261A11.51,11.51,0,0,0,62.14,274L94,490.21l.44,3,3-.44,287.88-42.36,3-.44-.44-3L356,230.78A11.58,11.58,0,0,0,344.59,221Z"/><path class="cls-10" d="M95.19,490,63.52,274.8a8.5,8.5,0,0,1,7.17-9.65l271.74-40a8.52,8.52,0,0,1,9.66,7.17l31.67,215.23"/><polygon class="cls-11" points="75.23 103.75 48.73 411.34 56.39 463.36 182.17 474.2 411.06 440.51 414.53 400.33 371.36 107.01 170.6 89.71 75.23 103.75"/><polygon class="cls-12" points="392.39 483.17 38.45 452.68 34.75 447.57 66.54 78.59 77.04 72.51 407.14 100.95 427.38 125.1 396.9 478.77 392.39 483.17"/><polyline class="cls-3" points="49.68 389.9 75.98 84.59 79.31 82.67 91.62 83.73"/><polyline class="cls-3" points="358.85 106.75 402.18 110.48 417.14 128.33 392.06 419.4"/><g class="cls-4"><path class="cls-5" d="M103.14,74.76l243.49,21L336.2,216.81a8.51,8.51,0,0,1-8.47,7.78c-.24,0-.49,0-.73,0L100.45,205a8.51,8.51,0,0,1-7.74-9.21L103.14,74.76m-2.73-3.24-.26,3L89.72,195.58A11.51,11.51,0,0,0,100.2,208l226.54,19.51c.33,0,.66.05,1,.05a11.58,11.58,0,0,0,11.46-10.52L349.62,96l.26-3-3-.26-243.49-21-3-.25Z"/></g><path class="cls-6" d="M327.74,226.09c-.29,0-.58,0-.87,0L152,211a10,10,0,0,1-9.1-10.83L153.49,77.59,348.25,94.38,337.69,216.94A10.06,10.06,0,0,1,327.74,226.09Z"/><path class="cls-5" d="M154.85,79.22,346.63,95.74,336.2,216.81a8.51,8.51,0,0,1-8.47,7.78c-.24,0-.49,0-.73,0L152.16,209.49a8.5,8.5,0,0,1-7.74-9.2L154.85,79.22M152.12,76l-.26,3L141.43,200a11.5,11.5,0,0,0,10.48,12.45l174.83,15.06c.33,0,.66.05,1,.05a11.58,11.58,0,0,0,11.46-10.52L349.62,96l.26-3-3-.26L155.11,76.23l-3-.26Z"/><rect class="cls-5" x="47.56" y="409.18" width="15.8" height="18.44" rx="2.83" transform="translate(-366.16 437.74) rotate(-85.08)"/><rect class="cls-6" x="373.59" y="437.27" width="15.8" height="18.44" rx="2.83" transform="translate(-96.1 788.24) rotate(-85.08)"/><polyline class="cls-3" points="335.81 104.77 163.96 89.96 154.28 202.33"/><path class="cls-5" d="M77,72.51,407.14,101l20.24,24.15L396.91,478.78l-4.52,4.39L38.45,452.68l-3.7-5.11,31.79-369L77,72.51m0-6a6,6,0,0,0-3,.81l-10.5,6.07a6,6,0,0,0-3,4.68l-31.79,369a6,6,0,0,0,1.12,4l3.7,5.11a6,6,0,0,0,4.34,2.46l353.94,30.49a4.52,4.52,0,0,0,.52,0,6,6,0,0,0,4.18-1.7l4.52-4.4a6,6,0,0,0,1.79-3.78l30.48-353.68a6,6,0,0,0-1.38-4.37L411.73,97.1A6,6,0,0,0,407.65,95L77.56,66.54a4.53,4.53,0,0,0-.52,0Z"/><path class="cls-6" d="M68.72,455.29,87.5,237.36a5.66,5.66,0,0,1,6.13-5.16L375,256.44a5.66,5.66,0,0,1,5.16,6.13L361.37,480.5Z"/><path class="cls-2" d="M85.74,257.72l1.76-20.36a5.66,5.66,0,0,1,6.13-5.16L375,256.44a5.66,5.66,0,0,1,5.16,6.13l-1.75,20.36Z"/><line class="cls-13" x1="95.28" y1="440.7" x2="342.74" y2="462.02"/><line class="cls-13" x1="98.02" y1="408.95" x2="345.48" y2="430.27"/><line class="cls-13" x1="100.75" y1="377.19" x2="348.21" y2="398.51"/><line class="cls-13" x1="103.49" y1="345.44" x2="350.95" y2="366.76"/><line class="cls-13" x1="106.23" y1="313.68" x2="353.68" y2="335"/><line class="cls-13" x1="108.96" y1="281.92" x2="356.42" y2="303.25"/><path class="cls-5" d="M97.43,232.94c.25,0,.49,0,.74,0l273,23.52a8.5,8.5,0,0,1,7.74,9.2L360.11,483.4l-289.9-25L89,240.71a8.5,8.5,0,0,1,8.46-7.77m0-3h0A11.58,11.58,0,0,0,86,240.45L67.22,458.17l-.26,3,3,.25,289.9,25,3,.26.26-3L381.86,266a11.5,11.5,0,0,0-10.47-12.45L98.43,230c-.33,0-.67,0-1,0Z"/><path class="cls-10" d="M68.46,458.28,87.14,241.53a8.49,8.49,0,0,1,9.2-7.74L370,257.37a8.51,8.51,0,0,1,7.75,9.2L359.06,483.31"/><rect class="cls-12" x="234.59" y="138.68" width="102.15" height="47.41" rx="2.83" transform="matrix(0.09, -1, 1, 0.09, 99.35, 433.05)"/><g class="cls-7"><path class="cls-5" d="M310.84,113.29l-41.59-3.58a2.84,2.84,0,0,0-2.55,1.19,2.91,2.91,0,0,1,1.47-.28l41.59,3.59a2.83,2.83,0,0,1,2.58,3.06l-8.28,96.12a2.81,2.81,0,0,1-.53,1.4,2.82,2.82,0,0,0,1.61-2.31l8.28-96.12A2.84,2.84,0,0,0,310.84,113.29Z"/></g><polygon class="cls-11" points="427.38 125.1 407.14 100.95 125.53 76.69 118.32 81.73 118.32 452.09 122.44 456.86 398.79 456.86 427.38 125.1"/><polygon class="cls-14" points="467.69 446.86 112.44 446.86 108.32 442.09 108.32 71.73 118.26 64.78 449.58 64.78 471.82 87.1 471.82 442.09 467.69 446.86"/><polyline class="cls-3" points="118.24 383.34 118.24 76.9 121.38 74.7 133.75 74.7"/><polyline class="cls-3" points="401.97 74.7 445.46 74.7 461.89 91.2 461.89 383.34"/><g class="cls-4"><path class="cls-5" d="M388.84,64.78V186.3a8.5,8.5,0,0,1-8.5,8.51H153a8.5,8.5,0,0,1-8.5-8.51V64.78H388.84m3-3H141.46V186.3A11.52,11.52,0,0,0,153,197.81H380.34a11.52,11.52,0,0,0,11.5-11.51V61.78Z"/></g><path class="cls-6" d="M204.86,196.31a10,10,0,0,1-10-10v-123H390.34v123a10,10,0,0,1-10,10Z"/><path class="cls-5" d="M388.84,64.78V186.3a8.5,8.5,0,0,1-8.5,8.51H204.86a8.5,8.5,0,0,1-8.5-8.51V64.78H388.84m3-3H193.36V186.3a11.52,11.52,0,0,0,11.5,11.51H380.34a11.52,11.52,0,0,0,11.5-11.51V61.78Z"/><rect class="cls-14" x="310.11" y="85.34" width="47.41" height="102.15" rx="2.83"/><g class="cls-7"><path class="cls-5" d="M354.69,85.34H313a2.84,2.84,0,0,0-2.44,1.41,2.84,2.84,0,0,1,1.44-.41h41.74a2.84,2.84,0,0,1,2.84,2.84v96.48a2.8,2.8,0,0,1-.4,1.43,2.82,2.82,0,0,0,1.4-2.43V88.18A2.84,2.84,0,0,0,354.69,85.34Z"/></g><rect class="cls-5" x="117.23" y="403.34" width="18.44" height="15.8" rx="2.83"/><rect class="cls-6" x="444.47" y="403.34" width="18.44" height="15.8" rx="2.83"/><polyline class="cls-3" points="378.85 74.7 206.36 74.7 206.36 187.49"/><path class="cls-5" d="M449.58,64.78,471.82,87.1v355l-4.13,4.77H112.44l-4.12-4.77V71.74l9.94-7H449.58m0-6H118.26a6,6,0,0,0-3.44,1.09l-9.94,6.95a6,6,0,0,0-2.56,4.92V442.09a6,6,0,0,0,1.46,3.92l4.12,4.77a6,6,0,0,0,4.54,2.08H467.69a6,6,0,0,0,4.54-2.08l4.12-4.77a6,6,0,0,0,1.47-3.92V87.1a6,6,0,0,0-1.75-4.23L453.83,60.55a6,6,0,0,0-4.25-1.77Z"/><path class="cls-6" d="M142.83,446.86V228.12a5.67,5.67,0,0,1,5.67-5.67H430.89a5.67,5.67,0,0,1,5.67,5.67V446.86Z"/><path class="cls-2" d="M142.83,248.56V228.12a5.67,5.67,0,0,1,5.67-5.67H430.89a5.67,5.67,0,0,1,5.67,5.67v20.44Z"/><line class="cls-13" x1="168.04" y1="430.05" x2="416.41" y2="430.05"/><line class="cls-13" x1="168.04" y1="398.18" x2="416.41" y2="398.18"/><line class="cls-13" x1="168.04" y1="366.3" x2="416.41" y2="366.3"/><line class="cls-13" x1="168.04" y1="334.43" x2="416.41" y2="334.43"/><line class="cls-13" x1="168.04" y1="302.56" x2="416.41" y2="302.56"/><line class="cls-13" x1="168.04" y1="270.68" x2="416.41" y2="270.68"/><path class="cls-5" d="M427.05,222.83a8.51,8.51,0,0,1,8.51,8.51V449.86h-291V231.34a8.51,8.51,0,0,1,8.5-8.51h274m0-3h-274a11.52,11.52,0,0,0-11.5,11.51V452.86h297V231.34a11.53,11.53,0,0,0-11.51-11.51Z"/><path class="cls-10" d="M142.83,449.86V232.31a8.49,8.49,0,0,1,8.5-8.5H426a8.5,8.5,0,0,1,8.5,8.5V449.86"/><polygon class="cls-11" points="459.19 394.61 104.43 413.16 100.06 408.62 80.72 38.77 90.28 31.31 421.14 14 444.52 35.13 463.06 389.63 459.19 394.61"/><polygon class="cls-15" points="450.19 386.61 95.43 405.16 91.06 400.62 71.72 30.77 81.28 23.31 412.14 6 435.52 27.13 454.06 381.63 450.19 386.61"/><polyline class="cls-3" points="97.9 341.43 81.89 35.41 84.92 33.05 97.27 32.4"/><polyline class="cls-3" points="365.12 18.39 408.55 16.12 425.82 31.74 441.09 323.48"/><g class="cls-4"><path class="cls-5" d="M351.5,9.17l6.34,121.36a8.49,8.49,0,0,1-8,8.93L122.72,151.34h-.45a8.5,8.5,0,0,1-8.48-8.06L107.44,21.94,351.5,9.17M354.33,6l-3,.16L107.28,18.94l-3,.16.15,3,6.35,121.36a11.5,11.5,0,0,0,11.48,10.9h.61L350,142.46a11.52,11.52,0,0,0,10.89-12.09L354.49,9l-.16-3Z"/></g><path class="cls-6" d="M174.1,150.14a10,10,0,0,1-10-9.48L157.69,17.81,352.92,7.6l6.42,122.85A10,10,0,0,1,349.87,141l-175.24,9.17Z"/><path class="cls-5" d="M351.5,9.17l6.34,121.36a8.49,8.49,0,0,1-8,8.93l-175.25,9.17h-.45a8.5,8.5,0,0,1-8.48-8.06L159.27,19.23,351.5,9.17M354.33,6l-3,.16L159.11,16.23l-3,.16.15,3,6.35,121.36a11.5,11.5,0,0,0,11.48,10.9h.61L350,142.46a11.5,11.5,0,0,0,10.89-12.09L354.49,9l-.16-3Z"/><rect class="cls-5" x="98.34" y="360.97" width="18.44" height="15.8" rx="2.83" transform="translate(-19.12 6.12) rotate(-2.99)"/><rect class="cls-6" x="425.13" y="343.87" width="18.44" height="15.8" rx="2.83" transform="translate(-17.78 23.17) rotate(-2.99)"/><polyline class="cls-3" points="342.03 19.6 169.78 28.61 175.67 141.24"/><path class="cls-5" d="M412.14,6l23.38,21.12,18.54,354.51-3.87,5L95.43,405.16l-4.37-4.55L71.72,30.77l9.56-7.46L412.14,6m0-6h-.31L81,17.31a6,6,0,0,0-3.38,1.27L68,26a6,6,0,0,0-2.3,5L85.07,400.93a6,6,0,0,0,1.66,3.84l4.37,4.55a6,6,0,0,0,4.33,1.84h.31L450.51,392.6a6,6,0,0,0,4.42-2.31l3.87-5a6,6,0,0,0,1.25-4L441.51,26.81a6,6,0,0,0-2-4.14L416.17,1.55a6,6,0,0,0-4-1.55Z"/><path class="cls-6" d="M125.77,403.58,114.35,185.14a5.66,5.66,0,0,1,5.36-6l282-14.75a5.67,5.67,0,0,1,5.95,5.37L419.1,388.23Z"/><path class="cls-2" d="M115.41,205.54l-1.06-20.4a5.66,5.66,0,0,1,5.36-6l282-14.75a5.67,5.67,0,0,1,5.95,5.37l1.07,20.4Z"/><line class="cls-13" x1="150.07" y1="385.47" x2="398.1" y2="372.5"/><line class="cls-13" x1="148.41" y1="353.64" x2="396.44" y2="340.67"/><line class="cls-13" x1="146.74" y1="321.81" x2="394.78" y2="308.84"/><line class="cls-13" x1="145.08" y1="289.98" x2="393.11" y2="277.01"/><line class="cls-13" x1="143.41" y1="258.15" x2="391.45" y2="245.18"/><line class="cls-13" x1="141.75" y1="226.32" x2="389.78" y2="213.35"/><path class="cls-5" d="M398.36,165a8.5,8.5,0,0,1,8.48,8.06l11.42,218.22-290.58,15.2L116.26,188.26a8.52,8.52,0,0,1,8-8.94L397.91,165h.45m0-3h-.61l-273.6,14.31a11.51,11.51,0,0,0-10.88,12.09l11.41,218.23.16,3,3-.15,290.58-15.2,3-.16-.16-3L409.84,172.9A11.5,11.5,0,0,0,398.36,162Z"/><path class="cls-10" d="M125.93,406.57,114.56,189.32a8.52,8.52,0,0,1,8-8.94L396.9,166a8.5,8.5,0,0,1,8.94,8L417.2,391.34"/><text class="cls-16" transform="matrix(1, -0.05, 0.05, 1, 288.73, 188.49)">www.papamono.es</text><path class="cls-8" d="M187.48,321.46q5.73-.3,8.9,1.63c2.11,1.28,3.24,3.41,3.4,6.37a8.86,8.86,0,0,1-.61,4,6.9,6.9,0,0,1-2.23,2.82,11.06,11.06,0,0,1-3.72,1.74,24.5,24.5,0,0,1-5.1.76l-2.39.12.48,9.27-4.78.25-1.36-25.94a24.09,24.09,0,0,1,3.68-.7C185.1,321.63,186.34,321.52,187.48,321.46Zm.56,4.12a29.91,29.91,0,0,0-3,.27l.46,9,2.32-.12a11.81,11.81,0,0,0,5.27-1.25,3.74,3.74,0,0,0,1.66-3.76,4.32,4.32,0,0,0-.6-2.14,3.59,3.59,0,0,0-1.44-1.29,6.45,6.45,0,0,0-2.11-.6A15.43,15.43,0,0,0,188,325.58Z"/><path class="cls-8" d="M207.85,326.64a11.16,11.16,0,0,1,3.87.37,5.72,5.72,0,0,1,4,3.88,12.41,12.41,0,0,1,.56,3.19l.63,12q-1,.28-3.18.72a33.34,33.34,0,0,1-4.82.58,15,15,0,0,1-3.28-.17,7,7,0,0,1-2.59-1,5.17,5.17,0,0,1-1.73-1.89,6.76,6.76,0,0,1-.75-3,5.71,5.71,0,0,1,.52-2.92,5.42,5.42,0,0,1,1.7-2,7.48,7.48,0,0,1,2.58-1.2,15,15,0,0,1,3.12-.49,14.31,14.31,0,0,1,1.6,0,15.85,15.85,0,0,1,1.8.23l0-.76a6.2,6.2,0,0,0-.27-1.51,3.31,3.31,0,0,0-.73-1.24,3.08,3.08,0,0,0-1.3-.78,5.34,5.34,0,0,0-2-.21,18.86,18.86,0,0,0-2.91.38,13.26,13.26,0,0,0-2.14.65l-.76-3.69a18.46,18.46,0,0,1,2.51-.74A19.49,19.49,0,0,1,207.85,326.64Zm1.28,17.1a16.74,16.74,0,0,0,3.21-.39l-.26-5.09a7.77,7.77,0,0,0-1.11-.17,10.55,10.55,0,0,0-1.61,0,10.31,10.31,0,0,0-1.53.19,4.9,4.9,0,0,0-1.38.49,2.55,2.55,0,0,0-1,.91,2.33,2.33,0,0,0-.31,1.4,2.45,2.45,0,0,0,1.14,2.21A5.34,5.34,0,0,0,209.13,343.74Z"/><path class="cls-8" d="M238.05,335.53a14,14,0,0,1-.37,4.21,9.78,9.78,0,0,1-1.51,3.35,7.48,7.48,0,0,1-2.65,2.27,8.87,8.87,0,0,1-3.7.95,9.51,9.51,0,0,1-2.6-.2,10,10,0,0,1-2-.66l.4,7.71-4.59.24-1.38-26.24q1.4-.45,3.42-.9a26.38,26.38,0,0,1,4.31-.57,11.75,11.75,0,0,1,4.25.5,8.73,8.73,0,0,1,3.28,1.91,9.12,9.12,0,0,1,2.19,3.16A12.46,12.46,0,0,1,238.05,335.53Zm-4.7.32a7.39,7.39,0,0,0-1.64-4.71,5.44,5.44,0,0,0-4.55-1.48c-.43,0-.88.07-1.34.13a7,7,0,0,0-1.37.32l.59,11.35a7.22,7.22,0,0,0,1.65.7,6.5,6.5,0,0,0,2.17.25,4.12,4.12,0,0,0,3.57-1.91A8.08,8.08,0,0,0,233.35,335.85Z"/><path class="cls-8" d="M247,324.59a11.41,11.41,0,0,1,3.87.37,6.16,6.16,0,0,1,2.57,1.47,6.06,6.06,0,0,1,1.46,2.41,12.49,12.49,0,0,1,.56,3.19l.63,12q-1.05.29-3.18.72a33.77,33.77,0,0,1-4.82.57,14.52,14.52,0,0,1-3.29-.17,7,7,0,0,1-2.58-1,5.17,5.17,0,0,1-1.73-1.89,6.76,6.76,0,0,1-.75-3,5.82,5.82,0,0,1,.51-2.92,5.53,5.53,0,0,1,1.71-2,7.87,7.87,0,0,1,2.58-1.2,15,15,0,0,1,3.12-.49c.5,0,1,0,1.6,0s1.16.12,1.8.23l0-.75a6,6,0,0,0-.27-1.51,3.16,3.16,0,0,0-.73-1.24,3.2,3.2,0,0,0-1.3-.79,5.36,5.36,0,0,0-2-.2,16.44,16.44,0,0,0-2.91.38,13.37,13.37,0,0,0-2.14.64l-.76-3.69a18,18,0,0,1,2.51-.74A20.4,20.4,0,0,1,247,324.59Zm1.28,17.11a17.54,17.54,0,0,0,3.21-.4l-.26-5.09a9.43,9.43,0,0,0-1.12-.17,10.58,10.58,0,0,0-3.13.17,4.51,4.51,0,0,0-1.38.49,2.45,2.45,0,0,0-1,.9,2.35,2.35,0,0,0-.31,1.41,2.43,2.43,0,0,0,1.14,2.2A5.24,5.24,0,0,0,248.24,341.7Zm4.06-25L246.42,323,244,321.05l5.24-6.93Z"/><path class="cls-8" d="M264.83,341.55a2.79,2.79,0,0,1-.78,2.21,3.2,3.2,0,0,1-4.31.23,2.89,2.89,0,0,1-1-2.12,3,3,0,0,1,.76-2.23,3.14,3.14,0,0,1,4.31-.22A2.87,2.87,0,0,1,264.83,341.55Z"/><path class="cls-8" d="M272.6,317.27c.61.94,1.29,2.08,2,3.44s1.53,2.78,2.31,4.27,1.58,3,2.36,4.56l2.14,4.29,1.67-4.49c.6-1.61,1.22-3.21,1.85-4.78s1.24-3.06,1.85-4.49,1.17-2.64,1.68-3.63l4.31-.22q.49,2.86,1,6.09c.32,2.16.62,4.36.91,6.62s.56,4.53.82,6.81.5,4.51.72,6.68l-4.71.25c-.27-3.06-.55-6.2-.86-9.44s-.69-6.36-1.14-9.38c-.24.6-.54,1.31-.87,2.14s-.7,1.73-1.08,2.7-.77,2-1.16,3-.77,2-1.13,3-.71,1.88-1,2.72l-.8,2.16-3.57.18c-.29-.57-.63-1.26-1-2.08l-1.3-2.61-1.45-2.88c-.49-1-1-1.94-1.46-2.85l-1.35-2.58c-.43-.8-.79-1.47-1.1-2q-.18,4.58-.15,9.44c0,3.25.08,6.41.13,9.48l-4.71.24q0-3.27,0-6.77t.1-7q.08-3.45.21-6.69t.35-6Z"/><path class="cls-8" d="M317.1,331.36a12.82,12.82,0,0,1-.46,4.32,9.52,9.52,0,0,1-1.76,3.41,8.84,8.84,0,0,1-2.91,2.28,10.37,10.37,0,0,1-7.76.41,8.91,8.91,0,0,1-3.11-2,9.64,9.64,0,0,1-2.13-3.2,13.4,13.4,0,0,1-.45-8.57,9.54,9.54,0,0,1,1.8-3.38,8.75,8.75,0,0,1,2.91-2.27,9.8,9.8,0,0,1,3.8-.94,10,10,0,0,1,3.89.54,8.45,8.45,0,0,1,3.13,1.95,10,10,0,0,1,2.13,3.18A12.44,12.44,0,0,1,317.1,331.36Zm-4.71.24a7.8,7.8,0,0,0-1.51-4.62,4.52,4.52,0,0,0-7.1.37,7.78,7.78,0,0,0-1,4.76,7.88,7.88,0,0,0,1.52,4.68,4.48,4.48,0,0,0,7.1-.38A7.84,7.84,0,0,0,312.39,331.6Z"/><path class="cls-8" d="M319.46,321.94a31.17,31.17,0,0,1,3.42-.9,30.13,30.13,0,0,1,4.69-.59,11.08,11.08,0,0,1,4.1.45,6.37,6.37,0,0,1,2.7,1.73,7.12,7.12,0,0,1,1.52,2.81,16.38,16.38,0,0,1,.59,3.68l.58,11.17-4.59.24-.55-10.44a14.46,14.46,0,0,0-.35-2.71,4.94,4.94,0,0,0-.78-1.79,2.7,2.7,0,0,0-1.34-.95,5.42,5.42,0,0,0-2-.22,15,15,0,0,0-1.82.21c-.63.11-1.09.19-1.39.26l.83,16-4.59.24Z"/><path class="cls-8" d="M358.22,329.2a12.85,12.85,0,0,1-.46,4.33,9.52,9.52,0,0,1-1.76,3.41,8.84,8.84,0,0,1-2.91,2.28,10.37,10.37,0,0,1-7.76.41,8.91,8.91,0,0,1-3.11-2,9.64,9.64,0,0,1-2.13-3.2,13.4,13.4,0,0,1-.45-8.57,9.54,9.54,0,0,1,1.8-3.38,8.63,8.63,0,0,1,2.91-2.27,9.8,9.8,0,0,1,3.8-.94,10,10,0,0,1,3.89.54,8.45,8.45,0,0,1,3.13,2A10,10,0,0,1,357.3,325,12.43,12.43,0,0,1,358.22,329.2Zm-4.71.25a7.8,7.8,0,0,0-1.51-4.62,4.52,4.52,0,0,0-7.1.37,9.38,9.38,0,0,0,.49,9.43,4.47,4.47,0,0,0,7.1-.37A7.85,7.85,0,0,0,353.51,329.45Z"/><path class="cls-8" d="M239.23,247.89a33.89,33.89,0,0,1,1.19-11,32.1,32.1,0,0,1,4.58-9.53l-3.13-1.93a35,35,0,0,0-4.2,7.4c-.42-.19-.92-.38-1.51-.58a21.31,21.31,0,0,0-2.62-.65,19,19,0,0,0-3.39-.31,15,15,0,0,0-5.61,1,13.39,13.39,0,0,0-4.65,3,14.61,14.61,0,0,0-3.2,4.92,18.53,18.53,0,0,0-1.26,6.75,20.32,20.32,0,0,0,.93,6.77,13.68,13.68,0,0,0,2.84,5,12.39,12.39,0,0,0,4.46,3.13,15.62,15.62,0,0,0,5.81,1.13,24.3,24.3,0,0,0,6.18-.65,15,15,0,0,0,2-.6l.67-.3A35.72,35.72,0,0,0,244,270l2.94-2.21a31.76,31.76,0,0,1-5.45-9.07A33.44,33.44,0,0,1,239.23,247.89Zm-4.45,10.84a16.24,16.24,0,0,1-4.87.54,10.66,10.66,0,0,1-4.43-.94,8.48,8.48,0,0,1-3.13-2.52A10.91,10.91,0,0,1,220.5,252a18,18,0,0,1-.56-5,16.39,16.39,0,0,1,.8-5,10.8,10.8,0,0,1,2.13-3.8,9,9,0,0,1,3.32-2.36,11,11,0,0,1,4.35-.77,13,13,0,0,1,2.25.23,15.65,15.65,0,0,1,2.05.54c.57.19,1.08.39,1.54.58a35.48,35.48,0,0,0,.47,21.66C236.29,258.25,235.61,258.48,234.78,258.73Z"/><path class="cls-8" d="M248.65,285a30.3,30.3,0,0,0,2,9.74,28.41,28.41,0,0,0,4.91,8.16l-2.65,2a32.77,32.77,0,0,1-5.62-8.8,31.66,31.66,0,0,1-1-22,32.56,32.56,0,0,1,4.77-9.3l2.82,1.74a28.54,28.54,0,0,0-4.12,8.58A30.29,30.29,0,0,0,248.65,285Z"/><path class="cls-8" d="M267.13,268.36l5.1,7.94-1.73,1-4.24-6.59-3.52,7-1.83-.82,4.24-8.44Z"/><path class="cls-8" d="M289.69,256.2a31.83,31.83,0,0,1-4.47,9.58l3.15,1.9a35.76,35.76,0,0,0,4.73-9.11l.71.22a14.13,14.13,0,0,0,2,.39,24.16,24.16,0,0,0,2.8.2,25.68,25.68,0,0,0,3.41-.19,15.52,15.52,0,0,0,5.66-1.74,12.25,12.25,0,0,0,4.11-3.58,13.63,13.63,0,0,0,2.3-5.28,20.5,20.5,0,0,0,.22-6.84,18.35,18.35,0,0,0-2-6.57,14.69,14.69,0,0,0-3.7-4.57,13.36,13.36,0,0,0-4.93-2.49,15,15,0,0,0-5.69-.38,19.51,19.51,0,0,0-3.34.67,20.57,20.57,0,0,0-2.53.92,14.51,14.51,0,0,0-1.44.74,35.2,35.2,0,0,0-4.95-6.93l-2.91,2.25a32,32,0,0,1,5.55,9,34.1,34.1,0,0,1,2.33,10.81A33.74,33.74,0,0,1,289.69,256.2Zm4.5-1.17a34.51,34.51,0,0,0,.86-10.08,34,34,0,0,0-2.65-11.51c.44-.24.93-.49,1.47-.74a14.78,14.78,0,0,1,2-.75,13.77,13.77,0,0,1,2.21-.46,10.79,10.79,0,0,1,4.4.31,8.87,8.87,0,0,1,3.55,2,11,11,0,0,1,2.52,3.56,16.34,16.34,0,0,1,1.32,4.93,18,18,0,0,1,0,5,10.69,10.69,0,0,1-1.44,4,8.48,8.48,0,0,1-2.85,2.83,10.54,10.54,0,0,1-4.31,1.4,16.5,16.5,0,0,1-4.9,0C295.47,255.35,294.77,255.19,294.19,255Z"/><path class="cls-8" d="M283.17,273.34a28.78,28.78,0,0,0-5-8.11l2.62-2a32.61,32.61,0,0,1,5.72,8.75,31.79,31.79,0,0,1,1.27,22,32.47,32.47,0,0,1-4.68,9.34l-2.84-1.7a28.7,28.7,0,0,0,4-8.63,30.67,30.67,0,0,0,1-9.9A30.15,30.15,0,0,0,283.17,273.34Z"/><path class="cls-8" d="M222.43,359.55l3.7-.19.05.91-2.57.14.83,15.9,2.57-.14.05.92-3.7.19Z"/><path class="cls-8" d="M232.33,372.57a3.71,3.71,0,0,0,1.68-.43,1.19,1.19,0,0,0,.61-1.18,1.77,1.77,0,0,0-.16-.65,1.25,1.25,0,0,0-.42-.47,3.37,3.37,0,0,0-.74-.39l-1.14-.41c-.36-.13-.7-.26-1-.4a4.56,4.56,0,0,1-.87-.49,2.4,2.4,0,0,1-.62-.69,2.44,2.44,0,0,1,.5-2.93,3.62,3.62,0,0,1,2.35-.84,6.58,6.58,0,0,1,1.61.08,5.06,5.06,0,0,1,.91.25l-.22,1.08a7.72,7.72,0,0,0-.76-.26,4.89,4.89,0,0,0-1.54-.1,3.1,3.1,0,0,0-.76.12,2.15,2.15,0,0,0-.61.29,1.41,1.41,0,0,0-.42.46,1.19,1.19,0,0,0-.13.66,1.35,1.35,0,0,0,.18.66,1.44,1.44,0,0,0,.46.46,3.6,3.6,0,0,0,.71.36l1,.35,1.07.39a4,4,0,0,1,.92.5,2.46,2.46,0,0,1,.66.74,2.28,2.28,0,0,1,.3,1.12,2.22,2.22,0,0,1-.86,2,4.55,4.55,0,0,1-2.59.79,6.34,6.34,0,0,1-1.92-.11,7.24,7.24,0,0,1-.9-.27l.26-1.1.24.11.51.16a5.76,5.76,0,0,0,.75.13A6.42,6.42,0,0,0,232.33,372.57Z"/><path class="cls-8" d="M247.93,367.86a6.13,6.13,0,0,1-.21,2.05,4.46,4.46,0,0,1-.82,1.61,4.08,4.08,0,0,1-1.31,1.06,4,4,0,0,1-1.72.45,4.1,4.1,0,0,1-1.76-.26,3.94,3.94,0,0,1-1.41-.93,4.43,4.43,0,0,1-1-1.51,6,6,0,0,1-.43-2,6.19,6.19,0,0,1,.21-2.05,4.8,4.8,0,0,1,.82-1.61,4.14,4.14,0,0,1,1.31-1.08,4.38,4.38,0,0,1,1.72-.45,4.23,4.23,0,0,1,1.76.27,4,4,0,0,1,1.42.94,4.63,4.63,0,0,1,1,1.52A6,6,0,0,1,247.93,367.86Zm-1.26.07a4.43,4.43,0,0,0-1-2.79,2.73,2.73,0,0,0-2.29-.94,2.69,2.69,0,0,0-2.18,1.17,4.53,4.53,0,0,0-.68,2.88,4.43,4.43,0,0,0,1,2.78,2.92,2.92,0,0,0,4.46-.24A4.4,4.4,0,0,0,246.67,367.93Z"/><path class="cls-8" d="M255.33,358a5.36,5.36,0,0,1,1.26.05,2.76,2.76,0,0,1,.65.18l-.19,1a3.76,3.76,0,0,0-.6-.16,3.9,3.9,0,0,0-1-.05,2.26,2.26,0,0,0-1.77.73,3.22,3.22,0,0,0-.43,2.08l0,1,3.81-.2,0,1-3.81.2.45,8.46-1.19.07-.55-10.5a4,4,0,0,1,.7-2.83A3.41,3.41,0,0,1,255.33,358Z"/><path class="cls-8" d="M261.94,362.37l3.77-.2.05,1-3.77.2.26,5a5.18,5.18,0,0,0,.21,1.3,1.9,1.9,0,0,0,.43.76,1.35,1.35,0,0,0,.65.33,3,3,0,0,0,.81.05,3.38,3.38,0,0,0,1.2-.24,4.23,4.23,0,0,0,.69-.36l.35,1a4.29,4.29,0,0,1-.88.42,4.34,4.34,0,0,1-1.38.28,4,4,0,0,1-1.49-.15,2.08,2.08,0,0,1-1-.64,2.78,2.78,0,0,1-.57-1.14,8.09,8.09,0,0,1-.23-1.64l-.46-8.72,1.18-.28Z"/><path class="cls-8" d="M275.85,361.64c.14.61.32,1.25.53,1.93s.45,1.37.7,2.08.51,1.39.78,2.08.56,1.32.83,1.92c.19-.47.38-1,.58-1.73s.39-1.39.58-2.14.38-1.5.54-2.27.29-1.47.4-2.12l1.17-.07c-.34,1.89-.74,3.61-1.18,5.18a45.7,45.7,0,0,1-1.49,4.46l-1.1.06q-.31-.63-.66-1.41c-.23-.52-.47-1.08-.72-1.67s-.48-1.22-.72-1.87-.46-1.33-.68-2c-.15.7-.31,1.39-.47,2.07s-.34,1.32-.52,1.94-.36,1.19-.54,1.73-.34,1-.5,1.47l-1.15.06q-1-2-1.94-4.29t-1.7-5l1.26-.06c.17.64.37,1.33.62,2.07s.49,1.47.77,2.2.54,1.41.81,2.06.53,1.2.76,1.65c.2-.62.4-1.29.6-2s.38-1.43.55-2.15.33-1.43.48-2.13l.39-2Z"/><path class="cls-8" d="M288.63,360.75a4.12,4.12,0,0,1,1.6.19,2.63,2.63,0,0,1,1.09.68,2.83,2.83,0,0,1,.65,1.07,5,5,0,0,1,.25,1.39l.32,6a5.32,5.32,0,0,1-.53.14l-.8.18c-.3.07-.64.13-1,.18s-.75.08-1.14.1a5.19,5.19,0,0,1-1.39-.09,2.94,2.94,0,0,1-1.13-.47,2.52,2.52,0,0,1-.78-.87,3.19,3.19,0,0,1-.34-1.35,2.82,2.82,0,0,1,.23-1.34,2.51,2.51,0,0,1,.77-.95,4.07,4.07,0,0,1,1.24-.59,7.58,7.58,0,0,1,1.59-.24h.54l.55.05a4.12,4.12,0,0,1,.46.07.84.84,0,0,1,.27.07l0-.59a6,6,0,0,0-.12-1,2.11,2.11,0,0,0-.37-.82,1.64,1.64,0,0,0-.72-.57,2.54,2.54,0,0,0-1.2-.17,6.14,6.14,0,0,0-1.55.23,7.29,7.29,0,0,0-.73.28l-.22-1a3.85,3.85,0,0,1,.94-.32A8.72,8.72,0,0,1,288.63,360.75Zm.57,8.83c.47,0,.87-.06,1.22-.11a6.57,6.57,0,0,0,.88-.17l-.17-3.33a4.06,4.06,0,0,0-.65-.16,6.34,6.34,0,0,0-1.22,0,7.86,7.86,0,0,0-.91.12,2.35,2.35,0,0,0-.86.32,1.61,1.61,0,0,0-.63.61,1.64,1.64,0,0,0-.21,1,2.08,2.08,0,0,0,.22.89,1.5,1.5,0,0,0,.53.56,2.07,2.07,0,0,0,.78.28A4.78,4.78,0,0,0,289.2,369.58Z"/><path class="cls-8" d="M300.14,360.19a6.74,6.74,0,0,1,1.11,0,3.28,3.28,0,0,1,.73.15l-.18,1a2.29,2.29,0,0,0-.6-.13,7.41,7.41,0,0,0-1.19,0,5.77,5.77,0,0,0-1.23.18,3.6,3.6,0,0,0-.6.21l.43,8.3-1.19.06-.47-9a9,9,0,0,1,1.24-.48A7.8,7.8,0,0,1,300.14,360.19Z"/><path class="cls-8" d="M305.29,364.84a5.81,5.81,0,0,1,.24-2.19,4.82,4.82,0,0,1,.85-1.59,3.78,3.78,0,0,1,1.27-1,4.25,4.25,0,0,1,1.52-.38,3.57,3.57,0,0,1,2.83,1,5.06,5.06,0,0,1,1.22,3.45c0,.09,0,.19,0,.29s0,.19,0,.28l-6.65.34a4.19,4.19,0,0,0,1,2.63,3.22,3.22,0,0,0,2.62.8,5.24,5.24,0,0,0,1.53-.26,5,5,0,0,0,.8-.36l.28,1a4.82,4.82,0,0,1-1,.4,6.26,6.26,0,0,1-1.64.29,5.69,5.69,0,0,1-2.15-.26,3.75,3.75,0,0,1-1.5-1,4.07,4.07,0,0,1-.9-1.52A6.83,6.83,0,0,1,305.29,364.84Zm6.68-1.1a3.78,3.78,0,0,0-.82-2.27,2.25,2.25,0,0,0-1.91-.73,2.44,2.44,0,0,0-1.13.32,2.81,2.81,0,0,0-.84.73,3.07,3.07,0,0,0-.54,1,4.06,4.06,0,0,0-.18,1.2Z"/><path class="cls-8" d="M320.05,372.23l-3.7.19,0-.92,2.56-.13-.83-15.9-2.57.13,0-.91,3.7-.2Z"/><rect class="cls-15" x="276.58" y="32.51" width="47.41" height="102.15" rx="2.83" transform="translate(-3.96 15.8) rotate(-2.99)"/><g class="cls-7"><path class="cls-5" d="M318.46,31.49l-41.68,2.18a2.82,2.82,0,0,0-2.36,1.53,2.86,2.86,0,0,1,1.41-.48l41.69-2.18a2.84,2.84,0,0,1,3,2.68l5,96.35a2.84,2.84,0,0,1-.33,1.45,2.8,2.8,0,0,0,1.27-2.5l-5-96.35A2.83,2.83,0,0,0,318.46,31.49Z"/></g></g></g></g></svg>