<?xml version="1.0" encoding="UTF-8"?>
<svg width="765px" height="534px" viewBox="0 0 765 534" version="1.1" xmlns="http://www.w3.org/2000/svg" xmlns:xlink="http://www.w3.org/1999/xlink">
    <!-- Generator: Sketch 53.1 (72631) - https://sketchapp.com -->
    <title>Fichas_Startups</title>
    <desc>Created with Sketch.</desc>
    <g id="Page-1" stroke="none" stroke-width="1" fill="none" fill-rule="evenodd">
        <g id="00-Home" transform="translate(-807.000000, -1374.000000)">
            <g id="QH" transform="translate(-121.000000, 1116.000000)">
                <g id="Fichas/Startups" transform="translate(928.000000, 258.000000)">
                    <g id="Fichas/Fondo">
                        <rect id="Rectangle" fill="#EBEFEE" fill-rule="evenodd" x="2" y="2" width="758" height="528"></rect>
                        <g id="CajasBordes" fill="#4A4A4A" fill-rule="evenodd">
                            <rect id="Rectangle-Copy" x="4" y="0" width="754" height="3"></rect>
                            <rect id="Rectangle-Copy-6" transform="translate(760.500000, 266.000000) rotate(-360.000000) translate(-760.500000, -266.000000) " x="759" y="4" width="3" height="524"></rect>
                            <rect id="Rectangle-Copy" x="757" y="2" width="3" height="3"></rect>
                            <rect id="Rectangle-Copy-4" x="757" y="527" width="3" height="3"></rect>
                            <rect id="Rectangle-Copy-2" x="4" y="529" width="754" height="3"></rect>
                            <rect id="Rectangle-Copy-7" transform="translate(1.500000, 266.000000) rotate(-360.000000) translate(-1.500000, -266.000000) " x="0" y="4" width="3" height="524"></rect>
                            <rect id="Rectangle" x="2" y="2" width="3" height="3"></rect>
                            <rect id="Rectangle-Copy-3" x="2" y="527" width="3" height="3"></rect>
                        </g>
                        <path d="M1,61 L759.941504,61" id="-----" stroke="#4A4A4A" stroke-width="2" stroke-linecap="square" stroke-dasharray="6,5"></path>
                        <g id="Lineas" stroke-width="1" fill-rule="evenodd" transform="translate(97.000000, 22.000000)" fill="#4A4A4A">
                            <rect id="Rectangle" x="0" y="0" width="594" height="2"></rect>
                            <rect id="Rectangle-Copy-4" x="0" y="6" width="594" height="2"></rect>
                            <rect id="Rectangle-Copy-5" x="0" y="12" width="594" height="2"></rect>
                            <rect id="Rectangle-Copy-7" x="0" y="18" width="594" height="2"></rect>
                        </g>
                        <g id="Resize" stroke-width="1" fill-rule="evenodd" transform="translate(699.000000, 22.000000)" fill="#4A4A4A">
                            <path d="M0,20 L20,20 L20,0 L0,0 L0,20 Z M1.45565041,18.5460155 L18.5453142,18.5460155 L18.5453142,1.45398448 L1.45565041,1.45398448 L1.45565041,18.5460155 Z" id="Fill-17"></path>
                            <path d="M0,10 L10,10 L10,0 L0,0 L0,10 Z M1.41384803,8.58694634 L8.58615197,8.58694634 L8.58615197,1.41305366 L1.41384803,1.41305366 L1.41384803,8.58694634 Z" id="Fill-18"></path>
                        </g>
                        <g id="Circulos" stroke-width="1" fill-rule="evenodd" transform="translate(19.000000, 23.000000)">
                            <g id="Group-5">
                                <path d="M11,7.50100719 C11,9.43381295 9.43280576,11.0010072 7.49899281,11.0010072 C5.56618705,11.0010072 4,9.43381295 4,7.50100719 C4,5.56719424 5.56618705,4 7.49899281,4 C9.43280576,4 11,5.56719424 11,7.50100719" id="Fill-35" fill="#4A4A4A"></path>
                                <circle id="Oval" stroke="#4A4A4A" stroke-width="2" cx="7.5" cy="7.5" r="6.5"></circle>
                            </g>
                            <g id="Group-5-Copy" transform="translate(23.000000, 0.000000)">
                                <path d="M11,7.50100719 C11,9.43381295 9.43280576,11.0010072 7.49899281,11.0010072 C5.56618705,11.0010072 4,9.43381295 4,7.50100719 C4,5.56719424 5.56618705,4 7.49899281,4 C9.43280576,4 11,5.56719424 11,7.50100719" id="Fill-35" fill="#4A4A4A"></path>
                                <circle id="Oval" stroke="#4A4A4A" stroke-width="2" cx="7.5" cy="7.5" r="6.5"></circle>
                            </g>
                            <g id="Group-5-Copy-2" transform="translate(46.000000, 0.000000)">
                                <path d="M11,7.50100719 C11,9.43381295 9.43280576,11.0010072 7.49899281,11.0010072 C5.56618705,11.0010072 4,9.43381295 4,7.50100719 C4,5.56719424 5.56618705,4 7.49899281,4 C9.43280576,4 11,5.56719424 11,7.50100719" id="Fill-35" fill="#4A4A4A"></path>
                                <circle id="Oval" stroke="#4A4A4A" stroke-width="2" cx="7.5" cy="7.5" r="6.5"></circle>
                            </g>
                        </g>
                        <path d="" id="Path-2" fill="#4A4A4A" fill-rule="nonzero"></path>
                        <polygon id="Rectangle" fill="#4A4A4A" fill-rule="nonzero" points="6 530.999597 762 529 762 534 6 534"></polygon>
                        <path d="M765,6.50190114 L765,7.00380228 L764,7.00380228 L764,6 L765,6 L765,6.50190114 L765,530.988593 L760,530.988593 L760.990454,6 L765,6 L765,6.50190114 Z" id="Combined-Shape" fill="#4A4A4A" fill-rule="nonzero"></path>
                        <g id="Lineas2" stroke-width="1" fill-rule="evenodd" transform="translate(727.000000, 22.000000)" fill="#4A4A4A">
                            <rect id="Rectangle" x="0" y="0" width="12" height="2"></rect>
                            <rect id="Rectangle-Copy-4" x="0" y="6" width="12" height="2"></rect>
                            <rect id="Rectangle-Copy-5" x="0" y="12" width="12" height="2"></rect>
                            <rect id="Rectangle-Copy-7" x="0" y="18" width="12" height="2"></rect>
                        </g>
                    </g>
                    <text id="Nosotros-mismos-sabe" font-family="UbuntuMono-Regular, Ubuntu Mono" font-size="20" font-weight="normal" line-spacing="28" fill="#4A4A4A">
                        <tspan x="334.5" y="175">Nosotros mismos sabemos bien cómo </tspan>
                        <tspan x="364.5" y="203">es el esfuerzo, cariño y la </tspan>
                        <tspan x="354.5" y="231">energía que se dedican, y nos </tspan>
                        <tspan x="339.5" y="259">encanta compartirlo con nuestros </tspan>
                        <tspan x="454.5" y="287">clientes.</tspan>
                    </text>
                    <g id="Titulo" stroke-width="1" fill-rule="evenodd" transform="translate(294.000000, 13.000000)">
                        <rect id="Rectangle" fill="#EBEFEE" x="0" y="0" width="155" height="40"></rect>
                        <text id="Startups" font-family="Ubuntu-Bold, Ubuntu" font-size="32" font-weight="bold" fill="#31AEA9">
                            <tspan x="11.352" y="30">Startups</tspan>
                        </text>
                    </g>
                    <g id="Btn/LeerMas_Peq" transform="translate(396.000000, 414.000000)">
                        <rect id="Rectangle" fill="#31AEA9" fill-rule="nonzero" x="3.48731884" y="3.19480519" width="269.021739" height="75.6103896"></rect>
                        <rect id="Rectangle-Copy-9" stroke="#4A4A4A" stroke-width="2" fill="#4A4A4A" fill-rule="nonzero" opacity="0.5" x="3.98913043" y="75.5454545" width="268.018116" height="3.32467532"></rect>
                        <rect id="Rectangle-Copy-10" stroke="#4A4A4A" stroke-width="2" fill="#4A4A4A" fill-rule="nonzero" opacity="0.25" transform="translate(138.496377, 73.480519) scale(1, -1) translate(-138.496377, -73.480519) " x="2.99275362" y="73.4155844" width="271.007246" height="1"></rect>
                        <polygon id="Rectangle-Copy-3" fill="#4A4A4A" fill-rule="evenodd" transform="translate(2.000000, 41.500000) rotate(90.000000) translate(-2.000000, -41.500000) " points="-35.5 40.5 39.5 40.5 39.5 42.5 -35.5 42.5"></polygon>
                        <rect id="Rectangle" fill="#4A4A4A" fill-rule="evenodd" x="4.98188406" y="0" width="266.032609" height="3.19480519"></rect>
                        <rect id="Rectangle-Copy" fill="#4A4A4A" fill-rule="evenodd" x="4.98188406" y="78.8051948" width="266.032609" height="3.19480519"></rect>
                        <rect id="Rectangle" fill="#4A4A4A" fill-rule="evenodd" x="2.98913043" y="2.12987013" width="2.98913043" height="3.19480519"></rect>
                        <rect id="Rectangle" fill="#4A4A4A" fill-rule="evenodd" x="2.98913043" y="76.6753247" width="2.98913043" height="3.19480519"></rect>
                        <polygon id="Rectangle-Copy-3" fill="#4A4A4A" fill-rule="evenodd" transform="translate(274.000000, 42.000000) scale(-1, 1) rotate(90.000000) translate(-274.000000, -42.000000) " points="236.5 41 311.5 41 311.5 43 236.5 43"></polygon>
                        <rect id="Rectangle" fill="#4A4A4A" fill-rule="evenodd" transform="translate(271.512681, 3.727273) scale(-1, 1) translate(-271.512681, -3.727273) " x="270.018116" y="2.12987013" width="2.98913043" height="3.19480519"></rect>
                        <rect id="Rectangle" fill="#4A4A4A" fill-rule="evenodd" transform="translate(271.512681, 78.272727) scale(-1, 1) translate(-271.512681, -78.272727) " x="270.018116" y="76.6753247" width="2.98913043" height="3.19480519"></rect>
                        <text id="Leer-más" font-family="UbuntuMono-Regular, Ubuntu Mono" font-size="24" font-weight="normal" fill="#EBEFEE">
                            <tspan x="90.4963768" y="47.4025974">Leer más</tspan>
                        </text>
                    </g>
                    <g id="Iconos/Startups" transform="translate(170.158210, 296.636025) rotate(13.000000) translate(-170.158210, -296.636025) translate(70.679774, 131.136025)" fill="#31AEA9" fill-rule="nonzero">
                        <path d="M111.880184,138.281809 C111.880184,133.360311 110.831855,129.465923 108.735197,126.592007 C106.636893,123.723069 103.714078,122.286111 99.9585253,122.286111 C96.2046181,122.286111 93.2768667,123.723069 91.181854,126.592007 C89.0835498,129.465923 88.0368664,133.360311 88.0368664,138.281809 C88.0368664,143.26636 89.0835498,147.210527 91.181854,150.112651 C93.2768667,153.016434 96.2046181,154.466667 99.9585253,154.466667 C103.714078,154.466667 106.636893,153.016434 108.735197,150.112651 C110.831855,147.210527 111.880184,143.26636 111.880184,138.281809 M122.884793,137.823116 C122.884793,141.693153 122.324551,145.21853 121.207334,148.400889 C120.088483,151.584889 118.507392,154.299495 116.457527,156.546348 C114.407662,158.791561 111.938024,160.541119 109.050247,161.790101 C106.160836,163.0358 102.97742,163.661111 99.5,163.661111 C96.0209465,163.661111 92.8538646,163.0358 89.9971207,161.790101 C87.1387434,160.541119 84.6870724,158.791561 82.6372076,156.546348 C80.5873428,154.299495 78.9866515,151.584889 77.8384005,148.400889 C76.6885162,145.21853 76.1152074,141.693153 76.1152074,137.823116 C76.1152074,133.95472 76.6885162,130.444114 77.8384005,127.291298 C78.9866515,124.140123 80.602043,121.440288 82.6829416,119.193434 C84.7638403,116.946581 87.2318448,115.215076 90.0902221,113.997278 C92.946966,112.781121 96.0830142,112.172222 99.5,112.172222 C102.915352,112.172222 106.067734,112.781121 108.957145,113.997278 C111.84329,115.215076 114.312928,116.946581 116.362792,119.193434 C118.412657,121.440288 120.010082,124.140123 121.161599,127.291298 C122.30985,130.444114 122.884793,133.95472 122.884793,137.823116" id="Fill-1"></path>
                        <path d="M75.2484953,297.860205 C73.9703688,290.791575 73.9587495,284.075547 75.2136373,277.705503 C76.4652054,271.338768 78.5384263,265.505079 81.4283202,260.202778 L85.2610399,261.931033 C82.2632522,267.403842 80.352702,272.969354 79.534369,278.62757 C78.7127162,284.287441 78.8986256,290.409173 80.0887772,296.991112 C81.2772688,303.57305 83.2459157,309.373631 85.9980375,314.3912 C88.7435197,319.410425 92.4816249,323.962822 97.2073733,328.045081 L94.2212049,331 C89.6581272,327.035276 85.6726962,322.292506 82.2698918,316.761758 C78.8654275,311.231009 76.5266219,304.930492 75.2484953,297.860205" id="Fill-3"></path>
                        <path d="M116.730138,316.760102 C113.326045,322.290851 109.344369,327.035276 104.780129,331 L101.792627,328.045081 C106.51786,323.961167 110.255557,319.41208 113.005719,314.3912 C115.754221,309.373631 117.722653,303.57305 118.911015,296.991112 C120.101037,290.409173 120.286926,284.289096 119.465362,278.62757 C118.645459,272.969354 116.735117,267.403842 113.737657,261.929378 L117.571618,260.202778 C120.461197,265.505079 122.532531,271.338768 123.787282,277.705503 C125.042033,284.073892 125.028756,290.791575 123.750769,297.860205 C122.474441,304.930492 120.134231,311.231009 116.730138,316.760102" id="Fill-6"></path>
                        <polygon id="Fill-9" points="74.6537697 71.7166667 66.0276498 68.5502951 95.074255 0 103.919213 0 132.97235 68.5502951 124.349497 71.7166667 99.5 12.0322119"></polygon>
                        <path d="M12.8387097,199.271882 L37.6451828,178.372222 C38.9357787,185.05836 40.7290972,191.498362 43.0828277,197.660196 C43.6778534,199.21962 44.2992514,200.755442 44.9354839,202.277778 L12.8387097,199.271882 Z M45.7819922,153.547222 C45.7819922,138.67254 47.7686619,125.203666 51.7452825,113.137281 C55.7169814,101.074216 62.0067352,89.6435154 70.6129032,78.8435201 L63.015655,73.5555556 C54.7146237,84.0236008 47.9688054,95.9771226 42.7831216,109.41944 C37.5941568,122.863418 34.9988541,137.572125 34.9988541,153.547222 C34.9988541,158.997842 35.3253176,164.289126 35.929029,169.444311 L1.83410138,198.473344 L4.15215617,206.088278 L48.5397064,210.677488 C52.6820194,218.949684 57.4969457,226.579556 63.015655,233.538889 L70.6129032,228.250924 C62.0067352,217.450929 55.7169814,206.020229 51.7452825,193.957163 C47.7686619,181.890778 45.7819922,168.421905 45.7819922,153.547222 L45.7819922,153.547222 Z" id="Fill-11"></path>
                        <path d="M154.064516,202.277778 C154.700749,200.757128 155.322147,199.221306 155.918821,197.660196 C158.270903,191.498362 160.064221,185.060046 161.354817,178.372222 L186.16129,199.271882 L154.064516,202.277778 Z M197.165899,198.473708 L163.070158,169.443316 C163.673884,164.288185 164.000355,158.996956 164.000355,153.546392 C164.000355,137.571461 161.406631,122.862907 156.217542,109.419068 C151.030094,95.9785497 144.284115,84.025152 135.984526,73.5555556 L128.387097,78.8451249 C136.99183,89.6433485 143.281733,101.07393 147.255168,113.13853 C151.230242,125.20313 153.21696,138.671864 153.21696,153.546392 C153.21696,168.42092 151.230242,181.889655 147.255168,193.955914 C143.281733,206.020514 136.99183,217.449436 128.387097,228.249319 L135.984526,233.538889 C141.501727,226.579628 146.316768,218.948175 150.45918,210.676065 L194.847789,206.088563 L197.165899,198.473708 Z" id="Fill-13"></path>
                        <path d="M96.7375745,261.122222 C96.7375745,259.883228 96.5193371,258.824685 96.0861441,257.948205 C95.6496694,257.068503 95.0868467,256.333807 94.3960353,255.740894 C93.7052238,255.147982 92.9126775,254.708131 92.0183966,254.424564 C91.1224748,254.140997 90.213426,253.999213 89.2945318,253.999213 L75.4815837,253.999213 C73.3845359,253.999213 71.5172118,253.767204 69.8796111,253.301574 C68.2420105,252.837555 66.8603875,252.036801 65.7347421,250.900922 C64.6107377,249.765043 63.7656832,248.256982 63.2028606,246.371906 C62.6400379,244.48683 62.359447,242.152236 62.359447,239.364901 L62.359447,239.055556 L67.9597787,239.055556 C67.9597787,241.997563 68.4848611,244.100148 69.5333849,245.366532 C70.5835497,246.629694 72.5903489,247.261275 75.5570643,247.261275 L87.3746994,247.261275 C90.7516354,247.261275 93.3606384,247.714015 95.2017085,248.617885 C97.0444195,249.520144 98.4769098,250.797806 99.5008204,252.450873 C100.52309,250.797806 101.955581,249.520144 103.798291,248.617885 C105.639362,247.714015 108.248365,247.261275 111.62366,247.261275 L123.441295,247.261275 C126.40801,247.261275 128.418091,246.629694 129.466615,245.366532 C130.513498,244.100148 131.03858,241.997563 131.03858,239.055556 L136.640553,239.055556 L136.640553,239.364901 C136.640553,242.152236 136.346835,244.48683 135.757758,246.371906 C135.170322,248.256982 134.325268,249.765043 133.225877,250.900922 C132.124845,252.036801 130.756349,252.837555 129.120389,253.301574 C127.482788,253.767204 125.617105,253.999213 123.518416,253.999213 L109.705468,253.999213 C108.784933,253.999213 107.875884,254.140997 106.981603,254.424564 C106.085682,254.708131 105.293135,255.147982 104.602324,255.740894 C103.911512,256.333807 103.34869,257.068503 102.915497,257.948205 C102.479022,258.824685 102.262426,259.883228 102.262426,261.122222 L96.7375745,261.122222 Z" id="Fill-15"></path>
                    </g>
                </g>
            </g>
        </g>
    </g>
</svg>