<?xml version="1.0" encoding="UTF-8"?>
<svg width="48px" height="48px" viewBox="0 0 48 48" version="1.1" xmlns="http://www.w3.org/2000/svg" xmlns:xlink="http://www.w3.org/1999/xlink">
    <!-- Generator: Sketch 55.1 (78136) - https://sketchapp.com -->
    <title>Icono</title>
    <desc>Created with Sketch.</desc>
    <g id="Icono" stroke="none" stroke-width="1" fill="none" fill-rule="evenodd">
        <path d="M5.67814286,12.716 C5.28171429,12.8124286 4.78885714,12.8424286 4.19957143,12.8017143 C3.68742857,12.7674286 3.246,12.6495714 2.87528571,12.4481429 C2.50457143,12.2467143 2.20028571,11.9745714 1.96885714,11.636 C1.73314286,11.2974286 1.56814286,10.8988571 1.47171429,10.4424286 C1.37314286,9.98385714 1.34314286,9.48242857 1.37957143,8.936 C1.41814286,8.37242857 1.52528571,7.86885714 1.701,7.42314286 C1.87671429,6.97957143 2.11028571,6.60885714 2.406,6.30885714 C2.69957143,6.011 3.04671429,5.79242857 3.44528571,5.651 C3.84385714,5.50957143 4.28528571,5.45385714 4.77171429,5.486 C4.99885714,5.501 5.226,5.53742857 5.44671429,5.591 C5.66957143,5.64671429 5.87314286,5.711 6.05742857,5.786 C6.22671429,5.85242857 6.37885714,5.921 6.51385714,5.98528571 C6.111,7.08242857 5.90314286,8.25242857 5.89671429,9.506 C5.89242857,10.5731429 6.03385714,11.5824286 6.31457143,12.5381429 C6.141,12.5938571 5.93314286,12.6538571 5.67814286,12.716 M7.19314286,9.51242857 C7.19957143,8.32314286 7.37742857,7.22385714 7.72671429,6.21028571 C8.076,5.201 8.58814286,4.26457143 9.261,3.40314286 L8.346,2.771 C7.806,3.42028571 7.34314286,4.14457143 6.95957143,4.94171429 C6.83742857,4.87528571 6.68957143,4.80885714 6.51385714,4.74028571 C6.29314286,4.65457143 6.03385714,4.57528571 5.73171429,4.50242857 C5.43171429,4.42957143 5.09314286,4.38028571 4.71385714,4.35457143 C4.116,4.31385714 3.54385714,4.38242857 2.99957143,4.55814286 C2.45957143,4.73385714 1.97528571,5.01028571 1.551,5.38957143 C1.12671429,5.76885714 0.779571429,6.24671429 0.505285714,6.82528571 C0.231,7.40385714 0.0702857143,8.07671429 0.0188571429,8.84385714 C-0.0347142857,9.611 0.0252857143,10.2988571 0.190285714,10.9074286 C0.359571429,11.5138571 0.618857143,12.0345714 0.970285714,12.4652857 C1.32171429,12.896 1.75457143,13.2345714 2.26885714,13.481 C2.78314286,13.7295714 3.36171429,13.8752857 4.00457143,13.9181429 C4.37528571,13.9417143 4.72028571,13.9438571 5.03957143,13.9202857 C5.361,13.8967143 5.64171429,13.8645714 5.88385714,13.8174286 C6.12385714,13.7724286 6.32742857,13.721 6.49028571,13.6652857 C6.57171429,13.6395714 6.64242857,13.6117143 6.70028571,13.5881429 C7.11385714,14.5824286 7.63457143,15.4802857 8.27314286,16.2667143 L9.19671429,15.6431429 C8.53242857,14.7752857 8.031,13.8345714 7.69028571,12.8188571 C7.35385714,11.8052857 7.18671429,10.7017143 7.19314286,9.51242857" id="Fill-2" fill="#99FF99"></path>
        <path d="M9.45214286,20.8648571 C9.44785714,21.9362857 9.59571429,22.9284286 9.9,23.8412857 C10.2064286,24.7541429 10.6564286,25.6005714 11.2542857,26.3827143 L10.425,26.942 C9.77571429,26.1448571 9.255,25.2277143 8.865,24.1927143 C8.47071429,23.1577143 8.28,22.0477143 8.28642857,20.8584286 C8.29071429,19.6712857 8.49642857,18.5612857 8.89928571,17.5305714 C9.30214286,16.4998571 9.83142857,15.5891429 10.4892857,14.7962857 L11.3142857,15.3662857 C10.7078571,16.142 10.2471429,16.9841429 9.93214286,17.8948571 C9.61928571,18.8034286 9.45857143,19.7934286 9.45214286,20.8648571" id="Fill-4" fill="#99FF99"></path>
        <polygon id="Fill-6" fill="#99FF99" points="15.2989286 16.1353571 16.7153571 18.6167857 16.1753571 18.8953571 14.9989286 16.8360714 13.8246429 18.8953571 13.2846429 18.6167857 14.7010714 16.1353571"></polygon>
        <path d="M22.3084286,12.8199286 C22.647,11.8042143 22.812,10.7027857 22.8055714,9.51135714 C22.7991429,8.32207143 22.6212857,7.22278571 22.272,6.21135714 C21.9248571,5.19992857 21.4127143,4.2635 20.7377143,3.40207143 L21.6548571,2.76992857 C22.1948571,3.42135714 22.6577143,4.1435 23.0412857,4.94064286 C23.1634286,4.87635714 23.3112857,4.80992857 23.487,4.74135714 C23.7077143,4.65564286 23.967,4.57635714 24.267,4.50135714 C24.5691429,4.4285 24.9077143,4.37921429 25.287,4.35564286 C25.8848571,4.31492857 26.4548571,4.38135714 26.9991429,4.55707143 C27.5412857,4.73278571 28.0255714,5.01135714 28.4498571,5.39064286 C28.872,5.76778571 29.2212857,6.24564286 29.4934286,6.82635714 C29.7677143,7.40492857 29.9305714,8.07778571 29.982,8.84492857 C30.0334286,9.60992857 29.9755714,10.2977857 29.8084286,10.9063571 C29.6412857,11.5149286 29.382,12.0356429 29.0305714,12.4663571 C28.6791429,12.8949286 28.2462857,13.2356429 27.732,13.4820714 C27.2177143,13.7285 26.6391429,13.8742143 25.9962857,13.9170714 C25.6255714,13.9427857 25.2805714,13.9427857 24.9591429,13.9213571 C24.6398571,13.8977857 24.3591429,13.8635 24.117,13.8185 C23.8748571,13.7735 23.6734286,13.7220714 23.5084286,13.6663571 C23.427,13.6385 23.3584286,13.6127857 23.3005714,13.5892143 C22.887,14.5835 22.3662857,15.4792143 21.7277143,16.2656429 L20.8041429,15.6442143 C21.4684286,14.7763571 21.9698571,13.8335 22.3084286,12.8199286 Z M23.6841429,12.5370714 C23.8577143,12.5927857 24.0677143,12.6527857 24.3205714,12.7149286 C24.717,12.8135 25.2098571,12.8413571 25.8012857,12.8027857 C26.3134286,12.7685 26.7527143,12.6506429 27.1234286,12.4470714 C27.4962857,12.2456429 27.7984286,11.9756429 28.032,11.6370714 C28.2655714,11.2985 28.4327143,10.8999286 28.5291429,10.4413571 C28.6277143,9.98492857 28.6577143,9.48135714 28.6212857,8.93492857 C28.5827143,8.37135714 28.4755714,7.86778571 28.2998571,7.42421429 C28.1241429,6.98064286 27.8884286,6.60778571 27.5948571,6.30992857 C27.2991429,6.01207143 26.9541429,5.79135714 26.5534286,5.64992857 C26.1548571,5.5085 25.7134286,5.45492857 25.2291429,5.48707143 C24.9998571,5.50207143 24.7748571,5.53635714 24.552,5.59207143 C24.3312857,5.64778571 24.1277143,5.70992857 23.9434286,5.78492857 C23.7741429,5.8535 23.622,5.91992857 23.487,5.98635714 C23.8898571,7.08135714 24.0955714,8.2535 24.102,9.50492857 C24.1084286,10.5720714 23.967,11.5813571 23.6841429,12.5370714 Z" id="Combined-Shape" fill="#99FF99"></path>
        <path d="M20.067,17.8942143 C19.7541429,16.9835 19.2934286,16.1413571 18.6848571,15.3656429 L19.512,14.7977857 C20.1677143,15.5885 20.697,16.4992143 21.0998571,17.5320714 C21.5027143,18.5627857 21.7084286,19.6706429 21.7148571,20.8577857 C21.7212857,22.0470714 21.5284286,23.1592143 21.1362857,24.1920714 C20.7441429,25.2270714 20.2234286,26.1463571 19.5762857,26.9435 L18.7448571,26.3820714 C19.3427143,25.6020714 19.7948571,24.7556429 20.0991429,23.8406429 C20.4034286,22.9277857 20.5534286,21.9356429 20.547,20.8642143 C20.5427143,19.7949286 20.382,18.8027857 20.067,17.8942143" id="Fill-10" fill="#99FF99"></path>
    </g>
</svg>