<?xml version="1.0" encoding="UTF-8"?>
<svg width="765px" height="480px" viewBox="0 0 765 480" version="1.1" xmlns="http://www.w3.org/2000/svg" xmlns:xlink="http://www.w3.org/1999/xlink">
    <!-- Generator: Sketch 55.1 (78136) - https://sketchapp.com -->
    <title>Ilustracion_Startups</title>
    <desc>Created with Sketch.</desc>
    <defs>
        <rect id="path-1" x="0" y="0" width="148" height="246"></rect>
    </defs>
    <g id="Ilustracion_Startups" stroke="none" stroke-width="1" fill="none" fill-rule="evenodd">
        <g id="Estrellas" transform="translate(0.000000, 20.000000)" fill="#191E28">
            <polygon id="+" points="34 34.951417 39.3706897 34.951417 39.3706897 29 42.6293103 29 42.6293103 34.951417 48 34.951417 48 38.048583 42.6293103 38.048583 42.6293103 44 39.3706897 44 39.3706897 38.048583 34 38.048583"></polygon>
            <polygon id="+" points="157 49.951417 162.37069 49.951417 162.37069 44 165.62931 44 165.62931 49.951417 171 49.951417 171 53.048583 165.62931 53.048583 165.62931 59 162.37069 59 162.37069 53.048583 157 53.048583"></polygon>
            <polygon id="+" points="73 90.1740891 76.0689655 90.1740891 76.0689655 87 77.9310345 87 77.9310345 90.1740891 81 90.1740891 81 91.8259109 77.9310345 91.8259109 77.9310345 95 76.0689655 95 76.0689655 91.8259109 73 91.8259109"></polygon>
            <polygon id="+" points="227 4.7611336 231.219828 4.7611336 231.219828 0 233.780172 0 233.780172 4.7611336 238 4.7611336 238 7.2388664 233.780172 7.2388664 233.780172 12 231.219828 12 231.219828 7.2388664 227 7.2388664"></polygon>
            <polygon id="+" points="286 68.1740891 289.068966 68.1740891 289.068966 65 290.931034 65 290.931034 68.1740891 294 68.1740891 294 69.8259109 290.931034 69.8259109 290.931034 73 289.068966 73 289.068966 69.8259109 286 69.8259109"></polygon>
            <polygon id="+" points="0 193.983806 1.53448276 193.983806 1.53448276 192 2.46551724 192 2.46551724 193.983806 4 193.983806 4 195.016194 2.46551724 195.016194 2.46551724 197 1.53448276 197 1.53448276 195.016194 0 195.016194"></polygon>
            <polygon id="+" points="418 228.967611 421.452586 228.967611 421.452586 225 423.547414 225 423.547414 228.967611 427 228.967611 427 231.032389 423.547414 231.032389 423.547414 235 421.452586 235 421.452586 231.032389 418 231.032389"></polygon>
            <path d="M243.609137,239.906915 C244.184436,240.449471 244.704735,240.944147 245.170051,241.390957 C245.635366,241.837768 246.121825,242.380316 246.629442,243.018617 L245.208122,244 C244.971234,243.680849 244.7555,243.373672 244.560914,243.078457 C244.366327,242.783243 244.184434,242.488033 244.015228,242.192819 C243.846023,241.897605 243.68105,241.594416 243.520305,241.283245 C243.359559,240.972073 243.186126,240.648938 243,240.31383 C242.813874,240.648938 242.640441,240.972073 242.479695,241.283245 C242.31895,241.594416 242.153977,241.897605 241.984772,242.192819 C241.815566,242.488033 241.633673,242.783243 241.439086,243.078457 C241.2445,243.373672 241.028766,243.680849 240.791878,244 L239.370558,243.018617 C239.624367,242.699466 239.869711,242.408246 240.106599,242.144947 C240.343487,241.881648 240.580371,241.63032 240.817259,241.390957 C241.054147,241.151595 241.303721,240.912235 241.56599,240.672872 C241.828259,240.433509 242.103213,240.178193 242.390863,239.906915 C241.595597,239.795212 240.863794,239.683511 240.195431,239.571809 C239.527069,239.460106 238.795266,239.284576 238,239.045213 L238.532995,237.489362 C238.939088,237.617022 239.311335,237.74468 239.649746,237.87234 C239.988157,238 240.318103,238.135638 240.639594,238.279255 C240.961085,238.422873 241.28257,238.570478 241.604061,238.722074 C241.925552,238.873671 242.263958,239.029255 242.619289,239.18883 L242.428934,238.111702 C242.369712,237.776594 242.318951,237.44548 242.27665,237.118351 C242.234348,236.791222 242.200508,236.456119 242.175127,236.113032 C242.149746,235.769945 242.137056,235.398938 242.137056,235 L243.862944,235 C243.862944,235.398938 243.850254,235.769945 243.824873,236.113032 C243.799492,236.456119 243.765652,236.791222 243.72335,237.118351 C243.681049,237.44548 243.630288,237.776594 243.571066,238.111702 L243.380711,239.18883 C243.736042,239.029255 244.074448,238.873671 244.395939,238.722074 C244.71743,238.570478 245.038915,238.422873 245.360406,238.279255 C245.681897,238.135638 246.011843,238 246.350254,237.87234 C246.688665,237.74468 247.060912,237.617022 247.467005,237.489362 L248,239.045213 C247.204734,239.284576 246.472931,239.460106 245.804569,239.571809 C245.136206,239.683511 244.404403,239.795212 243.609137,239.906915 Z" id="*"></path>
            <path d="" id="Path-5"></path>
            <polygon id="+" points="514 256.951417 519.37069 256.951417 519.37069 251 522.62931 251 522.62931 256.951417 528 256.951417 528 260.048583 522.62931 260.048583 522.62931 266 519.37069 266 519.37069 260.048583 514 260.048583"></polygon>
            <polygon id="+" points="463 348.967611 466.452586 348.967611 466.452586 345 468.547414 345 468.547414 348.967611 472 348.967611 472 351.032389 468.547414 351.032389 468.547414 355 466.452586 355 466.452586 351.032389 463 351.032389"></polygon>
            <polygon id="+" points="93 283.554656 97.987069 283.554656 97.987069 278 101.012931 278 101.012931 283.554656 106 283.554656 106 286.445344 101.012931 286.445344 101.012931 292 97.987069 292 97.987069 286.445344 93 286.445344"></polygon>
            <polygon id="+" points="328 312.157895 332.603448 312.157895 332.603448 307 335.396552 307 335.396552 312.157895 340 312.157895 340 314.842105 335.396552 314.842105 335.396552 320 332.603448 320 332.603448 314.842105 328 314.842105"></polygon>
            <polygon id="+" points="35 271.967611 38.4525862 271.967611 38.4525862 268 40.5474138 268 40.5474138 271.967611 44 271.967611 44 274.032389 40.5474138 274.032389 40.5474138 278 38.4525862 278 38.4525862 274.032389 35 274.032389"></polygon>
            <path d="M480.461929,33.5398936 C481.842646,34.9264254 483.091365,36.1905971 484.208122,37.3324468 C485.324879,38.4742965 486.49238,39.8608074 487.71066,41.4920213 L484.299492,44 C483.730962,43.1843931 483.2132,42.3993832 482.746193,41.6449468 C482.279185,40.8905104 481.842642,40.1360853 481.436548,39.3816489 C481.030455,38.6272125 480.63452,37.8523976 480.248731,37.0571809 C479.862942,36.2619641 479.446703,35.4361745 479,34.5797872 C478.553297,35.4361745 478.137058,36.2619641 477.751269,37.0571809 C477.36548,37.8523976 476.969545,38.6272125 476.563452,39.3816489 C476.157358,40.1360853 475.720815,40.8905104 475.253807,41.6449468 C474.7868,42.3993832 474.269038,43.1843931 473.700508,44 L470.28934,41.4920213 C470.89848,40.6764144 471.487307,39.9321842 472.055838,39.2593085 C472.624368,38.5864362 473.192891,37.944152 473.761421,37.3324468 C474.329952,36.7207416 474.928931,36.1090456 475.558376,35.4973404 C476.18782,34.8856352 476.847712,34.2331595 477.538071,33.5398936 C475.629432,33.2544312 473.873104,32.9689731 472.269036,32.6835106 C470.664967,32.3980482 468.908639,31.9494711 467,31.337766 L468.279188,27.3617021 C469.253812,27.6879449 470.147204,28.0141828 470.959391,28.3404255 C471.771578,28.6666683 472.563448,29.013296 473.335025,29.3803191 C474.106603,29.7473423 474.878169,30.1245548 475.649746,30.5119681 C476.421324,30.8993814 477.233498,31.2969838 478.086294,31.7047872 L477.629442,28.9521277 C477.487309,28.0957404 477.365483,27.2495609 477.263959,26.4135638 C477.162436,25.5775667 477.081219,24.7211923 477.020305,23.8444149 C476.959391,22.9676375 476.928934,22.0195086 476.928934,21 L481.071066,21 C481.071066,22.0195086 481.040609,22.9676375 480.979695,23.8444149 C480.918781,24.7211923 480.837564,25.5775667 480.736041,26.4135638 C480.634517,27.2495609 480.512691,28.0957404 480.370558,28.9521277 L479.913706,31.7047872 C480.766502,31.2969838 481.578676,30.8993814 482.350254,30.5119681 C483.121831,30.1245548 483.893397,29.7473423 484.664975,29.3803191 C485.436552,29.013296 486.228422,28.6666683 487.040609,28.3404255 C487.852796,28.0141828 488.746188,27.6879449 489.720812,27.3617021 L491,31.337766 C489.091361,31.9494711 487.335033,32.3980482 485.730964,32.6835106 C484.126896,32.9689731 482.370568,33.2544312 480.461929,33.5398936 Z" id="*"></path>
            <path d="M95.4619289,175.539894 C96.8426465,176.926425 98.091365,178.190597 99.2081218,179.332447 C100.324879,180.474296 101.49238,181.860807 102.71066,183.492021 L99.2994924,186 C98.7309616,185.184393 98.2132003,184.399383 97.7461929,183.644947 C97.2791855,182.89051 96.8426416,182.136085 96.4365482,181.381649 C96.0304548,180.627213 95.6345197,179.852398 95.248731,179.057181 C94.8629422,178.261964 94.4467027,177.436174 94,176.579787 C93.5532973,177.436174 93.1370578,178.261964 92.751269,179.057181 C92.3654803,179.852398 91.9695452,180.627213 91.5634518,181.381649 C91.1573584,182.136085 90.7208145,182.89051 90.2538071,183.644947 C89.7867997,184.399383 89.2690384,185.184393 88.7005076,186 L85.2893401,183.492021 C85.8984802,182.676414 86.4873068,181.932184 87.0558376,181.259309 C87.6243683,180.586436 88.1928906,179.944152 88.7614213,179.332447 C89.3299521,178.720742 89.9289309,178.109046 90.5583756,177.49734 C91.1878204,176.885635 91.8477123,176.233159 92.5380711,175.539894 C90.6294321,175.254431 88.8731045,174.968973 87.2690355,174.683511 C85.6649666,174.398048 83.908639,173.949471 82,173.337766 L83.2791878,169.361702 C84.253812,169.687945 85.1472041,170.014183 85.9593909,170.340426 C86.7715777,170.666668 87.5634479,171.013296 88.3350254,171.380319 C89.1066028,171.747342 89.8781687,172.124555 90.6497462,172.511968 C91.4213237,172.899381 92.2334983,173.296984 93.0862944,173.704787 L92.6294416,170.952128 C92.4873089,170.09574 92.3654827,169.249561 92.2639594,168.413564 C92.162436,167.577567 92.0812186,166.721192 92.0203046,165.844415 C91.9593906,164.967637 91.928934,164.019509 91.928934,163 L96.071066,163 C96.071066,164.019509 96.0406094,164.967637 95.9796954,165.844415 C95.9187814,166.721192 95.837564,167.577567 95.7360406,168.413564 C95.6345173,169.249561 95.5126911,170.09574 95.3705584,170.952128 L94.9137056,173.704787 C95.7665017,173.296984 96.5786763,172.899381 97.3502538,172.511968 C98.1218313,172.124555 98.8933972,171.747342 99.6649746,171.380319 C100.436552,171.013296 101.228422,170.666668 102.040609,170.340426 C102.852796,170.014183 103.746188,169.687945 104.720812,169.361702 L106,173.337766 C104.091361,173.949471 102.335033,174.398048 100.730964,174.683511 C99.1268955,174.968973 97.3705679,175.254431 95.4619289,175.539894 Z" id="*-copy"></path>
        </g>
        <path d="M404.845394,478 L375.077303,478 L353,478 L2,478 L2,369.236441 C11.2716143,369.44931 19.6549302,373.192898 25.9174338,379.177736 C28.1037582,361.312383 43.2503559,347.481501 61.6381323,347.481501 C65.9008541,347.481501 69.988137,348.229327 73.7856126,349.599041 C77.4387397,334.687099 90.8520452,323.621279 106.830312,323.621279 C112.337762,323.621279 117.523204,324.935269 122.120148,327.264563 C127.194553,314.794479 139.386448,306 153.632533,306 C171.442915,306 186.04432,319.720547 187.531109,337.205858 C188.698111,337.094408 189.875107,337.039798 191.07431,337.039798 C209.872924,337.039798 225.107241,352.329554 225.107241,371.197952 C225.107241,373.516102 224.874063,375.789671 224.441017,377.997486 C224.663092,377.985226 224.885167,377.974082 225.107241,377.974082 C232.035968,377.974082 237.654456,383.557701 237.743286,390.478714 C241.06219,388.294304 245.027332,387.02378 249.280061,387.02378 C259.761982,387.02378 268.445098,394.70265 270.08845,404.766539 C277.117111,396.307523 287.697855,390.913367 299.535541,390.913367 C314.049478,390.913367 326.670883,399.020338 333.174192,410.95675 C337.398839,407.248331 342.936857,405 349,405 C360.54219,405 370.181357,413.147812 372.479595,424.00553 C372.652619,424.00185 372.826093,424 373,424 C385.4564,424 395.696377,433.489638 396.884833,445.633818 C405.011161,447.789544 411,455.195388 411,464 C411,469.540423 408.628583,474.526971 404.845394,478 Z" id="Nubes" fill="#191E28"></path>
        <g id="Iconos/Startups" transform="translate(198.000000, 195.483103) rotate(19.000000) translate(-198.000000, -195.483103) translate(124.000000, 72.483103)">
            <mask id="mask-2" fill="white">
                <use xlink:href="#path-1"></use>
            </mask>
            <g id="Background"></g>
            <path d="M83.2073733,102.771374 C83.2073733,99.1137053 82.4277113,96.2193866 80.8683875,94.0834854 C79.3078397,91.9512839 77.1340884,90.8833333 74.3410138,90.8833333 C71.5491632,90.8833333 69.37174,91.9512839 67.8136401,94.0834854 C66.2530923,96.2193866 65.4746544,99.1137053 65.4746544,102.771374 C65.4746544,106.475905 66.2530923,109.40722 67.8136401,111.564085 C69.37174,113.722184 71.5491632,114.8 74.3410138,114.8 C77.1340884,114.8 79.3078397,113.722184 80.8683875,111.564085 C82.4277113,109.40722 83.2073733,106.475905 83.2073733,102.771374 Z M91.3917051,102.430473 C91.3917051,105.306694 90.9750427,107.926763 90.1441475,110.291899 C89.3120376,112.658256 88.1361509,114.675758 86.6116283,116.345625 C85.0871057,118.014272 83.25039,119.314548 81.1026961,120.242794 C78.9537873,121.1686 76.586222,121.633333 74,121.633333 C71.4125633,121.633333 69.0571455,121.1686 66.9325319,120.242794 C64.8067036,119.314548 62.9833503,118.014272 61.4588277,116.345625 C59.9343052,114.675758 58.7438413,112.658256 57.8898657,110.291899 C57.0346754,107.926763 56.6082949,105.306694 56.6082949,102.430473 C56.6082949,99.555472 57.0346754,96.9463811 57.8898657,94.6032003 C58.7438413,92.2612393 59.945238,90.2547155 61.492841,88.5848485 C63.040444,86.9149815 64.8759449,85.6281227 67.0017732,84.7230524 C69.1263868,83.8192018 71.4587241,83.3666667 74,83.3666667 C76.5400611,83.3666667 78.8845461,83.8192018 81.0334548,84.7230524 C83.179934,85.6281227 85.0166497,86.9149815 86.5411723,88.5848485 C88.0656948,90.2547155 89.2537292,92.2612393 90.1101343,94.6032003 C90.9641099,96.9463811 91.3917051,99.555472 91.3917051,102.430473 Z M55.9637051,221.370425 C55.0131386,216.117001 55.0044971,211.125633 55.9377805,206.391401 C56.868595,201.659629 58.4104879,197.324016 60.5597557,193.383333 L63.4102206,194.667777 C61.1807102,198.735182 59.7597985,202.871484 59.151189,207.076683 C58.5401106,211.283113 58.6783748,215.832799 59.5635127,220.724512 C60.447416,225.616224 61.9115353,229.92723 63.9583395,233.6563 C66.0002056,237.3866 68.7803039,240.769952 72.2949309,243.803897 L70.0740619,246 C66.6804162,243.053408 63.7163771,239.52857 61.1856482,235.418104 C58.6536847,231.307638 56.9142716,226.625079 55.9637051,221.370425 Z M86.8143741,235.416874 C84.2826869,239.527339 81.32144,243.053408 77.9269301,246 L75.7050691,243.803897 C79.2193126,240.768722 81.9991076,237.38783 84.0444541,233.6563 C86.0885662,229.92723 87.5525257,225.616224 88.4363326,220.724512 C89.3213739,215.832799 89.4596231,211.284343 88.8486113,207.076683 C88.2388339,202.871484 86.8180772,198.735182 84.58881,194.666547 L87.4401983,193.383333 C89.5892316,197.324016 91.1297219,201.659629 92.0629035,206.391401 C92.9960851,211.124403 92.9862102,216.117001 92.0357474,221.370425 C91.086519,226.625079 89.3460613,231.307638 86.8143741,235.416874 Z M55.5213966,53.3 L49.1059908,50.946745 L70.7084912,0 L77.2866505,0 L98.8940092,50.946745 L92.4810326,53.3 L74,8.94236898 L55.5213966,53.3 Z M9.5483871,148.099344 L33.4193548,150.333333 C32.9461769,149.20193 32.4840317,148.060503 32.0415,146.901535 C30.2909869,142.322045 28.9572626,137.53582 27.9974224,132.566667 L9.5483871,148.099344 Z M34.0489188,114.116667 C34.0489188,125.171567 35.5264421,135.181666 38.4839287,144.149433 C41.437755,153.114732 46.1155619,161.610056 52.516129,169.636639 L46.8659143,173.566667 C42.7615475,168.394473 39.1805973,162.723934 36.0998821,156.576018 L3.08803575,153.165307 L1.3640553,147.505869 L26.7210869,125.931421 C26.2720955,122.100076 26.0292985,118.167581 26.0292985,114.116667 C26.0292985,102.243936 27.9594734,91.3123893 31.818603,81.3207926 C35.6752924,71.3304295 40.692283,62.4465432 46.8659143,54.6666667 L52.516129,58.5966947 C46.1155619,66.6232773 41.437755,75.1186015 38.4839287,84.0839008 C35.5264421,93.0516672 34.0489188,103.061767 34.0489188,114.116667 Z M114.580645,150.333333 L138.451613,148.099344 L120.002578,132.566667 C119.042737,137.537073 117.709013,142.322045 115.959726,146.901535 C115.515968,148.061756 115.053823,149.203183 114.580645,150.333333 Z M146.635945,147.506139 L144.911923,153.165518 L111.899289,156.574961 C108.818501,162.722813 105.237465,168.394527 101.13422,173.566667 L95.483871,169.635446 C101.883371,161.608947 106.561289,153.114944 109.516406,144.148504 C112.472743,135.180831 113.950302,125.170835 113.950302,114.11605 C113.950302,103.061265 112.472743,93.051269 109.516406,84.0848292 C106.561289,75.1183893 101.883371,66.6231533 95.483871,58.5978874 L101.13422,54.6666667 C107.306779,62.447696 112.323889,71.3314901 116.181891,81.3205161 C120.041112,91.3120091 121.970113,102.243443 121.970113,114.11605 C121.970113,118.166922 121.72731,122.099376 121.278308,125.930682 L146.635945,147.506139 Z M71.9455328,194.066667 C71.9455328,193.145843 71.7832256,192.359132 71.4610519,191.70773 C71.1364376,191.053933 70.7178559,190.507905 70.2040865,190.067251 C69.6903172,189.626597 69.1008858,189.299698 68.4357925,189.088951 C67.7694788,188.878203 67.0934022,188.772829 66.4100036,188.772829 L56.1370572,188.772829 C54.5774438,188.772829 53.1886801,188.600399 51.970766,188.254342 C50.752852,187.909482 49.7253133,187.314359 48.8881499,186.470171 C48.0522069,185.625983 47.4237242,184.505189 47.0051425,183.104196 C46.5865608,181.703203 46.3778802,179.968127 46.3778802,177.896573 L46.3778802,177.666667 L50.542951,177.666667 C50.542951,179.853174 50.9334645,181.41582 51.7132712,182.357 C52.4942982,183.295785 53.9867921,183.765177 56.1931935,183.765177 L64.9821885,183.765177 C67.4936786,183.765177 69.4340427,184.101655 70.8032807,184.773413 C72.1737391,185.443974 73.2391088,186.393536 74.0006102,187.622099 C74.7608912,186.393536 75.8262609,185.443974 77.1967193,184.773413 C78.5659573,184.101655 80.5063214,183.765177 83.0165911,183.765177 L91.8055861,183.765177 C94.0119875,183.765177 95.5069221,183.295785 96.2867288,182.357 C97.0653151,181.41582 97.4558287,179.853174 97.4558287,177.666667 L101.62212,177.666667 L101.62212,177.896573 C101.62212,179.968127 101.403676,181.703203 100.965569,183.104196 C100.528682,184.505189 99.9001992,185.625983 99.0825616,186.470171 C98.2637035,187.314359 97.2459276,187.909482 96.029234,188.254342 C94.8113199,188.600399 93.4237765,188.772829 91.8629428,188.772829 L81.5899964,188.772829 C80.9053774,188.772829 80.2293009,188.878203 79.5642075,189.088951 C78.8978938,189.299698 78.3084625,189.626597 77.7946931,190.067251 C77.2809238,190.507905 76.8623421,191.053933 76.5401684,191.70773 C76.2155541,192.359132 76.0544672,193.145843 76.0544672,194.066667 L71.9455328,194.066667 Z" id="Combined-Shape" fill="#99FF99" fill-rule="evenodd" mask="url(#mask-2)"></path>
        </g>
    </g>
</svg>