<?xml version="1.0" encoding="UTF-8"?>
<svg width="765px" height="480px" viewBox="0 0 765 480" version="1.1" xmlns="http://www.w3.org/2000/svg" xmlns:xlink="http://www.w3.org/1999/xlink">
    <!-- Generator: Sketch 55.1 (78136) - https://sketchapp.com -->
    <title>Ilustracion_Soluciones</title>
    <desc>Created with Sketch.</desc>
    <defs>
        <rect id="path-1" x="0" y="0" width="217" height="360"></rect>
    </defs>
    <g id="Ilustracion_Soluciones" stroke="none" stroke-width="1" fill="none" fill-rule="evenodd">
        <path d="M343,414 L343,412 L364,412 L364,414 L345,414 L345,479 L343,479 L343,414 Z M287,451 L287,478 L285,478 L285,451 L266,451 L266,449 L307,449 L307,451 L287,451 Z M288,414 L288,431 L307,431 L307,433 L266,433 L266,431 L286,431 L286,414 L286,412 L305,412 L305,373 L307,373 L307,412 L326,412 L326,414 L288,414 Z M267,412 L267,393 L269,393 L269,412 L269,414 L250,414 L250,449 L250,451 L229,451 L229,449 L248,449 L248,414 L248,412 L267,412 Z M212,414 L212,478 L210,478 L210,414 L171,414 L171,412 L212,412 L212,414 Z M193,433 L193,480 L191,480 L191,433 L174,433 L174,452 L172,452 L172,433 L172,431 L193,431 L193,433 Z M154,431 L155,431 L155,478 L153,478 L153,433 L133,433 L133,431 L154,431 Z M153,412 L153,393 L155,393 L155,414 L154,414 L133,414 L133,412 L153,412 Z M114,392 L114,373 L114,371 L133,371 L133,313 L135,313 L135,371 L135,373 L116,373 L116,392 L116,452 L114,452 L114,433 L95,433 L95,431 L114,431 L114,392 Z M79,414 L79,478 L77,478 L77,414 L57,414 L57,412 L98,412 L98,414 L79,414 Z M60,440 L60,478 L58,478 L58,440 L40,440 L40,460 L38,460 L38,419 L40,419 L40,438 L60,438 L60,440 Z M19,431 L19,392 L21,392 L21,431 L21,433 L0,433 L0,431 L19,431 Z M362,352 L362,335 L362,333 L383,333 L383,335 L364,335 L364,352 L364,354 L345,354 L345,371 L345,373 L324,373 L324,371 L343,371 L343,354 L343,352 L362,352 Z M362,258 L307,258 L307,275 L346,275 L346,277 L326,277 L326,314 L345,314 L345,316 L345,333 L345,335 L326,335 L326,354 L324,354 L324,335 L324,333 L343,333 L343,316 L307,316 L307,333 L307,335 L288,335 L288,393 L286,393 L286,335 L286,333 L305,333 L305,316 L305,314 L324,314 L324,277 L305,277 L305,275 L305,258 L305,256 L362,256 L362,218 L364,218 L364,316 L362,316 L362,296 L343,296 L343,294 L362,294 L362,258 Z M364,163 L364,180 L383,180 L383,182 L362,182 L362,180 L362,163 L343,163 L343,161 L343,144 L324,144 L324,142 L324,123 L326,123 L326,142 L343,142 L343,106 L324,106 L324,104 L324,84 L326,84 L326,104 L345,104 L345,106 L345,123 L364,123 L364,125 L345,125 L345,161 L364,161 L364,163 Z M362,86 L343,86 L343,84 L343,67 L307,67 L307,104 L307,106 L267,106 L267,104 L267,67 L212,67 L212,84 L212,86 L193,86 L193,123 L193,125 L172,125 L172,123 L172,86 L153,86 L153,84 L153,48 L133,48 L133,46 L154,46 L155,46 L155,84 L174,84 L174,86 L174,123 L191,123 L191,48 L174,48 L174,68 L172,68 L172,48 L172,46 L193,46 L193,48 L193,84 L210,84 L210,30 L171,30 L171,28 L212,28 L212,30 L212,65 L248,65 L248,29 L248,27 L267,27 L267,9 L231,9 L231,49 L229,49 L229,9 L171,9 L171,7 L383,7 L383,9 L269,9 L269,27 L269,29 L250,29 L250,65 L269,65 L269,67 L269,104 L305,104 L305,67 L288,67 L288,86 L286,86 L286,67 L286,65 L324,65 L324,30 L287,30 L287,46 L307,46 L307,48 L266,48 L266,46 L285,46 L285,30 L285,28 L326,28 L326,30 L326,65 L343,65 L343,30 L343,28 L364,28 L364,30 L345,30 L345,65 L365,65 L365,67 L345,67 L345,84 L364,84 L364,86 L364,105 L362,105 L362,86 Z M343,237 L343,182 L324,182 L324,180 L324,163 L288,163 L288,218 L307,218 L307,220 L307,237 L307,239 L286,239 L286,237 L305,237 L305,220 L269,220 L269,239 L267,239 L267,220 L247,220 L247,218 L286,218 L286,182 L267,182 L267,180 L286,180 L286,163 L286,161 L305,161 L305,125 L250,125 L250,165 L267,165 L267,148 L267,146 L288,146 L288,148 L269,148 L269,165 L269,167 L250,167 L250,180 L250,182 L229,182 L229,180 L248,180 L248,167 L229,167 L229,165 L248,165 L248,86 L231,86 L231,104 L231,106 L212,106 L212,137 L229,137 L229,123 L231,123 L231,139 L229,139 L212,139 L212,256 L229,256 L229,202 L229,200 L270,200 L270,202 L231,202 L231,237 L250,237 L250,239 L231,239 L231,259 L231,275 L269,275 L269,277 L269,296 L267,296 L267,277 L229,277 L229,275 L229,258 L210,258 L210,256 L210,220 L136,220 L136,218 L153,218 L153,182 L114,182 L114,180 L153,180 L153,161 L155,161 L155,180 L174,180 L174,182 L155,182 L155,218 L210,218 L210,139 L174,139 L174,165 L193,165 L193,167 L193,192 L193,194 L172,194 L172,192 L191,192 L191,167 L172,167 L172,165 L172,139 L153,139 L153,137 L153,106 L135,106 L135,125 L133,125 L133,86 L79,86 L79,142 L98,142 L98,144 L79,144 L79,163 L77,163 L77,106 L38,106 L38,104 L38,84 L40,84 L40,104 L77,104 L77,29 L57,29 L57,27 L98,27 L98,29 L79,29 L79,65 L98,65 L98,67 L79,67 L79,84 L133,84 L133,65 L135,65 L135,104 L154,104 L155,104 L155,137 L210,137 L210,106 L210,104 L229,104 L229,86 L229,84 L250,84 L250,86 L250,123 L307,123 L307,125 L307,161 L326,161 L326,163 L326,180 L345,180 L345,182 L345,200 L364,200 L364,202 L345,202 L345,237 L345,239 L324,239 L324,237 L324,202 L305,202 L305,200 L305,180 L307,180 L307,200 L326,200 L326,202 L326,237 L343,237 Z M286,314 L286,275 L288,275 L288,294 L307,294 L307,296 L288,296 L288,314 L288,316 L269,316 L269,371 L269,373 L229,373 L229,371 L229,354 L193,354 L193,392 L191,392 L191,354 L174,354 L174,371 L174,373 L153,373 L153,371 L172,371 L172,354 L172,352 L251,352 L251,354 L231,354 L231,371 L267,371 L267,335 L191,335 L191,333 L191,316 L155,316 L155,333 L174,333 L174,335 L155,335 L155,354 L153,354 L153,296 L95,296 L95,294 L96,294 L96,277 L60,277 L60,297 L58,297 L58,258 L19,258 L19,256 L19,237 L21,237 L21,256 L58,256 L58,237 L60,237 L60,275 L136,275 L136,277 L98,277 L98,294 L153,294 L153,258 L133,258 L133,256 L174,256 L174,258 L155,258 L155,314 L193,314 L193,316 L193,333 L229,333 L229,296 L229,294 L250,294 L250,296 L250,316 L248,316 L248,296 L231,296 L231,333 L267,333 L267,316 L267,314 L286,314 Z M210,277 L171,277 L171,275 L191,275 L191,239 L114,239 L114,237 L114,220 L95,220 L95,218 L114,218 L114,202 L79,202 L79,237 L98,237 L98,239 L98,256 L116,256 L116,258 L96,258 L96,256 L96,239 L79,239 L79,259 L77,259 L77,220 L40,220 L40,240 L38,240 L38,199 L40,199 L40,218 L77,218 L77,202 L77,200 L96,200 L96,182 L60,182 L60,201 L58,201 L58,182 L38,182 L38,180 L38,144 L0,144 L0,142 L40,142 L40,144 L40,180 L96,180 L96,163 L96,161 L114,161 L114,125 L95,125 L95,123 L95,106 L95,104 L116,104 L116,106 L97,106 L97,123 L116,123 L116,125 L116,161 L136,161 L136,142 L138,142 L138,161 L138,163 L98,163 L98,200 L136,200 L136,202 L116,202 L116,237 L193,237 L193,239 L193,275 L212,275 L212,277 L212,316 L210,316 L210,296 L171,296 L171,294 L210,294 L210,277 Z M154,9 L154,28 L154,30 L133,30 L133,28 L152,28 L152,9 L116,9 L116,68 L114,68 L114,48 L95,48 L95,46 L114,46 L114,9 L21,9 L21,49 L19,49 L19,9 L1,9 L1,7 L154,7 L154,9 Z M114,352 L114,313 L116,313 L116,352 L116,354 L98,354 L98,371 L98,373 L77,373 L77,371 L96,371 L96,335 L40,335 L40,394 L38,394 L38,335 L19,335 L19,333 L98,333 L98,335 L98,352 L114,352 Z M79,314 L98,314 L98,316 L0,316 L0,314 L38,314 L38,277 L19,277 L19,275 L40,275 L40,277 L40,314 L77,314 L77,295 L79,295 L79,314 Z M58,393 L58,354 L58,352 L79,352 L79,354 L60,354 L60,393 L78,393 L78,395 L58,395 L58,393 Z M58,125 L19,125 L19,123 L19,67 L0,67 L0,65 L38,65 L38,27 L40,27 L40,46 L60,46 L60,48 L60,87 L58,87 L58,48 L40,48 L40,65 L40,67 L21,67 L21,123 L60,123 L60,125 L60,163 L58,163 L58,125 Z M21,354 L21,373 L19,373 L19,354 L0,354 L0,352 L21,352 L21,354 Z M19,218 L19,161 L21,161 L21,218 L21,220 L0,220 L0,218 L19,218 Z M362,48 L362,46 L383,46 L383,48 L362,48 Z M362,144 L362,142 L383,142 L383,144 L362,144 Z M247,258 L247,256 L288,256 L288,258 L247,258 Z M0,296 L0,294 L21,294 L21,296 L0,296 Z M324,395 L324,393 L383,393 L383,395 L324,395 Z M362,373 L362,371 L383,371 L383,373 L362,373 Z M210,392 L210,371 L212,371 L212,392 L210,392 Z M362,433 L362,431 L383,431 L383,433 L362,433 Z M229,433 L229,392 L231,392 L231,433 L229,433 Z M324,478 L324,429 L326,429 L326,478 L324,478 Z" id="Combined-Shape-Copy" fill="#191E28" opacity="0.25"></path>
        <g id="Iconos/Soluciones" transform="translate(78.000000, 25.000000)">
            <mask id="mask-2" fill="white">
                <use xlink:href="#path-1"></use>
            </mask>
            <g id="Background"></g>
            <path d="M176.2238,107.9999 L183.2238,107.9999 L183.2238,255.0499 L37.9998,255.0499 L37.9998,211.333008 L44.9998,211.333008 L44.9998,248.0499 L176.2238,248.0499 L176.2238,150.0099 L103.7148,150.0099 L103.7148,143.0099 L176.2238,143.0099 L176.2238,107.9999 Z M38,107.9999 L141.712,107.9999 L141.712,114.9999 L80.33,114.9999 L80.33,142.0999 L73.33,142.0999 L73.33,114.9999 L45,114.9999 L45,178.0209 L114.613,178.0209 L114.613,199.9009 L141.712,199.9009 L141.712,206.9009 L114.613,206.9009 L114.613,229.3779 L107.613,229.3779 L107.613,185.0209 L80.33,185.0209 L80.33,212.1249 L73.33,212.1249 L73.33,185.0209 L38,185.0209 L38,107.9999 Z M41.6204207,197.114274 L47.6929434,191 L49.2398888,192.54834 L43.129264,198.622595 L49.2398888,204.69685 L47.6929434,206.245189 L41.6204207,200.131868 L35.5478979,206.245189 L34,204.69685 L40.1125299,198.622595 L34,192.54834 L35.5478979,191 L41.6204207,197.114274 Z M163.208866,112.582576 C163.208866,111.093312 162.76974,109.93563 161.892439,109.109531 C161.014185,108.285338 159.936848,107.872765 158.660428,107.872765 C157.384007,107.872765 156.305718,108.285338 155.428417,109.109531 C154.551116,109.93563 154.111989,111.093312 154.111989,112.582576 C154.111989,114.127104 154.551116,115.29622 155.428417,116.094687 C156.305718,116.8922 157.384007,117.291434 158.660428,117.291434 C159.936848,117.291434 161.014185,116.8922 161.892439,116.094687 C162.76974,115.29622 163.208866,114.127104 163.208866,112.582576 Z M166.240841,112.582576 C166.240841,113.753597 166.041758,114.804562 165.642638,115.735472 C165.243519,116.667334 164.697706,117.464848 164.007106,118.129919 C163.3146,118.794991 162.503025,119.31428 161.572381,119.685881 C160.641737,120.060341 159.670134,120.245189 158.660428,120.245189 C156.585768,120.245189 154.790207,119.553439 153.273743,118.169938 C151.758232,116.786437 151,114.924618 151,112.582576 C151,110.295798 151.758232,108.458752 153.273743,107.075251 C154.790207,105.69175 156.585768,105 158.660428,105 C159.670134,105 160.641737,105.186754 161.572381,105.558355 C162.503025,105.930909 163.3146,106.449246 164.007106,107.11527 C164.697706,107.781294 165.243519,108.578808 165.642638,109.508765 C166.041758,110.440627 166.240841,111.464913 166.240841,112.582576 Z" id="Combined-Shape" fill="#99FF99" fill-rule="evenodd" mask="url(#mask-2)"></path>
        </g>
    </g>
</svg>