<?xml version="1.0" encoding="UTF-8"?>
<svg width="765px" height="480px" viewBox="0 0 765 480" version="1.1" xmlns="http://www.w3.org/2000/svg" xmlns:xlink="http://www.w3.org/1999/xlink">
    <!-- Generator: Sketch 55.1 (78136) - https://sketchapp.com -->
    <title>Ilustracion_AuditoriaProcesos</title>
    <desc>Created with Sketch.</desc>
    <defs>
        <rect id="path-1" x="0" y="0" width="172" height="286"></rect>
    </defs>
    <g id="Ilustracion_AuditoriaProcesos" stroke="none" stroke-width="1" fill="none" fill-rule="evenodd">
        <g id="Carpetas-Copy" opacity="0.25" transform="translate(40.000000, 80.000000)">
            <path d="M7,27 L30,27 C33.3137085,27 36,24.3137085 36,21 L36,10.8686996 C36,7.5549911 33.3137085,4.8686996 30,4.8686996 L22.9744011,4.8686996 C20.7233016,4.8686996 18.5375332,4.11206511 16.7682003,2.72033586 C15.3513794,1.6058869 13.6010912,1 11.798488,1 L7,1 C3.6862915,1 1,3.6862915 1,7 L1,21 C1,24.3137085 3.6862915,27 7,27 Z" id="Carpeta-Copy-2" stroke="#191E28" stroke-width="2"></path>
            <path d="M412,27 L435,27 C438.313708,27 441,24.3137085 441,21 L441,10.8686996 C441,7.5549911 438.313708,4.8686996 435,4.8686996 L427.974401,4.8686996 C425.723302,4.8686996 423.537533,4.11206511 421.7682,2.72033586 C420.351379,1.6058869 418.601091,1 416.798488,1 L412,1 C408.686292,1 406,3.6862915 406,7 L406,21 C406,24.3137085 408.686292,27 412,27 Z" id="Carpeta-Copy-35" stroke="#191E28" stroke-width="2"></path>
            <path d="M65,27 L88,27 C91.3137085,27 94,24.3137085 94,21 L94,10.8686996 C94,7.5549911 91.3137085,4.8686996 88,4.8686996 L80.9744011,4.8686996 C78.7233016,4.8686996 76.5375332,4.11206511 74.7682003,2.72033586 C73.3513794,1.6058869 71.6010912,1 69.798488,1 L65,1 C61.6862915,1 59,3.6862915 59,7 L59,21 C59,24.3137085 61.6862915,27 65,27 Z" id="Carpeta-Copy-3" stroke="#191E28" stroke-width="2"></path>
            <path d="M122,27 L145,27 C148.313708,27 151,24.3137085 151,21 L151,10.8686996 C151,7.5549911 148.313708,4.8686996 145,4.8686996 L137.974401,4.8686996 C135.723302,4.8686996 133.537533,4.11206511 131.7682,2.72033586 C130.351379,1.6058869 128.601091,1 126.798488,1 L122,1 C118.686292,1 116,3.6862915 116,7 L116,21 C116,24.3137085 118.686292,27 122,27 Z" id="Carpeta-Copy-4" stroke="#191E28" stroke-width="2"></path>
            <path d="M527,27 L550,27 C553.313708,27 556,24.3137085 556,21 L556,10.8686996 C556,7.5549911 553.313708,4.8686996 550,4.8686996 L542.974401,4.8686996 C540.723302,4.8686996 538.537533,4.11206511 536.7682,2.72033586 C535.351379,1.6058869 533.601091,1 531.798488,1 L527,1 C523.686292,1 521,3.6862915 521,7 L521,21 C521,24.3137085 523.686292,27 527,27 Z" id="Carpeta-Copy-36" stroke="#191E28" stroke-width="2"></path>
            <path d="M180,28 L203,28 C206.865993,28 210,24.8659932 210,21 L210,10.8686996 C210,7.00270635 206.865993,3.8686996 203,3.8686996 L195.974401,3.8686996 C193.94755,3.8686996 191.979521,3.18743891 190.386445,1.9343498 C188.793368,0.68126069 186.825339,-2.14868339e-15 184.798488,0 L180,0 C176.134007,7.10171439e-16 173,3.13400675 173,7 L173,21 C173,24.8659932 176.134007,28 180,28 Z" id="Carpeta-Copy-5" fill="#191E28"></path>
            <path d="M237,27 L260,27 C263.313708,27 266,24.3137085 266,21 L266,10.8686996 C266,7.5549911 263.313708,4.8686996 260,4.8686996 L252.974401,4.8686996 C250.723302,4.8686996 248.537533,4.11206511 246.7682,2.72033586 C245.351379,1.6058869 243.601091,1 241.798488,1 L237,1 C233.686292,1 231,3.6862915 231,7 L231,21 C231,24.3137085 233.686292,27 237,27 Z" id="Carpeta-Copy-6" stroke="#191E28" stroke-width="2"></path>
            <path d="M7,75 L30,75 C33.3137085,75 36,72.3137085 36,69 L36,58.8686996 C36,55.5549911 33.3137085,52.8686996 30,52.8686996 L22.9744011,52.8686996 C20.7233016,52.8686996 18.5375332,52.1120651 16.7682003,50.7203359 C15.3513794,49.6058869 13.6010912,49 11.798488,49 L7,49 C3.6862915,49 1,51.6862915 1,55 L1,69 C1,72.3137085 3.6862915,75 7,75 Z" id="Carpeta-Copy-2" stroke="#191E28" stroke-width="2"></path>
            <path d="M7,124 L30,124 C33.8659932,124 37,120.865993 37,117 L37,106.8687 C37,103.002706 33.8659932,99.8686996 30,99.8686996 L22.9744011,99.8686996 C20.9475497,99.8686996 18.9795215,99.1874389 17.3864446,97.9343498 C15.7933676,96.6812607 13.8253394,96 11.798488,96 L7,96 C3.13400675,96 -4.73447626e-16,99.1340068 0,103 L0,117 C4.73447626e-16,120.865993 3.13400675,124 7,124 Z" id="Carpeta-Copy-7" fill="#191E28"></path>
            <path d="M7,171 L30,171 C33.3137085,171 36,168.313708 36,165 L36,154.8687 C36,151.554991 33.3137085,148.8687 30,148.8687 L22.9744011,148.8687 C20.7233016,148.8687 18.5375332,148.112065 16.7682003,146.720336 C15.3513794,145.605887 13.6010912,145 11.798488,145 L7,145 C3.6862915,145 1,147.686292 1,151 L1,165 C1,168.313708 3.6862915,171 7,171 Z" id="Carpeta-Copy-12" stroke="#191E28" stroke-width="2"></path>
            <path d="M65,76 L88,76 C91.8659932,76 95,72.8659932 95,69 L95,58.8686996 C95,55.0027063 91.8659932,51.8686996 88,51.8686996 L80.9744011,51.8686996 C78.9475497,51.8686996 76.9795215,51.1874389 75.3864446,49.9343498 C73.7933676,48.6812607 71.8253394,48 69.798488,48 L65,48 C61.1340068,48 58,51.1340068 58,55 L58,69 C58,72.8659932 61.1340068,76 65,76 Z" id="Carpeta-Copy-3" fill="#191E28"></path>
            <path d="M65,124 L88,124 C91.8659932,124 95,120.865993 95,117 L95,106.8687 C95,103.002706 91.8659932,99.8686996 88,99.8686996 L80.9744011,99.8686996 C78.9475497,99.8686996 76.9795215,99.1874389 75.3864446,97.9343498 C73.7933676,96.6812607 71.8253394,96 69.798488,96 L65,96 C61.1340068,96 58,99.1340068 58,103 L58,117 C58,120.865993 61.1340068,124 65,124 Z" id="Carpeta-Copy-8" fill="#191E28"></path>
            <path d="M65,172 L88,172 C91.8659932,172 95,168.865993 95,165 L95,154.8687 C95,151.002706 91.8659932,147.8687 88,147.8687 L80.9744011,147.8687 C78.9475497,147.8687 76.9795215,147.187439 75.3864446,145.93435 C73.7933676,144.681261 71.8253394,144 69.798488,144 L65,144 C61.1340068,144 58,147.134007 58,151 L58,165 C58,168.865993 61.1340068,172 65,172 Z" id="Carpeta-Copy-13" fill="#191E28"></path>
            <path d="M122,75 L145,75 C148.313708,75 151,72.3137085 151,69 L151,58.8686996 C151,55.5549911 148.313708,52.8686996 145,52.8686996 L137.974401,52.8686996 C135.723302,52.8686996 133.537533,52.1120651 131.7682,50.7203359 C130.351379,49.6058869 128.601091,49 126.798488,49 L122,49 C118.686292,49 116,51.6862915 116,55 L116,69 C116,72.3137085 118.686292,75 122,75 Z" id="Carpeta-Copy-4" stroke="#191E28" stroke-width="2"></path>
            <path d="M122,124 L145,124 C148.865993,124 152,120.865993 152,117 L152,106.8687 C152,103.002706 148.865993,99.8686996 145,99.8686996 L137.974401,99.8686996 C135.94755,99.8686996 133.979521,99.1874389 132.386445,97.9343498 C130.793368,96.6812607 128.825339,96 126.798488,96 L122,96 C118.134007,96 115,99.1340068 115,103 L115,117 C115,120.865993 118.134007,124 122,124 Z" id="Carpeta-Copy-9" fill="#191E28"></path>
            <path d="M122,172 L145,172 C148.865993,172 152,168.865993 152,165 L152,154.8687 C152,151.002706 148.865993,147.8687 145,147.8687 L137.974401,147.8687 C135.94755,147.8687 133.979521,147.187439 132.386445,145.93435 C130.793368,144.681261 128.825339,144 126.798488,144 L122,144 C118.134007,144 115,147.134007 115,151 L115,165 C115,168.865993 118.134007,172 122,172 Z" id="Carpeta-Copy-14" fill="#191E28"></path>
            <path d="M180,75 L203,75 C206.313708,75 209,72.3137085 209,69 L209,58.8686996 C209,55.5549911 206.313708,52.8686996 203,52.8686996 L195.974401,52.8686996 C193.723302,52.8686996 191.537533,52.1120651 189.7682,50.7203359 C188.351379,49.6058869 186.601091,49 184.798488,49 L180,49 C176.686292,49 174,51.6862915 174,55 L174,69 C174,72.3137085 176.686292,75 180,75 Z" id="Carpeta-Copy-5" stroke="#191E28" stroke-width="2"></path>
            <path d="M180,124 L203,124 C206.865993,124 210,120.865993 210,117 L210,106.8687 C210,103.002706 206.865993,99.8686996 203,99.8686996 L195.974401,99.8686996 C193.94755,99.8686996 191.979521,99.1874389 190.386445,97.9343498 C188.793368,96.6812607 186.825339,96 184.798488,96 L180,96 C176.134007,96 173,99.1340068 173,103 L173,117 C173,120.865993 176.134007,124 180,124 Z" id="Carpeta-Copy-10" fill="#191E28"></path>
            <path d="M180,171 L203,171 C206.313708,171 209,168.313708 209,165 L209,154.8687 C209,151.554991 206.313708,148.8687 203,148.8687 L195.974401,148.8687 C193.723302,148.8687 191.537533,148.112065 189.7682,146.720336 C188.351379,145.605887 186.601091,145 184.798488,145 L180,145 C176.686292,145 174,147.686292 174,151 L174,165 C174,168.313708 176.686292,171 180,171 Z" id="Carpeta-Copy-15" stroke="#191E28" stroke-width="2"></path>
            <path d="M237,76 L260,76 C263.865993,76 267,72.8659932 267,69 L267,58.8686996 C267,55.0027063 263.865993,51.8686996 260,51.8686996 L252.974401,51.8686996 C250.94755,51.8686996 248.979521,51.1874389 247.386445,49.9343498 C245.793368,48.6812607 243.825339,48 241.798488,48 L237,48 C233.134007,48 230,51.1340068 230,55 L230,69 C230,72.8659932 233.134007,76 237,76 Z" id="Carpeta-Copy-6" fill="#191E28"></path>
            <path d="M486,76 L509,76 C512.865993,76 516,72.8659932 516,69 L516,58.8686996 C516,55.0027063 512.865993,51.8686996 509,51.8686996 L501.974401,51.8686996 C499.94755,51.8686996 497.979521,51.1874389 496.386445,49.9343498 C494.793368,48.6812607 492.825339,48 490.798488,48 L486,48 C482.134007,48 479,51.1340068 479,55 L479,69 C479,72.8659932 482.134007,76 486,76 Z" id="Carpeta-Copy-34" fill="#191E28"></path>
            <path d="M237,124 L260,124 C263.865993,124 267,120.865993 267,117 L267,106.8687 C267,103.002706 263.865993,99.8686996 260,99.8686996 L252.974401,99.8686996 C250.94755,99.8686996 248.979521,99.1874389 247.386445,97.9343498 C245.793368,96.6812607 243.825339,96 241.798488,96 L237,96 C233.134007,96 230,99.1340068 230,103 L230,117 C230,120.865993 233.134007,124 237,124 Z" id="Carpeta-Copy-11" fill="#191E28"></path>
            <path d="M237,171 L260,171 C263.313708,171 266,168.313708 266,165 L266,154.8687 C266,151.554991 263.313708,148.8687 260,148.8687 L252.974401,148.8687 C250.723302,148.8687 248.537533,148.112065 246.7682,146.720336 C245.351379,145.605887 243.601091,145 241.798488,145 L237,145 C233.686292,145 231,147.686292 231,151 L231,165 C231,168.313708 233.686292,171 237,171 Z" id="Carpeta-Copy-16" stroke="#191E28" stroke-width="2"></path>
            <path d="M7,220 L30,220 C33.8659932,220 37,216.865993 37,213 L37,202.8687 C37,199.002706 33.8659932,195.8687 30,195.8687 L22.9744011,195.8687 C20.9475497,195.8687 18.9795215,195.187439 17.3864446,193.93435 C15.7933676,192.681261 13.8253394,192 11.798488,192 L7,192 C3.13400675,192 -4.73447626e-16,195.134007 0,199 L0,213 C4.73447626e-16,216.865993 3.13400675,220 7,220 Z" id="Carpeta-Copy-21" fill="#191E28"></path>
            <path d="M65,219 L88,219 C91.3137085,219 94,216.313708 94,213 L94,202.8687 C94,199.554991 91.3137085,196.8687 88,196.8687 L80.9744011,196.8687 C78.7233016,196.8687 76.5375332,196.112065 74.7682003,194.720336 C73.3513794,193.605887 71.6010912,193 69.798488,193 L65,193 C61.6862915,193 59,195.686292 59,199 L59,213 C59,216.313708 61.6862915,219 65,219 Z" id="Carpeta-Copy-20" stroke="#191E28" stroke-width="2"></path>
            <path d="M122,220 L145,220 C148.865993,220 152,216.865993 152,213 L152,202.8687 C152,199.002706 148.865993,195.8687 145,195.8687 L137.974401,195.8687 C135.94755,195.8687 133.979521,195.187439 132.386445,193.93435 C130.793368,192.681261 128.825339,192 126.798488,192 L122,192 C118.134007,192 115,195.134007 115,199 L115,213 C115,216.865993 118.134007,220 122,220 Z" id="Carpeta-Copy-19" fill="#191E28"></path>
            <path d="M180,220 L203,220 C206.865993,220 210,216.865993 210,213 L210,202.8687 C210,199.002706 206.865993,195.8687 203,195.8687 L195.974401,195.8687 C193.94755,195.8687 191.979521,195.187439 190.386445,193.93435 C188.793368,192.681261 186.825339,192 184.798488,192 L180,192 C176.134007,192 173,195.134007 173,199 L173,213 C173,216.865993 176.134007,220 180,220 Z" id="Carpeta-Copy-18" fill="#191E28"></path>
            <path d="M237,220 L260,220 C263.865993,220 267,216.865993 267,213 L267,202.8687 C267,199.002706 263.865993,195.8687 260,195.8687 L252.974401,195.8687 C250.94755,195.8687 248.979521,195.187439 247.386445,193.93435 C245.793368,192.681261 243.825339,192 241.798488,192 L237,192 C233.134007,192 230,195.134007 230,199 L230,213 C230,216.865993 233.134007,220 237,220 Z" id="Carpeta-Copy-17" fill="#191E28"></path>
            <path d="M7,268 L30,268 C33.8659932,268 37,264.865993 37,261 L37,250.8687 C37,247.002706 33.8659932,243.8687 30,243.8687 L22.9744011,243.8687 C20.9475497,243.8687 18.9795215,243.187439 17.3864446,241.93435 C15.7933676,240.681261 13.8253394,240 11.798488,240 L7,240 C3.13400675,240 -4.73447626e-16,243.134007 0,247 L0,261 C4.73447626e-16,264.865993 3.13400675,268 7,268 Z" id="Carpeta-Copy-26" fill="#191E28"></path>
            <path d="M65,268 L88,268 C91.8659932,268 95,264.865993 95,261 L95,250.8687 C95,247.002706 91.8659932,243.8687 88,243.8687 L80.9744011,243.8687 C78.9475497,243.8687 76.9795215,243.187439 75.3864446,241.93435 C73.7933676,240.681261 71.8253394,240 69.798488,240 L65,240 C61.1340068,240 58,243.134007 58,247 L58,261 C58,264.865993 61.1340068,268 65,268 Z" id="Carpeta-Copy-25" fill="#191E28"></path>
            <path d="M122,267 L145,267 C148.313708,267 151,264.313708 151,261 L151,250.8687 C151,247.554991 148.313708,244.8687 145,244.8687 L137.974401,244.8687 C135.723302,244.8687 133.537533,244.112065 131.7682,242.720336 C130.351379,241.605887 128.601091,241 126.798488,241 L122,241 C118.686292,241 116,243.686292 116,247 L116,261 C116,264.313708 118.686292,267 122,267 Z" id="Carpeta-Copy-24" stroke="#191E28" stroke-width="2"></path>
            <path d="M180,268 L203,268 C206.865993,268 210,264.865993 210,261 L210,250.8687 C210,247.002706 206.865993,243.8687 203,243.8687 L195.974401,243.8687 C193.94755,243.8687 191.979521,243.187439 190.386445,241.93435 C188.793368,240.681261 186.825339,240 184.798488,240 L180,240 C176.134007,240 173,243.134007 173,247 L173,261 C173,264.865993 176.134007,268 180,268 Z" id="Carpeta-Copy-23" fill="#191E28"></path>
            <path d="M237,267 L260,267 C263.313708,267 266,264.313708 266,261 L266,250.8687 C266,247.554991 263.313708,244.8687 260,244.8687 L252.974401,244.8687 C250.723302,244.8687 248.537533,244.112065 246.7682,242.720336 C245.351379,241.605887 243.601091,241 241.798488,241 L237,241 C233.686292,241 231,243.686292 231,247 L231,261 C231,264.313708 233.686292,267 237,267 Z" id="Carpeta-Copy-22" stroke="#191E28" stroke-width="2"></path>
            <path d="M7,316 L30,316 C33.8659932,316 37,312.865993 37,309 L37,298.8687 C37,295.002706 33.8659932,291.8687 30,291.8687 L22.9744011,291.8687 C20.9475497,291.8687 18.9795215,291.187439 17.3864446,289.93435 C15.7933676,288.681261 13.8253394,288 11.798488,288 L7,288 C3.13400675,288 -4.73447626e-16,291.134007 0,295 L0,309 C4.73447626e-16,312.865993 3.13400675,316 7,316 Z" id="Carpeta-Copy-31" fill="#191E28"></path>
            <path d="M65,315 L88,315 C91.3137085,315 94,312.313708 94,309 L94,298.8687 C94,295.554991 91.3137085,292.8687 88,292.8687 L80.9744011,292.8687 C78.7233016,292.8687 76.5375332,292.112065 74.7682003,290.720336 C73.3513794,289.605887 71.6010912,289 69.798488,289 L65,289 C61.6862915,289 59,291.686292 59,295 L59,309 C59,312.313708 61.6862915,315 65,315 Z" id="Carpeta-Copy-30" stroke="#191E28" stroke-width="2"></path>
            <path d="M122,316 L145,316 C148.865993,316 152,312.865993 152,309 L152,298.8687 C152,295.002706 148.865993,291.8687 145,291.8687 L137.974401,291.8687 C135.94755,291.8687 133.979521,291.187439 132.386445,289.93435 C130.793368,288.681261 128.825339,288 126.798488,288 L122,288 C118.134007,288 115,291.134007 115,295 L115,309 C115,312.865993 118.134007,316 122,316 Z" id="Carpeta-Copy-29" fill="#191E28"></path>
            <path d="M180,316 L203,316 C206.865993,316 210,312.865993 210,309 L210,298.8687 C210,295.002706 206.865993,291.8687 203,291.8687 L195.974401,291.8687 C193.94755,291.8687 191.979521,291.187439 190.386445,289.93435 C188.793368,288.681261 186.825339,288 184.798488,288 L180,288 C176.134007,288 173,291.134007 173,295 L173,309 C173,312.865993 176.134007,316 180,316 Z" id="Carpeta-Copy-28" fill="#191E28"></path>
            <path d="M237,316 L260,316 C263.865993,316 267,312.865993 267,309 L267,298.8687 C267,295.002706 263.865993,291.8687 260,291.8687 L252.974401,291.8687 C250.94755,291.8687 248.979521,291.187439 247.386445,289.93435 C245.793368,288.681261 243.825339,288 241.798488,288 L237,288 C233.134007,288 230,291.134007 230,295 L230,309 C230,312.865993 233.134007,316 237,316 Z" id="Carpeta-Copy-27" fill="#191E28"></path>
            <path d="M412,268 L435,268 C438.865993,268 442,264.865993 442,261 L442,250.8687 C442,247.002706 438.865993,243.8687 435,243.8687 L427.974401,243.8687 C425.94755,243.8687 423.979521,243.187439 422.386445,241.93435 C420.793368,240.681261 418.825339,240 416.798488,240 L412,240 C408.134007,240 405,243.134007 405,247 L405,261 C405,264.865993 408.134007,268 412,268 Z" id="Carpeta-Copy-32" fill="#191E28"></path>
            <path d="M449,219 L472,219 C475.313708,219 478,216.313708 478,213 L478,202.8687 C478,199.554991 475.313708,196.8687 472,196.8687 L464.974401,196.8687 C462.723302,196.8687 460.537533,196.112065 458.7682,194.720336 C457.351379,193.605887 455.601091,193 453.798488,193 L449,193 C445.686292,193 443,195.686292 443,199 L443,213 C443,216.313708 445.686292,219 449,219 Z" id="Carpeta-Copy-33" stroke="#191E28" stroke-width="2"></path>
        </g>
        <g id="Iconos/AuditoriaProcesos" transform="translate(100.000000, 39.000000)">
            <mask id="mask-2" fill="white">
                <use xlink:href="#path-1"></use>
            </mask>
            <g id="Background"></g>
            <path d="M63.4101382,93.9534009 L88.5575201,59.5833333 L98.2857143,68.4886698 L71.6582571,100.1 L63.4101382,93.9534009 Z M95.1152074,93.9536652 L120.262589,59.5833333 L129.990783,68.4882867 L103.363326,100.1 L95.1152074,93.9536652 Z M86.4047255,192.255556 C83.1307786,192.257211 79.9863764,191.683196 76.9866605,190.541803 C73.9802149,189.397092 71.3539914,187.782883 69.1012602,185.699177 C66.8468466,183.612152 65.0702342,181.08881 63.7747876,178.127492 C62.4726114,175.167833 61.8265705,171.800059 61.8248848,168.034125 C61.8232057,164.264872 62.4675642,160.867237 63.7663756,157.83624 C65.0601398,154.806903 66.8350699,152.247063 69.087801,150.163356 C71.3388498,148.071355 73.9633909,146.491985 76.9698365,145.413634 C79.96787,144.335283 83.1105898,143.796107 86.3862191,143.794444 C89.6635307,143.792789 92.765873,144.330306 95.7033402,145.406998 C98.639125,146.482031 101.235065,148.059742 103.487797,150.151743 C105.740528,152.232132 107.549106,154.790313 108.916895,157.821309 C110.279638,160.848988 110.966056,164.246623 110.967742,168.015876 C110.969421,171.783469 110.284685,175.149584 108.923625,178.112561 C107.5592,181.07222 105.752304,183.597221 103.501256,185.687564 C101.250207,187.772929 98.655949,189.387138 95.7218466,190.535167 C92.7843793,191.678219 89.6803547,192.255556 86.4047255,192.255556 Z M86.3963134,107.25 C102.225307,107.25 116.800467,109.968929 130.121796,115.410355 C143.439713,120.848214 155.285443,127.922068 165.658986,136.624782 L160.418479,144.588889 C149.717404,135.566826 138.391972,128.972887 126.437064,124.807074 C114.482157,120.637693 101.13524,118.555678 86.3963134,118.555678 C71.6573866,118.555678 58.3104696,120.637693 46.3555623,124.807074 C34.4006551,128.972887 23.0752228,135.566826 12.372442,144.588889 L7.13364055,136.624782 C17.5071838,127.922068 29.3529138,120.848214 42.6708306,115.410355 C55.9904533,109.968929 70.5656142,107.25 86.3963134,107.25 Z M86.3963134,227.211111 C70.5656142,227.211111 55.9904533,224.504671 42.6708306,219.098926 C29.3529138,213.691397 17.5071838,206.66036 7.13364055,198.009385 L12.372442,189.872222 C23.0752228,198.892501 34.4006551,205.48644 46.3555623,209.655821 C58.3104696,213.821634 71.6573866,215.907217 86.3963134,215.907217 C101.13524,215.907217 114.482157,213.821634 126.437064,209.655821 C138.391972,205.48644 149.717404,198.892501 160.418479,189.872222 L165.658986,198.009385 C155.285443,206.66036 143.439713,213.691397 130.121796,219.098926 C116.800467,224.504671 102.225307,227.211111 86.3963134,227.211111 Z" id="Combined-Shape" fill="#99FF99" fill-rule="evenodd" mask="url(#mask-2)"></path>
        </g>
    </g>
</svg>