<?xml version="1.0" encoding="UTF-8"?>
<svg width="739px" height="801px" viewBox="0 0 739 801" version="1.1" xmlns="http://www.w3.org/2000/svg" xmlns:xlink="http://www.w3.org/1999/xlink">
    <!-- Generator: Sketch 53.1 (72631) - https://sketchapp.com -->
    <title>Img_QH</title>
    <desc>Created with Sketch.</desc>
    <defs>
        <polygon id="path-1" points="0.000769137661 63.5855265 79.285773 63.5855265 79.285773 0.66510818 0.000769137661 0.66510818"></polygon>
        <polygon id="path-3" points="0.659702077 0.496583346 22.3652194 0.496583346 22.3652194 15.0269582 0.659702077 15.0269582"></polygon>
    </defs>
    <g id="Page-1" stroke="none" stroke-width="1" fill="none" fill-rule="evenodd">
        <g id="00-Home" transform="translate(-71.000000, -2309.000000)">
            <g id="CH" transform="translate(0.000000, 2278.000000)">
                <g id="QH/Img">
                    <g id="Group-11" opacity="0.07" stroke-width="1" fill-rule="evenodd" transform="translate(71.000000, 31.000000)" fill="#31AEA9">
                        <path d="M0,357.87037 L35.787037,357.87037 C45.9267482,357.87037 54.873418,355.633703 62.6273148,351.160301 C70.3812116,346.686899 76.7929916,340.722452 81.8628472,333.266782 C86.9327028,325.811112 90.8095931,317.460887 93.4936343,308.215856 C96.1776755,298.970826 97.5196759,289.576822 97.5196759,280.033565 L97.5196759,135.990741 C97.5196759,113.921958 99.7563434,94.5375063 104.229745,77.8368056 C108.703147,61.1361048 116.307817,46.9705443 127.043981,35.3396991 C137.780146,23.7088539 152.243929,14.9112953 170.435764,8.94675926 C188.627599,2.98222326 211.441607,0 238.878472,0 L311.347222,0 L311.347222,58.1539352 L235.299769,58.1539352 C210.248717,58.1539352 192.504489,63.8201594 182.066551,75.1527778 C171.628613,86.4853962 166.409722,107.062737 166.409722,136.885417 L166.409722,260.350694 C166.409722,300.313086 160.445276,329.687985 148.516204,348.476273 C136.587132,367.264562 122.868905,379.93901 107.361111,386.5 C122.868905,393.657443 136.587132,407.077448 148.516204,426.760417 C160.445276,446.443385 166.409722,475.072729 166.409722,512.649306 L166.409722,636.114583 C166.409722,665.937263 171.777724,686.514604 182.513889,697.847222 C193.250054,709.179841 211.143393,714.846065 236.194444,714.846065 L311.347222,714.846065 L311.347222,773 L238.878472,773 C211.441607,773 188.627599,770.017777 170.435764,764.053241 C152.243929,758.088705 137.780146,749.291146 127.043981,737.660301 C116.307817,726.029456 108.703147,711.863895 104.229745,695.163194 C99.7563434,678.462494 97.5196759,659.078042 97.5196759,637.009259 L97.5196759,492.966435 C97.5196759,484.019631 96.1776755,474.92385 93.4936343,465.678819 C90.8095931,456.433789 86.9327028,448.083564 81.8628472,440.627894 C76.7929916,433.172224 70.5303228,427.058666 63.0746528,422.287037 C55.6189828,417.515408 46.8214242,415.12963 36.681713,415.12963 L0,415.12963 L0,357.87037 Z" id="{" fill-rule="nonzero"></path>
                        <path d="M427.655093,377.87037 L463.44213,377.87037 C473.581841,377.87037 482.528511,375.633703 490.282407,371.160301 C498.036304,366.686899 504.448084,360.722452 509.51794,353.266782 C514.587795,345.811112 518.464686,337.460887 521.148727,328.215856 C523.832768,318.970826 525.174769,309.576822 525.174769,300.033565 L525.174769,155.990741 C525.174769,133.921958 527.411436,114.537506 531.884838,97.8368056 C536.35824,81.1361048 543.962909,66.9705443 554.699074,55.3396991 C565.435239,43.7088539 579.899022,34.9112953 598.090856,28.9467593 C616.282691,22.9822233 639.096699,20 666.533565,20 L739.002315,20 L739.002315,78.1539352 L662.954861,78.1539352 C637.90381,78.1539352 620.159582,83.8201594 609.721644,95.1527778 C599.283706,106.485396 594.064815,127.062737 594.064815,156.885417 L594.064815,280.350694 C594.064815,320.313086 588.100368,349.687985 576.171296,368.476273 C564.242224,387.264562 550.523997,399.93901 535.016204,406.5 C550.523997,413.657443 564.242224,427.077448 576.171296,446.760417 C588.100368,466.443385 594.064815,495.072729 594.064815,532.649306 L594.064815,656.114583 C594.064815,685.937263 599.432817,706.514604 610.168981,717.847222 C620.905146,729.179841 638.798486,734.846065 663.849537,734.846065 L739.002315,734.846065 L739.002315,793 L666.533565,793 C639.096699,793 616.282691,790.017777 598.090856,784.053241 C579.899022,778.088705 565.435239,769.291146 554.699074,757.660301 C543.962909,746.029456 536.35824,731.863895 531.884838,715.163194 C527.411436,698.462494 525.174769,679.078042 525.174769,657.009259 L525.174769,512.966435 C525.174769,504.019631 523.832768,494.92385 521.148727,485.678819 C518.464686,476.433789 514.587795,468.083564 509.51794,460.627894 C504.448084,453.172224 498.185415,447.058666 490.729745,442.287037 C483.274075,437.515408 474.476517,435.12963 464.336806,435.12963 L427.655093,435.12963 L427.655093,377.87037 Z" id="{-copy" fill-rule="nonzero" transform="translate(583.328704, 406.500000) scale(-1, 1) translate(-583.328704, -406.500000) "></path>
                    </g>
                    <rect id="Rectangle" stroke="#31AEA9" stroke-width="1" x="220" y="151" width="457" height="603"></rect>
                    <g id="Avatar" transform="translate(188.000000, 117.000000)">
                        <rect id="Rectangle" fill="#FFFFFF" fill-rule="evenodd" x="3.33333333" y="3.33333333" width="153.333333" height="153.333333"></rect>
                        <path d="M4.44444444,2.22222222 L4.44444444,0 L155.555556,0 L155.555556,2.22222222 L157.777778,2.22222222 L157.777778,4.44444444 L160,4.44444444 L160,155.555556 L157.777778,155.555556 L157.777778,157.777778 L155.555556,157.777778 L155.555556,160 L4.44444444,160 L4.44444444,157.777778 L2.22222222,157.777778 L2.22222222,155.555556 L1.86517468e-14,155.555556 L-9.32587341e-15,4.44444444 L2.22222222,4.44444444 L2.22222222,2.22222222 L4.44444444,2.22222222 Z M5.55555556,3.33333333 L5.55555556,5.55555556 L3.33333333,5.55555556 L3.33333333,154.444444 L5.55555556,154.444444 L5.55555556,156.666667 L154.444444,156.666667 L154.444444,154.444444 L156.666667,154.444444 L156.666667,5.55555556 L154.444444,5.55555556 L154.444444,3.33333333 L5.55555556,3.33333333 Z" id="Combined-Shape-Copy" fill="#4A4A4A" fill-rule="nonzero"></path>
                        <path d="M8.85572139,11.0447761 L8.85572139,8.85572139 L11.0447761,8.85572139 L11.0447761,6.66666667 L148.955224,6.66666667 L148.955224,8.85572139 L151.144279,8.85572139 L151.144279,11.0447761 L153.333333,11.0447761 L153.333333,148.955224 L151.144279,148.955224 L151.144279,151.144279 L148.955224,151.144279 L148.955224,153.333333 L11.0447761,153.333333 L11.0447761,151.144279 L8.85572139,151.144279 L8.85572139,148.955224 L6.66666667,148.955224 L6.66666667,11.0447761 L8.85572139,11.0447761 Z" id="Combined-Shape" fill="#31AEA9" fill-rule="nonzero"></path>
                        <path d="" id="Path-2" stroke="#979797" stroke-width="1"></path>
                    </g>
                    <g id="Avatar" transform="translate(597.000000, 309.000000)">
                        <rect id="Rectangle" fill="#FFFFFF" fill-rule="evenodd" x="3.33333333" y="3.33333333" width="153.333333" height="153.333333"></rect>
                        <path d="M4.44444444,2.22222222 L4.44444444,0 L155.555556,0 L155.555556,2.22222222 L157.777778,2.22222222 L157.777778,4.44444444 L160,4.44444444 L160,155.555556 L157.777778,155.555556 L157.777778,157.777778 L155.555556,157.777778 L155.555556,160 L4.44444444,160 L4.44444444,157.777778 L2.22222222,157.777778 L2.22222222,155.555556 L1.86517468e-14,155.555556 L-9.32587341e-15,4.44444444 L2.22222222,4.44444444 L2.22222222,2.22222222 L4.44444444,2.22222222 Z M5.55555556,3.33333333 L5.55555556,5.55555556 L3.33333333,5.55555556 L3.33333333,154.444444 L5.55555556,154.444444 L5.55555556,156.666667 L154.444444,156.666667 L154.444444,154.444444 L156.666667,154.444444 L156.666667,5.55555556 L154.444444,5.55555556 L154.444444,3.33333333 L5.55555556,3.33333333 Z" id="Combined-Shape-Copy" fill="#4A4A4A" fill-rule="nonzero"></path>
                        <path d="M8.85572139,11.0447761 L8.85572139,8.85572139 L11.0447761,8.85572139 L11.0447761,6.66666667 L148.955224,6.66666667 L148.955224,8.85572139 L151.144279,8.85572139 L151.144279,11.0447761 L153.333333,11.0447761 L153.333333,148.955224 L151.144279,148.955224 L151.144279,151.144279 L148.955224,151.144279 L148.955224,153.333333 L11.0447761,153.333333 L11.0447761,151.144279 L8.85572139,151.144279 L8.85572139,148.955224 L6.66666667,148.955224 L6.66666667,11.0447761 L8.85572139,11.0447761 Z" id="Combined-Shape" fill="#31AEA9" fill-rule="nonzero"></path>
                        <path d="" id="Path-2" stroke="#979797" stroke-width="1"></path>
                    </g>
                    <g id="Avatar" transform="translate(597.000000, 672.000000)">
                        <rect id="Rectangle" fill="#FFFFFF" fill-rule="evenodd" x="3.33333333" y="3.33333333" width="153.333333" height="153.333333"></rect>
                        <path d="M4.44444444,2.22222222 L4.44444444,0 L155.555556,0 L155.555556,2.22222222 L157.777778,2.22222222 L157.777778,4.44444444 L160,4.44444444 L160,155.555556 L157.777778,155.555556 L157.777778,157.777778 L155.555556,157.777778 L155.555556,160 L4.44444444,160 L4.44444444,157.777778 L2.22222222,157.777778 L2.22222222,155.555556 L1.86517468e-14,155.555556 L-9.32587341e-15,4.44444444 L2.22222222,4.44444444 L2.22222222,2.22222222 L4.44444444,2.22222222 Z M5.55555556,3.33333333 L5.55555556,5.55555556 L3.33333333,5.55555556 L3.33333333,154.444444 L5.55555556,154.444444 L5.55555556,156.666667 L154.444444,156.666667 L154.444444,154.444444 L156.666667,154.444444 L156.666667,5.55555556 L154.444444,5.55555556 L154.444444,3.33333333 L5.55555556,3.33333333 Z" id="Combined-Shape-Copy" fill="#4A4A4A" fill-rule="nonzero"></path>
                        <path d="M8.85572139,11.0447761 L8.85572139,8.85572139 L11.0447761,8.85572139 L11.0447761,6.66666667 L148.955224,6.66666667 L148.955224,8.85572139 L151.144279,8.85572139 L151.144279,11.0447761 L153.333333,11.0447761 L153.333333,148.955224 L151.144279,148.955224 L151.144279,151.144279 L148.955224,151.144279 L148.955224,153.333333 L11.0447761,153.333333 L11.0447761,151.144279 L8.85572139,151.144279 L8.85572139,148.955224 L6.66666667,148.955224 L6.66666667,11.0447761 L8.85572139,11.0447761 Z" id="Combined-Shape" fill="#31AEA9" fill-rule="nonzero"></path>
                        <path d="" id="Path-2" stroke="#979797" stroke-width="1"></path>
                    </g>
                    <g id="Avatar" transform="translate(188.000000, 501.000000)">
                        <rect id="Rectangle" fill="#FFFFFF" fill-rule="evenodd" x="3.33333333" y="3.33333333" width="153.333333" height="153.333333"></rect>
                        <path d="M4.44444444,2.22222222 L4.44444444,0 L155.555556,0 L155.555556,2.22222222 L157.777778,2.22222222 L157.777778,4.44444444 L160,4.44444444 L160,155.555556 L157.777778,155.555556 L157.777778,157.777778 L155.555556,157.777778 L155.555556,160 L4.44444444,160 L4.44444444,157.777778 L2.22222222,157.777778 L2.22222222,155.555556 L1.86517468e-14,155.555556 L-9.32587341e-15,4.44444444 L2.22222222,4.44444444 L2.22222222,2.22222222 L4.44444444,2.22222222 Z M5.55555556,3.33333333 L5.55555556,5.55555556 L3.33333333,5.55555556 L3.33333333,154.444444 L5.55555556,154.444444 L5.55555556,156.666667 L154.444444,156.666667 L154.444444,154.444444 L156.666667,154.444444 L156.666667,5.55555556 L154.444444,5.55555556 L154.444444,3.33333333 L5.55555556,3.33333333 Z" id="Combined-Shape-Copy" fill="#4A4A4A" fill-rule="nonzero"></path>
                        <path d="M8.85572139,11.0447761 L8.85572139,8.85572139 L11.0447761,8.85572139 L11.0447761,6.66666667 L148.955224,6.66666667 L148.955224,8.85572139 L151.144279,8.85572139 L151.144279,11.0447761 L153.333333,11.0447761 L153.333333,148.955224 L151.144279,148.955224 L151.144279,151.144279 L148.955224,151.144279 L148.955224,153.333333 L11.0447761,153.333333 L11.0447761,151.144279 L8.85572139,151.144279 L8.85572139,148.955224 L6.66666667,148.955224 L6.66666667,11.0447761 L8.85572139,11.0447761 Z" id="Combined-Shape" fill="#31AEA9" fill-rule="nonzero"></path>
                        <path d="" id="Path-2" stroke="#979797" stroke-width="1"></path>
                    </g>
                    <path d="M378.796232,146 L378.793175,175.792167 L365.252375,182.500172 L378.796335,189.212323 L378.796335,219 L756,219 L756,146 L378.796232,146 Z" id="Rectangle-6" stroke="#4A4A4A" stroke-width="2" fill="#FFFFFF" fill-rule="nonzero"></path>
                    <path d="M422.796232,330 L422.793175,359.792167 L409.252375,366.500172 L422.796335,373.212323 L422.796335,403 L581.175781,403 L581.175781,330 L422.796232,330 Z" id="Rectangle-6-Copy-2" stroke="#4A4A4A" stroke-width="2" fill="#FFFFFF" fill-rule="nonzero" transform="translate(494.587891, 366.500000) scale(-1, 1) translate(-494.587891, -366.500000) "></path>
                    <text id="¡Hola!" font-family="Ubuntu, sans-serif" font-size="32" font-weight="normal" fill="#4A4A4A">
                        <tspan x="444.456" y="376">¡Hola!</tspan>
                    </text>
                    <path d="M378.796254,522 L378.793188,559.792161 L365.252375,566.500172 L378.796335,573.212323 L378.796335,611 L756,611 L756,522 L378.796254,522 Z" id="Rectangle-6-Copy" stroke="#4A4A4A" stroke-width="2" fill="#FFFFFF" fill-rule="nonzero"></path>
                    <path d="M203.796254,707 L203.793188,744.792161 L190.252375,751.500172 L203.796335,758.212323 L203.796335,796 L581,796 L581,707 L203.796254,707 Z" id="Rectangle-6-Copy-3" stroke="#4A4A4A" stroke-width="2" fill="#FFFFFF" fill-rule="nonzero" transform="translate(385.000000, 751.500000) scale(-1, 1) translate(-385.000000, -751.500000) "></path>
                    <text id="¿Sabes-que-la-mayorí" font-family="Ubuntu, sans-serif" font-size="18" font-weight="normal" fill="#4A4A4A">
                        <tspan x="411" y="178">¿Sabes que la mayoría de proyectos </tspan>
                        <tspan x="411" y="200">de desarrollo de software no se </tspan>
                    </text>
                    <text id="Cuando-trabajemos-ju" font-family="Ubuntu, sans-serif" font-size="18" font-weight="normal" fill="#4A4A4A">
                        <tspan x="411" y="550">Cuando trabajemos juntos debemos </tspan>
                        <tspan x="411" y="572">tener la sensación de ser un único </tspan>
                        <tspan x="411" y="594">equipo. No nos contratas, nos</tspan>
                    </text>
                    <text id="Hacemos-tu-software" font-family="Ubuntu, sans-serif" font-size="18" font-weight="normal" fill="#4A4A4A">
                        <tspan x="283.856" y="738">Hacemos tu software para que </tspan>
                        <tspan x="233.096" y="760">crezca, evolucione y dure. Cuantos </tspan>
                        <tspan x="406.796" y="782">más años mejor.</tspan>
                    </text>
                    <g id="Avatar_MonoLazo" transform="translate(634.000000, 341.000000)" fill="#FFFFFF" fill-rule="evenodd">
                        <path d="M16.4212148,28.6916384 C15.2757148,28.9724055 13.8501012,29.0559123 12.1430557,28.9415014 C10.6653739,28.8422137 9.390033,28.501611 8.31571482,27.9183781 C7.24205573,27.3351452 6.366783,26.5559671 5.68989664,25.5788712 C5.01366936,24.6011178 4.53385118,23.4517479 4.25307846,22.1307616 C3.97032846,20.8104329 3.88266936,19.3625425 3.988783,17.7857753 C4.09819209,16.1590356 4.40730573,14.7052274 4.91612391,13.4243507 C5.42494209,12.1441315 6.10446482,11.0723507 6.95601027,10.2103233 C7.80689664,9.34829589 8.80937391,8.71377534 9.96344209,8.30544658 C11.1168512,7.89777534 12.3941694,7.74128219 13.7953966,7.83465205 C14.457783,7.87936438 15.110283,7.97996712 15.7522375,8.13777534 C16.3941921,8.2962411 16.9821012,8.48298082 17.5192603,8.69733699 C18.0083057,8.89393973 18.4439648,9.08659726 18.8381012,9.27596712 C17.6721694,12.4354192 17.0723966,15.8184329 17.053283,19.4302685 C17.0368057,22.5062137 17.444783,25.4190904 18.2633739,28.1761315 C17.7611466,28.3405151 17.1561012,28.511474 16.4212148,28.6916384 M20.8021921,19.4499945 C20.8213057,16.0183233 21.3353966,12.8430904 22.3451239,9.92561096 C23.3555103,7.00813151 24.8351694,4.30763836 26.7841012,1.82413151 L24.1325785,0.000131506849 C22.5718512,1.87541918 21.2378512,3.96374795 20.1233285,6.2592 C19.7700557,6.07246027 19.3429648,5.88111781 18.8354648,5.6832 C18.198783,5.43728219 17.4467603,5.20714521 16.5780785,4.99607671 C15.7093966,4.78500822 14.7273512,4.64232329 13.6319421,4.56802192 C11.8991921,4.45295342 10.2481694,4.6482411 8.67821482,5.1552 C7.10891936,5.66347397 5.71098755,6.46303562 4.48639664,7.5552 C3.26114664,8.64802192 2.25273755,10.0288438 1.46248755,11.6989808 C0.671578455,13.3691178 0.201646637,15.3101589 0.0526920916,17.5221041 C-0.0962624539,19.7333918 0.0704875461,21.7165151 0.554260273,23.472789 C1.03605573,25.2277479 1.78676027,26.7282411 2.80373755,27.9696658 C3.82005573,29.2124055 5.07298755,30.1901589 6.56055573,30.9022685 C8.04746482,31.6150356 9.72089664,32.0332274 11.5808512,32.1581589 C12.6512148,32.2304877 13.6490785,32.2331178 14.5751012,32.1680219 C15.5004648,32.101611 16.3131239,32.0029808 17.0130785,31.871474 C17.713033,31.7406247 18.2989648,31.5939945 18.7695557,31.4342137 C19.0068285,31.3539945 19.2071921,31.2796932 19.3726239,31.2106521 C20.5715103,34.0781589 22.0762148,36.6642411 23.9243057,38.9347068 L26.5949421,37.1389808 C24.6723739,34.6344329 23.2217148,31.9181589 22.2429648,28.9908164 C21.2642148,26.0628164 20.7843966,22.8829808 20.8021921,19.4499945" id="Fill-1"></path>
                        <path d="M27.3357603,52.2023671 C27.319283,55.2921205 27.7509875,58.1543671 28.6321921,60.7897644 C29.5133966,63.4238466 30.8190557,65.8685589 32.5485103,68.1225863 L30.1448057,69.7388055 C28.2703512,67.4361205 26.7663057,64.7915178 25.6333285,61.8049973 C24.4996921,58.8191342 23.9427603,55.6123397 23.9612148,52.1846137 C23.9796694,48.7582027 24.5708739,45.5579836 25.7361466,42.5826411 C26.9007603,39.6092712 28.4338057,36.9811068 30.3326466,34.6974904 L32.7185557,36.3393534 C30.9647148,38.5743123 29.6326921,41.0052164 28.7244648,43.6307507 C27.8149194,46.2562849 27.3522375,49.1139288 27.3357603,52.2023671" id="Fill-4"></path>
                        <polygon id="Fill-6" points="44.2439466 38.557874 48.3382194 45.7171068 46.7761739 46.5166685 43.3785603 40.5791342 39.9802875 46.5166685 38.4189012 45.7171068 42.5131739 38.557874"></polygon>
                        <path d="M68.4935489,28.176 C69.3121398,25.4196164 69.7201171,22.5060822 69.7036398,19.430137 C69.6845262,15.8183014 69.0847535,12.4359452 67.9188216,9.27583562 C68.312958,9.08646575 68.7486171,8.89380822 69.2376625,8.69720548 C69.7748216,8.48284932 70.3627307,8.29676712 71.0046853,8.13764384 C71.6466398,7.97983562 72.2991398,7.87923288 72.9615262,7.83452055 C74.3627535,7.74115068 75.6400716,7.89764384 76.7934807,8.30531507 C77.9475489,8.71364384 78.9500262,9.34816438 79.8009125,10.2101918 C80.652458,11.0722192 81.3319807,12.144 81.8407989,13.4242192 C82.3496171,14.7057534 82.6587307,16.1595616 82.7687989,17.7856438 C82.8742535,19.362411 82.7865944,20.8103014 82.5045035,22.1312877 C82.2230716,23.4516164 81.7432535,24.6009863 81.0670262,25.5787397 C80.3901398,26.5558356 79.5148671,27.3356712 78.441208,27.9182466 C77.3675489,28.5014795 76.0915489,28.8420822 74.6138671,28.9413699 C72.9074807,29.0557808 71.481208,28.972274 70.335708,28.6915068 C69.6008216,28.5113425 68.9957762,28.3403836 68.4935489,28.176 M64.5132989,28.9906849 C63.535208,31.9180274 62.0845489,34.6343014 60.1619807,37.1388493 L62.8332762,38.9345753 C64.680708,36.6641096 66.1854125,34.0786849 67.384958,31.2105205 C67.5497307,31.2795616 67.7507535,31.353863 67.9873671,31.4340822 C68.457958,31.593863 69.0438898,31.7404932 69.7438444,31.8713425 C70.4437989,32.0028493 71.256458,32.1014795 72.1818216,32.1678904 C73.1078444,32.2329863 74.105708,32.2303562 75.1760716,32.1586849 C77.0353671,32.0330959 78.709458,31.6149041 80.1963671,30.902137 C81.6839353,30.1900274 82.9368671,29.212274 83.9531853,27.9701918 C84.9701625,26.7281096 85.7208671,25.228274 86.2033216,23.4726575 C86.6864353,21.7163836 86.8531853,19.7332603 86.7042307,17.5219726 C86.5552762,15.3106849 86.0853444,13.3689863 85.2944353,11.6988493 C84.5041853,10.0287123 83.4957762,8.64789041 82.2705262,7.55572603 C81.0452762,6.46356164 79.6480035,5.66334247 78.0780489,5.15506849 C76.5087535,4.64810959 74.8583898,4.45282192 73.1249807,4.56854795 C72.0302307,4.64219178 71.0475262,4.78487671 70.1788444,4.99594521 C69.3101625,5.2070137 68.5581398,5.43715068 67.921458,5.68306849 C67.413958,5.8809863 66.9868671,6.07232877 66.6335944,6.25906849 C65.5190716,3.96361644 64.1850716,1.87528767 62.6243444,9.9475983e-14 L59.9734807,1.824 C61.9217535,4.30750685 63.4014125,7.00865753 64.4117989,9.92547945 C65.4215262,12.8436164 65.9356171,16.0181918 65.9540716,19.449863 C65.9725262,22.8828493 65.492708,26.0626849 64.5132989,28.9906849" id="Fill-8"></path>
                        <path d="M58.032458,43.6306192 C57.1242307,41.0050849 55.792208,38.5748384 54.0383671,36.3392219 L56.4249353,34.6973589 C58.3231171,36.9809753 59.8561625,39.6091397 61.0207762,42.5825096 C62.1860489,45.5578521 62.7772535,48.7580712 62.795708,52.1844822 C62.8141625,55.6122082 62.2572307,58.8190027 61.1235944,61.8055233 C59.9906171,64.7913863 58.4865716,67.435989 56.6121171,69.738674 L54.2084125,68.1224548 C55.9385262,65.8684274 57.2441853,63.4243726 58.1247307,60.7896329 C59.0059353,58.1542356 59.4376398,55.291989 59.4211625,52.2022356 C59.4046853,49.1137973 58.9420035,46.2561534 58.032458,43.6306192" id="Fill-11"></path>
                        <polygon id="Fill-13" points="15.3022103 77.3260274 16.2961194 74.5992329 37.8081875 83.7810411 37.8081875 86.5775342 16.2961194 95.7626301 15.3022103 93.0371507 34.0322557 85.180274"></polygon>
                        <path d="M46.1362625,85.180537 C46.1362625,85.9413041 45.8956944,86.5856877 45.4158762,87.1136877 C44.9353989,87.6423452 44.2644444,87.906674 43.4036716,87.906674 C42.5415807,87.906674 41.8712853,87.6423452 41.3914671,87.1136877 C40.9109898,86.5856877 40.6710807,85.9413041 40.6710807,85.180537 C40.6710807,84.4210849 40.9109898,83.7767014 41.3914671,83.2487014 C41.8712853,82.7200438 42.5415807,82.4544 43.4036716,82.4544 C44.2644444,82.4544 44.9353989,82.7200438 45.4158762,83.2487014 C45.8956944,83.7767014 46.1362625,84.4210849 46.1362625,85.180537" id="Fill-15"></path>
                        <polygon id="Fill-17" points="52.7249307 85.180537 71.4543171 93.0367562 70.4610671 95.7628932 48.9489989 86.5777973 48.9489989 83.7813041 70.4610671 74.5988384 71.4543171 77.3262904"></polygon>
                    </g>
                    <g id="Chico" stroke-width="1" fill-rule="evenodd" transform="translate(637.000000, 720.000000)">
                        <path d="M23.9175569,16.6940655 C23.9175569,12.8699331 23.0267068,9.82390214 21.2463253,7.55597275 C19.4666032,5.28935772 17.0525378,4.15506443 14.0061072,4.15506443 C10.9590173,4.15506443 8.54627062,5.28935772 6.76588913,7.55597275 C4.98550763,9.82390214 4.09531688,12.8699331 4.09531688,16.6940655 C4.09531688,20.5188552 4.98550763,23.5543712 6.76588913,25.801928 C8.54627062,28.0494848 10.9590173,29.1732632 14.0061072,29.1732632 C17.0525378,29.1732632 19.4666032,28.0494848 21.2463253,25.801928 C23.0267068,23.5543712 23.9175569,20.5188552 23.9175569,16.6940655 M28.011775,16.6940655 C28.011775,19.0993456 27.6655897,21.2877562 26.9738785,23.25864 C26.2808485,25.2308383 25.3115297,26.9066482 24.0659221,28.2867269 C22.8189956,29.6668056 21.344576,30.7412955 19.6446414,31.5101965 C17.9427285,32.2790975 16.0627775,32.663548 14.0061072,32.663548 C11.9487775,32.663548 10.0688265,32.2790975 8.36889187,31.5101965 C6.66697904,30.7412955 5.1932188,29.6668056 3.94761116,28.2867269 C2.70068471,26.9066482 1.73136589,25.2308383 1.03965471,23.25864 C0.346624728,21.2877562 0.000439437384,19.0993456 0.000439437384,16.6940655 C0.000439437384,14.2894426 0.346624728,12.1010321 1.03965471,10.1288338 C1.73136589,8.15729277 2.70068471,6.47162517 3.94761116,5.07117384 C5.1932188,3.67269405 6.66697904,2.5876893 8.36889187,1.8181311 C10.0688265,1.04923009 11.9487775,0.664779589 14.0061072,0.664779589 C16.0627775,0.664779589 17.9427285,1.04923009 19.6446414,1.8181311 C21.344576,2.5876893 22.8189956,3.67269405 24.0659221,5.07117384 C25.3115297,6.47162517 26.2808485,8.15729277 26.9738785,10.1288338 C27.6655897,12.1010321 28.011775,14.2894426 28.011775,16.6940655" id="Fill-1" fill="#FFFFFF"></path>
                        <mask id="mask-2" fill="white">
                            <use xlink:href="#path-1"></use>
                        </mask>
                        <g id="Clip-5"></g>
                        <polygon id="Fill-4" fill="#FFFFFF" mask="url(#mask-2)" points="32.936508 16.6943941 46.3493747 16.6943941 46.3493747 12.9681815 32.936508 12.9681815"></polygon>
                        <path d="M75.1910934,16.6940655 C75.1910934,12.8699331 74.3009026,9.82390214 72.5205211,7.55597275 C70.7401396,5.28935772 68.3267336,4.15506443 65.2809625,4.15506443 C62.2338725,4.15506443 59.8204665,5.28935772 58.040085,7.55597275 C56.2597035,9.82390214 55.3695127,12.8699331 55.3695127,16.6940655 C55.3695127,20.5188552 56.2597035,23.5543712 58.040085,25.801928 C59.8204665,28.0494848 62.2338725,29.1732632 65.2809625,29.1732632 C68.3267336,29.1732632 70.7401396,28.0494848 72.5205211,25.801928 C74.3009026,23.5543712 75.1910934,20.5188552 75.1910934,16.6940655 M79.2859708,16.6940655 C79.2859708,19.0993456 78.9397855,21.2877562 78.2480744,23.25864 C77.5550444,25.2308383 76.5857256,26.9066482 75.3401179,28.2867269 C74.0931915,29.6668056 72.6194312,30.7412955 70.9188372,31.5101965 C69.216265,32.2790975 67.3369734,32.663548 65.2809625,32.663548 C63.2229733,32.663548 61.3430223,32.2790975 59.6424283,31.5101965 C57.9411749,30.7412955 56.4674146,29.6668056 55.2211476,28.2867269 C53.9748805,26.9066482 53.0049023,25.2308383 52.3138505,23.25864 C51.6208206,21.2877562 51.2746353,19.0993456 51.2746353,16.6940655 C51.2746353,14.2894426 51.6208206,12.1010321 52.3138505,10.1288338 C53.0049023,8.15729277 53.9748805,6.47162517 55.2211476,5.07117384 C56.4674146,3.67269405 57.9411749,2.5876893 59.6424283,1.8181311 C61.3430223,1.04923009 63.2229733,0.664779589 65.2809625,0.664779589 C67.3369734,0.664779589 69.216265,1.04923009 70.9188372,1.8181311 C72.6194312,2.5876893 74.0931915,3.67269405 75.3401179,5.07117384 C76.5857256,6.47162517 77.5550444,8.15729277 78.2480744,10.1288338 C78.9397855,12.1010321 79.2859708,14.2894426 79.2859708,16.6940655" id="Fill-6" fill="#FFFFFF" mask="url(#mask-2)"></path>
                        <path d="M39.6439964,63.5855265 C33.9065522,63.5855265 28.6247537,62.651016 23.7979417,60.7846238 C18.971789,58.9169173 14.6797508,56.4892931 10.9198489,53.501094 L12.8195819,50.691648 C16.6975165,53.8060257 20.8009662,56.0831556 25.1332278,57.5230378 C29.4654895,58.9622627 34.3015331,59.6825324 39.6439964,59.6825324 C44.9851409,59.6825324 49.8211846,58.9622627 54.1534462,57.5230378 C58.4857079,56.0831556 62.5904763,53.8060257 66.468411,50.691648 L68.3668252,53.501094 C64.608242,56.4892931 60.3162038,58.9169173 55.4887323,60.7846238 C50.6619203,62.651016 45.3801218,63.5855265 39.6439964,63.5855265" id="Fill-7" fill="#FFFFFF" mask="url(#mask-2)"></path>
                    </g>
                    <g id="Jefe" stroke-width="1" fill-rule="evenodd" transform="translate(228.000000, 154.000000)">
                        <path d="M47.4332262,17.169394 C47.4332262,21.1747958 48.3660628,24.3666003 50.2308262,26.7420865 C52.0964996,29.1166657 54.6247145,30.3039553 57.8154711,30.3039553 C61.0071377,30.3039553 63.5344426,29.1166657 65.400116,26.7420865 C67.2648793,24.3666003 68.1968059,21.1747958 68.1968059,17.169394 C68.1968059,13.1621782 67.2648793,9.98216496 65.400116,7.62754019 C63.5344426,5.27382245 61.0071377,4.09651007 57.8154711,4.09651007 C54.6247145,4.09651007 52.0964996,5.27382245 50.2308262,7.62754019 C48.3660628,9.98216496 47.4332262,13.1621782 47.4332262,17.169394 M43.1439975,17.169394 C43.1439975,14.6496915 43.5080313,12.3567442 44.2315486,10.2914589 C44.9577961,8.22617361 45.9734505,6.47108928 47.2785118,5.02529888 C48.5844831,3.57950849 50.1279866,2.45389627 51.9099322,1.64936924 C53.6918778,0.843028169 55.6613009,0.441218166 57.8154711,0.441218166 C59.9705514,0.441218166 61.9399744,0.843028169 63.7210099,1.64936924 C65.5038656,2.45389627 67.0473691,3.57950849 68.3524304,5.02529888 C69.6584017,6.47108928 70.6740561,8.22617361 71.3993935,10.2914589 C72.1247309,12.3567442 72.4869446,14.6496915 72.4869446,17.169394 C72.4869446,19.6881894 72.1247309,21.9811368 71.3993935,24.0464221 C70.6740561,26.1108004 69.6584017,27.877676 68.3524304,29.3443278 C67.0473691,30.8091656 65.5038656,31.9465691 63.7210099,32.7520032 C61.9399744,33.5565302 59.9705514,33.9601542 57.8154711,33.9601542 C55.6613009,33.9601542 53.6918778,33.5565302 51.9099322,32.7520032 C50.1279866,31.9465691 48.5844831,30.8091656 47.2785118,29.3443278 C45.9734505,27.877676 44.9577961,26.1108004 44.2315486,24.0464221 C43.5080313,21.9811368 43.1439975,19.6881894 43.1439975,17.169394" id="Fill-1" fill="#EBEFEE"></path>
                        <path d="M11.2529956,17.169394 C11.2529956,21.1747958 12.1858323,24.3666003 14.0505956,26.7420865 C15.916269,29.1166657 18.444484,30.3039553 21.6352405,30.3039553 C24.8269071,30.3039553 27.354212,29.1166657 29.2198854,26.7420865 C31.0846487,24.3666003 32.0165753,21.1747958 32.0165753,17.169394 C32.0165753,13.1621782 31.0846487,9.98216496 29.2198854,7.62754019 C27.354212,5.27382245 24.8269071,4.09651007 21.6352405,4.09651007 C18.444484,4.09651007 15.916269,5.27382245 14.0505956,7.62754019 C12.1858323,9.98216496 11.2529956,13.1621782 11.2529956,17.169394 M6.96376697,17.169394 C6.96376697,14.6496915 7.3278008,12.3567442 8.05131805,10.2914589 C8.77756554,8.22617361 9.79321994,6.47108928 11.0982812,5.02529888 C12.4042526,3.57950849 13.9477561,2.45389627 15.7297017,1.64936924 C17.5116473,0.843028169 19.4810703,0.441218166 21.6352405,0.441218166 C23.7903208,0.441218166 25.7597438,0.843028169 27.5407794,1.64936924 C29.3236351,2.45389627 30.8671385,3.57950849 32.1721998,5.02529888 C33.4781712,6.47108928 34.4938256,8.22617361 35.219163,10.2914589 C35.9445004,12.3567442 36.3067141,14.6496915 36.3067141,17.169394 C36.3067141,19.6881894 35.9445004,21.9811368 35.219163,24.0464221 C34.4938256,26.1108004 33.4781712,27.877676 32.1721998,29.3443278 C30.8671385,30.8091656 29.3236351,31.9465691 27.5407794,32.7520032 C25.7597438,33.5565302 23.7903208,33.9601542 21.6352405,33.9601542 C19.4810703,33.9601542 17.5116473,33.5565302 15.7297017,32.7520032 C13.9477561,31.9465691 12.4042526,30.8091656 11.0982812,29.3443278 C9.79321994,27.877676 8.77756554,26.1108004 8.05131805,24.0464221 C7.3278008,21.9811368 6.96376697,19.6881894 6.96376697,17.169394" id="Fill-3" fill="#EBEFEE"></path>
                        <g id="Group-7" transform="translate(28.212622, 70.116716)">
                            <mask id="mask-4" fill="white">
                                <use xlink:href="#path-3"></use>
                            </mask>
                            <g id="Clip-6"></g>
                            <polygon id="Fill-5" fill="#EBEFEE" mask="url(#mask-4)" points="11.5133708 8.33323895 20.0636155 0.496583346 22.3652194 3.02717005 11.5133708 15.0270489 0.659702077 3.02717005 2.96312615 0.496583346"></polygon>
                        </g>
                        <path d="M39.6851301,51.3093669 C39.1936844,52.1810134 38.6048597,52.9701211 37.9213861,53.67669 C37.2379126,54.3850728 36.3778827,54.9827992 35.3385661,55.4725902 C34.3010697,55.9623812 33.056984,56.3297244 31.6081294,56.5746199 C30.1592747,56.8195154 28.4237434,56.9419631 26.3997153,56.9419631 L17.6265,56.9419631 C15.0573312,56.9419631 12.9122618,56.9972914 11.1894717,57.1052268 C9.46759167,57.2149762 8.07425218,57.5542018 7.00763305,58.1256246 C5.941924,58.6979545 5.19019414,59.5822993 4.75244345,60.7786591 C4.31469277,61.9768329 4.09627247,63.6901943 4.09627247,65.9214643 L0.000891848389,65.9214643 L0.000891848389,65.2684097 C0.000891848389,62.6561912 0.302129845,60.4802494 0.901875585,58.7378634 C1.50344149,56.9972914 2.37621261,55.6231556 3.52291918,54.616363 C4.66871567,53.6086634 6.10300897,52.9011876 7.82215875,52.4930284 C9.54312869,52.0848693 11.4952601,51.8807897 13.6794631,51.8807897 L29.5695399,51.8807897 C30.5524313,51.8807897 31.5216714,51.7320384 32.4772602,51.4318147 C33.432849,51.133405 34.2928789,50.6563123 35.05735,50.0041647 C35.8227311,49.350203 36.4488693,48.5338847 36.940315,47.5543028 C37.4317606,46.5747208 37.6783935,45.4046646 37.6783935,44.0441341 L41.6918666,44.0441341 C41.6918666,45.4046646 41.9394096,46.5747208 42.4317653,47.5543028 C42.9241211,48.5338847 43.5538996,49.350203 44.3192807,50.0041647 C45.0846619,50.6563123 45.9474221,51.133405 46.904831,51.4318147 C47.8613299,51.7320384 48.8333003,51.8807897 49.8189219,51.8807897 L65.7435819,51.8807897 C67.9851202,51.8807897 69.9554533,52.0848693 71.6527611,52.4930284 C73.3482487,52.9011876 74.772531,53.6086634 75.9210578,54.616363 C77.0704946,55.6231556 77.945996,56.9972914 78.548472,58.7378634 C79.1491278,60.4802494 79.4503658,62.6561912 79.4503658,65.2684097 L79.4503658,65.9214643 L75.3549852,65.9214643 C75.3549852,63.6901943 75.1365649,61.9768329 74.7006344,60.7786591 C74.2610635,59.5822993 73.5102437,58.6979545 72.4454448,58.1256246 C71.3779155,57.5542018 69.984576,57.2149762 68.262696,57.1052268 C66.5389958,56.9972914 64.3939265,56.9419631 61.8256678,56.9419631 L53.0515423,56.9419631 C51.0293344,56.9419631 49.2792417,56.8195154 47.8030845,56.5746199 C46.3269273,56.3297244 45.0701005,55.9623812 44.0307839,55.4725902 C42.9932875,54.9827992 42.1314374,54.3850728 41.4479639,53.67669 C40.7654005,52.9701211 40.1774858,52.1810134 39.6851301,51.3093669" id="Fill-8" fill="#EBEFEE"></path>
                    </g>
                    <g id="Chica-Copy" stroke-width="1" fill-rule="evenodd" transform="translate(222.000000, 556.000000)" fill="#FFFFFF">
                        <path d="M60.5904405,4.49357792 C63.5432952,4.49357792 65.9674098,5.3077741 67.8656736,6.93688634 C69.763215,8.56383891 70.9767169,10.8768471 71.5025678,13.8715917 L67.3116521,14.9751839 C66.9952749,13.1884156 66.2967889,11.7306373 65.2161943,10.6011291 C64.1363221,9.47090096 62.5941634,8.9065068 60.5904405,8.9065068 C58.5881623,8.9065068 57.0460036,9.47090096 55.9646867,10.6011291 C54.8848145,11.7306373 54.1856062,13.1884156 53.8692289,14.9751839 L49.6783133,13.8715917 C50.2056088,10.8768471 51.4176661,8.56383891 53.3159298,6.93688634 C55.2134712,5.3077741 57.6390305,4.49357792 60.5904405,4.49357792" id="Fill-1"></path>
                        <path d="M30.8588486,4.49357792 C33.8117033,4.49357792 36.2358179,5.3077741 38.1333593,6.93688634 C40.031623,8.56383891 41.245125,10.8768471 41.7709758,13.8715917 L37.5807825,14.9751839 C37.2636829,13.1884156 36.5659193,11.7306373 35.4846024,10.6011291 C34.4047301,9.47090096 32.8625714,8.9065068 30.8588486,8.9065068 C28.8565704,8.9065068 27.3144117,9.47090096 26.2330948,10.6011291 C25.1532225,11.7306373 24.4540143,13.1884156 24.137637,14.9751839 L19.9467214,13.8715917 C20.4740168,10.8768471 21.6860741,8.56383891 23.5843379,6.93688634 C25.4818793,5.3077741 27.9074385,4.49357792 30.8588486,4.49357792" id="Fill-3"></path>
                        <path d="M57.5241089,40.2272875 C54.3538351,41.2920056 51.2601275,41.7520156 48.2422638,41.610917 C45.2258447,41.4690986 42.3986741,40.9176625 39.7593074,39.9551689 L40.282269,38.0431396 C43.0090367,39.053146 45.7047446,39.5563495 48.3686702,39.5527501 C51.0325959,39.5477108 53.8402638,39.0495466 56.7909515,38.0589772 C59.7423616,37.0684079 62.2806031,35.7718851 64.4035092,34.1694088 C66.5278599,32.5654927 68.3676155,30.5404407 69.9263877,28.0913731 L71.5032178,29.2986295 C69.9863404,31.656271 68.0700186,33.799385 65.7535301,35.7322911 C63.4370416,37.6644772 60.6936604,39.1625694 57.5241089,40.2272875" id="Fill-5"></path>
                        <path d="M-1.26121336e-13,26.4502387 C-1.26121336e-13,21.6968016 0.782997677,17.3205872 2.35043768,13.3208755 C3.91787768,9.32116374 5.95482735,5.76490458 8.46200903,2.64921842 L10.7575502,4.22289909 C8.1571889,7.43649036 6.25820284,10.8379731 5.05770271,14.4273472 C3.85575793,18.0167213 3.25623019,22.0250717 3.25623019,26.4502387 C3.25623019,30.8761256 3.85575793,34.884476 5.05770271,38.4738501 C6.25820284,42.0632243 8.1571889,45.4639871 10.7575502,48.6775783 L8.46200903,50.2519789 C5.95482735,47.1362927 3.91787768,43.5793137 2.35043768,39.5803219 C0.782997677,35.58133 -1.26121336e-13,31.2043957 -1.26121336e-13,26.4502387" id="Fill-7"></path>
                        <path d="M91.4485668,23.8687833 C91.4485668,28.6222204 90.6655691,32.9984349 89.0981291,36.9981466 C87.5321338,40.9978583 85.4937394,44.5541174 82.9865578,47.6698036 L80.6924612,46.0961229 C83.2913779,42.8825317 85.1918086,39.481049 86.3908641,35.8916748 C87.5928089,32.3023007 88.1923366,28.2939503 88.1923366,23.8687833 C88.1923366,19.4428964 87.5928089,15.434546 86.3908641,11.8451719 C85.1918086,8.25579776 83.2913779,4.85503495 80.6924612,1.64144368 L82.9865578,0.0670431202 C85.4937394,3.18272928 87.5321338,6.73970833 89.0981291,10.7387002 C90.6655691,14.737692 91.4485668,19.1146263 91.4485668,23.8687833" id="Fill-10"></path>
                    </g>
                </g>
            </g>
        </g>
    </g>
</svg>