<?xml version="1.0" encoding="UTF-8"?>
<svg width="237px" height="229px" viewBox="0 0 237 229" version="1.1" xmlns="http://www.w3.org/2000/svg" xmlns:xlink="http://www.w3.org/1999/xlink">
    <!-- Generator: Sketch 58 (84663) - https://sketch.com -->
    <title>Path 2</title>
    <desc>Created with Sketch.</desc>
    <g id="PapaMono" stroke="none" stroke-width="1" fill="none" fill-rule="evenodd">
        <g id="03-ComoLoHacemos" transform="translate(-347.000000, -2891.000000)" fill="#99FF99" fill-rule="nonzero">
            <path d="M347.5,2891 L347.5,2898 L348.5,2898 L348.5,2891 L347.5,2891 Z M347.5,2905 L347.5,2912 L348.5,2912 L348.5,2905 L347.5,2905 Z M347.5,2919 L347.5,2926 L348.5,2926 L348.5,2919 L347.5,2919 Z M347.5,2933 L347.5,2940 L348.5,2940 L348.5,2933 L347.5,2933 Z M347.5,2947 L347.5,2954 L348.5,2954 L348.5,2947 L347.5,2947 Z M347.5,2961 L347.5,2968 L348.5,2968 L348.5,2961 L347.5,2961 Z M347.5,2975 L347.5,2982 L348.5,2982 L348.5,2975 L347.5,2975 Z M347.5,2989 L347.5,2996 L348.5,2996 L348.5,2989 L347.5,2989 Z M347.5,3003 L347.5,3010 L348.5,3010 L348.5,3003 L347.5,3003 Z M347.5,3017 L347.5,3024 L348.5,3024 L348.5,3017 L347.5,3017 Z M347.5,3031 L347.5,3038 L348.5,3038 L348.5,3031 L347.5,3031 Z M347.5,3045 L347.5,3052 L348.5,3052 L348.5,3045 L347.5,3045 Z M347.5,3059 L347.5,3066 L348.5,3066 L348.5,3059 L347.5,3059 Z M347.5,3073 L347.5,3080 L348.5,3080 L348.5,3073 L347.5,3073 Z M347.5,3087 L347.5,3094 L348.5,3094 L348.5,3087 L347.5,3087 Z M347.5,3101 L347.5,3108 L348.5,3108 L348.5,3101 L347.5,3101 Z M348.5,3115 L347.5,3115 L347.5,3119.5 L351,3119.5 L351,3118.5 L348,3118.5 L348.5,3119 L348.5,3115 Z M358,3119.5 L365,3119.5 L365,3118.5 L358,3118.5 L358,3119.5 Z M372,3119.5 L379,3119.5 L379,3118.5 L372,3118.5 L372,3119.5 Z M386,3119.5 L393,3119.5 L393,3118.5 L386,3118.5 L386,3119.5 Z M400,3119.5 L407,3119.5 L407,3118.5 L400,3118.5 L400,3119.5 Z M414,3119.5 L421,3119.5 L421,3118.5 L414,3118.5 L414,3119.5 Z M428,3119.5 L435,3119.5 L435,3118.5 L428,3118.5 L428,3119.5 Z M442,3119.5 L449,3119.5 L449,3118.5 L442,3118.5 L442,3119.5 Z M456,3119.5 L463,3119.5 L463,3118.5 L456,3118.5 L456,3119.5 Z M470,3119.5 L477,3119.5 L477,3118.5 L470,3118.5 L470,3119.5 Z M484,3119.5 L491,3119.5 L491,3118.5 L484,3118.5 L484,3119.5 Z M498,3119.5 L505,3119.5 L505,3118.5 L498,3118.5 L498,3119.5 Z M512,3119.5 L519,3119.5 L519,3118.5 L512,3118.5 L512,3119.5 Z M526,3119.5 L533,3119.5 L533,3118.5 L526,3118.5 L526,3119.5 Z M540,3119.5 L547,3119.5 L547,3118.5 L540,3118.5 L540,3119.5 Z M554,3119.5 L561,3119.5 L561,3118.5 L554,3118.5 L554,3119.5 Z M568,3119.5 L575,3119.5 L575,3118.5 L568,3118.5 L568,3119.5 Z M582,3119.5 L584,3119.5 L584,3118.5 L582,3118.5 L582,3119.5 Z" id="Path-2"></path>
        </g>
    </g>
</svg>