<?xml version="1.0" encoding="UTF-8"?>
<svg width="168px" height="236px" viewBox="0 0 168 236" version="1.1" xmlns="http://www.w3.org/2000/svg" xmlns:xlink="http://www.w3.org/1999/xlink">
    <!-- Generator: Sketch 58 (84663) - https://sketch.com -->
    <title>Linea3</title>
    <desc>Created with Sketch.</desc>
    <g id="PapaMono" stroke="none" stroke-width="1" fill="none" fill-rule="evenodd">
        <g id="03-ComoLoHacemos" transform="translate(-421.000000, -3766.000000)" fill="#99FF99" fill-rule="nonzero">
            <path d="M589,4000.5 L581,4000.5 L581,4001.5 L589,4001.5 L589,4000.5 Z M573,4000.5 L565,4000.5 L565,4001.5 L573,4001.5 L573,4000.5 Z M557,4000.5 L549,4000.5 L549,4001.5 L557,4001.5 L557,4000.5 Z M541,4000.5 L533,4000.5 L533,4001.5 L541,4001.5 L541,4000.5 Z M525,4000.5 L517,4000.5 L517,4001.5 L525,4001.5 L525,4000.5 Z M509,4000.5 L501,4000.5 L501,4001.5 L509,4001.5 L509,4000.5 Z M493,4000.5 L485,4000.5 L485,4001.5 L493,4001.5 L493,4000.5 Z M477,4000.5 L469,4000.5 L469,4001.5 L477,4001.5 L477,4000.5 Z M461,4000.5 L453,4000.5 L453,4001.5 L461,4001.5 L461,4000.5 Z M445,4000.5 L437,4000.5 L437,4001.5 L445,4001.5 L445,4000.5 Z M429,4000.5 L422,4000.5 L422.5,4001 L422.5,4000 L421.5,4000 L421.5,4001.5 L429,4001.5 L429,4000.5 Z M422.5,3992 L422.5,3984 L421.5,3984 L421.5,3992 L422.5,3992 Z M422.5,3976 L422.5,3968 L421.5,3968 L421.5,3976 L422.5,3976 Z M422.5,3960 L422.5,3952 L421.5,3952 L421.5,3960 L422.5,3960 Z M422.5,3944 L422.5,3936 L421.5,3936 L421.5,3944 L422.5,3944 Z M422.5,3928 L422.5,3920 L421.5,3920 L421.5,3928 L422.5,3928 Z M422.5,3912 L422.5,3904 L421.5,3904 L421.5,3912 L422.5,3912 Z M422.5,3896 L422.5,3888 L421.5,3888 L421.5,3896 L422.5,3896 Z M422.5,3880 L422.5,3872 L421.5,3872 L421.5,3880 L422.5,3880 Z M422.5,3864 L422.5,3856 L421.5,3856 L421.5,3864 L422.5,3864 Z M422.5,3848 L422.5,3840 L421.5,3840 L421.5,3848 L422.5,3848 Z M422.5,3832 L422.5,3824 L421.5,3824 L421.5,3832 L422.5,3832 Z M422.5,3816 L422.5,3808 L421.5,3808 L421.5,3816 L422.5,3816 Z M422.5,3800 L422.5,3792 L421.5,3792 L421.5,3800 L422.5,3800 Z M422.5,3784 L422.5,3776 L421.5,3776 L421.5,3784 L422.5,3784 Z M422.5,3768 L422.5,3766 L421.5,3766 L421.5,3768 L422.5,3768 Z" id="Linea3"></path>
        </g>
    </g>
</svg>