<?xml version="1.0" encoding="UTF-8"?>
<svg width="183px" height="236px" viewBox="0 0 183 236" version="1.1" xmlns="http://www.w3.org/2000/svg" xmlns:xlink="http://www.w3.org/1999/xlink">
    <!-- Generator: Sketch 58 (84663) - https://sketch.com -->
    <title>Linea2</title>
    <desc>Created with Sketch.</desc>
    <g id="PapaMono" stroke="none" stroke-width="1" fill="none" fill-rule="evenodd">
        <g id="03-ComoLoHacemos" transform="translate(-1301.000000, -3296.000000)" fill="#99FF99" fill-rule="nonzero">
            <path d="M1301,3531.5 L1309,3531.5 L1309,3530.5 L1301,3530.5 L1301,3531.5 Z M1317,3531.5 L1325,3531.5 L1325,3530.5 L1317,3530.5 L1317,3531.5 Z M1333,3531.5 L1341,3531.5 L1341,3530.5 L1333,3530.5 L1333,3531.5 Z M1349,3531.5 L1357,3531.5 L1357,3530.5 L1349,3530.5 L1349,3531.5 Z M1365,3531.5 L1373,3531.5 L1373,3530.5 L1365,3530.5 L1365,3531.5 Z M1381,3531.5 L1389,3531.5 L1389,3530.5 L1381,3530.5 L1381,3531.5 Z M1397,3531.5 L1405,3531.5 L1405,3530.5 L1397,3530.5 L1397,3531.5 Z M1413,3531.5 L1421,3531.5 L1421,3530.5 L1413,3530.5 L1413,3531.5 Z M1429,3531.5 L1437,3531.5 L1437,3530.5 L1429,3530.5 L1429,3531.5 Z M1445,3531.5 L1453,3531.5 L1453,3530.5 L1445,3530.5 L1445,3531.5 Z M1461,3531.5 L1469,3531.5 L1469,3530.5 L1461,3530.5 L1461,3531.5 Z M1477,3530.5 L1477,3531.5 L1483.5,3531.5 L1483.5,3529 L1482.5,3529 L1482.5,3531 L1483,3530.5 L1477,3530.5 Z M1483.5,3521 L1483.5,3513 L1482.5,3513 L1482.5,3521 L1483.5,3521 Z M1483.5,3505 L1483.5,3497 L1482.5,3497 L1482.5,3505 L1483.5,3505 Z M1483.5,3489 L1483.5,3481 L1482.5,3481 L1482.5,3489 L1483.5,3489 Z M1483.5,3473 L1483.5,3465 L1482.5,3465 L1482.5,3473 L1483.5,3473 Z M1483.5,3457 L1483.5,3449 L1482.5,3449 L1482.5,3457 L1483.5,3457 Z M1483.5,3441 L1483.5,3433 L1482.5,3433 L1482.5,3441 L1483.5,3441 Z M1483.5,3425 L1483.5,3417 L1482.5,3417 L1482.5,3425 L1483.5,3425 Z M1483.5,3409 L1483.5,3401 L1482.5,3401 L1482.5,3409 L1483.5,3409 Z M1483.5,3393 L1483.5,3385 L1482.5,3385 L1482.5,3393 L1483.5,3393 Z M1483.5,3377 L1483.5,3369 L1482.5,3369 L1482.5,3377 L1483.5,3377 Z M1483.5,3361 L1483.5,3353 L1482.5,3353 L1482.5,3361 L1483.5,3361 Z M1483.5,3345 L1483.5,3337 L1482.5,3337 L1482.5,3345 L1483.5,3345 Z M1483.5,3329 L1483.5,3321 L1482.5,3321 L1482.5,3329 L1483.5,3329 Z M1483.5,3313 L1483.5,3305 L1482.5,3305 L1482.5,3313 L1483.5,3313 Z M1483.5,3297 L1483.5,3296 L1482.5,3296 L1482.5,3297 L1483.5,3297 Z" id="Linea2"></path>
        </g>
    </g>
</svg>