<?xml version="1.0" encoding="UTF-8"?>
<svg width="124px" height="29px" viewBox="0 0 124 29" version="1.1" xmlns="http://www.w3.org/2000/svg" xmlns:xlink="http://www.w3.org/1999/xlink">
    <!-- Generator: Sketch 53.1 (72631) - https://sketchapp.com -->
    <title>LogoPM_H_Blanco</title>
    <desc>Created with Sketch.</desc>
    <g id="Symbols" stroke="none" stroke-width="1" fill="none" fill-rule="evenodd">
        <g id="Navegacion/Footer" transform="translate(-368.000000, -143.000000)" fill="#002E3A">
            <g id="LogoPM/H_Verde" transform="translate(368.000000, 143.000000)">
                <g id="Group-4">
                    <g id="Group-6" transform="translate(40.327814, 1.208333)" fill-rule="nonzero">
                        <path d="M3.65995294,3.86966618 C3.08863803,3.86966618 2.61849716,3.88733314 2.24953032,3.92302042 L2.24953032,8.13199834 L3.33874307,8.13199834 C4.42158822,8.13199834 5.25468209,7.98006243 5.83837843,7.6768973 C6.42136726,7.37373217 6.71321543,6.80026246 6.71321543,5.95613484 C6.71321543,5.55191466 6.63538925,5.21306226 6.48079816,4.93957763 C6.32620707,4.666093 6.11218508,4.45232271 5.83837843,4.29756009 C5.56421803,4.14315081 5.24017812,4.03326228 4.86519744,3.96754117 C4.49021676,3.90252673 4.08835067,3.86966618 3.65995294,3.86966618 M3.49899425,1.92594661 C5.29642522,1.92594661 6.67430234,2.25278547 7.63262561,2.90646321 C8.59059512,3.56049428 9.06993363,4.58305826 9.06993363,5.97415514 C9.06993363,6.69920742 8.94187419,7.32037793 8.68575531,7.83731335 C8.42963643,8.35460211 8.05783955,8.77684259 7.57001091,9.10368146 C7.08182852,9.43087366 6.486812,9.67149773 5.78460762,9.82590702 C5.08204948,9.98066964 4.27867106,10.0576976 3.37447236,10.0576976 L2.24953032,10.0576976 L2.24953032,14.4090713 L2.66453526e-14,14.4090713 L2.66453526e-14,2.22911174 C0.52355793,2.11038973 1.10371672,2.02982836 1.74083012,1.98813433 C2.37723601,1.94679363 2.96376239,1.92594661 3.49899425,1.92594661" id="Fill-1"></path>
                        <path d="M13.1044074,12.8931043 C13.7708825,12.8931043 14.2767526,12.857417 14.6220178,12.7860425 L14.6220178,10.3964087 C14.503156,10.3607214 14.3301697,10.3250341 14.1044738,10.2893469 C13.8780703,10.2540129 13.6279653,10.2359926 13.3545124,10.2359926 C13.1160813,10.2359926 12.8751739,10.2540129 12.6314364,10.2893469 C12.3873453,10.3250341 12.1673094,10.3907552 11.9709752,10.4858035 C11.7742872,10.5812051 11.6165123,10.7147674 11.4976505,10.8868436 C11.378435,11.0596266 11.3190041,11.2765769 11.3190041,11.5376947 C11.3190041,12.0489767 11.4799628,12.4026693 11.8011726,12.5987726 C12.1223825,12.7952293 12.5567941,12.8931043 13.1044074,12.8931043 M12.9261147,4.85039478 C13.639993,4.85039478 14.2410233,4.93943629 14.7292057,5.11787264 C15.2170344,5.296309 15.6068728,5.54611989 15.8983672,5.86695199 C16.1902154,6.18778409 16.3985773,6.57751735 16.5238067,7.03473843 C16.6486823,7.49266618 16.7109432,7.99511469 16.7109432,8.54208395 L16.7109432,14.1951597 C16.3777057,14.2661809 15.8750193,14.352749 15.2025304,14.4534507 C14.5296877,14.5545057 13.7708825,14.6050333 12.9261147,14.6050333 C12.3664737,14.6050333 11.8549434,14.551679 11.3904627,14.4446172 C10.9263356,14.3375554 10.5304834,14.1654791 10.2032597,13.9273285 C9.87568221,13.6898844 9.61991708,13.3807125 9.43561054,13.0001661 C9.25095024,12.619973 9.1586201,12.1500317 9.1586201,11.5914022 C9.1586201,11.0564465 9.26297793,10.6045255 9.47133983,10.2359926 C9.67934798,9.86745972 9.96235227,9.5671213 10.3192914,9.33533071 C10.6762306,9.10354012 11.0897706,8.93747064 11.5599115,8.83606226 C12.0300523,8.73536055 12.5214185,8.68447969 13.0329488,8.68447969 C13.2710261,8.68447969 13.5211312,8.69967328 13.7829101,8.72900045 C14.0446891,8.75903429 14.3245096,8.80920847 14.6220178,8.88058301 L14.6220178,8.52406364 C14.6220178,8.27425275 14.5923024,8.03680873 14.5328715,7.81067157 C14.4734406,7.58488774 14.3690828,7.38595771 14.2205055,7.21317478 C14.0712208,7.04109854 13.8752403,6.90753628 13.6311491,6.81213466 C13.3870579,6.71708638 13.080352,6.66938558 12.7117389,6.66938558 C12.2118826,6.66938558 11.7534156,6.70507285 11.3370456,6.77644739 C10.9203218,6.84782193 10.5810704,6.93085667 10.3192914,7.02625829 L10.0514986,5.27864203 C10.3253053,5.18359376 10.7236338,5.08854548 11.2475455,4.99314387 C11.7714572,4.89809559 12.3303906,4.85039478 12.9261147,4.85039478" id="Fill-3"></path>
                        <path d="M24.656041,9.79018441 C24.656041,8.82733478 24.4388352,8.07825543 24.0044236,7.54329971 C23.570012,7.00799064 22.8709914,6.74086612 21.9066543,6.74086612 C21.7039525,6.74086612 21.4927605,6.7496996 21.2727247,6.76736657 C21.0523351,6.78538687 20.8354831,6.82390086 20.6211073,6.88326186 L20.6211073,12.2155055 C20.811074,12.346241 21.0643628,12.4681431 21.3799126,12.5808583 C21.6951086,12.6942802 22.0318837,12.7504612 22.3888229,12.7504612 C23.1741598,12.7504612 23.7483047,12.4829833 24.1116115,11.9480276 C24.4745645,11.4130719 24.656041,10.693673 24.656041,9.79018441 M26.869842,9.75449714 C26.869842,10.4678892 26.7778656,11.1219203 26.5932053,11.716237 C26.4088988,12.3105537 26.143936,12.8218357 25.7986708,13.2497296 C25.4534055,13.6776236 25.0221777,14.0108225 24.5042799,14.2486199 C23.9863821,14.4860639 23.4002094,14.6051393 22.745762,14.6051393 C22.3053366,14.6051393 21.9002867,14.551785 21.5316736,14.4447232 C21.1627068,14.3376614 20.8591847,14.2189394 20.6211073,14.0878505 L20.6211073,17.7081651 L18.4607234,17.7081651 L18.4607234,5.38545651 C18.900795,5.2667345 19.4427482,5.15366592 20.0855217,5.0466041 C20.7279415,4.93954229 21.406798,4.88618805 22.1206763,4.88618805 C22.85861,4.88618805 23.519425,4.99925664 24.1027676,5.22504046 C24.6854026,5.45082428 25.1827827,5.77483643 25.5934927,6.19707691 C26.0042026,6.61896406 26.3193986,7.13024605 26.5397882,7.73056954 C26.7598241,8.33089304 26.869842,9.00541779 26.869842,9.75449714" id="Fill-5"></path>
                        <path d="M34.0113844,1.26601477 L31.1010391,4.08354247 L30.0298678,3.12069283 L32.6543789,-4.26325641e-14 L34.0113844,1.26601477 Z M31.4937075,12.8929983 C32.1601826,12.8929983 32.6660528,12.8576643 33.011318,12.7862898 L33.011318,10.3963027 C32.8924562,10.3609687 32.7198236,10.3252815 32.4934202,10.2895942 C32.2673705,10.2539069 32.0176192,10.2358866 31.7438126,10.2358866 C31.5057352,10.2358866 31.264474,10.2539069 31.0207366,10.2895942 C30.7766454,10.3252815 30.5566096,10.3906492 30.3602754,10.4856975 C30.1639411,10.5810991 30.0058125,10.7146614 29.8869507,10.887091 C29.7677351,11.0595206 29.7083042,11.2764709 29.7083042,11.5375887 C29.7083042,12.049224 29.8692629,12.4025633 30.1904728,12.59902 C30.5116826,12.7951233 30.9460942,12.8929983 31.4937075,12.8929983 L31.4937075,12.8929983 Z M31.3154148,4.85028878 C32.0292931,4.85028878 32.6303235,4.93933029 33.1188596,5.11776664 C33.6063345,5.296203 33.9961729,5.54601389 34.2880211,5.86684599 C34.5795155,6.18803143 34.7878774,6.57741135 34.9127531,7.03498577 C35.0379825,7.49291352 35.1005972,7.99500869 35.1005972,8.54197795 L35.1005972,14.1950537 C34.7670058,14.2660749 34.2639657,14.352643 33.5918305,14.4533447 C32.9193416,14.5543997 32.1601826,14.6049273 31.3154148,14.6049273 C30.7557738,14.6049273 30.2442436,14.551573 29.7801166,14.4445112 C29.3156358,14.3374494 28.9197835,14.1653731 28.5925598,13.9272224 C28.2649824,13.6897784 28.0092172,13.3809599 27.8249107,13.0000601 C27.6402504,12.619867 27.5479203,12.150279 27.5479203,11.5912962 C27.5479203,11.0563405 27.6522781,10.6047729 27.86064,10.2358866 C28.0686481,9.86770706 28.3516524,9.56736864 28.7085916,9.33522471 C29.0658845,9.10343412 29.4790708,8.93736464 29.9495654,8.83595626 C30.4197063,8.73525455 30.9103649,8.68437369 31.4222489,8.68437369 C31.6603263,8.68437369 31.9104313,8.69956728 32.1722103,8.72924778 C32.4339893,8.75892829 32.7138098,8.80945581 33.011318,8.88047701 L33.011318,8.52395764 C33.011318,8.27414674 32.9816026,8.03670272 32.9221717,7.81056556 C32.862387,7.58478174 32.7583829,7.38585171 32.6098057,7.21342212 C32.4605209,7.04099253 32.2645404,6.90743027 32.0204492,6.81202866 C31.7763581,6.71698038 31.4696522,6.66927958 31.1010391,6.66927958 C30.6011828,6.66927958 30.1427158,6.70532019 29.7263458,6.77634139 C29.3092682,6.84771593 28.9703706,6.93110401 28.7085916,7.02615228 L28.4407988,5.27853603 C28.7146054,5.18348775 29.112934,5.08843948 29.6368456,4.99303786 C30.1607573,4.89798959 30.7200446,4.85028878 31.3154148,4.85028878 L31.3154148,4.85028878 Z" id="Fill-7"></path>
                        <path d="M39.2783418,13.2319567 C39.2783418,13.6481904 39.1382547,13.9870428 38.858788,14.2485139 C38.5789675,14.509985 38.2425461,14.6407205 37.8498777,14.6407205 C37.4451815,14.6407205 37.1059302,14.509985 36.8321235,14.2485139 C36.5583169,13.9870428 36.4217673,13.6481904 36.4217673,13.2319567 C36.4217673,12.815723 36.5583169,12.4740438 36.8321235,12.206566 C37.1059302,11.9390881 37.4451815,11.8051725 37.8498777,11.8051725 C38.2425461,11.8051725 38.5789675,11.9390881 38.858788,12.206566 C39.1382547,12.4740438 39.2783418,12.815723 39.2783418,13.2319567" id="Fill-9"></path>
                        <path d="M43.5183828,2.05067538 C43.7801617,2.50259637 44.0716562,3.0555724 44.3932198,3.70889679 C44.7147834,4.36292786 45.0420071,5.04946615 45.3752447,5.768865 C45.7081284,6.48826384 46.0385359,7.21932289 46.3661134,7.96204213 C46.6933371,8.70546805 46.9936754,9.39200634 47.2678358,10.0220103 C47.5412887,9.39200634 47.8391507,8.70546805 48.1603606,7.96204213 C48.4819242,7.21932289 48.8091479,6.48826384 49.1423855,5.768865 C49.475623,5.04946615 49.8032005,4.36292786 50.1244103,3.70889679 C50.4456202,3.0555724 50.7374684,2.50259637 50.9988936,2.05067538 L53.0259118,2.05067538 C53.1352222,2.95416401 53.238165,3.91418693 53.335094,4.93074414 C53.4320229,5.94730135 53.520108,6.9875323 53.5986417,8.05143697 C53.6775292,9.11569499 53.750049,10.1856064 53.8169088,11.2611713 C53.8834148,12.3374429 53.9410769,13.3865073 53.9898951,14.4090713 L51.7757403,14.4090713 C51.7272759,12.9706269 51.6696137,11.4904885 51.6031077,9.9686561 C51.536248,8.44682367 51.4361352,6.97233871 51.3027694,5.54590789 C51.1715262,5.81974586 51.0169351,6.14623139 50.8386424,6.52677783 C50.6599959,6.90732427 50.4693218,7.32037793 50.2673275,7.76593881 C50.0646257,8.21185302 49.8594476,8.67296083 49.6510857,9.14820221 C49.4427238,9.62379693 49.2407295,10.0841981 49.0440415,10.5301123 C48.8477072,10.9760265 48.6662307,11.3922602 48.4999657,11.7784601 C48.3326394,12.1650133 48.190076,12.4950322 48.0712142,12.7685168 L46.3926451,12.7685168 C46.2737833,12.4950322 46.1308661,12.1621866 45.9646011,11.7696266 C45.7976285,11.3774199 45.6161521,10.9583595 45.4198178,10.5124453 C45.2234836,10.0665311 45.0207818,9.60577662 44.8127736,9.1301819 C44.6044117,8.65494052 44.3992336,8.19736611 44.1968856,7.75710532 C43.9941837,7.31755122 43.8042171,6.90414422 43.6255707,6.51794435 C43.4469242,6.13174447 43.2919793,5.80737898 43.1614436,5.54590789 C43.0277241,6.97233871 42.9276113,8.44682367 42.8607516,9.9686561 C42.7942456,11.4904885 42.7369372,12.9706269 42.688119,14.4090713 L40.4743179,14.4090713 C40.5227824,13.3865073 40.5804445,12.3286094 40.6469505,11.2346709 C40.7134565,10.1410857 40.7863301,9.05633399 40.8652176,7.98006243 C40.9437513,6.90414422 41.0314826,5.86108656 41.1287653,4.85018278 C41.2256943,3.83998568 41.3286371,2.90646321 41.4379475,2.05067538 L43.5183828,2.05067538 Z" id="Fill-11"></path>
                        <path d="M61.8274866,9.73668884 C61.8274866,8.80917314 61.6283223,8.07528738 61.2292863,7.53432489 C60.830604,6.99336239 60.2741468,6.72305782 59.5602685,6.72305782 C58.8456827,6.72305782 58.2895793,6.99336239 57.890897,7.53432489 C57.4918609,8.07528738 57.2926967,8.80917314 57.2926967,9.73668884 C57.2926967,10.6762181 57.4918609,11.4189373 57.890897,11.9659066 C58.2895793,12.5128758 58.8456827,12.7860071 59.5602685,12.7860071 C60.2741468,12.7860071 60.830604,12.5128758 61.2292863,11.9659066 C61.6283223,11.4189373 61.8274866,10.6762181 61.8274866,9.73668884 M64.0412876,9.73668884 C64.0412876,10.4737546 63.9340998,11.1454527 63.7200778,11.751783 C63.505702,12.3581132 63.2021799,12.8750486 62.8095115,13.3032959 C62.416843,13.7311898 61.9438721,14.0643888 61.390245,14.3018328 C60.8366178,14.5396302 60.2267436,14.6587055 59.5602685,14.6587055 C58.8934397,14.6587055 58.2863955,14.5396302 57.7391359,14.3018328 C57.1915226,14.0643888 56.7213818,13.7311898 56.3287133,13.3032959 C55.9356911,12.8750486 55.629339,12.3581132 55.4089494,11.751783 C55.1885598,11.1454527 55.0785419,10.4737546 55.0785419,9.73668884 C55.0785419,8.99962303 55.1885598,8.3307517 55.4089494,7.73042821 C55.629339,7.13045805 55.9385211,6.61599601 56.3375572,6.1881021 C56.7358857,5.75985485 57.2092104,5.43018926 57.7568237,5.19804533 C58.304437,4.96660808 58.9054673,4.85035945 59.5602685,4.85035945 C60.2147159,4.85035945 60.8185763,4.96660808 61.3722034,5.19804533 C61.9258306,5.43018926 62.3988015,5.75985485 62.7918237,6.1881021 C63.1844921,6.61599601 63.4908443,7.13045805 63.7112339,7.73042821 C63.9312697,8.3307517 64.0412876,8.99962303 64.0412876,9.73668884" id="Fill-13"></path>
                        <path d="M65.3800748,5.38531517 C65.7967986,5.26659316 66.3380443,5.15352458 67.0048731,5.04681611 C67.6713482,4.93940096 68.4092819,4.88604672 69.2190279,4.88604672 C69.9803095,4.88604672 70.6174229,4.99028182 71.1289531,5.19804533 C71.6408371,5.40651553 72.048717,5.69766713 72.3518854,6.07185346 C72.6557612,6.44639313 72.8697832,6.89831412 72.9950126,7.42726307 C73.1198883,7.95621203 73.182503,8.53604185 73.182503,9.16604584 L73.182503,14.4088946 L71.022119,14.4088946 L71.022119,9.50489825 C71.022119,9.0056298 70.988866,8.5805626 70.923775,8.22969666 C70.8583303,7.87918406 70.7511424,7.59368589 70.6025651,7.37390884 C70.4536341,7.15377844 70.2512861,6.99336239 69.9951672,6.89230735 C69.7394021,6.79125231 69.4270361,6.74072478 69.0580692,6.74072478 C68.7842626,6.74072478 68.4984283,6.75839175 68.2012738,6.79407902 C67.9034118,6.82976629 67.6833759,6.85980013 67.5404588,6.88347387 L67.5404588,14.4088946 L65.3800748,14.4088946 L65.3800748,5.38531517 Z" id="Fill-15"></path>
                        <path d="M81.1631177,9.73668884 C81.1631177,8.80917314 80.9635997,8.07528738 80.5649174,7.53432489 C80.1662351,6.99336239 79.6097779,6.72305782 78.8958996,6.72305782 C78.1813138,6.72305782 77.6252104,6.99336239 77.2261743,7.53432489 C76.827492,8.07528738 76.6283278,8.80917314 76.6283278,9.73668884 C76.6283278,10.6762181 76.827492,11.4189373 77.2261743,11.9659066 C77.6252104,12.5128758 78.1813138,12.7860071 78.8958996,12.7860071 C79.6097779,12.7860071 80.1662351,12.5128758 80.5649174,11.9659066 C80.9635997,11.4189373 81.1631177,10.6762181 81.1631177,9.73668884 M83.3769187,9.73668884 C83.3769187,10.4737546 83.2697309,11.1454527 83.0557089,11.751783 C82.8413331,12.3581132 82.537811,12.8750486 82.1451426,13.3032959 C81.7524741,13.7311898 81.2795032,14.0643888 80.7258761,14.3018328 C80.172249,14.5396302 79.5623747,14.6587055 78.8958996,14.6587055 C78.2290708,14.6587055 77.6220266,14.5396302 77.074767,14.3018328 C76.5268,14.0643888 76.0570129,13.7311898 75.6643444,13.3032959 C75.2713222,12.8750486 74.9649701,12.3581132 74.7445805,11.751783 C74.5241909,11.1454527 74.414173,10.4737546 74.414173,9.73668884 C74.414173,8.99962303 74.5241909,8.3307517 74.7445805,7.73042821 C74.9649701,7.13045805 75.2741523,6.61599601 75.6731883,6.1881021 C76.0715168,5.75985485 76.5448415,5.43018926 77.0924548,5.19804533 C77.6400681,4.96660808 78.2410985,4.85035945 78.8958996,4.85035945 C79.550347,4.85035945 80.1542074,4.96660808 80.7078346,5.19804533 C81.2614617,5.43018926 81.7344326,5.75985485 82.1274548,6.1881021 C82.5201233,6.61599601 82.8264754,7.13045805 83.046865,7.73042821 C83.2669008,8.3307517 83.3769187,8.99962303 83.3769187,9.73668884" id="Fill-17"></path>
                    </g>
                    <g id="Group-7" fill-rule="nonzero">
                        <path d="M11.2484277,21.5066393 C11.2416474,22.7795678 11.4192916,23.9587671 11.7819026,25.0442372 C12.1445137,26.1297074 12.6817855,27.1371602 13.3934469,28.0655121 L12.4043352,28.7313683 C11.633007,27.7824285 11.0141002,26.6931658 10.547886,25.4627676 C10.0814006,24.2323695 9.8522261,22.911222 9.85982005,21.4993252 C9.86741399,20.0876993 10.1109628,18.7689899 10.5901952,17.5437387 C11.0694275,16.3182166 11.7002677,15.2354554 12.4816307,14.2949132 L13.4634198,14.9713342 C12.7417234,15.8921012 12.1936031,16.8935943 11.8198724,17.9750011 C11.4455992,19.0569496 11.2552081,20.2342527 11.2484277,21.5066393" id="Fill-21"></path>
                        <path d="M23.8799302,17.9751094 C23.5061995,16.8934318 22.9580791,15.8922095 22.2363828,14.9711717 L23.2184431,14.2950216 C23.9998061,15.2355637 24.6303751,16.318325 25.1096074,17.5435761 C25.589111,18.7690982 25.8323886,20.0875368 25.8402538,21.4994336 C25.8475765,22.9113303 25.618402,24.2324778 25.1519166,25.462876 C24.6859736,26.6930033 24.0667956,27.7825368 23.2957386,28.7314767 L22.3066269,28.0656205 C23.0182883,27.1369977 23.5555601,26.1298157 23.9179,25.0443456 C24.280511,23.9586045 24.4581552,22.7794052 24.4513748,21.5067477 C24.4445945,20.2340901 24.2542034,19.057058 23.8799302,17.9751094" id="Fill-27"></path>
                        <path d="M6.7571226,11.8206264 C6.28575537,11.9362979 5.69912286,11.9704305 4.99695385,11.923295 C4.38862435,11.8823901 3.86382827,11.7420673 3.42175199,11.5020557 C2.97994693,11.2620441 2.61977681,10.9407644 2.34151284,10.5379458 C2.06297766,10.1353981 1.86580622,9.66187631 1.74999851,9.11765131 C1.63364837,8.57369722 1.59757711,7.97691889 1.64124232,7.32758723 C1.68626358,6.65739677 1.81346222,6.0584513 2.02283822,5.53075081 C2.23221423,5.00305032 2.51183425,4.56176485 2.86224073,4.20662351 C3.21237599,3.85148216 3.62489011,3.59006996 4.10005431,3.42184511 C4.57440487,3.25389115 5.10001458,3.18941851 5.67661223,3.22788538 C5.94918073,3.24630614 6.21768105,3.28775284 6.48184197,3.35276727 C6.74600289,3.4180526 6.9881956,3.49498635 7.20896252,3.58329762 C7.41020216,3.66402387 7.58947358,3.74339566 7.75165862,3.82141298 C7.27188381,5.12332702 7.02508049,6.51707395 7.01721533,8.00509181 C7.01043502,9.27233149 7.17858673,10.4723896 7.51516137,11.607975 C7.3087687,11.6756984 7.05952447,11.7464016 6.7571226,11.8206264 M8.56014291,8.01321862 C8.56773686,6.59942557 8.77928256,5.29128098 9.19478002,4.08932663 C9.61054869,2.88737228 10.2194206,1.77481278 11.0213958,0.751648125 L9.93030816,0.000189625433 C9.28834831,0.772777816 8.73914312,1.63313549 8.28052288,2.57882461 C8.13515301,2.50189087 7.95940735,2.42278997 7.75057377,2.34152193 C7.48858255,2.23993688 7.17912916,2.14566595 6.82194237,2.05816736 C6.46421316,1.97121055 6.06010662,1.91242667 5.60935155,1.8820866 C4.89633404,1.83440934 4.21694687,1.91486471 3.57119005,2.12399447 C2.92516201,2.33339513 2.35019164,2.66280159 1.84600771,3.11275565 C1.34182378,3.56270972 0.926868748,4.13185691 0.60168503,4.81992633 C0.276230101,5.50799576 0.0828556304,6.3076733 0.0218328311,7.21868805 C-0.0397323931,8.12970281 0.0288843545,8.94698842 0.227954286,9.670274 C0.426481793,10.3935596 0.735121552,11.0114676 1.15360235,11.5231854 C1.57181193,12.035174 2.08738678,12.4379926 2.69951326,12.7316412 C3.31163974,13.0250188 3.99997692,13.197307 4.76560964,13.2487768 C5.20578743,13.2785751 5.61640307,13.2796587 5.99745655,13.2528402 C6.37823882,13.22548 6.71264376,13.1848459 7.00067137,13.1306673 C7.28869898,13.0764886 7.52980684,13.0163502 7.72345253,12.9505231 C7.821089,12.9174741 7.90353759,12.8868631 7.97161191,12.8584193 C8.46494734,14.0397858 9.08412534,15.1052098 9.84460503,16.040605 L10.9435578,15.3007949 C10.1527024,14.2689616 9.55576378,13.1499007 9.15274209,11.9438829 C8.75026283,10.7375943 8.55254896,9.42755345 8.56014291,8.01321862" id="Fill-19"></path>
                        <polygon id="Fill-23" points="18.2060575 15.8853288 19.8908292 18.834817 19.2480557 19.1642234 17.8499555 16.7180554 16.4515842 19.1642234 15.8090819 18.834817 17.4938536 15.8853288"></polygon>
                        <path d="M28.1846412,11.6080563 C28.5214871,10.4724709 28.6893676,9.27214186 28.6825873,8.00490219 C28.6747221,6.51715522 28.4279188,5.12340829 27.948144,3.82149425 C28.110329,3.74347693 28.2896004,3.66410514 28.4911113,3.58310799 C28.7118782,3.49506761 28.9537997,3.41813387 29.2179606,3.35284854 C29.4821215,3.28783411 29.7506219,3.24611651 30.0231904,3.22796665 C30.599788,3.18922888 31.1253977,3.25397242 31.6000195,3.42192638 C32.0749125,3.58988033 32.4874266,3.85156343 32.8375619,4.20643388 C33.1879683,4.56157523 33.4675884,5.00313159 33.6769644,5.53056119 C33.8863404,6.05853257 34.013539,6.65747804 34.0588315,7.32739761 C34.1022255,7.97700016 34.0661542,8.57350759 33.9500753,9.11773258 C33.8342676,9.66195757 33.6368249,10.1354794 33.358561,10.5380271 C33.0800258,10.9408457 32.7201269,11.2621253 32.2783218,11.5018661 C31.8362455,11.7421486 31.3111782,11.8824714 30.7031199,11.9233763 C30.0009509,11.9705118 29.4140472,11.9363792 28.94268,11.8207077 C28.6402781,11.746212 28.3913051,11.6757797 28.1846412,11.6080563 M26.5470605,11.9436933 C26.14431,13.149982 25.5473714,14.2690429 24.7562447,15.3006053 L25.8554688,16.0404153 C26.6159485,15.1052911 27.2351265,14.039867 27.7284619,12.8582297 C27.796265,12.8866735 27.8789848,12.9172845 27.9763501,12.9506044 C28.1699957,13.0164315 28.4111036,13.0765698 28.6991312,13.1307485 C28.9871588,13.1846563 29.3215638,13.2255612 29.702346,13.2526506 C30.0833995,13.279469 30.4940152,13.2786564 30.9344642,13.2488581 C31.6998257,13.1973883 32.3884341,13.0251001 33.0005605,12.7314515 C33.612687,12.437803 34.1282619,12.0352553 34.5462002,11.5232666 C34.964681,11.0115489 35.273592,10.3936408 35.4721195,9.67035527 C35.6709182,8.9467988 35.739535,8.12978408 35.678241,7.21876932 C35.616947,6.30775457 35.4235725,5.50807703 35.0981176,4.8200076 C34.7729338,4.13193817 34.35825,3.56279098 33.8540661,3.11283692 C33.3496109,2.66288286 32.7746406,2.3332055 32.1286125,2.12407574 C31.4828557,1.91494597 30.8037398,1.83449061 30.0907223,1.88216786 C29.6399672,1.91250793 29.2355894,1.97129182 28.8781314,2.05824862 C28.5206734,2.14547632 28.21122,2.24001814 27.9495,2.3413323 C27.7403952,2.42287124 27.5649208,2.50170124 27.4192797,2.57863499 C26.9606595,1.63321676 26.4117255,0.772588191 25.7697656,3.19744231e-14 L24.678678,0.7514585 C25.480382,1.77462315 26.0895251,2.88745355 26.5050226,4.0894079 C26.92052,5.29136225 27.1323369,6.59923594 27.1396597,8.01302899 C27.1472536,9.42736382 26.949811,10.7376756 26.5470605,11.9436933" id="Fill-25"></path>
                    </g>
                </g>
            </g>
        </g>
    </g>
</svg>