<?xml version="1.0" encoding="UTF-8"?>
<svg width="124px" height="29px" viewBox="0 0 205 48" version="1.1" xmlns="http://www.w3.org/2000/svg" xmlns:xlink="http://www.w3.org/1999/xlink">
    <!-- Generator: Sketch 55.1 (78136) - https://sketchapp.com -->
    <title>LogoPM/H_Verde</title>
    <desc>Created with Sketch.</desc>
    <g id="LogoPM/H_Verde" stroke="none" stroke-width="1" fill="none" fill-rule="evenodd">
        <g id="Group-4" fill="#99FF99">
            <g id="Group-6" transform="translate(66.670983, 2.000000)">
                <path d="M6.05072864,6.40496471 C5.1062161,6.40496471 4.32896708,6.43420658 3.71898158,6.49327517 L3.71898158,13.4598593 L5.5196962,13.4598593 C7.30988375,13.4598593 8.68717604,13.2083792 9.65215789,12.7065886 C10.6159701,12.2047981 11.098461,11.2556068 11.098461,9.85843007 C11.098461,9.18937599 10.9697967,8.62851684 10.7142228,8.17585262 C10.4586488,7.72318841 10.1048221,7.36936173 9.65215789,7.11320291 C9.19890884,6.85762892 8.6631977,6.67574447 8.04326996,6.56696469 C7.42334223,6.4593546 6.75896684,6.40496471 6.05072864,6.40496471 M5.78462759,3.18777369 C8.75618686,3.18777369 11.0341289,3.72874837 12.6184536,4.81069772 C14.2021935,5.89323191 14.9946483,7.5857516 14.9946483,9.88825678 C14.9946483,11.0883433 14.7829372,12.1164876 14.3595148,12.9721049 C13.9360925,13.8283069 13.3214283,14.5271877 12.5149374,15.0681624 C11.7078617,15.6097219 10.724165,16.0079963 9.56326259,16.2635702 C8.40177534,16.5197291 7.07360941,16.6472236 5.57876479,16.6472236 L3.71898158,16.6472236 L3.71898158,23.8494973 L2.66453526e-14,23.8494973 L2.66453526e-14,3.68956426 C0.865559481,3.49305886 1.82469296,3.35971591 2.87798527,3.29070509 C3.93010791,3.2222791 4.89976847,3.18777369 5.78462759,3.18777369" id="Fill-1"></path>
                <path d="M21.6645444,21.3403105 C22.7663783,21.3403105 23.6026959,21.2812419 24.1734972,21.1631048 L24.1734972,17.2078488 C23.9769919,17.1487803 23.6910063,17.0897117 23.31788,17.0306431 C22.943584,16.9721593 22.5301039,16.9423326 22.0780245,16.9423326 C21.6838441,16.9423326 21.2855697,16.9721593 20.8826167,17.0306431 C20.4790788,17.0897117 20.1153099,17.1984914 19.7907251,17.3558127 C19.4655555,17.5137188 19.204718,17.7347874 19.0082126,18.0196033 C18.8111223,18.3055888 18.7128696,18.664679 18.7128696,19.0968739 C18.7128696,19.9431338 18.9789707,20.5285561 19.5100031,20.8531409 C20.0410356,21.1783105 20.759216,21.3403105 21.6645444,21.3403105 M21.3697863,8.02823964 C22.5499884,8.02823964 23.5436273,8.17561869 24.350703,8.47096162 C25.1571939,8.76630455 25.8016848,9.17978465 26.2835909,9.71081709 C26.7660818,10.2418495 27.1105511,10.8869253 27.3175836,11.643705 C27.5240312,12.4016544 27.6269626,13.2332933 27.6269626,14.1386217 L27.6269626,23.4954367 C27.0760457,23.612989 26.2449916,23.7562742 25.1332156,23.9229529 C24.0208547,24.0902164 22.7663783,24.1738482 21.3697863,24.1738482 C20.4445734,24.1738482 19.5988984,24.0855377 18.8310068,23.9083319 C18.0637,23.7311262 17.4092669,23.4463103 16.8682922,23.0521298 C16.3267327,22.6591191 15.9038952,22.1473863 15.5991948,21.5175163 C15.2939097,20.8882311 15.1412671,20.1103973 15.1412671,19.1857692 C15.1412671,18.3003253 15.3137942,17.5523181 15.6582634,16.9423326 C16.0021479,16.3323471 16.4700179,15.8352353 17.0601189,15.4515819 C17.6502199,15.0679285 18.3338949,14.7930549 19.111144,14.6252065 C19.888393,14.4585278 20.7007322,14.3743112 21.5464073,14.3743112 C21.9400029,14.3743112 22.353483,14.3994592 22.7862627,14.4480007 C23.2190425,14.4977119 23.6816489,14.5807588 24.1734972,14.698896 L24.1734972,14.108795 C24.1734972,13.6953149 24.1243709,13.3023041 24.0261182,12.9280081 C23.9278655,12.554297 23.7553384,12.2250334 23.5097067,11.9390479 C23.2629053,11.6542321 22.9389053,11.4331635 22.5353674,11.2752574 C22.1318296,11.1179361 21.6247755,11.038983 21.0153748,11.038983 C20.1889994,11.038983 19.4310501,11.0980516 18.7426963,11.2161888 C18.0537578,11.334326 17.4928986,11.4717628 17.0601189,11.6296689 L16.6173969,8.73706267 C17.0700611,8.57974139 17.7285881,8.42242011 18.5947325,8.26451398 C19.4608768,8.1071927 20.38492,8.02823964 21.3697863,8.02823964" id="Fill-3"></path>
                <path d="M40.7620032,16.2044432 C40.7620032,14.610761 40.402913,13.3709055 39.6847325,12.4854616 C38.9665521,11.5994328 37.8109132,11.1572956 36.2166462,11.1572956 C35.8815344,11.1572956 35.5323864,11.1719166 35.1686175,11.2011585 C34.8042637,11.2309852 34.4457583,11.2947325 34.0913468,11.3929852 L34.0913468,20.2187677 C34.4054045,20.4351575 34.8241482,20.6369265 35.3458232,20.8234896 C35.8669134,21.0112225 36.4236787,21.1042116 37.0137797,21.1042116 C38.312119,21.1042116 39.2613102,20.6614897 39.8619383,19.7760457 C40.4619816,18.8906017 40.7620032,17.6998726 40.7620032,16.2044432 M44.4219162,16.1453746 C44.4219162,17.3261615 44.2698584,18.4086957 43.9645733,19.3923923 C43.6598729,20.376089 43.2218297,21.2223488 42.6510283,21.930587 C42.0802269,22.6388252 41.36731,23.1903269 40.5111079,23.5839226 C39.6549058,23.9769334 38.6858301,24.1740236 37.6038808,24.1740236 C36.8757581,24.1740236 36.2061192,24.0857131 35.5967185,23.9085074 C34.986733,23.7313016 34.4849424,23.5347962 34.0913468,23.3178215 L34.0913468,29.3100664 L30.5197443,29.3100664 L30.5197443,8.91385905 C31.2472821,8.71735365 32.1432531,8.53020565 33.2059029,8.3529999 C34.2679677,8.17579414 35.3902709,8.08748368 36.5704729,8.08748368 C37.7904439,8.08748368 38.8829203,8.27463167 39.8473174,8.64834283 C40.8105447,9.02205398 41.6328262,9.55834996 42.3118225,10.2572308 C42.9908189,10.9555267 43.5119091,11.8017866 43.8762628,12.7954254 C44.2400317,13.7890643 44.4219162,14.9055191 44.4219162,16.1453746" id="Fill-5"></path>
                <path d="M56.2284984,2.09547272 L51.4170404,6.75896684 L49.6461525,5.16528469 L53.9850618,-4.26325641e-14 L56.2284984,2.09547272 Z M52.06621,21.3401351 C53.1680438,21.3401351 54.0043614,21.2816513 54.5751628,21.1635142 L54.5751628,17.2076734 C54.3786574,17.1491896 54.0932567,17.0901211 53.7189608,17.0310525 C53.3452496,16.9719839 52.9323543,16.9421572 52.4796901,16.9421572 C52.0860945,16.9421572 51.6872353,16.9719839 51.2842823,17.0310525 C50.8807444,17.0901211 50.5169755,17.198316 50.1923907,17.3556373 C49.8678059,17.5135434 49.6063835,17.734612 49.4098781,18.0200127 C49.2127879,18.3054134 49.1145352,18.6645036 49.1145352,19.0966985 C49.1145352,19.9435432 49.3806363,20.5283806 49.9116687,20.8535503 C50.4427011,21.1781351 51.1608816,21.3401351 52.06621,21.3401351 L52.06621,21.3401351 Z M51.7714519,8.02806419 C52.951654,8.02806419 53.9452929,8.17544323 54.7529534,8.47078617 C55.5588595,8.7661291 56.2033504,9.1796092 56.6858413,9.71064164 C57.1677474,10.2422589 57.5122167,10.8867498 57.7186643,11.6441144 C57.9256968,12.4020638 58.029213,13.2331178 58.029213,14.1384463 L58.029213,23.4952612 C57.4777113,23.6128135 56.6460724,23.7560987 55.5348811,23.9227774 C54.4231051,24.0900409 53.1680438,24.1736727 51.7714519,24.1736727 C50.846239,24.1736727 50.000564,24.0853622 49.2332572,23.9081565 C48.4653656,23.7309507 47.8109325,23.4461349 47.2699578,23.0519544 C46.7283983,22.6589436 46.3055608,22.1477956 46.0008604,21.5173408 C45.6955753,20.8880557 45.5429327,20.1108067 45.5429327,19.1855938 C45.5429327,18.3001498 45.7154597,17.5527275 46.059929,16.9421572 C46.4038135,16.3327565 46.8716835,15.8356446 47.4617845,15.4514064 C48.0524703,15.067753 48.7355605,14.7928794 49.5133944,14.625031 C50.2906434,14.4583524 51.101813,14.3741358 51.9480728,14.3741358 C52.3416685,14.3741358 52.7551486,14.3992838 53.1879283,14.4484101 C53.6207081,14.4975365 54.0833145,14.5811682 54.5751628,14.6987206 L54.5751628,14.1086195 C54.5751628,13.6951394 54.5260365,13.3021286 54.4277838,12.9278327 C54.3289463,12.5541215 54.157004,12.224858 53.9113723,11.9394573 C53.6645709,11.6540566 53.3405709,11.432988 52.937033,11.2750819 C52.5334952,11.1177606 52.0264411,11.0388076 51.4170404,11.0388076 C50.590665,11.0388076 49.8327156,11.098461 49.1443619,11.2160133 C48.4548385,11.3341505 47.8945642,11.4721722 47.4617845,11.6294934 L47.0190625,8.73688722 C47.4717267,8.57956594 48.1302537,8.42224465 48.996398,8.26433853 C49.8625424,8.10701725 50.7871704,8.02806419 51.7714519,8.02806419 L51.7714519,8.02806419 Z" id="Fill-7"></path>
                <path d="M64.9359683,21.9011697 C64.9359683,22.5901082 64.7043727,23.1509674 64.242351,23.5837471 C63.7797446,24.0165269 63.2235641,24.2329167 62.5743945,24.2329167 C61.9053404,24.2329167 61.3444813,24.0165269 60.8918171,23.5837471 C60.4391529,23.1509674 60.2134056,22.5901082 60.2134056,21.9011697 C60.2134056,21.2122311 60.4391529,20.6466933 60.8918171,20.2039713 C61.3444813,19.7612493 61.9053404,19.5395959 62.5743945,19.5395959 C63.2235641,19.5395959 63.7797446,19.7612493 64.242351,20.2039713 C64.7043727,20.6466933 64.9359683,21.2122311 64.9359683,21.9011697" id="Fill-9"></path>
                <path d="M71.9457135,3.39422132 C72.3784932,4.14222847 72.8603993,5.05749914 73.3920166,6.13886365 C73.9236338,7.22139784 74.4646085,8.35773708 75.0155254,9.5484662 C75.5658575,10.7391953 76.1120957,11.9492241 76.6536552,13.1785525 C77.1946299,14.4090506 77.6911569,15.5453898 78.144406,16.588155 C78.5964854,15.5453898 79.0889185,14.4090506 79.619951,13.1785525 C80.1515682,11.9492241 80.6925429,10.7391953 81.2434598,9.5484662 C81.7943767,8.35773708 82.3359363,7.22139784 82.8669687,6.13886365 C83.3980011,5.05749914 83.8804921,4.14222847 84.312687,3.39422132 L87.6638058,3.39422132 C87.8445206,4.88965078 88.0147083,6.47865423 88.1749537,8.16123168 C88.3351992,9.84380913 88.4808237,11.5655707 88.6106577,13.3265164 C88.7410764,15.0880469 88.8609681,16.8589348 88.9715024,18.6391801 C89.0814518,20.4205951 89.1767803,22.1569776 89.2574879,23.8494973 L85.5969901,23.8494973 C85.5168674,21.4686239 85.4215388,19.0187396 85.3115894,16.4998446 C85.2010551,13.9809495 85.0355461,11.5404227 84.8150624,9.17943375 C84.5980877,9.6326828 84.3425137,10.1730726 84.0477556,10.8029426 C83.7524127,11.4328126 83.4371852,12.1164876 83.103243,12.8539677 C82.7681312,13.5920326 82.4289254,14.3552455 82.0844561,15.1418519 C81.7399869,15.9290432 81.4060447,16.6910864 81.080875,17.4291513 C80.7562902,18.1672163 80.4562686,18.8561548 80.181395,19.4953822 C79.9047668,20.1351944 79.6690773,20.6814326 79.4725719,21.1340968 L76.697518,21.1340968 C76.5010127,20.6814326 76.2647383,20.1305157 75.9898647,19.4807613 C75.7138214,18.8315916 75.4137998,18.1379744 75.089215,17.3999095 C74.7646302,16.6618446 74.4295183,15.8992165 74.0856338,15.1120252 C73.7411645,14.3254188 73.4019588,13.5680543 73.0674318,12.8393467 C72.7323199,12.1118089 72.4182622,11.4275491 72.1229192,10.7883217 C71.8275763,10.1490943 71.5714175,9.61221349 71.3556124,9.17943375 C71.1345439,11.5404227 70.9690349,13.9809495 70.8585006,16.4998446 C70.7485511,19.0187396 70.6538075,21.4686239 70.5730999,23.8494973 L66.9131869,23.8494973 C66.9933096,22.1569776 67.0886381,20.4059742 67.1985876,18.5953173 C67.308537,16.7852453 67.4290135,14.9897942 67.5594323,13.2083792 C67.6892662,11.4275491 67.8343059,9.70110879 67.9951362,8.02788874 C68.1553817,6.35583836 68.3255694,4.81069772 68.5062842,3.39422132 L71.9457135,3.39422132 Z" id="Fill-11"></path>
                <path d="M102.214796,16.1158988 C102.214796,14.5807004 101.885533,13.3659929 101.225836,12.4706067 C100.566724,11.5752205 99.646775,11.1278198 98.4665729,11.1278198 C97.2852012,11.1278198 96.3658367,11.5752205 95.7067248,12.4706067 C95.0470281,13.3659929 94.7177646,14.5807004 94.7177646,16.1158988 C94.7177646,17.6709816 95.0470281,18.90031 95.7067248,19.8056385 C96.3658367,20.7109669 97.2852012,21.1630463 98.4665729,21.1630463 C99.646775,21.1630463 100.566724,20.7109669 101.225836,19.8056385 C101.885533,18.90031 102.214796,17.6709816 102.214796,16.1158988 M105.874709,16.1158988 C105.874709,17.3358698 105.697504,18.4476458 105.343677,19.451227 C104.989265,20.4548081 104.487475,21.3104253 103.838305,22.0192484 C103.189136,22.7274866 102.407208,23.2789883 101.491937,23.6719991 C100.576667,24.0655947 99.5684068,24.262685 98.4665729,24.262685 C97.3641543,24.262685 96.3605731,24.0655947 95.4558295,23.6719991 C94.5505011,23.2789883 93.7732521,22.7274866 93.1240825,22.0192484 C92.474328,21.3104253 91.9678588,20.4548081 91.603505,19.451227 C91.2391513,18.4476458 91.0572668,17.3358698 91.0572668,16.1158988 C91.0572668,14.8959278 91.2391513,13.7888304 91.603505,12.7951915 C91.9678588,11.8021375 92.4790067,10.9506141 93.1387034,10.2423759 C93.7972304,9.53355285 94.579743,8.98789947 95.4850714,8.60366124 C96.3903999,8.22059269 97.3840387,8.02818116 98.4665729,8.02818116 C99.5485223,8.02818116 100.54684,8.22059269 101.462111,8.60366124 C102.377381,8.98789947 103.159309,9.53355285 103.809063,10.2423759 C104.458233,10.9506141 104.964702,11.8021375 105.329056,12.7951915 C105.692825,13.7888304 105.874709,14.8959278 105.874709,16.1158988" id="Fill-13"></path>
                <path d="M108.088027,8.91362511 C108.776965,8.71711972 109.671767,8.52997172 110.774185,8.3533508 C111.876019,8.1755602 113.09599,8.08724974 114.434683,8.08724974 C115.693254,8.08724974 116.746546,8.2597768 117.592221,8.60366124 C118.438481,8.94871536 119.112798,9.43062145 119.614004,10.0499643 C120.116379,10.6698921 120.470206,11.4178992 120.677239,12.293401 C120.883686,13.1689027 120.987202,14.128621 120.987202,15.1713862 L120.987202,23.8492049 L117.4156,23.8492049 L117.4156,15.7322454 C117.4156,14.90587 117.360625,14.2023105 117.253015,13.6215669 C117.14482,13.0414081 116.967614,12.5688594 116.721983,12.2050905 C116.475766,11.8407367 116.141239,11.5752205 115.717817,11.407957 C115.294979,11.2406935 114.778568,11.1570617 114.168582,11.1570617 C113.715918,11.1570617 113.243369,11.1863036 112.752106,11.2453722 C112.259673,11.3044408 111.895904,11.3541519 111.659629,11.3933361 L111.659629,23.8492049 L108.088027,23.8492049 L108.088027,8.91362511 Z" id="Fill-15"></path>
                <path d="M134.180961,16.1158988 C134.180961,14.5807004 133.851112,13.3659929 133.192001,12.4706067 C132.532889,11.5752205 131.612939,11.1278198 130.432737,11.1278198 C129.251366,11.1278198 128.332001,11.5752205 127.672304,12.4706067 C127.013192,13.3659929 126.683929,14.5807004 126.683929,16.1158988 C126.683929,17.6709816 127.013192,18.90031 127.672304,19.8056385 C128.332001,20.7109669 129.251366,21.1630463 130.432737,21.1630463 C131.612939,21.1630463 132.532889,20.7109669 133.192001,19.8056385 C133.851112,18.90031 134.180961,17.6709816 134.180961,16.1158988 M137.840874,16.1158988 C137.840874,17.3358698 137.663668,18.4476458 137.309841,19.451227 C136.95543,20.4548081 136.453639,21.3104253 135.80447,22.0192484 C135.1553,22.7274866 134.373372,23.2789883 133.458102,23.6719991 C132.542831,24.0655947 131.534571,24.262685 130.432737,24.262685 C129.330319,24.262685 128.326737,24.0655947 127.421994,23.6719991 C126.516081,23.2789883 125.739416,22.7274866 125.090247,22.0192484 C124.440492,21.3104253 123.934023,20.4548081 123.569669,19.451227 C123.205316,18.4476458 123.023431,17.3358698 123.023431,16.1158988 C123.023431,14.8959278 123.205316,13.7888304 123.569669,12.7951915 C123.934023,11.8021375 124.445171,10.9506141 125.104868,10.2423759 C125.763395,9.53355285 126.545907,8.98789947 127.451236,8.60366124 C128.356564,8.22059269 129.350203,8.02818116 130.432737,8.02818116 C131.514687,8.02818116 132.513004,8.22059269 133.428275,8.60366124 C134.343546,8.98789947 135.125473,9.53355285 135.775228,10.2423759 C136.424397,10.9506141 136.930867,11.8021375 137.29522,12.7951915 C137.658989,13.7888304 137.840874,14.8959278 137.840874,16.1158988" id="Fill-17"></path>
            </g>
            <g id="Group-7">
                <path d="M18.596191,35.5971961 C18.5849816,37.7041122 18.8786675,39.6558903 19.4781455,41.4525306 C20.0776234,43.2491708 20.9658551,44.916679 22.1423921,46.4532615 L20.507167,47.5553682 C19.2319874,45.9847092 18.2087947,44.1817917 17.4380374,42.1452706 C16.6668317,40.1087495 16.2879544,37.9220226 16.3005089,35.58509 C16.3130635,33.2486057 16.7157046,31.0659143 17.5079839,29.0379123 C18.3002633,27.0094619 19.3431845,25.2173054 20.634954,23.660546 L22.258073,24.7801394 C21.064946,26.3041674 20.1587793,27.9618113 19.540918,29.7517259 C18.92216,31.5425373 18.6074004,33.4911768 18.596191,35.5971961" id="Fill-21"></path>
                <path d="M39.4789169,29.7519053 C38.8610556,27.9615423 37.9548889,26.3043468 36.7617619,24.7798704 L38.3853293,23.6607254 C39.6770988,25.2174848 40.7195717,27.0096413 41.511851,29.0376433 C42.3045787,31.0660936 42.7067715,33.2483367 42.7197743,35.5852693 C42.7318805,37.922202 42.3530033,40.1089288 41.5817976,42.1454499 C40.8114886,44.1815226 39.7878476,45.9848885 38.5131163,47.5555476 L36.8778912,46.4534408 C38.0544282,44.9164099 38.9426599,43.2493502 39.5416895,41.4527099 C40.1411674,39.6556213 40.4348533,37.7038431 40.4236439,35.5973755 C40.4124345,33.4909078 40.097675,31.5427167 39.4789169,29.7519053" id="Fill-27"></path>
                <path d="M11.1710495,19.5651747 C10.391773,19.756631 9.42193699,19.8131263 8.26109306,19.735109 C7.25538703,19.6674043 6.38778061,19.4351459 5.6569287,19.0378853 C4.92652516,18.6406247 4.33108262,18.1088514 3.87104946,17.4421172 C3.41056791,16.7758313 3.08459899,15.9920711 2.89314269,15.0912849 C2.70078964,14.1909471 2.64115571,13.2031761 2.71334415,12.1284202 C2.78777447,11.0191395 2.99806254,10.0277815 3.34420835,9.15434617 C3.69035417,8.28091088 4.15262921,7.55050734 4.73193024,6.96268718 C5.31078289,6.37486702 5.99276188,5.94218476 6.77831559,5.66374363 C7.56252418,5.38575088 8.43147572,5.27903753 9.38472183,5.34270684 C9.83533912,5.37319636 10.2792308,5.4417978 10.7159484,5.5494079 C11.1526661,5.65746637 11.5530653,5.78480499 11.9180429,5.93097537 C12.2507374,6.06459124 12.5471136,6.19596524 12.8152421,6.32509735 C12.022066,8.47998956 11.6140444,10.786881 11.6010415,13.2498071 C11.5898321,15.3473073 11.8678248,17.3336103 12.4242587,19.2132 C12.083045,19.3252939 11.670988,19.4423199 11.1710495,19.5651747 M14.1518492,13.2632584 C14.1644037,10.9231872 14.5141365,8.75798231 15.2010476,6.76854063 C15.8884071,4.77909895 16.8950099,2.93762115 18.220856,1.24410724 L16.4170417,0.000313862785 C15.3557371,1.27908052 14.4477769,2.70312082 13.6895741,4.26839936 C13.4492449,4.14106075 13.1586976,4.01013513 12.8134486,3.8756225 C12.3803179,3.70748173 11.8687216,3.55144709 11.2782112,3.40662183 C10.686804,3.26269332 10.0187247,3.16539586 9.27352473,3.11517781 C8.09474579,3.03626374 6.97156539,3.16943124 5.90398355,3.51557705 C4.83595333,3.86217124 3.88539747,4.40739574 3.05186759,5.15214729 C2.21833771,5.89689884 1.53232333,6.83893557 0.99472122,7.9778091 C0.456670731,9.11668264 0.136979066,10.4402868 0.0360945998,11.9481733 C-0.0656866176,13.4560598 0.0477523603,14.8088084 0.376859909,16.0059708 C0.705070707,17.2031331 1.21532192,18.2258774 1.90716517,19.0728585 C2.59856005,19.9202881 3.4509217,20.5870223 4.46290499,21.0730612 C5.47488829,21.5586518 6.61286507,21.8438186 7.87862884,21.9290099 C8.60634213,21.9783312 9.28518249,21.9801247 9.91514994,21.9357355 C10.544669,21.8904496 11.0975159,21.8231933 11.5736906,21.7335182 C12.0498653,21.6438431 12.448471,21.5443038 12.768611,21.4353486 C12.9300262,21.3806468 13.0663323,21.3299803 13.1788745,21.2829009 C13.9944694,23.2382661 15.0181104,25.0017266 16.2753551,26.5499668 L18.0921722,25.3254536 C16.7847095,23.6175917 15.7978353,21.7653529 15.1315494,19.7691856 C14.4661603,17.7725699 14.1392946,15.6042264 14.1518492,13.2632584" id="Fill-19"></path>
                <polygon id="Fill-23" points="30.098724 26.292958 32.8840321 31.1748695 31.8213824 31.720094 29.5100071 27.6712641 27.1981835 31.720094 26.1359822 31.1748695 28.9212902 26.292958"></polygon>
                <path d="M46.5955762,19.2133346 C47.1524585,17.3337449 47.4300028,15.3469934 47.4187935,13.2494933 C47.4057906,10.7870155 46.9977689,8.48012407 46.2045928,6.32523187 C46.4727213,6.19609975 46.7690975,6.06472575 47.1022404,5.93066151 C47.467218,5.7849395 47.8671689,5.65760088 48.3038865,5.54954241 C48.7406042,5.44193231 49.1844958,5.3728825 49.6351131,5.34284135 C50.5883592,5.27872367 51.4573107,5.38588539 52.2419677,5.66387814 C53.027073,5.94187089 53.709052,6.37500154 54.2879047,6.96237332 C54.8672057,7.55019348 55.3294808,8.28104539 55.6756266,9.15403231 C56.0217724,10.027916 56.2320604,11.019274 56.3069391,12.1281064 C56.3786792,13.2033106 56.3190453,14.1906333 56.1271406,15.0914194 C55.9356843,15.9922056 55.609267,16.7759658 55.1492338,17.4422517 C54.6887523,18.1089859 54.0937581,18.6407592 53.3633546,19.0375714 C52.6325027,19.4352804 51.7644479,19.6675388 50.7591902,19.7352435 C49.5983463,19.8132609 48.6280619,19.7567656 47.8487855,19.5653093 C47.3488469,19.442006 46.9372383,19.3254284 46.5955762,19.2133346 M43.8882855,19.7688717 C43.222448,21.7654874 42.2355737,23.6177262 40.9276627,25.3251397 L42.7449282,26.549653 C44.0021729,25.0018611 45.0258139,23.2384006 45.8414088,21.2825871 C45.9535026,21.3296665 46.0902571,21.3803329 46.2512239,21.4354831 C46.5713639,21.5444383 46.9699697,21.6439776 47.4461444,21.7336527 C47.922319,21.8228794 48.4751659,21.8905841 49.104685,21.9354217 C49.7346524,21.9798108 50.4134928,21.9784657 51.1416545,21.9291444 C52.4069699,21.8439531 53.545395,21.5587863 54.5573783,21.0727474 C55.5693616,20.5867084 56.4217232,19.9204226 57.1126697,19.0729931 C57.804513,18.2260119 58.3152126,17.2032676 58.6434234,16.0061053 C58.9720826,14.8084946 59.0855215,13.4561943 58.9841887,11.9483078 C58.8828559,10.4404214 58.5631642,9.11681715 58.0251137,7.97794362 C57.4875116,6.83907008 56.8019456,5.89703335 55.9684157,5.1522818 C55.1344375,4.40753025 54.1838816,3.86185738 53.1158514,3.51571157 C52.0482695,3.16956575 50.9255375,3.03639826 49.7467586,3.11531233 C49.0015586,3.16553037 48.3330309,3.26282784 47.7420721,3.40675634 C47.1511133,3.55113322 46.639517,3.70761624 46.2068347,3.87530864 C45.8611373,4.01026964 45.5710384,4.14074688 45.3302608,4.2680855 C44.572058,2.70325533 43.6645462,1.27876666 42.6032416,3.19744231e-14 L40.7994273,1.24379338 C42.124825,2.93730729 43.1318762,4.77923346 43.8187873,6.76867514 C44.5056984,8.75811682 44.8558796,10.9228733 44.8679858,13.2629445 C44.8805403,15.6039125 44.554123,17.7727044 43.8882855,19.7688717" id="Fill-25"></path>
            </g>
        </g>
    </g>
</svg>