<svg xmlns="http://www.w3.org/2000/svg" xmlns:xlink="http://www.w3.org/1999/xlink" width="134" height="32" viewBox="0 0 134 32">
    <defs>
        <path id="prefix__a" d="M0 0.287L11.894 0.287 11.894 18.407 0 18.407z"/>
        <path id="prefix__c" d="M0.284 0.287L11.895 0.287 11.895 18.407 0.284 18.407z"/>
        <path id="prefix__e" d="M0.169 0.217L9.814 0.217 9.814 11.222 0.169 11.222z"/>
    </defs>
    <g fill="none" fill-rule="evenodd">
        <mask id="prefix__b" fill="#fff">
            <use xlink:href="#prefix__a"/>
        </mask>
        <path fill="#9F9" d="M7.292 13.64c-.509.131-1.142.17-1.9.116-.656-.046-1.222-.204-1.7-.476-.476-.27-.865-.634-1.165-1.088-.3-.456-.514-.99-.638-1.605-.126-.615-.165-1.289-.118-2.022.049-.757.186-1.434.412-2.03.226-.596.528-1.095.906-1.496s.823-.696 1.336-.886c.512-.19 1.079-.263 1.701-.22.294.021.584.068.87.142.284.073.546.16.784.26.217.091.41.181.585.27-.517 1.47-.784 3.044-.792 4.725-.007 1.432.174 2.787.537 4.07-.223.077-.491.156-.818.24m1.946-4.3c.008-1.598.236-3.076.685-4.433.448-1.358 1.106-2.615 1.971-3.77l-1.177-.85c-.694.873-1.286 1.845-1.78 2.913-.158-.087-.347-.176-.573-.268-.282-.114-.616-.221-1.002-.32-.386-.098-.822-.164-1.308-.199-.77-.053-1.503.038-2.2.274-.697.236-1.318.608-1.862 1.116C1.448 4.312 1 4.955.65 5.732c-.35.777-.56 1.68-.626 2.71-.066 1.03.008 1.952.223 2.77.214.816.547 1.514.999 2.092.451.579 1.008 1.034 1.668 1.365.66.332 1.404.526 2.23.584.475.034.918.035 1.33.005.41-.03.771-.077 1.082-.138.31-.06.571-.13.78-.203.105-.038.194-.072.268-.105.532 1.335 1.2 2.539 2.021 3.595l1.186-.836c-.853-1.165-1.498-2.43-1.933-3.792-.434-1.362-.647-2.842-.64-4.44" mask="url(#prefix__b)"/>
        <path fill="#9F9" d="M12.208 24.326c-.007 1.352.19 2.605.592 3.758.403 1.153 1 2.222 1.789 3.209L13.491 32c-.856-1.008-1.543-2.165-2.06-3.472-.518-1.306-.773-2.71-.764-4.21.008-1.499.278-2.899.81-4.201.532-1.301 1.233-2.451 2.1-3.45l1.09.718c-.801.978-1.41 2.042-1.825 3.19-.415 1.15-.626 2.4-.634 3.751M19.682 18L21.333 21.598 20.703 22 19.333 19.016 17.963 22 17.333 21.598 18.984 18z"/>
        <g transform="translate(26.667)">
            <mask id="prefix__d" fill="#fff">
                <use xlink:href="#prefix__c"/>
            </mask>
            <path fill="#9F9" d="M3.977 13.4c.355-1.283.532-2.639.525-4.07-.008-1.681-.268-3.255-.774-4.726.171-.088.36-.178.572-.27.233-.099.488-.185.766-.26.278-.073.561-.12.848-.14.608-.044 1.161.03 1.661.219.5.19.935.485 1.304.886.37.401.664.9.884 1.496.221.596.355 1.273.403 2.03.045.733.007 1.407-.115 2.022-.122.614-.33 1.15-.623 1.604-.293.455-.673.818-1.138 1.09-.466.27-1.019.43-1.66.475-.74.054-1.357.015-1.854-.116-.319-.084-.58-.163-.799-.24m-1.725.38C1.828 15.141 1.2 16.405.366 17.57l1.158.836c.8-1.056 1.453-2.26 1.973-3.595.071.033.158.067.261.104.204.075.458.143.761.204.304.061.656.107 1.057.138.402.03.834.03 1.298-.004.807-.059 1.532-.253 2.177-.585.644-.332 1.188-.787 1.628-1.365.441-.578.766-1.276.976-2.093.21-.817.281-1.74.217-2.77-.065-1.028-.269-1.932-.611-2.71-.343-.776-.78-1.419-1.311-1.927-.531-.509-1.137-.881-1.818-1.118-.68-.235-1.395-.326-2.147-.273-.474.035-.9.101-1.277.2-.377.098-.703.205-.978.32-.22.091-.405.18-.559.267C2.688 2.132 2.11 1.16 1.433.287l-1.149.85c.845 1.155 1.486 2.412 1.924 3.77.438 1.358.66 2.835.669 4.432.008 1.598-.2 3.078-.625 4.44" mask="url(#prefix__d)"/>
        </g>
        <path fill="#9F9" d="M26.49 20.576c-.414-1.15-1.022-2.213-1.823-3.19l1.09-.72c.867 1 1.567 2.15 2.099 3.451.532 1.302.802 2.702.81 4.202.009 1.5-.245 2.903-.763 4.21-.517 1.306-1.205 2.463-2.06 3.471l-1.099-.707c.79-.987 1.387-2.056 1.79-3.209.402-1.153.599-2.406.591-3.758-.007-1.351-.219-2.601-.634-3.75M48.035 5.41c-.63 0-1.148.019-1.555.056v4.496h1.201c1.194 0 2.113-.162 2.756-.486.643-.323.965-.936.965-1.838 0-.431-.086-.793-.257-1.085-.17-.293-.406-.521-.708-.686-.302-.165-.66-.282-1.073-.353-.413-.07-.856-.104-1.329-.104m-.177-2.077c1.982 0 3.5.35 4.558 1.048C53.472 5.08 54 6.171 54 7.657c0 .775-.141 1.438-.423 1.99-.283.553-.693 1.004-1.23 1.353-.539.35-1.195.607-1.969.771-.775.166-1.66.248-2.657.248h-1.24v4.648H44V3.657c.577-.127 1.217-.212 1.92-.257.701-.044 1.348-.067 1.938-.067M57.513 14.794c.706 0 1.242-.038 1.607-.117v-2.613c-.125-.038-.308-.077-.548-.116-.24-.04-.504-.059-.794-.059-.253 0-.508.02-.766.059-.259.039-.492.11-.7.214-.208.104-.375.25-.5.439-.127.188-.19.426-.19.712 0 .559.17.945.51 1.16.34.215.801.321 1.381.321M57.324 6c.756 0 1.393.098 1.91.293.517.195.93.468 1.239.819.309.35.53.777.662 1.277.132.5.198 1.05.198 1.648v6.181c-.353.078-.885.173-1.598.283-.712.11-1.516.166-2.41.166-.594 0-1.136-.059-1.627-.176-.492-.117-.911-.305-1.258-.565-.347-.26-.618-.598-.813-1.014-.196-.416-.294-.93-.294-1.541 0-.585.11-1.079.332-1.482.22-.403.52-.731.898-.985.378-.253.816-.435 1.314-.546.498-.11 1.018-.166 1.56-.166.252 0 .517.017.795.05.277.032.573.087.888.165v-.39c0-.273-.031-.533-.094-.78s-.174-.465-.331-.653c-.158-.189-.366-.335-.624-.439-.259-.104-.584-.156-.974-.156-.53 0-1.015.039-1.456.117-.442.078-.8.17-1.078.273l-.284-1.91c.29-.105.712-.209 1.267-.313.555-.104 1.147-.156 1.778-.156M70.876 11.1c0-1.001-.241-1.78-.723-2.337-.482-.556-1.258-.834-2.329-.834-.225 0-.459.009-.703.027-.245.019-.486.06-.723.121v5.545c.21.136.492.263.842.38.35.118.723.176 1.12.176.871 0 1.509-.278 1.911-.835.403-.556.605-1.304.605-2.243m2.457-.037c0 .741-.102 1.421-.307 2.04-.205.618-.499 1.15-.881 1.594-.384.445-.863.792-1.438 1.039-.574.247-1.225.37-1.951.37-.489 0-.939-.055-1.348-.166-.41-.112-.746-.235-1.01-.371v3.764H64V6.52c.488-.123 1.09-.24 1.803-.352C66.516 6.056 67.27 6 68.062 6c.819 0 1.552.118 2.2.352.647.235 1.199.572 1.654 1.011.456.439.806.97 1.05 1.595.245.624.367 1.326.367 2.105M80.846 2.054L77.764 5.14l-1.135-1.055 2.78-3.418 1.437 1.387zM78.18 14.79c.706 0 1.241-.039 1.607-.117v-2.618c-.126-.039-.309-.078-.548-.117-.24-.04-.505-.059-.794-.059-.253 0-.508.02-.767.059-.258.04-.491.111-.7.215-.207.104-.375.25-.5.44-.127.188-.19.426-.19.713 0 .56.17.947.511 1.162.34.215.8.322 1.38.322zm-.19-8.81c.757 0 1.394.097 1.91.292.518.196.93.47 1.24.82.308.353.529.78.661 1.28.133.502.199 1.053.199 1.651v6.193c-.353.079-.886.173-1.598.284-.712.11-1.516.166-2.411.166-.593 0-1.135-.059-1.627-.176-.492-.117-.911-.306-1.258-.567-.346-.26-.617-.599-.813-1.016-.195-.416-.293-.93-.293-1.543 0-.586.11-1.08.331-1.485.22-.403.52-.732.898-.986.379-.254.817-.436 1.315-.547.498-.11 1.018-.166 1.56-.166.252 0 .517.016.794.049.277.032.574.088.89.166v-.391c0-.274-.032-.534-.095-.781-.063-.248-.174-.466-.331-.655-.158-.189-.366-.335-.624-.44-.26-.104-.584-.156-.974-.156-.53 0-1.015.04-1.457.118-.441.077-.8.169-1.078.273l-.283-1.915c.29-.104.712-.208 1.267-.312.555-.104 1.147-.157 1.778-.157zM86.667 15.01c0 .49-.164.888-.49 1.196-.326.307-.719.46-1.177.46-.473 0-.868-.153-1.188-.46-.32-.308-.479-.706-.479-1.195 0-.49.16-.891.48-1.206.319-.314.714-.472 1.187-.472.458 0 .85.158 1.177.472.326.315.49.717.49 1.206M90.637 3.333c.284.488.6 1.085.949 1.79.349.705.704 1.446 1.066 2.222.361.776.72 1.565 1.075 2.366.355.802.681 1.543.979 2.223.296-.68.62-1.42.968-2.223.35-.8.704-1.59 1.066-2.366.361-.776.717-1.517 1.065-2.222.35-.705.666-1.302.95-1.79h2.2c.118.975.23 2.011.335 3.108.105 1.096.2 2.219.286 3.367.085 1.148.164 2.302.237 3.463.072 1.16.135 2.293.187 3.396h-2.402c-.053-1.552-.116-3.149-.188-4.79-.072-1.643-.181-3.234-.326-4.772-.142.295-.31.648-.503 1.058-.194.41-.401.856-.62 1.337-.22.48-.443.978-.669 1.491l-.659 1.49c-.213.482-.41.931-.59 1.348l-.466 1.068h-1.82c-.13-.295-.285-.654-.466-1.078-.18-.423-.378-.875-.59-1.356l-.66-1.491c-.226-.513-.448-1.007-.668-1.482l-.62-1.337c-.194-.417-.362-.766-.504-1.048-.145 1.538-.253 3.13-.326 4.771-.072 1.642-.134 3.239-.187 4.79h-2.403c.053-1.102.115-2.244.188-3.424.072-1.18.151-2.35.236-3.511.086-1.16.181-2.287.286-3.377.106-1.09.217-2.097.336-3.02h2.258zM110.361 11.646c0-1.071-.207-1.92-.622-2.545-.416-.625-.995-.937-1.739-.937-.744 0-1.323.312-1.738.937-.416.625-.623 1.474-.623 2.545 0 1.085.207 1.944.623 2.576.415.632.994.948 1.738.948s1.323-.316 1.739-.948c.415-.632.622-1.49.622-2.576m2.306 0c0 .852-.112 1.628-.335 2.329-.223.7-.54 1.298-.948 1.792-.409.495-.902.88-1.478 1.154-.576.275-1.212.412-1.906.412s-1.326-.137-1.896-.412c-.57-.274-1.06-.659-1.469-1.154-.41-.494-.728-1.092-.958-1.792-.23-.701-.344-1.477-.344-2.329 0-.851.115-1.624.344-2.318.23-.694.552-1.288.967-1.783.415-.494.908-.875 1.478-1.143S107.318 6 108 6c.682 0 1.31.134 1.887.402s1.07.649 1.478 1.143c.41.495.728 1.09.958 1.783.229.694.344 1.467.344 2.318M114.667 6.56c.427-.134.982-.26 1.666-.38.683-.12 1.44-.18 2.27-.18.78 0 1.434.117 1.958.35.525.232.943.559 1.254.978.312.42.531.926.66 1.518.127.593.192 1.242.192 1.948v5.873h-2.216v-5.493c0-.56-.033-1.036-.1-1.429-.067-.392-.177-.712-.33-.959-.152-.246-.36-.425-.622-.539-.263-.113-.583-.17-.961-.17-.281 0-.574.02-.88.06-.304.04-.53.073-.676.1v8.43h-2.215V6.559z"/>
        <g transform="translate(124 5.333)">
            <mask id="prefix__f" fill="#fff">
                <use xlink:href="#prefix__e"/>
            </mask>
            <path fill="#9F9" d="M7.432 5.7c0-1.04-.215-1.865-.644-2.471-.43-.608-1.028-.911-1.796-.911-.769 0-1.368.303-1.797.91-.429.607-.643 1.431-.643 2.472 0 1.054.214 1.887.643 2.5.43.615 1.028.921 1.797.921.768 0 1.367-.306 1.796-.92.43-.614.644-1.447.644-2.501m2.383 0c0 .827-.116 1.58-.346 2.26-.23.681-.558 1.261-.98 1.741-.423.481-.932.855-1.528 1.121-.595.267-1.252.4-1.97.4-.717 0-1.37-.133-1.959-.4-.59-.266-1.095-.64-1.518-1.12-.423-.48-.752-1.06-.99-1.741C.288 7.28.17 6.527.17 5.7c0-.827.118-1.578.356-2.252.237-.673.57-1.25.999-1.73.429-.48.938-.85 1.527-1.11.59-.261 1.236-.391 1.94-.391.705 0 1.355.13 1.95.39.597.26 1.106.63 1.529 1.11.422.48.752 1.058.989 1.731.237.674.356 1.425.356 2.252" mask="url(#prefix__f)"/>
        </g>
        <path fill="#9F9" d="M44 22.667L46 22.667 46 23.149 44.614 23.149 44.614 31.518 46 31.518 46 32 44 32zM48.79 30.166c.357 0 .652-.052.885-.16.233-.105.35-.285.35-.538 0-.12-.02-.225-.062-.311-.042-.086-.11-.164-.206-.233-.096-.069-.222-.135-.379-.198-.156-.063-.35-.138-.58-.225-.185-.068-.36-.139-.526-.21-.166-.073-.313-.156-.44-.251-.128-.095-.23-.208-.307-.34-.077-.133-.115-.294-.115-.484 0-.362.152-.655.455-.88.303-.224.72-.336 1.25-.336.338 0 .618.026.838.078.22.051.375.097.465.138l-.144.5c-.077-.034-.206-.08-.388-.138-.182-.057-.449-.086-.8-.086-.14 0-.273.013-.398.039-.124.026-.234.066-.33.12-.095.055-.172.124-.23.208-.057.084-.086.186-.086.307 0 .12.026.225.077.311.051.087.126.163.225.23.099.066.22.127.364.184.144.058.308.12.493.19.192.068.375.138.55.21.177.071.331.158.466.258.134.1.242.221.325.362.083.141.125.318.125.53 0 .403-.168.708-.503.915-.336.207-.794.31-1.375.31-.434 0-.766-.032-.996-.098-.23-.066-.383-.117-.46-.151l.163-.51c.02.012.061.03.125.057.063.026.15.055.258.086.109.031.238.059.388.082.15.023.325.034.522.034M56.082 28.337c0-.557-.127-1.001-.381-1.332-.255-.33-.6-.496-1.034-.496-.436 0-.78.165-1.034.496-.255.33-.382.775-.382 1.332 0 .559.127 1.001.382 1.329.254.328.598.492 1.034.492.435 0 .78-.164 1.034-.492.254-.328.381-.77.381-1.329m.585 0c0 .351-.05.67-.149.958-.098.288-.237.532-.415.733-.178.202-.388.358-.631.47-.243.113-.512.169-.805.169-.294 0-.562-.056-.805-.168-.243-.113-.454-.27-.632-.47-.178-.202-.316-.446-.415-.734-.099-.288-.148-.607-.148-.958 0-.35.05-.67.148-.957.099-.287.237-.533.415-.737.178-.205.389-.363.632-.475.243-.112.51-.168.805-.168.293 0 .562.056.805.168.243.112.453.27.631.475.178.204.317.45.415.737.1.288.149.607.149.957M60.396 22.667c.255 0 .462.02.623.06.161.042.266.078.314.11l-.118.529c-.067-.032-.166-.065-.296-.1-.13-.034-.296-.051-.496-.051-.418 0-.717.11-.896.33-.18.22-.268.574-.268 1.059v.51h1.892v.52H59.26V30h-.592v-5.415c0-.636.14-1.115.423-1.436.282-.322.717-.482 1.306-.482M63.925 24.913H65.8v.53h-1.875v2.65c0 .282.023.512.068.688.046.177.11.313.196.41.085.096.188.16.31.192.12.033.254.048.4.048.248 0 .449-.03.6-.091.152-.061.27-.117.355-.169l.146.52c-.085.058-.234.124-.446.198-.212.074-.443.111-.692.111-.29 0-.535-.04-.732-.12-.198-.08-.355-.203-.474-.367-.118-.163-.201-.367-.25-.611-.048-.245-.073-.533-.073-.867v-4.586l.592-.116v1.58zM70.956 25.333c.054.301.126.622.213.961.089.34.185.686.291 1.038.106.352.22.7.338 1.043.12.343.24.665.362.966.104-.229.214-.506.33-.834.116-.328.232-.674.348-1.037.116-.364.225-.731.325-1.102.101-.37.185-.715.252-1.035H74c-.22.917-.46 1.754-.72 2.512-.259.757-.544 1.476-.856 2.155h-.55c-.093-.213-.19-.45-.29-.711-.102-.262-.207-.541-.314-.839-.107-.298-.211-.61-.311-.938-.1-.327-.196-.662-.288-1.005-.09.343-.186.68-.286 1.008-.1.328-.204.641-.31.939-.107.298-.211.577-.312.84-.1.26-.196.497-.287.706h-.57c-.313-.68-.599-1.399-.857-2.157-.259-.758-.497-1.595-.716-2.51h.63c.068.32.152.663.253 1.033.1.37.21.738.325 1.101.117.364.234.709.353 1.034.119.325.23.602.334.831.117-.3.234-.621.35-.965.118-.343.228-.69.331-1.039.103-.35.2-.694.29-1.034.091-.34.173-.66.245-.96h.512zM77.444 30.165c.265 0 .498-.007.697-.021.2-.015.37-.033.51-.056v-1.573c-.077-.029-.2-.06-.368-.091-.168-.032-.399-.047-.693-.047-.167 0-.343.01-.524.03-.182.02-.35.063-.504.13-.154.066-.28.156-.378.272-.099.115-.147.267-.147.458 0 .167.033.308.1.423.066.116.16.207.283.277.122.069.27.12.441.151.172.031.366.047.583.047M77.38 26c.356 0 .66.042.908.125.248.084.45.199.604.346.154.147.265.32.335.523.07.201.105.42.105.657v2.817c-.07.017-.172.036-.304.056-.133.02-.287.042-.462.065-.175.023-.37.041-.583.056-.213.014-.432.022-.656.022-.287 0-.551-.026-.793-.078-.241-.052-.451-.134-.63-.246-.178-.113-.318-.257-.42-.433-.101-.175-.152-.39-.152-.643 0-.242.056-.45.169-.623.111-.172.269-.315.472-.427.202-.113.444-.195.724-.247.28-.052.585-.078.913-.078.098 0 .202.005.31.014.109.008.214.02.315.034.102.014.19.029.263.043.073.015.124.028.152.04v-.277c0-.156-.014-.307-.042-.454-.028-.147-.09-.28-.184-.398s-.228-.213-.398-.285c-.172-.072-.398-.108-.678-.108-.399 0-.697.023-.892.07-.196.045-.34.083-.43.112l-.095-.493c.119-.046.302-.09.55-.13.25-.04.549-.06.899-.06M83.034 25.333c.206 0 .401.015.584.045.184.03.311.059.382.088l-.126.496c-.051-.023-.156-.049-.314-.075-.158-.027-.365-.04-.623-.04-.27 0-.488.018-.652.053-.164.036-.272.065-.324.089V30h-.628v-4.366c.161-.064.383-.131.667-.199.283-.068.628-.102 1.034-.102M88.716 27.979c-.012-.467-.129-.83-.35-1.089-.222-.26-.535-.389-.94-.389-.215 0-.408.04-.577.121-.169.081-.316.189-.442.324-.126.136-.224.293-.295.471-.07.18-.112.366-.124.562h2.728zm-3.383.354c0-.392.06-.733.18-1.024.12-.29.277-.534.47-.73.194-.196.415-.342.664-.436.248-.096.505-.143.77-.143.583 0 1.049.179 1.396.536.347.357.52.907.52 1.65 0 .047-.001.093-.004.139-.003.046-.008.09-.014.13H85.97c.019.546.163.967.433 1.261.27.294.701.44 1.29.44.326 0 .585-.028.775-.086.19-.057.329-.106.415-.147l.11.484c-.086.046-.247.101-.483.165-.237.063-.515.095-.835.095-.418 0-.774-.058-1.069-.173-.295-.116-.538-.277-.728-.484-.19-.208-.329-.454-.415-.739-.086-.285-.129-.598-.129-.938zM92.667 32L90.667 32 90.667 31.518 92.053 31.518 92.053 23.149 90.667 23.149 90.667 22.667 92.667 22.667z"/>
    </g>
</svg>
