<?xml version="1.0" encoding="UTF-8"?>
<svg width="126px" height="35px" viewBox="0 0 126 35" version="1.1" xmlns="http://www.w3.org/2000/svg" xmlns:xlink="http://www.w3.org/1999/xlink">
    <!-- Generator: Sketch 53.1 (72631) - https://sketchapp.com -->
    <title>Group 4</title>
    <desc>Created with Sketch.</desc>
    <defs>
        <filter x="-10.0%" y="-46.3%" width="120.1%" height="192.6%" filterUnits="objectBoundingBox" id="filter-1">
            <feOffset dx="0" dy="0" in="SourceAlpha" result="shadowOffsetOuter1"></feOffset>
            <feGaussianBlur stdDeviation="2" in="shadowOffsetOuter1" result="shadowBlurOuter1"></feGaussianBlur>
            <feColorMatrix values="0 0 0 0 0   0 0 0 0 0.901960784   0 0 0 0 0.462745098  0 0 0 1 0" type="matrix" in="shadowBlurOuter1" result="shadowMatrixOuter1"></feColorMatrix>
            <feMerge>
                <feMergeNode in="shadowMatrixOuter1"></feMergeNode>
                <feMergeNode in="SourceGraphic"></feMergeNode>
            </feMerge>
        </filter>
        <filter x="-23.1%" y="-29.6%" width="146.3%" height="159.3%" filterUnits="objectBoundingBox" id="filter-2">
            <feOffset dx="0" dy="0" in="SourceAlpha" result="shadowOffsetOuter1"></feOffset>
            <feGaussianBlur stdDeviation="2" in="shadowOffsetOuter1" result="shadowBlurOuter1"></feGaussianBlur>
            <feColorMatrix values="0 0 0 0 0   0 0 0 0 0.901960784   0 0 0 0 0.462745098  0 0 0 1 0" type="matrix" in="shadowBlurOuter1" result="shadowMatrixOuter1"></feColorMatrix>
            <feMerge>
                <feMergeNode in="shadowMatrixOuter1"></feMergeNode>
                <feMergeNode in="SourceGraphic"></feMergeNode>
            </feMerge>
        </filter>
    </defs>
    <g id="Symbols" stroke="none" stroke-width="1" fill="none" fill-rule="evenodd">
        <g id="Artboard" transform="translate(-2.000000, -2.000000)" fill="#abffab">
            <g id="Group-4" transform="translate(6.000000, 6.000000)">
                <g id="Group-6" filter="url(#filter-1)" transform="translate(37.800000, 1.080000)">
                    <path d="M3.49754949,3.68925967 C2.95158559,3.68925967 2.50230633,3.70610299 2.14971169,3.7401265 L2.14971169,7.75287897 L3.1905927,7.75287897 C4.22538865,7.75287897 5.02151557,7.60802642 5.57931149,7.31899505 C6.1364313,7.02996369 6.41532927,6.48322953 6.41532927,5.67845572 C6.41532927,5.29308057 6.34095648,4.9700257 6.19322507,4.70929111 C6.04549366,4.44855652 5.84096849,4.24475235 5.57931149,4.09720487 C5.31731644,3.94999426 5.00765518,3.84522881 4.64931356,3.78257166 C4.29097193,3.72058825 3.90693789,3.68925967 3.49754949,3.68925967 M3.34373303,1.83615765 C5.06140643,1.83615765 6.37814287,2.14775906 7.29394236,2.77096189 C8.2094038,3.39450158 8.66747257,4.36939292 8.66747257,5.69563591 C8.66747257,6.38688575 8.54509553,6.97909686 8.30034144,7.4719324 C8.05558735,7.96510479 7.70028824,8.36766013 7.23410607,8.67926155 C6.76758584,8.99119983 6.19897206,9.22060584 5.52792666,9.36781645 C4.8565432,9.51536393 4.08881317,9.58880081 3.22473657,9.58880081 L2.14971169,9.58880081 L2.14971169,13.7373104 L2.66453526e-14,13.7373104 L2.66453526e-14,2.12518901 C0.500326043,2.0120019 1.05474139,1.93519637 1.66358409,1.89544613 C2.27175068,1.85603276 2.83225107,1.83615765 3.34373303,1.83615765" id="Fill-1"></path>
                    <path d="M12.5229242,12.2920189 C13.1598257,12.2920189 13.6432489,12.2579954 13.9731936,12.1899483 L13.9731936,9.91172093 C13.8596061,9.87769743 13.6942957,9.84367392 13.4786146,9.80965041 C13.2622574,9.77596378 13.0232503,9.75878359 12.7619313,9.75878359 C12.5340801,9.75878359 12.3038625,9.77596378 12.0709405,9.80965041 C11.8376804,9.84367392 11.6274082,9.90633107 11.4397859,9.99694813 C11.2518256,10.0879021 11.1010517,10.2152376 10.9874642,10.3792915 C10.8735386,10.5440192 10.8167448,10.7508551 10.8167448,10.9997994 C10.8167448,11.4872451 10.9705612,11.8244483 11.277518,12.0114092 C11.5844748,12.1987069 11.9996102,12.2920189 12.5229242,12.2920189 M12.3525429,4.62426603 C13.0347442,4.62426603 13.609105,4.70915636 14.0756252,4.87927389 C14.5418074,5.04939142 14.9143475,5.28755596 15.1929074,5.59343064 C15.4718053,5.89930533 15.6709216,6.27086896 15.7905942,6.70677407 C15.9099287,7.14335292 15.9694269,7.62237693 15.9694269,8.1438461 L15.9694269,13.5333715 C15.6509762,13.6010817 15.1705955,13.6836139 14.527947,13.7796209 C13.8849604,13.8759646 13.1598257,13.9241365 12.3525429,13.9241365 C11.8177349,13.9241365 11.3289029,13.8732697 10.8850325,13.7711992 C10.4415003,13.6691287 10.0632132,13.5050747 9.75050943,13.2780268 C9.43746759,13.0516526 9.19305156,12.7568945 9.01692327,12.3940894 C8.84045692,12.0316211 8.75222375,11.5835888 8.75222375,11.0510031 C8.75222375,10.5409874 8.8519509,10.1101352 9.05106714,9.75878359 C9.24984533,9.40743194 9.52029184,9.12109551 9.8613925,8.90011115 C10.2024932,8.6791268 10.5976831,8.5207996 11.0469624,8.42411894 C11.4962416,8.32811202 11.9658044,8.27960326 12.4546365,8.27960326 C12.6821496,8.27960326 12.9211567,8.29408851 13.1713197,8.32204842 C13.4214827,8.35068207 13.6888867,8.3985171 13.9731936,8.46656411 L13.9731936,8.12666592 C13.9731936,7.88850138 13.9447967,7.66212716 13.888003,7.44653267 C13.8312092,7.23127505 13.731482,7.04161927 13.5894976,6.8768916 C13.4468371,6.71283767 13.2595529,6.58550217 13.0262928,6.49454824 C12.7930327,6.40393118 12.4999363,6.35845422 12.1476797,6.35845422 C11.6700035,6.35845422 11.2318802,6.39247773 10.8339858,6.46052474 C10.4357533,6.52857175 10.1115555,6.60773535 9.8613925,6.69868928 L9.60548249,5.0325481 C9.86713948,4.94193104 10.2477929,4.85131398 10.748457,4.76036005 C11.2491211,4.669743 11.783253,4.62426603 12.3525429,4.62426603" id="Fill-3"></path>
                    <path d="M23.561976,9.33375926 C23.561976,8.41579834 23.3544083,7.70164159 22.9392729,7.19162587 C22.5241376,6.68127329 21.8561347,6.42660229 20.9345882,6.42660229 C20.7408809,6.42660229 20.5390602,6.43502395 20.328788,6.45186727 C20.1181778,6.46904746 19.9109482,6.5057659 19.7060849,6.56235945 L19.7060849,11.6460102 C19.8876221,11.7706507 20.1296718,11.8868697 20.4312196,11.99433 C20.7324294,12.1024641 21.0542608,12.1560259 21.3953614,12.1560259 C22.1458505,12.1560259 22.6945189,11.901018 23.0417046,11.3910023 C23.3885522,10.8809866 23.561976,10.1951266 23.561976,9.33375926 M25.6775439,9.29973576 C25.6775439,9.979869 25.5896487,10.6034087 25.4131824,11.170018 C25.2370541,11.7366272 24.9838486,12.2240729 24.6539038,12.6320181 C24.3239591,13.0399633 23.9118662,13.3576283 23.4169491,13.5843394 C22.922032,13.8107136 22.3618696,13.9242376 21.7364621,13.9242376 C21.3155797,13.9242376 20.9285031,13.8733708 20.5762466,13.7713003 C20.2236519,13.6692297 19.933598,13.5560426 19.7060849,13.4310652 L19.7060849,16.8825983 L17.6415639,16.8825983 L17.6415639,5.13438281 C18.0621082,5.0211957 18.5800133,4.91339846 19.1942649,4.81132794 C19.8081785,4.70925742 20.456912,4.6583906 21.1391134,4.6583906 C21.8443026,4.6583906 22.4757952,4.76618784 23.0332531,4.98144547 C23.5900349,5.19670309 24.0653446,5.50560958 24.4578301,5.90816491 C24.8503156,6.31038339 25.1515254,6.79782906 25.3621356,7.37016506 C25.5724078,7.94250106 25.6775439,8.585579 25.6775439,9.29973576" id="Fill-5"></path>
                    <path d="M32.5021939,1.20699228 L29.7209896,3.8931649 L28.6973496,2.97520398 L31.2054029,-4.26325641e-14 L32.5021939,1.20699228 Z M30.0962342,12.2919178 C30.7331357,12.2919178 31.2165588,12.2582312 31.5465036,12.1901842 L31.5465036,9.91161987 C31.432916,9.87793323 31.2679437,9.84390973 31.0515864,9.80988622 C30.8355673,9.77586272 30.5968983,9.75868253 30.3352413,9.75868253 C30.1077281,9.75868253 29.8771725,9.77586272 29.6442504,9.80988622 C29.4109903,9.84390973 29.2007181,9.90623001 29.0130959,9.99684707 C28.8254736,10.087801 28.6743616,10.2151365 28.5607741,10.3795273 C28.4468485,10.5439181 28.3900547,10.7507541 28.3900547,10.9996983 C28.3900547,11.4874809 28.5438712,11.8243472 28.850828,12.011645 C29.1577848,12.1986058 29.5729202,12.2919178 30.0962342,12.2919178 L30.0962342,12.2919178 Z M29.9258528,4.62416497 C30.6080542,4.62416497 31.1824149,4.7090553 31.6492732,4.87917283 C32.1151173,5.04929036 32.4876574,5.2874549 32.7665554,5.59332958 C33.0451153,5.89954113 33.2442315,6.2707679 33.363566,6.70700988 C33.4832386,7.14358872 33.5430749,7.62227587 33.5430749,8.14374504 L33.5430749,13.5332705 C33.2242861,13.6009806 32.7435674,13.6835129 32.101257,13.7795198 C31.4586084,13.8758636 30.7331357,13.9240355 29.9258528,13.9240355 C29.3910449,13.9240355 28.9022128,13.8731686 28.4586805,13.7710981 C28.0148102,13.6690276 27.6365231,13.5049737 27.3238194,13.2779257 C27.0107775,13.0515515 26.7663615,12.7571303 26.5902332,12.3939883 C26.4137669,12.0315201 26.3255337,11.5838246 26.3255337,11.050902 C26.3255337,10.5408863 26.4252608,10.110371 26.6243771,9.75868253 C26.8231553,9.40766775 27.0936018,9.12133131 27.4347024,8.90001009 C27.7761412,8.67902574 28.1709931,8.52069854 28.6206104,8.42401788 C29.0698896,8.32801096 29.5387763,8.2795022 30.0279464,8.2795022 C30.2554595,8.2795022 30.4944666,8.29398745 30.7446297,8.32228423 C30.9947927,8.35058101 31.2621967,8.3987529 31.5465036,8.46646305 L31.5465036,8.12656486 C31.5465036,7.88840032 31.5181067,7.6620261 31.4613129,7.44643161 C31.4041811,7.23117399 31.304792,7.04151821 31.1628076,6.87712741 C31.020147,6.71273661 30.8328628,6.58540111 30.5996027,6.49444718 C30.3663426,6.40383012 30.0732462,6.35835316 29.7209896,6.35835316 C29.2433135,6.35835316 28.8051901,6.39271353 28.4072957,6.46042368 C28.0087252,6.52847069 27.6848655,6.60797116 27.4347024,6.69858822 L27.1787924,5.03244704 C27.4404494,4.94182998 27.8211029,4.85121292 28.321767,4.76025899 C28.8224311,4.66964194 29.356901,4.62416497 29.9258528,4.62416497 L29.9258528,4.62416497 Z" id="Fill-7"></path>
                    <path d="M37.5354401,12.6150737 C37.5354401,13.0119023 37.4015691,13.3349572 37.1345031,13.5842383 C36.8670992,13.8335195 36.5456059,13.95816 36.1703613,13.95816 C35.7836228,13.95816 35.4594251,13.8335195 35.1977681,13.5842383 C34.9361111,13.3349572 34.8056206,13.0119023 34.8056206,12.6150737 C34.8056206,12.2182451 34.9361111,11.8924953 35.1977681,11.6374875 C35.4594251,11.3824796 35.7836228,11.2548072 36.1703613,11.2548072 C36.5456059,11.2548072 36.8670992,11.3824796 37.1345031,11.6374875 C37.4015691,11.8924953 37.5354401,12.2182451 37.5354401,12.6150737" id="Fill-9"></path>
                    <path d="M41.5873373,1.95507148 C41.8375003,2.3859236 42.1160602,2.9131195 42.4233551,3.53598546 C42.7306499,4.15952516 43.0433537,4.81405656 43.3618045,5.49991653 C43.6799172,6.18577651 43.9956635,6.88275308 44.3087053,7.59084623 C44.6214091,8.29961312 44.9084205,8.95414452 45.1704155,9.5547773 C45.4317344,8.95414452 45.7163794,8.29961312 46.0233362,7.59084623 C46.330631,6.88275308 46.6433348,6.18577651 46.9617856,5.49991653 C47.2802363,4.81405656 47.5932782,4.15952516 47.900235,3.53598546 C48.2071918,2.9131195 48.4860897,2.3859236 48.7359147,1.95507148 L50.6729878,1.95507148 C50.7774478,2.81643885 50.8758227,3.73170484 50.9684506,4.70086945 C51.0610785,5.67003406 51.145255,6.66176872 51.2203039,7.67607343 C51.2956909,8.690715 51.3649928,9.71074644 51.4288858,10.7361677 C51.4924407,11.7622628 51.5475442,12.7624191 51.5941962,13.7373104 L49.4782903,13.7373104 C49.4319764,12.3659273 49.3768729,10.954794 49.313318,9.50391048 C49.249425,8.05302692 49.1537545,6.64728347 49.0263066,5.28735384 C48.900887,5.54842529 48.7531556,5.85968984 48.5827743,6.22249495 C48.412055,6.58530005 48.2298416,6.97909686 48.0368105,7.40388538 C47.8431031,7.82901077 47.6470294,8.26862141 47.4479132,8.72170671 C47.2487969,9.17512888 47.0557657,9.61406579 46.8678054,10.0391912 C46.6801831,10.4643166 46.5067593,10.8611452 46.347872,11.2293401 C46.1879705,11.597872 46.0517331,11.9125052 45.9381455,12.1732398 L44.3340597,12.1732398 C44.2204721,11.9125052 44.0838967,11.595177 43.9250093,11.2209185 C43.7654459,10.8469968 43.5920221,10.4474732 43.4043998,10.0223479 C43.2167775,9.59722247 43.0230702,9.15794869 42.824292,8.70452653 C42.6251758,8.25144123 42.4291021,7.81519925 42.2357328,7.39546372 C42.0420255,6.97640193 41.8604883,6.58226825 41.6897689,6.21407329 C41.5190496,5.84587832 41.3709801,5.53663497 41.2462367,5.28735384 C41.1184507,6.64728347 41.0227802,8.05302692 40.9588872,9.50391048 C40.8953323,10.954794 40.8405669,12.3659273 40.7939149,13.7373104 L38.678347,13.7373104 C38.724661,12.7624191 38.7797645,11.7538411 38.8433194,10.7109028 C38.9068743,9.66830128 38.9765143,8.63412145 39.0519013,7.60802642 C39.1269502,6.58226825 39.2107886,5.58783866 39.3037546,4.62406391 C39.3963825,3.6609629 39.4947574,2.77096189 39.5992174,1.95507148 L41.5873373,1.95507148 Z" id="Fill-11"></path>
                    <path d="M59.0840095,9.28275769 C59.0840095,8.39848341 58.8936827,7.69881191 58.5123532,7.18306946 C58.1313616,6.66732702 57.5995962,6.40962423 56.9173949,6.40962423 C56.2345174,6.40962423 55.70309,6.66732702 55.3220985,7.18306946 C54.9407689,7.69881191 54.7504422,8.39848341 54.7504422,9.28275769 C54.7504422,10.1784854 54.9407689,10.8865786 55.3220985,11.4080478 C55.70309,11.9295169 56.2345174,12.1899147 56.9173949,12.1899147 C57.5995962,12.1899147 58.1313616,11.9295169 58.5123532,11.4080478 C58.8936827,10.8865786 59.0840095,10.1784854 59.0840095,9.28275769 M61.1995773,9.28275769 C61.1995773,9.98546098 61.0971457,10.625844 60.8926205,11.2039067 C60.6877573,11.7819695 60.3977034,12.274805 60.0224589,12.6830871 C59.6472143,13.0910323 59.1952306,13.4086973 58.6661696,13.6350715 C58.1371086,13.8617826 57.5542964,13.9753065 56.9173949,13.9753065 C56.2801553,13.9753065 55.7000475,13.8617826 55.1770716,13.6350715 C54.6537576,13.4086973 54.2044783,13.0910323 53.8292338,12.6830871 C53.4536512,12.274805 53.1608929,11.7819695 52.9502826,11.2039067 C52.7396724,10.625844 52.6345363,9.98546098 52.6345363,9.28275769 C52.6345363,8.58005439 52.7396724,7.94236631 52.9502826,7.37003031 C53.1608929,6.79803118 53.4563557,6.30755371 53.8376852,5.89960851 C54.2183387,5.49132644 54.6706605,5.1770301 55.1939745,4.95570888 C55.7172885,4.73506139 56.2916493,4.62423235 56.9173949,4.62423235 C57.5428024,4.62423235 58.1198677,4.73506139 58.6489287,4.95570888 C59.1779896,5.1770301 59.6299734,5.49132644 60.005556,5.89960851 C60.3808005,6.30755371 60.6735588,6.79803118 60.8841691,7.37003031 C61.0944412,7.94236631 61.1995773,8.58005439 61.1995773,9.28275769" id="Fill-13"></path>
                    <path d="M62.4789583,5.13424806 C62.8771908,5.02106096 63.3944198,4.91326371 64.0316593,4.81153006 C64.6685609,4.70912268 65.3737501,4.65825585 66.1475652,4.65825585 C66.8750663,4.65825585 67.483909,4.75763144 67.9727411,4.95570888 C68.4619112,5.15446005 68.8516923,5.43203796 69.1414081,5.78877946 C69.4318,6.14585784 69.6363252,6.57670996 69.7559978,7.08099895 C69.8753323,7.58528794 69.9351686,8.13808569 69.9351686,8.73871847 L69.9351686,13.737142 L67.8706475,13.737142 L67.8706475,9.06177334 C67.8706475,8.58578112 67.8388701,8.18053085 67.7766674,7.84602253 C67.7141266,7.51185106 67.611695,7.23966302 67.4697106,7.03013212 C67.3273881,6.82026436 67.1340189,6.66732702 66.8892648,6.57098323 C66.6448487,6.47463944 66.3463434,6.42646755 65.9937488,6.42646755 C65.7320918,6.42646755 65.4589408,6.44331087 65.174972,6.47733437 C64.890327,6.51135788 64.6800548,6.53999152 64.5434794,6.56256157 L64.5434794,13.737142 L62.4789583,13.737142 L62.4789583,5.13424806 Z" id="Fill-15"></path>
                    <path d="M77.5616587,9.28275769 C77.5616587,8.39848341 77.3709939,7.69881191 76.9900024,7.18306946 C76.6090109,6.66732702 76.0772455,6.40962423 75.3950441,6.40962423 C74.7121667,6.40962423 74.1807393,6.66732702 73.7994097,7.18306946 C73.4184182,7.69881191 73.2280915,8.39848341 73.2280915,9.28275769 C73.2280915,10.1784854 73.4184182,10.8865786 73.7994097,11.4080478 C74.1807393,11.9295169 74.7121667,12.1899147 75.3950441,12.1899147 C76.0772455,12.1899147 76.6090109,11.9295169 76.9900024,11.4080478 C77.3709939,10.8865786 77.5616587,10.1784854 77.5616587,9.28275769 M79.6772266,9.28275769 C79.6772266,9.98546098 79.5747949,10.625844 79.3702698,11.2039067 C79.1654065,11.7819695 78.8753527,12.274805 78.5001081,12.6830871 C78.1248636,13.0910323 77.6728799,13.4086973 77.1438189,13.6350715 C76.6147579,13.8617826 76.0319457,13.9753065 75.3950441,13.9753065 C74.7578045,13.9753065 74.1776968,13.8617826 73.6547208,13.6350715 C73.1310688,13.4086973 72.6821276,13.0910323 72.3068831,12.6830871 C71.9313005,12.274805 71.6385421,11.7819695 71.4279319,11.2039067 C71.2173217,10.625844 71.1121856,9.98546098 71.1121856,9.28275769 C71.1121856,8.58005439 71.2173217,7.94236631 71.4279319,7.37003031 C71.6385421,6.79803118 71.9340049,6.30755371 72.3153345,5.89960851 C72.695988,5.49132644 73.1483098,5.1770301 73.6716238,4.95570888 C74.1949378,4.73506139 74.7692985,4.62423235 75.3950441,4.62423235 C76.0204517,4.62423235 76.5975169,4.73506139 77.1265779,4.95570888 C77.6556389,5.1770301 78.1076226,5.49132644 78.4832052,5.89960851 C78.8584498,6.30755371 79.1512081,6.79803118 79.3618183,7.37003031 C79.5720905,7.94236631 79.6772266,8.58005439 79.6772266,9.28275769" id="Fill-17"></path>
                </g>
                <g id="Group-7" filter="url(#filter-2)">
                    <path d="M10.711406,20.0234228 C10.7049494,21.2085631 10.8741125,22.3064383 11.2194118,23.3170484 C11.5647111,24.3276586 12.0763325,25.2656319 12.7540179,26.1299596 L11.8121282,26.7498946 C11.0776247,25.8663989 10.4882657,24.8522578 10.0443095,23.7067147 C9.60009503,22.5611716 9.38186176,21.3311377 9.38909315,20.0166131 C9.39632455,18.7023407 9.62824583,17.4745768 10.0845987,16.3338257 C10.5409516,15.1928223 11.1416742,14.1847343 11.8857335,13.3090571 L12.82065,13.9388284 C12.1334089,14.7960942 11.6114569,15.7285189 11.2555688,16.7353458 C10.8991641,17.7426772 10.7178626,18.838787 10.711406,20.0234228" id="Fill-21"></path>
                    <path d="M22.7398561,16.7354467 C22.383968,15.7283675 21.862016,14.7961951 21.1747749,13.9386771 L22.1099497,13.309158 C22.8540089,14.1848352 23.4544733,15.1929232 23.9108262,16.3336743 C24.3674373,17.4746777 24.5991004,18.7021894 24.60659,20.016714 C24.6135632,21.3312386 24.3953299,22.5612725 23.9511154,23.7068156 C23.5074174,24.8521065 22.9178002,25.8664998 22.183555,26.7499955 L21.2416653,26.1300605 C21.9193507,25.2654806 22.4309721,24.3277595 22.7760131,23.3171493 C23.1213124,22.306287 23.2904755,21.2084118 23.2840189,20.0235237 C23.2775623,18.8386356 23.0962608,17.7427781 22.7398561,16.7354467" id="Fill-27"></path>
                    <path d="M6.43452449,11.0054108 C5.98566125,11.113105 5.42703571,11.1448836 4.7583896,11.1009988 C4.17910293,11.0629149 3.67936163,10.9322696 3.25839093,10.7088105 C2.83767849,10.4853514 2.49470359,10.1862289 2.22972449,9.81119092 C1.96448712,9.43640513 1.77672902,8.99554001 1.66645019,8.48884778 C1.55565483,7.98240775 1.52130569,7.42678655 1.56288623,6.82223639 C1.6057581,6.19826596 1.72688402,5.64062707 1.92626401,5.14931972 C2.125644,4.65801237 2.39191443,4.24716038 2.72559182,3.91651154 C3.05901094,3.5858627 3.45183084,3.34247892 3.90430978,3.18585579 C4.35601393,3.02948487 4.85653001,2.96945861 5.40559978,3.0052726 C5.66515533,3.02242295 5.92083692,3.06101126 6.17238629,3.12154194 C6.42393565,3.18232483 6.65456561,3.25395281 6.8647927,3.33617365 C7.05642476,3.41133257 7.22713742,3.48523044 7.38157943,3.55786726 C6.92471,4.76999413 6.68968955,6.06762058 6.68219989,7.45301651 C6.67574328,8.63286035 6.83586711,9.75015582 7.15637302,10.807425 C6.95983394,10.8704778 6.72248911,10.9363049 6.43452449,11.0054108 M8.15146512,7.46058285 C8.15869651,6.14429277 8.36014262,4.92636505 8.75580342,3.8073041 C9.1517225,2.68824316 9.7315257,1.6524119 10.495213,0.699810323 L9.45621603,0.000176547817 C8.84490459,0.719482794 8.32191951,1.52050546 7.88519469,2.40097464 C7.74676506,2.32934667 7.57940984,2.25570101 7.38054638,2.18003766 C7.13106313,2.08545847 6.83638363,1.99768899 6.49624964,1.91622478 C6.15559911,1.83526499 5.7707854,1.78053517 5.34155025,1.75228752 C4.66257357,1.70789836 4.01562167,1.78280507 3.40069452,1.97751209 C2.78550912,2.17247132 2.23798894,2.4791601 1.75787573,2.89808285 C1.27776252,3.3170056 0.88261824,3.84690126 0.572959423,4.48751762 C0.263042341,5.12813398 0.0788999422,5.87266135 0.0207904895,6.7208475 C-0.0378354917,7.56903365 0.0275053596,8.32995474 0.217071308,9.00335855 C0.406120727,9.67676237 0.700025426,10.252056 1.09852714,10.7284829 C1.49677059,11.205162 1.9877309,11.5802 2.57063328,11.8535969 C3.15353565,12.1267416 3.80901028,12.2871479 4.53809021,12.3350681 C4.95725307,12.3628113 5.34826512,12.3638201 5.71112637,12.3388512 C6.07372935,12.3133779 6.39216915,12.2755462 6.66644577,12.225104 C6.94072239,12.1746618 7.17031929,12.1186709 7.35471995,12.0573836 C7.44769508,12.0266138 7.5262074,11.9981139 7.59103173,11.9716318 C8.06081437,13.0715247 8.65043162,14.0634712 9.37460453,14.9343563 L10.4210912,14.2455676 C9.6679927,13.2848953 9.09955312,12.243011 8.71577247,11.1201669 C8.33250834,9.99707055 8.14423372,8.77737735 8.15146512,7.46058285" id="Fill-19"></path>
                    <polygon id="Fill-23" points="17.336865 14.7897889 18.9412025 17.5358641 18.3291162 17.8425529 16.9977641 15.565086 15.6661537 17.8425529 15.0543257 17.5358641 16.6586632 14.7897889"></polygon>
                    <path d="M26.8390519,10.8075007 C27.1598161,9.75023148 27.3196816,8.6326838 27.313225,7.45283997 C27.3057354,6.06769624 27.0707149,4.77006979 26.6138455,3.55794292 C26.7682875,3.48530611 26.9390002,3.41140824 27.1308905,3.3359971 C27.3411176,3.25402847 27.5714893,3.1824005 27.8230386,3.12161761 C28.074588,3.06108693 28.3302696,3.02224641 28.5898251,3.00534826 C29.1388949,2.96928206 29.639411,3.02956053 30.0913734,3.18593145 C30.5435941,3.34230238 30.936414,3.58593836 31.2698331,3.91633499 C31.6035105,4.24698383 31.8697809,4.65808803 32.0691609,5.14914317 C32.2685409,5.64070274 32.3896668,6.19834163 32.4327969,6.82205984 C32.4741192,7.42686222 32.4397701,7.98223121 32.329233,8.48892344 C32.2189542,8.99561567 32.0309378,9.43648079 31.7659587,9.81126658 C31.5007213,10.1863046 31.1580047,10.485427 30.7372922,10.7086339 C30.3163215,10.9323452 29.816322,11.0629906 29.2372936,11.1010745 C28.5686475,11.1449592 28.0097637,11.1131806 27.5609004,11.0054865 C27.2729358,10.9361284 27.0358492,10.8705535 26.8390519,10.8075007 M25.2796524,11.1199903 C24.8961301,12.2430867 24.3276905,13.284971 23.5743337,14.2453911 L24.6210786,14.9341798 C25.3452516,14.0635468 25.9348688,13.0716003 26.4046515,11.9714552 C26.4692175,11.9979374 26.5479881,12.0264373 26.640705,12.0574592 C26.8251056,12.1187465 27.0547025,12.1747374 27.3289791,12.2251797 C27.6032558,12.2753697 27.9216956,12.3134536 28.2842985,12.3386747 C28.6471598,12.3636436 29.0381718,12.362887 29.457593,12.3351437 C30.1864146,12.2872236 30.8421475,12.1268173 31.4250499,11.8534204 C32.0079523,11.5800235 32.4989126,11.2052377 32.8968978,10.7285586 C33.2953995,10.2521317 33.5895625,9.67683803 33.7786119,9.00343422 C33.9679196,8.32977819 34.0332604,7.56910931 33.9748927,6.72092316 C33.916525,5.87273701 33.7323826,5.12820965 33.4224655,4.48759328 C33.1128067,3.84697692 32.7179207,3.31708126 32.2378074,2.89815851 C31.757436,2.47923577 31.2099158,2.17229478 30.5947304,1.97758776 C29.9798032,1.78288074 29.3331096,1.70797402 28.6541329,1.75236318 C28.2248978,1.78061083 27.8398258,1.83534066 27.4994335,1.91630044 C27.1590413,1.99751244 26.8643618,2.08553413 26.6151368,2.17986111 C26.4160151,2.25577667 26.2489181,2.32917012 26.1102302,2.40079809 C25.6735054,1.52058112 25.1507786,0.719306247 24.5394672,3.19744231e-14 L23.5004701,0.699633776 C24.2638992,1.65223535 24.8439607,2.68831882 25.2396215,3.80737977 C25.6352823,4.92644071 25.8369867,6.14411622 25.8439598,7.4604063 C25.8511912,8.7772008 25.6631748,9.99714621 25.2796524,11.1199903" id="Fill-25"></path>
                </g>
            </g>
        </g>
    </g>
</svg>