<?xml version="1.0" encoding="UTF-8"?>
<svg width="360px" height="318px" viewBox="0 0 360 318" version="1.1" xmlns="http://www.w3.org/2000/svg" xmlns:xlink="http://www.w3.org/1999/xlink">
    <!-- Generator: Sketch 53.1 (72631) - https://sketchapp.com -->
    <title>LogoPM/VerdeBlur</title>
    <desc>Created with Sketch.</desc>
    <defs>
        <filter x="-3.2%" y="-3.7%" width="106.4%" height="107.3%" filterUnits="objectBoundingBox" id="filter-1">
            <feOffset dx="0" dy="0" in="SourceAlpha" result="shadowOffsetOuter1"></feOffset>
            <feGaussianBlur stdDeviation="2.5" in="shadowOffsetOuter1" result="shadowBlurOuter1"></feGaussianBlur>
            <feColorMatrix values="0 0 0 0 0   0 0 0 0 0.901960784   0 0 0 0 0.462745098  0 0 0 1 0" type="matrix" in="shadowBlurOuter1" result="shadowMatrixOuter1"></feColorMatrix>
            <feMerge>
                <feMergeNode in="shadowMatrixOuter1"></feMergeNode>
                <feMergeNode in="SourceGraphic"></feMergeNode>
            </feMerge>
        </filter>
    </defs>
    <g id="LogoPM/VerdeBlur" stroke="none" stroke-width="1" fill="none" fill-rule="evenodd">
        <g id="Group" filter="url(#filter-1)" transform="translate(15.919165, 15.918941)" fill="#abffab">
            <path d="M14.3543072,183.821978 C12.1136146,183.821978 10.2697257,183.89322 8.82264058,184.037129 L8.82264058,201.009792 L13.0945246,201.009792 C17.3414349,201.009792 20.6088226,200.397112 22.8980752,199.174601 C25.1845529,197.952091 26.3291792,195.63958 26.3291792,192.235643 C26.3291792,190.605629 26.0239455,189.23921 25.4176404,188.136386 C24.8113354,187.033562 23.9719428,186.171535 22.8980752,185.547456 C21.8228202,184.924802 20.5519382,184.481678 19.0812669,184.216658 C17.6105955,183.954488 16.0344798,183.821978 14.3543072,183.821978 M13.7230285,175.983948 C20.7725389,175.983948 26.1765623,177.301922 29.9350988,179.937871 C33.6922478,182.575245 35.5722098,186.698725 35.5722098,192.30831 C35.5722098,195.232076 35.0699616,197.73694 34.0654654,199.821477 C33.0609691,201.907439 31.6027846,203.61012 29.6895244,204.928095 C27.7748768,206.247494 25.4412267,207.217808 22.6871865,207.840462 C19.9317589,208.464541 16.7809149,208.775156 13.2346546,208.775156 L8.82264058,208.775156 L8.82264058,226.322028 L-3.01980663e-14,226.322028 L-3.01980663e-14,177.206458 C2.05339017,176.727713 4.32876846,176.40285 6.8275223,176.234719 C9.32350129,176.068013 11.6238532,175.983948 13.7230285,175.983948" id="Fill-1"></path>
            <path d="M51.3953846,220.208906 C54.0092948,220.208906 55.9933137,220.064997 57.3474413,219.77718 L57.3474413,210.141005 C56.8812662,209.997096 56.202815,209.853188 55.3176373,209.709279 C54.4296848,209.566795 53.4487748,209.494129 52.3762947,209.494129 C51.4411697,209.494129 50.4963327,209.566795 49.5403964,209.709279 C48.5830726,209.853188 47.7200937,210.118207 46.9500724,210.501489 C46.1786637,210.886195 45.5598718,211.424783 45.0936967,212.118679 C44.6261342,212.815424 44.3930467,213.690275 44.3930467,214.74323 C44.3930467,216.804969 45.0243254,218.231231 46.284108,219.022016 C47.5438907,219.814226 49.2476495,220.208906 51.3953846,220.208906 M50.696122,187.776757 C53.4959473,187.776757 55.8531837,188.135816 57.7678313,188.855359 C59.6810914,189.574902 61.2100347,190.582262 62.3532735,191.876014 C63.4978998,193.169766 64.3150936,194.741362 64.8062423,196.585102 C65.2960036,198.431691 65.5401905,200.45781 65.5401905,202.663458 L65.5401905,225.459432 C64.2332355,225.745824 62.2617034,226.094909 59.624207,226.500988 C56.9853231,226.908491 54.0092948,227.112243 50.696122,227.112243 C48.5012144,227.112243 46.4949968,226.897093 44.6733067,226.465367 C42.8530041,226.033641 41.3004746,225.339745 40.0171058,224.379405 C38.7323495,223.421914 37.7292406,222.175181 37.0063918,220.640632 C36.2821555,219.107506 35.9200374,217.212473 35.9200374,214.959805 C35.9200374,212.802601 36.329328,210.980234 37.1465218,209.494129 C37.9623282,208.008023 39.0722688,206.796911 40.4721814,205.862218 C41.872094,204.927525 43.4939948,204.257851 45.3378837,203.848923 C47.1817725,203.442844 49.1089069,203.237667 51.1151246,203.237667 C52.0488622,203.237667 53.0297722,203.298935 54.0564673,203.417197 C55.0831624,203.538308 56.1806162,203.740635 57.3474413,204.028452 L57.3474413,202.590791 C57.3474413,201.583431 57.2308975,200.625941 56.99781,199.714045 C56.7647224,198.803573 56.3554318,198.00139 55.772713,197.304645 C55.1872193,196.610749 54.4185854,196.07216 53.4612616,195.687454 C52.5039378,195.304173 51.3010397,195.11182 49.855342,195.11182 C47.8949094,195.11182 46.0968056,195.255728 44.4638054,195.543545 C42.8294178,195.831363 41.4988765,196.166199 40.4721814,196.550906 L39.4219001,189.50366 C40.4957677,189.120378 42.0580091,188.737097 44.1127867,188.352391 C46.1675643,187.96911 48.359697,187.776757 50.696122,187.776757" id="Fill-3"></path>
            <path d="M96.7008025,207.696411 C96.7008025,203.813729 95.8489231,200.793074 94.1451642,198.63587 C92.4414054,196.477241 89.699852,195.400064 85.9177293,195.400064 C85.1227343,195.400064 84.2944411,195.435685 83.4314623,195.506927 C82.567096,195.579594 81.716604,195.734901 80.875824,195.974274 L80.875824,217.476495 C81.6208716,218.003685 82.6142685,218.495254 83.8518523,218.949777 C85.0880487,219.40715 86.408878,219.633699 87.8087907,219.633699 C90.8888759,219.633699 93.140668,218.555097 94.5655542,216.397893 C95.9890531,214.240689 96.7008025,211.33972 96.7008025,207.696411 M105.383313,207.552503 C105.383313,210.429249 105.022582,213.066623 104.298346,215.4632 C103.575497,217.859776 102.536315,219.921516 101.182188,221.646994 C99.8280603,223.372472 98.1367882,224.716094 96.1055969,225.67501 C94.0744055,226.6325 91.775441,227.11267 89.2087033,227.11267 C87.4813582,227.11267 85.8927556,226.89752 84.447058,226.465794 C82.9999729,226.034069 81.8095616,225.555323 80.875824,225.026709 L80.875824,239.625593 L72.4028147,239.625593 L72.4028147,189.934388 C74.1287724,189.455643 76.2543087,188.999695 78.7752614,188.567969 C81.2948266,188.136243 83.9572967,187.921093 86.7571219,187.921093 C89.6512921,187.921093 92.2430035,188.377041 94.5308686,189.287512 C96.8159589,190.197983 98.7666795,191.504559 100.377481,193.20724 C101.988282,194.908495 103.224479,196.970235 104.088845,199.391034 C104.951824,201.811833 105.383313,204.531847 105.383313,207.552503" id="Fill-5"></path>
            <path d="M133.392387,173.322779 L121.978035,184.684432 L117.77691,180.80175 L128.070222,168.217586 L133.392387,173.322779 Z M123.518078,220.208478 C126.131988,220.208478 128.116007,220.065995 129.470135,219.778177 L129.470135,210.140577 C129.00396,209.998093 128.326896,209.854185 127.438943,209.710276 C126.552378,209.566368 125.572856,209.493701 124.498988,209.493701 C123.565251,209.493701 122.619026,209.566368 121.66309,209.710276 C120.705766,209.854185 119.842787,210.11778 119.072766,210.501061 C118.302745,210.885767 117.682565,211.424356 117.21639,212.119676 C116.748828,212.814997 116.51574,213.689847 116.51574,214.742802 C116.51574,216.805967 117.147019,218.230804 118.406801,219.023014 C119.666584,219.813798 121.370343,220.208478 123.518078,220.208478 L123.518078,220.208478 Z M122.818815,187.776329 C125.618641,187.776329 127.975877,188.135388 129.891912,188.854931 C131.803785,189.574474 133.332728,190.581834 134.477354,191.875587 C135.620593,193.170764 136.437787,194.740935 136.927548,196.586099 C137.418697,198.432688 137.664271,200.457382 137.664271,202.663031 L137.664271,225.459004 C136.355929,225.745396 134.383009,226.094482 131.7469,226.50056 C129.109404,226.908064 126.131988,227.111816 122.818815,227.111816 C120.623908,227.111816 118.61769,226.896665 116.797388,226.464939 C114.975698,226.033214 113.423168,225.339318 112.139799,224.378977 C110.855043,223.421487 109.851934,222.176179 109.129085,220.640204 C108.404849,219.107079 108.042731,217.21347 108.042731,214.959377 C108.042731,212.802174 108.452021,210.981231 109.269215,209.493701 C110.085022,208.00902 111.194962,206.797909 112.594875,205.861791 C113.996175,204.927097 115.616688,204.257424 117.461965,203.848495 C119.305853,203.442417 121.230213,203.23724 123.237818,203.23724 C124.171556,203.23724 125.152466,203.298508 126.179161,203.418194 C127.205856,203.537881 128.30331,203.741632 129.470135,204.028025 L129.470135,202.590364 C129.470135,201.583004 129.353591,200.625513 129.120503,199.713617 C128.886028,198.803146 128.478125,198.000963 127.895406,197.305642 C127.309913,196.610321 126.541279,196.071733 125.583955,195.687027 C124.626631,195.303745 123.423733,195.111392 121.978035,195.111392 C120.017603,195.111392 118.219499,195.256726 116.586499,195.543118 C114.950724,195.830935 113.62157,196.167197 112.594875,196.550478 L111.544594,189.503232 C112.618461,189.119951 114.180703,188.73667 116.23548,188.351964 C118.290258,187.968682 120.483778,187.776329 122.818815,187.776329 L122.818815,187.776329 Z" id="Fill-7"></path>
            <path d="M154.049354,221.575325 C154.049354,223.253783 153.499933,224.620202 152.403867,225.674582 C151.306413,226.728962 149.986971,227.256152 148.446928,227.256152 C146.859713,227.256152 145.529172,226.728962 144.455304,225.674582 C143.381437,224.620202 142.845891,223.253783 142.845891,221.575325 C142.845891,219.896866 143.381437,218.519049 144.455304,217.440447 C145.529172,216.361845 146.859713,215.821831 148.446928,215.821831 C149.986971,215.821831 151.306413,216.361845 152.403867,217.440447 C153.499933,218.519049 154.049354,219.896866 154.049354,221.575325" id="Fill-9"></path>
            <path d="M170.678762,176.486915 C171.705457,178.309282 172.848696,180.539153 174.109866,183.173677 C175.371036,185.811051 176.654405,188.57951 177.96136,191.480479 C179.266927,194.381448 180.562783,197.329437 181.847539,200.324445 C183.130908,203.322303 184.308833,206.090762 185.384088,208.631247 C186.456568,206.090762 187.62478,203.322303 188.884563,200.324445 C190.145733,197.329437 191.429102,194.381448 192.736057,191.480479 C194.043012,188.57951 195.327768,185.811051 196.587551,183.173677 C197.847334,180.539153 198.99196,178.309282 200.017267,176.486915 L207.967217,176.486915 C208.395932,180.130224 208.799673,184.001508 209.179827,188.100765 C209.559982,192.200022 209.905451,196.394743 210.21346,200.684929 C210.522856,204.976539 210.807278,209.290947 211.069501,213.628152 C211.330337,217.968206 211.556488,222.198549 211.747952,226.322028 L203.064054,226.322028 C202.873977,220.521515 202.647827,214.552871 202.386991,208.416097 C202.124767,202.279322 201.732126,196.333475 201.209066,190.581407 C200.694331,191.685656 200.088026,193.002205 199.388764,194.536755 C198.688114,196.071305 197.940291,197.73694 197.148071,199.53366 C196.353076,201.331805 195.548369,203.191218 194.731175,205.107624 C193.913981,207.025455 193.121761,208.882018 192.350353,210.680163 C191.580331,212.478308 190.868582,214.156766 190.216492,215.714114 C189.560239,217.272886 189.001107,218.603684 188.534932,219.706508 L181.951596,219.706508 C181.485421,218.603684 180.924901,217.261487 180.272811,215.678493 C179.617946,214.096923 178.906197,212.407066 178.136175,210.608921 C177.366154,208.810776 176.571159,206.952789 175.755353,205.034957 C174.938159,203.118551 174.133452,201.273387 173.339844,199.498039 C172.544849,197.725541 171.799802,196.058482 171.099152,194.501134 C170.398502,192.943787 169.790809,191.635786 169.278849,190.581407 C168.754402,196.333475 168.361761,202.279322 168.099537,208.416097 C167.838701,214.552871 167.613938,220.521515 167.422473,226.322028 L158.739963,226.322028 C158.93004,222.198549 159.156191,217.932586 159.417027,213.521289 C159.677863,209.111417 159.963672,204.737166 160.273068,200.397112 C160.581077,196.058482 160.925158,191.852362 161.306701,187.775902 C161.686855,183.702292 162.090596,179.937871 162.519311,176.486915 L170.678762,176.486915 Z" id="Fill-11"></path>
            <path d="M242.486926,207.480691 C242.486926,203.740493 241.705805,200.781105 240.140789,198.599679 C238.57716,196.418253 236.394739,195.328253 233.594914,195.328253 C230.792314,195.328253 228.61128,196.418253 227.047652,198.599679 C225.482635,200.781105 224.701515,203.740493 224.701515,207.480691 C224.701515,211.269333 225.482635,214.264342 227.047652,216.46999 C228.61128,218.675638 230.792314,219.777038 233.594914,219.777038 C236.394739,219.777038 238.57716,218.675638 240.140789,216.46999 C241.705805,214.264342 242.486926,211.269333 242.486926,207.480691 M251.169436,207.480691 C251.169436,210.452902 250.749046,213.161518 249.909654,215.606538 C249.068874,218.051559 247.878462,220.136097 246.33842,221.863 C244.798377,223.588478 242.943389,224.932099 240.772067,225.88959 C238.600746,226.848506 236.208824,227.328676 233.594914,227.328676 C230.979616,227.328676 228.598794,226.848506 226.452446,225.88959 C224.304711,224.932099 222.460822,223.588478 220.920779,221.863 C219.379349,220.136097 218.177839,218.051559 217.313472,215.606538 C216.449106,213.161518 216.017617,210.452902 216.017617,207.480691 C216.017617,204.50848 216.449106,201.811263 217.313472,199.390464 C218.177839,196.97109 219.390449,194.896527 220.955465,193.171049 C222.517706,191.444146 224.374082,190.114772 226.521817,189.178654 C228.669552,188.245386 231.026789,187.776614 233.594914,187.776614 C236.161652,187.776614 238.529987,188.245386 240.701309,189.178654 C242.87263,190.114772 244.727618,191.444146 246.269048,193.171049 C247.809091,194.896527 249.010602,196.97109 249.874968,199.390464 C250.737947,201.811263 251.169436,204.50848 251.169436,207.480691" id="Fill-13"></path>
            <path d="M256.420149,189.933818 C258.054537,189.455073 260.177298,188.999125 262.792596,188.568824 C265.406506,188.135673 268.300676,187.920523 271.476494,187.920523 C274.462234,187.920523 276.960988,188.34085 278.967206,189.178654 C280.974811,190.019308 282.574513,191.193374 283.763537,192.702277 C284.955335,194.212605 285.794728,196.034972 286.285877,198.167953 C286.775638,200.300935 287.021212,202.639093 287.021212,205.179578 L287.021212,226.321316 L278.548203,226.321316 L278.548203,206.545997 C278.548203,204.532702 278.417785,202.818623 278.162499,201.403759 C277.905825,199.990321 277.485435,198.839052 276.902716,197.952803 C276.31861,197.065129 275.525002,196.418253 274.520506,196.01075 C273.517397,195.603246 272.2923,195.399494 270.845215,195.399494 C269.771348,195.399494 268.650308,195.470736 267.48487,195.614645 C266.316657,195.758553 265.453679,195.879665 264.893159,195.975129 L264.893159,226.321316 L256.420149,226.321316 L256.420149,189.933818 Z" id="Fill-15"></path>
            <path d="M318.321122,207.480691 C318.321122,203.740493 317.538614,200.781105 315.974985,198.599679 C314.411356,196.418253 312.228935,195.328253 309.42911,195.328253 C306.62651,195.328253 304.445477,196.418253 302.88046,198.599679 C301.316831,200.781105 300.535711,203.740493 300.535711,207.480691 C300.535711,211.269333 301.316831,214.264342 302.88046,216.46999 C304.445477,218.675638 306.62651,219.777038 309.42911,219.777038 C312.228935,219.777038 314.411356,218.675638 315.974985,216.46999 C317.538614,214.264342 318.321122,211.269333 318.321122,207.480691 M327.003633,207.480691 C327.003633,210.452902 326.583243,213.161518 325.74385,215.606538 C324.90307,218.051559 323.712659,220.136097 322.172616,221.863 C320.632573,223.588478 318.777585,224.932099 316.606264,225.88959 C314.434942,226.848506 312.04302,227.328676 309.42911,227.328676 C306.813812,227.328676 304.43299,226.848506 302.286642,225.88959 C300.13752,224.932099 298.295018,223.588478 296.754976,221.863 C295.213545,220.136097 294.012035,218.051559 293.147668,215.606538 C292.283302,213.161518 291.851813,210.452902 291.851813,207.480691 C291.851813,204.50848 292.283302,201.811263 293.147668,199.390464 C294.012035,196.97109 295.224645,194.896527 296.789661,193.171049 C298.351903,191.444146 300.208278,190.114772 302.356013,189.178654 C304.503749,188.245386 306.860985,187.776614 309.42911,187.776614 C311.995848,187.776614 314.364184,188.245386 316.535505,189.178654 C318.706826,190.114772 320.561815,191.444146 322.103245,193.171049 C323.643287,194.896527 324.844798,196.97109 325.709164,199.390464 C326.572143,201.811263 327.003633,204.50848 327.003633,207.480691" id="Fill-17"></path>
            <path d="M129.730832,113.119979 C129.696146,119.81529 130.60491,126.017607 132.459899,131.72693 C134.314887,137.436254 137.063377,142.735224 140.703983,147.618142 L135.644041,151.120392 C131.698202,146.129187 128.532096,140.399916 126.147111,133.928304 C123.760739,127.456693 122.588364,120.507761 122.627212,113.081508 C122.66606,105.65668 123.911968,98.720572 126.36355,92.2760324 C128.815131,85.830068 132.042283,80.1349929 136.039457,75.1879574 L141.061938,78.7457764 C137.369998,83.5887987 134.566011,88.8564226 132.654138,94.5443735 C130.739491,100.235174 129.765518,106.427517 129.730832,113.119979" id="Fill-21"></path>
            <path d="M194.349078,94.5449435 C192.437205,88.8555677 189.633218,83.5893687 185.941278,78.7449215 L190.965147,75.1885273 C194.96232,80.1355628 198.188085,85.8306379 200.639667,92.2751775 C203.092635,98.7211419 204.337156,105.655826 204.377392,113.082078 C204.414852,120.508331 203.242477,127.457263 200.856105,133.928874 C198.472508,140.399061 195.305015,146.129757 191.360563,151.120962 L186.300621,147.618712 C189.941226,142.734369 192.689717,137.436824 194.543318,131.7275 C196.398306,126.016752 197.30707,119.814435 197.272384,113.120549 C197.237699,106.426663 196.263726,100.235744 194.349078,94.5449435" id="Fill-27"></path>
            <polygon id="Fill-29" points="74.3360538 251.385631 81.1594138 251.385631 81.1594138 253.121083 76.4296793 253.121083 76.4296793 283.233596 81.1594138 283.233596 81.1594138 284.967623 74.3360538 284.967623"></polygon>
            <path d="M91.2934493,276.954053 C92.5546193,276.954053 93.5965761,276.740327 94.4179321,276.312876 C95.2406756,275.885425 95.6513537,275.161607 95.6513537,274.144273 C95.6513537,273.658404 95.5778201,273.242351 95.4321404,272.894691 C95.2850733,272.548456 95.0436612,272.236416 94.7051293,271.958573 C94.3679848,271.68073 93.9226211,271.41571 93.3718131,271.160664 C92.8196176,270.905618 92.1383916,270.604977 91.3281349,270.258742 C90.6732699,269.980899 90.054478,269.698781 89.4689844,269.409539 C88.8834907,269.118872 88.3659809,268.784035 87.9150675,268.402179 C87.4655415,268.020322 87.1048108,267.564374 86.8356502,267.031485 C86.5637148,266.500021 86.4291345,265.85172 86.4291345,265.089432 C86.4291345,263.631823 86.9632934,262.452058 88.0329987,261.550136 C89.102704,260.649638 90.5719879,260.197965 92.4422378,260.197965 C93.635424,260.197965 94.6218837,260.301978 95.3974547,260.510004 C96.1758006,260.718031 96.7210589,260.903259 97.037392,261.065691 L96.5295942,263.077561 C96.2590462,262.937927 95.8025831,262.754123 95.1615924,262.521875 C94.5192142,262.291051 93.5785395,262.174214 92.3409557,262.174214 C91.8456447,262.174214 91.3794697,262.228358 90.9396557,262.332371 C90.4998417,262.436384 90.1113625,262.598816 89.7728306,262.818241 C89.4370736,263.039091 89.1651381,263.316934 88.9625739,263.653196 C88.7600098,263.989457 88.6587277,264.39981 88.6587277,264.88568 C88.6587277,265.374399 88.7489104,265.790452 88.9292757,266.138112 C89.1096411,266.485772 89.373252,266.793537 89.7228833,267.059982 C90.0725146,267.326426 90.4998417,267.574348 91.0062521,267.805172 C91.51405,268.034571 92.0926065,268.288192 92.7460841,268.56461 C93.4217604,268.841029 94.0683008,269.123146 94.6884802,269.410964 C95.3086595,269.698781 95.8539178,270.045016 96.32703,270.44967 C96.8001422,270.854324 97.1830717,271.340193 97.4758186,271.907279 C97.7685654,272.472939 97.9142451,273.183933 97.9142451,274.04026 C97.9142451,275.658876 97.3245892,276.884236 96.141115,277.717766 C94.9590282,278.549871 93.3426772,278.965923 91.2934493,278.965923 C89.7617312,278.965923 88.5921313,278.831988 87.7804872,278.566969 C86.9702305,278.301949 86.4291345,278.098197 86.1585864,277.959988 L86.7329807,275.913921 C86.8009646,275.959516 86.9466443,276.035033 87.1714073,276.139046 C87.3961702,276.243059 87.7014039,276.359896 88.0843334,276.485281 C88.4672629,276.613517 88.923726,276.723229 89.4523352,276.815844 C89.9809445,276.908458 90.5955741,276.954053 91.2934493,276.954053" id="Fill-31"></path>
            <path d="M118.116552,269.5989 C118.116552,267.356206 117.610142,265.569459 116.595933,264.240086 C115.581725,262.909288 114.208174,262.243889 112.473891,262.243889 C110.739609,262.243889 109.367445,262.909288 108.353237,264.240086 C107.339029,265.569459 106.832618,267.356206 106.832618,269.5989 C106.832618,271.843019 107.339029,273.624065 108.353237,274.94204 C109.367445,276.260014 110.739609,276.919714 112.473891,276.919714 C114.208174,276.919714 115.581725,276.260014 116.595933,274.94204 C117.610142,273.624065 118.116552,271.843019 118.116552,269.5989 M120.447427,269.5989 C120.447427,271.010913 120.250413,272.294692 119.854997,273.450235 C119.462355,274.607203 118.91016,275.590341 118.201185,276.398224 C117.49221,277.208956 116.65143,277.838734 115.684395,278.290408 C114.715971,278.740656 113.646266,278.965781 112.473891,278.965781 C111.302904,278.965781 110.233199,278.740656 109.264775,278.290408 C108.296352,277.838734 107.45696,277.208956 106.749373,276.398224 C106.039011,275.590341 105.486815,274.607203 105.092786,273.450235 C104.700145,272.294692 104.501743,271.010913 104.501743,269.5989 C104.501743,268.189735 104.700145,266.904532 105.092786,265.748989 C105.486815,264.592021 106.039011,263.603184 106.749373,262.782477 C107.45696,261.961771 108.296352,261.324869 109.264775,260.873195 C110.233199,260.422947 111.302904,260.197822 112.473891,260.197822 C113.646266,260.197822 114.715971,260.422947 115.684395,260.873195 C116.65143,261.324869 117.49221,261.961771 118.201185,262.782477 C118.91016,263.603184 119.462355,264.592021 119.854997,265.748989 C120.250413,266.904532 120.447427,268.189735 120.447427,269.5989" id="Fill-33"></path>
            <path d="M135.00749,251.628423 C135.953714,251.628423 136.723735,251.703939 137.320329,251.853547 C137.916922,252.00458 138.305401,252.13709 138.485766,252.252502 L138.04734,254.19598 C137.79899,254.080568 137.434097,253.959457 136.949886,253.831221 C136.464287,253.704411 135.851045,253.641718 135.108772,253.641718 C133.554855,253.641718 132.444914,254.046372 131.780337,254.85568 C131.11576,255.664987 130.784166,256.960164 130.784166,258.741211 L130.784166,260.613448 L137.81009,260.613448 L137.81009,262.52273 L130.784166,262.52273 L130.784166,278.550726 L128.587871,278.550726 L128.587871,258.671394 C128.587871,256.336086 129.112318,254.577836 130.158437,253.398071 C131.205943,252.218306 132.822294,251.628423 135.00749,251.628423" id="Fill-35"></path>
            <path d="M146.72874,260.61359 L153.688068,260.61359 L153.688068,262.521447 L146.72874,262.521447 L146.72874,272.062159 C146.72874,273.080917 146.813373,273.907323 146.982639,274.5428 C147.151905,275.179703 147.393317,275.669847 147.708263,276.017507 C148.024596,276.363743 148.406138,276.595991 148.857051,276.711403 C149.307965,276.826815 149.801888,276.883808 150.342984,276.883808 C151.26701,276.883808 152.01067,276.775521 152.572578,276.554671 C153.135873,276.335246 153.575687,276.132919 153.890632,275.94769 L154.431728,277.821351 C154.115395,278.029378 153.5632,278.267325 152.775142,278.532345 C151.987084,278.79879 151.131042,278.9313 150.208404,278.9313 C149.1276,278.9313 148.22161,278.785966 147.48905,278.498149 C146.756489,278.208907 146.172383,277.770057 145.732569,277.17875 C145.292755,276.590292 144.983359,275.856501 144.802993,274.977376 C144.622628,274.098251 144.532445,273.056695 144.532445,271.854132 L144.532445,255.340267 L146.72874,254.924214 L146.72874,260.61359 Z" id="Fill-37"></path>
            <path d="M172.389458,260.61359 C172.592022,261.770558 172.855633,263.001617 173.18029,264.308193 C173.506336,265.614769 173.864291,266.944143 174.256933,268.296313 C174.648187,269.648484 175.065802,270.983557 175.505616,272.302956 C175.946817,273.622355 176.392181,274.860539 176.844482,276.017507 C177.228799,275.139807 177.635315,274.071179 178.065417,272.811623 C178.494131,271.552067 178.922846,270.224118 179.354335,268.824928 C179.78305,267.428587 180.184016,266.016573 180.555846,264.591736 C180.929063,263.166899 181.238459,261.8418 181.488196,260.61359 L183.651193,260.61359 C182.838161,264.137213 181.951596,267.353071 180.991498,270.265439 C180.030012,273.177806 178.974181,275.939141 177.82123,278.549443 L175.784489,278.549443 C175.443182,277.733011 175.085226,276.821115 174.710621,275.816605 C174.336016,274.812095 173.950312,273.736342 173.553508,272.593623 C173.156704,271.449478 172.772387,270.248341 172.401945,268.988784 C172.030114,267.729228 171.676321,266.441175 171.337789,265.124625 C171.002032,266.444025 170.648238,267.736352 170.279183,268.997333 C169.90874,270.261164 169.525811,271.463727 169.130395,272.607871 C168.736366,273.752016 168.352049,274.827768 167.978831,275.833703 C167.605614,276.839638 167.25182,277.74441 166.916063,278.549443 L164.805788,278.549443 C163.650063,275.937716 162.592844,273.174957 161.638295,270.261164 C160.680972,267.347372 159.798569,264.130089 158.991087,260.61359 L161.321962,260.61359 C161.571699,261.83895 161.882482,263.162624 162.254312,264.584612 C162.62753,266.0066 163.029883,267.417189 163.458598,268.814954 C163.890087,270.214144 164.324352,271.539243 164.764166,272.788826 C165.20398,274.038408 165.617432,275.102762 166.000362,275.983311 C166.431851,274.832042 166.864728,273.595284 167.297605,272.275884 C167.730482,270.953635 168.136998,269.622837 168.51854,268.28064 C168.898694,266.938443 169.258038,265.614769 169.593795,264.306769 C169.928164,263.000193 170.230623,261.769133 170.498396,260.61359 L172.389458,260.61359 Z" id="Fill-39"></path>
            <path d="M196.184226,276.919999 C197.040268,276.919999 197.78809,276.890078 198.430469,276.833084 C199.072847,276.774666 199.618105,276.700574 200.069018,276.606535 L200.069018,270.29308 C199.820669,270.177669 199.42664,270.056557 198.886932,269.928322 C198.347223,269.801512 197.602175,269.737394 196.657338,269.737394 C196.11763,269.737394 195.552947,269.778714 194.968841,269.858505 C194.383348,269.941146 193.842251,270.114976 193.34694,270.379995 C192.851629,270.64644 192.445114,271.011198 192.130168,271.472846 C191.815222,271.935918 191.657056,272.548598 191.657056,273.310886 C191.657056,273.981984 191.763888,274.54907 191.978939,275.010717 C192.192602,275.473789 192.496448,275.844247 192.890477,276.120665 C193.284506,276.398509 193.756231,276.60226 194.309814,276.729071 C194.862009,276.855881 195.486351,276.919999 196.184226,276.919999 M195.981662,260.198107 C197.130451,260.198107 198.104424,260.364813 198.903581,260.701075 C199.702738,261.037337 200.350666,261.498984 200.845977,262.087442 C201.341288,262.677324 201.702019,263.378344 201.928169,264.186227 C202.152932,264.99696 202.265313,265.876084 202.265313,266.825026 L202.265313,278.133961 C202.039163,278.202353 201.711731,278.279294 201.285791,278.359085 C200.858464,278.440301 200.361765,278.527216 199.79847,278.61983 C199.236563,278.71102 198.610834,278.786536 197.924058,278.844955 C197.237282,278.901948 196.53247,278.93187 195.812396,278.93187 C194.888371,278.93187 194.039266,278.827856 193.262308,278.61983 C192.485349,278.411804 191.809673,278.081242 191.235278,277.630993 C190.660884,277.17932 190.209971,276.60226 189.883926,275.895541 C189.557881,275.191671 189.394164,274.329645 189.394164,273.310886 C189.394164,272.340572 189.57453,271.507042 189.93526,270.813146 C190.294604,270.120675 190.802402,269.54789 191.454492,269.096217 C192.107969,268.644544 192.884928,268.315406 193.785367,268.10738 C194.685806,267.899354 195.666716,267.79534 196.725322,267.79534 C197.040268,267.79534 197.371863,267.812438 197.721494,267.846635 C198.071125,267.882256 198.40827,267.92785 198.735702,267.986269 C199.061747,268.044687 199.343395,268.103105 199.579257,268.160099 C199.816507,268.218517 199.978836,268.269811 200.069018,268.315406 L200.069018,267.205458 C200.069018,266.581379 200.024621,265.974398 199.934438,265.384516 C199.844255,264.794633 199.647241,264.263169 199.343395,263.788698 C199.039548,263.314227 198.610834,262.933795 198.060026,262.643128 C197.506443,262.353886 196.780819,262.209978 195.88038,262.209978 C194.597011,262.209978 193.639687,262.302592 193.008409,262.487821 C192.378517,262.67305 191.916505,262.822658 191.623758,262.93807 L191.319911,260.960395 C191.702841,260.776591 192.293884,260.602761 193.093042,260.44033 C193.893586,260.279323 194.855072,260.198107 195.981662,260.198107" id="Fill-41"></path>
            <path d="M217.196929,260.267212 C217.917003,260.267212 218.598229,260.32563 219.240607,260.441042 C219.881597,260.556454 220.326961,260.671866 220.57531,260.787278 L220.135496,262.730756 C219.955131,262.638141 219.588851,262.539828 219.038043,262.43439 C218.485847,262.330377 217.758836,262.279082 216.858397,262.279082 C215.912172,262.279082 215.151863,262.348899 214.578856,262.487109 C214.004462,262.626743 213.627082,262.742155 213.446717,262.834769 L213.446717,278.550726 L211.250422,278.550726 L211.250422,261.446977 C211.813716,261.191931 212.590675,260.932611 213.582684,260.666166 C214.571919,260.399722 215.777592,260.267212 217.196929,260.267212" id="Fill-43"></path>
            <path d="M238.613927,268.142003 C238.569529,266.268342 238.140814,264.812158 237.330558,263.770602 C236.520301,262.730471 235.371513,262.20898 233.884192,262.20898 C233.096134,262.20898 232.392709,262.371412 231.77253,262.69485 C231.153738,263.019713 230.61403,263.452863 230.152017,263.997151 C229.690004,264.540014 229.330661,265.171217 229.071212,265.886486 C228.813151,266.604604 228.660534,267.356918 228.614749,268.142003 L238.613927,268.142003 Z M226.217277,269.565416 C226.217277,267.992395 226.436491,266.621702 226.876305,265.453335 C227.314731,264.284969 227.889125,263.30753 228.5981,262.522445 C229.307075,261.735934 230.118719,261.151751 231.030257,260.769895 C231.941796,260.389463 232.882471,260.19711 233.850894,260.19711 C235.990305,260.19711 237.696838,260.915228 238.969108,262.348614 C240.241377,263.782001 240.876818,265.991924 240.876818,268.974108 C240.876818,269.160762 240.871268,269.344566 240.860169,269.529795 C240.84907,269.715024 240.832421,269.888854 240.810222,270.049861 L228.548153,270.049861 C228.614749,272.248385 229.143358,273.935392 230.135368,275.115158 C231.12599,276.294923 232.703493,276.884806 234.863715,276.884806 C236.058288,276.884806 237.003125,276.769394 237.702388,276.53857 C238.400263,276.306322 238.906674,276.109694 239.221619,275.948688 L239.628135,277.890741 C239.311802,278.07597 238.720758,278.295395 237.855005,278.550441 C236.986476,278.804062 235.968106,278.930872 234.797118,278.930872 C233.2654,278.930872 231.959833,278.700049 230.879028,278.236976 C229.798223,277.775329 228.907496,277.127028 228.209621,276.294923 C227.511746,275.462818 227.005335,274.473981 226.690389,273.328412 C226.374056,272.182842 226.217277,270.93041 226.217277,269.565416 L226.217277,269.565416 Z" id="Fill-45"></path>
            <polygon id="Fill-47" points="252.667717 284.968051 245.844357 284.968051 245.844357 283.234024 250.574092 283.234024 250.574092 253.120085 245.844357 253.120085 245.844357 251.386058 252.667717 251.386058"></polygon>
            <path d="M106.754922,62.1737775 C104.343576,62.7821831 101.342574,62.9617126 97.7505289,62.7137909 C94.6385328,62.4986404 91.9538639,61.7605747 89.6923599,60.4981687 C87.4322433,59.2357628 85.5897419,57.5459056 84.166243,55.4271724 C82.7413567,53.309864 81.7326982,50.8192482 81.1402674,47.9567499 C80.5450617,45.0956764 80.3605341,41.9567596 80.5839096,38.5414243 C80.8142223,35.0163766 81.464925,31.8660611 82.5360177,29.0904778 C83.6071104,26.3148946 85.0375464,23.9938344 86.8301005,22.1258726 C88.6212672,20.2579108 90.7315418,18.8829427 93.1623118,17.9981186 C95.5889195,17.1147194 98.2777507,16.7756081 101.227418,16.9779351 C102.621781,17.074824 103.995332,17.2928241 105.346685,17.6347851 C106.698038,17.9781709 107.937009,18.3828247 109.066374,18.8473217 C110.095844,19.2719233 111.012932,19.6894006 111.842613,20.0997538 C109.388256,26.9475224 108.125699,34.2783108 108.085464,42.1049427 C108.050778,48.7703321 108.910982,55.0823618 110.632777,61.0552802 C109.576946,61.4114895 108.301902,61.7833721 106.754922,62.1737775 M115.978529,42.1476878 C116.017377,34.7114614 117.099569,27.8309216 119.225105,21.508918 C121.352029,15.1869144 124.4668,9.33510722 128.569418,3.95349635 L122.987804,0.000997386183 C119.703767,4.06463366 116.89423,8.58991726 114.548093,13.5640246 C113.804433,13.1593708 112.905381,12.7433183 111.837063,12.3158671 C110.49681,11.781553 108.913757,11.2857096 107.086517,10.8254871 C105.256502,10.3681143 103.189238,10.0589246 100.883336,9.89934283 C97.2357939,9.64857145 93.7602923,10.0717482 90.4568315,11.1717226 C87.1519833,12.2731219 84.2106406,14.0057242 81.6314161,16.3723792 C79.0521915,18.7390341 76.9294301,21.7326175 75.2659066,25.3517045 C73.6009956,28.9707915 72.611761,33.1769115 72.2995902,37.9686397 C71.9846446,42.7603679 72.3356633,47.0591023 73.3540338,50.8634182 C74.3696295,54.6677341 75.9485201,57.9177882 78.089318,60.609306 C80.2287286,63.3022487 82.866225,65.420982 85.997645,66.9655057 C89.129065,68.5086046 92.6503517,69.4148012 96.5670547,69.6855203 C98.8188467,69.8422524 100.919409,69.8479518 102.868743,69.7068929 C104.816688,69.5629843 106.527384,69.3492587 108.000831,69.0642912 C109.474277,68.7793237 110.707698,68.4630098 111.69832,68.1167743 C112.197794,67.9429442 112.619571,67.7819375 112.967815,67.6323296 C115.491542,73.8460455 118.659036,79.449931 122.549377,84.3698946 L128.171227,80.4786637 C124.125493,75.051458 121.071769,69.1654547 119.010054,62.8220785 C116.951114,56.4772776 115.939681,49.5867639 115.978529,42.1476878" id="Fill-19"></path>
            <polygon id="Fill-23" points="165.323576 83.5531778 173.942265 99.0668075 170.654066 100.79941 163.501886 87.933128 156.348318 100.79941 153.061507 99.0668075 161.680196 83.5531778"></polygon>
            <path d="M216.370439,61.0557076 C218.093622,55.0827892 218.952438,48.7693347 218.917753,42.1039453 C218.877517,34.2787383 217.61496,26.9479498 215.160604,20.1001813 C215.990284,19.6898281 216.907373,19.2723507 217.93823,18.8463243 C219.067595,18.3832522 220.305179,17.9785984 221.656531,17.6352126 C223.007884,17.2932516 224.381435,17.0738266 225.775798,16.9783625 C228.725466,16.7746108 231.414297,17.1151469 233.842292,17.9985461 C236.271674,18.8819453 238.381949,20.2583382 240.173116,22.1248752 C241.96567,23.992837 243.396106,26.315322 244.467199,29.0894804 C245.538291,31.8664885 246.188994,35.016804 246.420694,38.5404269 C246.642682,41.957187 246.458155,45.094679 245.864336,47.9571774 C245.271906,50.8196757 244.26186,53.3102915 242.838361,55.4275999 C241.413474,57.5463331 239.57236,59.2361902 237.312244,60.4971713 C235.05074,61.7610021 232.364683,62.4990679 229.254075,62.7142183 C225.662029,62.9621401 222.65964,62.7826105 220.248294,62.174205 C218.701314,61.7823747 217.427657,61.411917 216.370439,61.0557076 M207.993162,62.8210812 C205.932835,69.1658821 202.879111,75.0518854 198.83199,80.4776663 L204.455226,84.3688972 C208.345568,79.4503585 211.513061,73.846473 214.036789,67.6313322 C214.383645,67.7809402 214.80681,67.9419468 215.304896,68.1172018 C216.295518,68.4634373 217.52894,68.7797512 219.002386,69.0647187 C220.475832,69.3482613 222.186528,69.5634117 224.134474,69.7058955 C226.083807,69.8469544 228.18437,69.8426799 230.437549,69.6859478 C234.352865,69.4152287 237.875539,68.5090321 241.006959,66.9645083 C244.138379,65.4199846 246.775875,63.3026762 248.913898,60.6097335 C251.054696,57.9182156 252.634974,54.6681615 253.65057,50.8638457 C254.667553,47.0581049 255.018572,42.7607953 254.705013,37.9690671 C254.391455,33.177339 253.402221,28.9712189 251.73731,25.3521319 C250.073786,21.7330449 247.952412,18.7394615 245.373188,16.3728066 C242.792576,14.0061517 239.851233,12.2721246 236.546385,11.1721501 C233.242924,10.0721756 229.76881,9.6489989 226.121267,9.89977028 C223.815366,10.0593521 221.746714,10.3685418 219.918087,10.8259146 C218.08946,11.2847122 216.506407,11.7819805 215.167541,12.3148697 C214.097836,12.7437457 213.200171,13.1583734 212.455123,13.5630273 C210.108986,8.59034471 207.300837,4.06363628 204.0168,3.19744231e-14 L198.435186,3.95249896 C202.536416,9.33410983 205.652575,15.1873419 207.778111,21.5093455 C209.903647,27.831349 210.987227,34.710464 211.024687,42.1466904 C211.063535,49.5857665 210.053489,56.477705 207.993162,62.8210812" id="Fill-25"></path>
        </g>
    </g>
</svg>