<?xml version="1.0" encoding="UTF-8"?>
<svg width="217px" height="360px" viewBox="0 0 217 360" version="1.1" xmlns="http://www.w3.org/2000/svg" xmlns:xlink="http://www.w3.org/1999/xlink">
    <!-- Generator: Sketch 53.1 (72631) - https://sketchapp.com -->
    <title>Iconos/SolucionesWeb</title>
    <desc>Created with Sketch.</desc>
    <g id="Iconos/SolucionesWeb" stroke="none" stroke-width="1" fill="none" fill-rule="evenodd">
        <polygon id="Fill-1" fill="#31AEA9" fill-rule="nonzero" points="129 156 180 156 180 149 129 149"></polygon>
        <polygon id="Fill-2" fill="#31AEA9" fill-rule="nonzero" points="146.833641 174 129 174 129 182 147 182"></polygon>
        <polygon id="Fill-3" fill="#31AEA9" fill-rule="nonzero" points="146.838226 198 129 198 129 206 147 206"></polygon>
        <polygon id="Fill-4" fill="#31AEA9" fill-rule="nonzero" points="33 143 48 143 48 148.27933 38.8004465 148.27933 38.8004465 207.721739 48 207.721739 48 213 33 213"></polygon>
        <polygon id="Fill-5" fill="#31AEA9" fill-rule="nonzero" points="98 213 83 213 83 207.722807 92.2001576 207.722807 92.2001576 148.280398 83 148.280398 83 143 98 143"></polygon>
        <path d="M30,112.000508 C30,112.54557 29.9061672,113.060125 29.7195107,113.543155 C29.5318451,114.026185 29.2654811,114.446168 28.9224366,114.803102 C28.5783832,115.160036 28.161685,115.448837 27.672342,115.668489 C27.1829991,115.889157 26.6250473,116 26.0005045,116 C25.3759617,116 24.8180098,115.889157 24.3286669,115.668489 C23.839324,115.448837 23.4216168,115.160036 23.0785723,114.803102 C22.7345189,114.446168 22.4691638,114.026185 22.2814983,113.543155 C22.0948417,113.060125 22,112.54557 22,112.000508 C22,111.474768 22.0948417,110.965298 22.2814983,110.472099 C22.4691638,109.979916 22.7345189,109.554849 23.0785723,109.196898 C23.4216168,108.840981 23.839324,108.551163 24.3286669,108.331511 C24.8180098,108.110843 25.3759617,108 26.0005045,108 C26.6250473,108 27.1829991,108.110843 27.672342,108.331511 C28.161685,108.551163 28.5783832,108.840981 28.9224366,109.196898 C29.2654811,109.554849 29.5318451,109.979916 29.7195107,110.472099 C29.9061672,110.965298 30,111.474768 30,112.000508" id="Fill-6" fill="#31AEA9" fill-rule="nonzero"></path>
        <path d="M43,112.000508 C43,112.54557 42.9061672,113.060125 42.7185017,113.543155 C42.5318451,114.026185 42.2654811,114.446168 41.9224366,114.803102 C41.5783832,115.160036 41.161685,115.448837 40.672342,115.668489 C40.1829991,115.889157 39.6250473,116 39.0005045,116 C38.3749527,116 37.8180098,115.889157 37.3286669,115.668489 C36.838315,115.448837 36.4216168,115.160036 36.0785723,114.803102 C35.7345189,114.446168 35.4691638,114.026185 35.2814983,113.543155 C35.0938328,113.060125 35,112.54557 35,112.000508 C35,111.474768 35.0938328,110.965298 35.2814983,110.472099 C35.4691638,109.979916 35.7345189,109.554849 36.0785723,109.196898 C36.4216168,108.840981 36.838315,108.551163 37.3286669,108.331511 C37.8180098,108.110843 38.3749527,108 39.0005045,108 C39.6250473,108 40.1829991,108.110843 40.672342,108.331511 C41.161685,108.551163 41.5783832,108.840981 41.9224366,109.196898 C42.2654811,109.554849 42.5318451,109.979916 42.7185017,110.472099 C42.9061672,110.965298 43,111.474768 43,112.000508" id="Fill-8" fill="#31AEA9" fill-rule="nonzero"></path>
        <path d="M55,112.000508 C55,112.54557 54.9178963,113.060125 54.753689,113.543155 C54.5894816,114.026185 54.357296,114.446168 54.057132,114.803102 C53.7560853,115.160036 53.3905915,115.448837 52.9624164,115.668489 C52.5342414,115.889157 52.0469164,116 51.5004414,116 C50.9530836,116 50.4648758,115.889157 50.0375836,115.668489 C49.6085257,115.448837 49.2439147,115.160036 48.9437508,114.803102 C48.642704,114.446168 48.4105184,114.026185 48.246311,113.543155 C48.0821037,113.060125 48,112.54557 48,112.000508 C48,111.474768 48.0821037,110.965298 48.246311,110.472099 C48.4105184,109.979916 48.642704,109.554849 48.9437508,109.196898 C49.2439147,108.840981 49.6085257,108.551163 50.0375836,108.331511 C50.4648758,108.110843 50.9530836,108 51.5004414,108 C52.0469164,108 52.5342414,108.110843 52.9624164,108.331511 C53.3905915,108.551163 53.7560853,108.840981 54.057132,109.196898 C54.357296,109.554849 54.5894816,109.979916 54.753689,110.472099 C54.9178963,110.965298 55,111.474768 55,112.000508" id="Fill-10" fill="#31AEA9" fill-rule="nonzero"></path>
        <polygon id="Fill-12" fill="#31AEA9" fill-rule="nonzero" points="63 97 88 97 88 90 63 90"></polygon>
        <polygon id="Fill-14" fill="#31AEA9" fill-rule="nonzero" points="94 97 119 97 119 90 94 90"></polygon>
        <polygon id="Fill-15" fill="#31AEA9" fill-rule="nonzero" points="125 97 151 97 151 90 125 90"></polygon>
        <polygon id="Fill-16" fill="#31AEA9" fill-rule="nonzero" points="6 189 13 189 13 163 6 163"></polygon>
        <polygon id="Fill-17" fill="#31AEA9" fill-rule="nonzero" points="6 160 13 160 13 134 6 134"></polygon>
        <polygon id="Fill-18" fill="#31AEA9" fill-rule="nonzero" points="206 90 206 127 197.614788 127 197.614788 98.5719881 158 98.5719881 158 90"></polygon>
        <polygon id="Fill-19" fill="#31AEA9" fill-rule="nonzero" points="54 90 54 98.5719881 14.38416 98.5719881 14.38416 127 6 127 6 90"></polygon>
        <polygon id="Fill-20" fill="#31AEA9" fill-rule="nonzero" points="63 233 88 233 88 226 63 226"></polygon>
        <polygon id="Fill-21" fill="#31AEA9" fill-rule="nonzero" points="94 233 119 233 119 226 94 226"></polygon>
        <polygon id="Fill-22" fill="#31AEA9" fill-rule="nonzero" points="125 233 151 233 151 226 125 226"></polygon>
        <polygon id="Fill-23" fill="#31AEA9" fill-rule="nonzero" points="6 233 6 197 14.3852125 197 14.3852125 224.659687 54 224.659687 54 233"></polygon>
        <polygon id="Fill-24" fill="#31AEA9" fill-rule="nonzero" points="198 189 206 189 206 163 198 163"></polygon>
        <polygon id="Fill-25" fill="#31AEA9" fill-rule="nonzero" points="198 160 206 160 206 134 198 134"></polygon>
        <polygon id="Fill-26" fill="#31AEA9" fill-rule="nonzero" points="198 198 198 209.948486 206 228 206 198"></polygon>
        <polygon id="Fill-27" fill="#31AEA9" fill-rule="nonzero" points="155.717234 173.711365 156.595266 207.635128 151.762475 208 151 168.925654 155.25913 167 184 193.424772 180.527076 196.817148"></polygon>
        <path d="M201.425243,259.220393 C202.376692,258.614415 203.176536,258.04463 203.822685,257.513107 C204.470925,256.982617 204.925739,256.399389 205.189217,255.764457 C205.452695,255.131592 205.532157,254.398421 205.427602,253.563909 C205.324093,252.729396 204.99579,251.707713 204.442695,250.495757 L182,201.311229 L187.387711,200 L209.48433,248.427573 C210.336451,250.295143 210.827859,251.942452 210.957507,253.373636 C211.090292,254.802751 210.911503,256.0964 210.426369,257.25355 C209.941234,258.411733 209.161255,259.4572 208.083295,260.393054 C207.007426,261.329941 205.637757,262.198579 203.977426,263 L201.425243,259.220393 Z" id="Fill-28" fill="#31AEA9" fill-rule="nonzero"></path>
        <path d="M189,268.58532 C187.283863,269.291191 185.709686,269.736401 184.279571,269.915736 C182.848406,270.098199 181.531859,269.984551 180.326778,269.572706 C179.121696,269.163988 178.017564,268.434137 177.014381,267.382107 C176.011198,266.332163 175.081623,264.86516 174.224606,262.982142 L152,214.15296 L156.584778,211 L179.155346,260.592398 C179.711618,261.813337 180.273148,262.740249 180.838885,263.374177 C181.406724,264.009148 182.018729,264.438718 182.677002,264.66393 C183.336327,264.890184 184.082931,264.940231 184.918917,264.808858 C185.755954,264.680612 186.721281,264.461657 187.817001,264.155119 L189,268.58532 Z" id="Fill-29" fill="#31AEA9" fill-rule="nonzero"></path>
        <polygon id="Fill-30" fill="#31AEA9" fill-rule="nonzero" points="178 245.800066 193.988076 239 196 243.200845 180.011924 250"></polygon>
    </g>
</svg>