<?xml version="1.0" encoding="UTF-8"?>
<svg width="640px" height="870px" viewBox="0 0 640 870" version="1.1" xmlns="http://www.w3.org/2000/svg" xmlns:xlink="http://www.w3.org/1999/xlink">
    <!-- Generator: Sketch 55.1 (78136) - https://sketchapp.com -->
    <title>Ilustraciones/Soluciones</title>
    <desc>Created with Sketch.</desc>
    <defs>
        <rect id="path-1" x="0" y="0" width="291" height="470"></rect>
    </defs>
    <g id="Ilustraciones/Soluciones" stroke="none" stroke-width="1" fill="none" fill-rule="evenodd">
        <g id="Nuevas/Ventanas">
            <rect id="Rectangle" stroke="#191E28" stroke-width="2" fill="#0A0A0A" fill-rule="evenodd" x="1" y="1" width="638" height="868" rx="8"></rect>
            <rect id="Rectangle" stroke="#191E28" stroke-width="2" x="20" y="12" width="18" height="18"></rect>
            <rect id="Rectangle" fill="#191E28" fill-rule="evenodd" x="23" y="15" width="12" height="12"></rect>
            <rect id="Rectangle-Copy" stroke="#191E28" stroke-width="1.5" x="596.75" y="11.75" width="18.5" height="18.5"></rect>
            <rect id="Rectangle-Copy" stroke="#191E28" stroke-width="2" x="597" y="12" width="8" height="8"></rect>
            <g id="Lineas" fill-rule="evenodd" stroke-width="1" transform="translate(70.000000, 11.000000)" fill="#191E28">
                <rect id="Rectangle" x="0" y="0" width="500" height="2"></rect>
                <rect id="Rectangle-Copy-4" x="0" y="9" width="500" height="2"></rect>
                <rect id="Rectangle-Copy-7" x="0" y="18" width="500" height="2"></rect>
            </g>
            <path d="" id="Path-2" fill="#4A4A4A" fill-rule="nonzero"></path>
            <path d="M1,41 L639,41 L639,8 C639,4.13400675 635.865993,1 632,1 L8,1 C4.13400675,1 1,4.13400675 1,8 L1,41 Z" id="Rectangle" stroke="#191E28" stroke-width="2"></path>
        </g>
        <rect id="Rectangle" fill="#0A0A0A" opacity="0.796828497" x="217" y="289" width="210" height="210"></rect>
        <g id="Laberinto" opacity="0.5" transform="translate(0.000000, 83.000000)" fill="#191E28">
            <polygon id="Fill-1" points="95.2957994 38.0366144 163.101693 38.0366144 163.101693 33.7672727 95.2957994 33.7672727"></polygon>
            <polygon id="Fill-1-Copy" points="2.10169279 4.26934169 258.101693 4.26934169 258.101693 -1.59872116e-14 2.10169279 -1.59872116e-14"></polygon>
            <polygon id="Fill-1-Copy-2" points="286 4.26934169 639 4.26934169 639 0 286 0"></polygon>
            <polygon id="Fill-2" points="222 38.0366144 258.036614 38.0366144 258.036614 33.7672727 222 33.7672727"></polygon>
            <polygon id="Fill-3" points="285.895423 38.0366144 353.697304 38.0366144 353.697304 33.7672727 285.895423 33.7672727"></polygon>
            <polygon id="Fill-4" points="412.958495 38.0366144 448.99511 38.0366144 448.99511 33.7672727 412.958495 33.7672727"></polygon>
            <polygon id="Fill-5" points="476.491034 38.0366144 544.292915 38.0366144 544.292915 33.7672727 476.491034 33.7672727"></polygon>
            <polygon id="Fill-6" points="571.78884 38.0366144 607.825455 38.0366144 607.825455 33.7672727 571.78884 33.7672727"></polygon>
            <polygon id="Fill-7" points="63.5325392 69.8038871 99.5671473 69.8038871 99.5671473 65.5325392 63.5325392 65.5325392"></polygon>
            <polygon id="Fill-8" points="158.830345 69.8038871 194.866959 69.8038871 194.866959 65.5325392 158.830345 65.5325392"></polygon>
            <polygon id="Fill-9" points="222.362884 69.8038871 258.399498 69.8038871 258.399498 65.5325392 222.362884 65.5325392"></polygon>
            <polygon id="Fill-10" points="285.895423 69.8038871 321.930031 69.8038871 321.930031 65.5325392 285.895423 65.5325392"></polygon>
            <polygon id="Fill-11" points="444.723762 69.8038871 512.527649 69.8038871 512.527649 65.5325392 444.723762 65.5325392"></polygon>
            <polygon id="Fill-12" points="603.554107 69.8038871 639.592727 69.8038871 639.592727 65.5325392 603.554107 65.5325392"></polygon>
            <polygon id="Fill-13" points="0 101.569154 67.8038871 101.569154 67.8038871 97.2978056 0 97.2978056"></polygon>
            <polygon id="Fill-14" points="127.063072 101.569154 163.101693 101.569154 163.101693 97.2978056 127.063072 97.2978056"></polygon>
            <polygon id="Fill-15" points="349.425956 101.569154 448.99511 101.569154 448.99511 97.2978056 349.425956 97.2978056"></polygon>
            <polygon id="Fill-16" points="476.491034 101.569154 607.825455 101.569154 607.825455 97.2978056 476.491034 97.2978056"></polygon>
            <polygon id="Fill-17" points="127.063072 133.336426 226.634232 133.336426 226.634232 129.065078 127.063072 129.065078"></polygon>
            <polygon id="Fill-18" points="254.12815 133.336426 290.166771 133.336426 290.166771 129.065078 254.12815 129.065078"></polygon>
            <polygon id="Fill-19" points="317.66069 133.336426 353.697304 133.336426 353.697304 129.065078 317.66069 129.065078"></polygon>
            <polygon id="Fill-20" points="381.191223 133.336426 417.229843 133.336426 417.229843 129.065078 381.191223 129.065078"></polygon>
            <polygon id="Fill-21" points="571.78884 133.336426 607.825455 133.336426 607.825455 129.065078 571.78884 129.065078"></polygon>
            <polygon id="Fill-22" points="63.5325392 165.101693 131.33442 165.101693 131.33442 160.830345 63.5325392 160.830345"></polygon>
            <polygon id="Fill-23" points="158.830345 165.101693 194.866959 165.101693 194.866959 160.830345 158.830345 160.830345"></polygon>
            <polygon id="Fill-24" points="222.362884 165.101693 258.399498 165.101693 258.399498 160.830345 222.362884 160.830345"></polygon>
            <polygon id="Fill-25" points="349.425956 165.101693 385.462571 165.101693 385.462571 160.830345 349.425956 160.830345"></polygon>
            <polygon id="Fill-26" points="444.723762 165.101693 512.527649 165.101693 512.527649 160.830345 444.723762 160.830345"></polygon>
            <polygon id="Fill-27" points="540.023574 165.101693 576.060188 165.101693 576.060188 160.830345 540.023574 160.830345"></polygon>
            <polygon id="Fill-28" points="31.7652665 196.868966 99.5671473 196.868966 99.5671473 192.597618 31.7652665 192.597618"></polygon>
            <polygon id="Fill-29" points="158.830345 196.868966 194.866959 196.868966 194.866959 192.597618 158.830345 192.597618"></polygon>
            <polygon id="Fill-30" points="285.895423 196.868966 321.930031 196.868966 321.930031 192.597618 285.895423 192.597618"></polygon>
            <polygon id="Fill-31" points="412.958495 196.868966 512.527649 196.868966 512.527649 192.597618 412.958495 192.597618"></polygon>
            <polygon id="Fill-32" points="571.78884 196.868966 607.825455 196.868966 607.825455 192.597618 571.78884 192.597618"></polygon>
            <polygon id="Fill-33" points="0 228.634232 67.8038871 228.634232 67.8038871 224.362884 0 224.362884"></polygon>
            <polygon id="Fill-34" points="127.063072 228.634232 163.101693 228.634232 163.101693 224.362884 127.063072 224.362884"></polygon>
            <polygon id="Fill-35" points="254.12815 220.609154 385.462571 220.609154 385.462571 216.337806 254.12815 216.337806"></polygon>
            <polygon id="Fill-36" points="444.723762 234.91185 480.762382 234.91185 480.762382 230.640502 444.723762 230.640502"></polygon>
            <polygon id="Fill-37" points="540.023574 228.634232 576.060188 228.634232 576.060188 224.362884 540.023574 224.362884"></polygon>
            <polygon id="Fill-38" points="603.554107 228.634232 639.592727 228.634232 639.592727 224.362884 603.554107 224.362884"></polygon>
            <polygon id="Fill-39" points="158.830345 260.399498 230.646771 260.399498 230.646771 256.130157 158.830345 256.130157"></polygon>
            <polygon id="Fill-40" points="285.895423 266.418307 321.930031 266.418307 321.930031 262.148966 285.895423 262.148966"></polygon>
            <polygon id="Fill-41" points="381.191223 266.677116 448.99511 266.677116 448.99511 262.405768 381.191223 262.405768"></polygon>
            <polygon id="Fill-42" points="476.491034 260.399498 544.292915 260.399498 544.292915 256.130157 476.491034 256.130157"></polygon>
            <polygon id="Fill-43" points="571.78884 260.399498 607.825455 260.399498 607.825455 256.130157 571.78884 256.130157"></polygon>
            <polygon id="Fill-44" points="63.5325392 292.166771 163.101693 292.166771 163.101693 287.895423 63.5325392 287.895423"></polygon>
            <polygon id="Fill-45" points="190.595611 292.166771 290.166771 292.166771 290.166771 287.895423 190.595611 287.895423"></polygon>
            <polygon id="Fill-46" points="381.191223 292.166771 417.229843 292.166771 417.229843 287.895423 381.191223 287.895423"></polygon>
            <polygon id="Fill-47" points="444.723762 292.166771 480.762382 292.166771 480.762382 287.895423 444.723762 287.895423"></polygon>
            <polygon id="Fill-48" points="540.023574 292.166771 576.060188 292.166771 576.060188 287.895423 540.023574 287.895423"></polygon>
            <polygon id="Fill-49" points="603.554107 292.166771 639.592727 292.166771 639.592727 287.895423 603.554107 287.895423"></polygon>
            <polygon id="Fill-50" points="127.063072 323.932038 226.634232 323.932038 226.634232 319.66069 127.063072 319.66069"></polygon>
            <polygon id="Fill-51" points="285.895423 311.786082 321.930031 311.786082 321.930031 307.514734 285.895423 307.514734"></polygon>
            <polygon id="Fill-52" points="381.191223 323.932038 448.99511 323.932038 448.99511 319.66069 381.191223 319.66069"></polygon>
            <polygon id="Fill-53" points="508.256301 323.932038 544.292915 323.932038 544.292915 319.66069 508.256301 319.66069"></polygon>
            <polygon id="Fill-54" points="571.78884 323.932038 607.825455 323.932038 607.825455 319.66069 571.78884 319.66069"></polygon>
            <polygon id="Fill-55" points="0 355.697304 36.0366144 355.697304 36.0366144 351.425956 0 351.425956"></polygon>
            <polygon id="Fill-56" points="63.5325392 355.69931 131.33442 355.69931 131.33442 351.427962 63.5325392 351.427962"></polygon>
            <polygon id="Fill-57" points="158.830345 355.69931 194.866959 355.69931 194.866959 351.427962 158.830345 351.427962"></polygon>
            <polygon id="Fill-58" points="226.375423 355.69931 353.697304 355.69931 353.697304 351.427962 226.375423 351.427962"></polygon>
            <polygon id="Fill-59" points="412.958495 355.69931 512.527649 355.69931 512.527649 351.427962 412.958495 351.427962"></polygon>
            <polygon id="Fill-60" points="127.063072 387.464577 163.101693 387.464577 163.101693 383.193229 127.063072 383.193229"></polygon>
            <polygon id="Fill-61" points="190.595611 387.464577 321.930031 387.464577 321.930031 383.193229 190.595611 383.193229"></polygon>
            <polygon id="Fill-62" points="381.191223 387.464577 417.229843 387.464577 417.229843 383.193229 381.191223 383.193229"></polygon>
            <polygon id="Fill-63" points="476.491034 387.464577 512.527649 387.464577 512.527649 383.193229 476.491034 383.193229"></polygon>
            <polygon id="Fill-64" points="540.023574 387.464577 576.060188 387.464577 576.060188 383.193229 540.023574 383.193229"></polygon>
            <polygon id="Fill-65" points="31.7652665 419.23185 99.5671473 419.23185 99.5671473 414.960502 31.7652665 414.960502"></polygon>
            <polygon id="Fill-66" points="158.830345 419.23185 194.866959 419.23185 194.866959 414.960502 158.830345 414.960502"></polygon>
            <polygon id="Fill-67" points="222.362884 419.23185 290.166771 419.23185 290.166771 414.960502 222.362884 414.960502"></polygon>
            <polygon id="Fill-68" points="349.425956 419.23185 385.462571 419.23185 385.462571 414.960502 349.425956 414.960502"></polygon>
            <polygon id="Fill-69" points="412.958495 419.23185 480.762382 419.23185 480.762382 414.960502 412.958495 414.960502"></polygon>
            <polygon id="Fill-70" points="508.256301 419.23185 607.825455 419.23185 607.825455 414.960502 508.256301 414.960502"></polygon>
            <polygon id="Fill-71" points="31.7652665 450.999122 67.8038871 450.999122 67.8038871 446.727774 31.7652665 446.727774"></polygon>
            <polygon id="Fill-72" points="95.2957994 450.999122 226.634232 450.999122 226.634232 446.727774 95.2957994 446.727774"></polygon>
            <polygon id="Fill-73" points="285.895423 450.999122 353.697304 450.999122 353.697304 446.727774 285.895423 446.727774"></polygon>
            <polygon id="Fill-74" points="381.191223 450.999122 448.99511 450.999122 448.99511 446.727774 381.191223 446.727774"></polygon>
            <polygon id="Fill-75" points="508.256301 450.999122 576.060188 450.999122 576.060188 446.727774 508.256301 446.727774"></polygon>
            <polygon id="Fill-76" points="0 482.762382 36.0366144 482.762382 36.0366144 478.493041 0 478.493041"></polygon>
            <polygon id="Fill-77" points="158.830345 482.764389 258.399498 482.764389 258.399498 478.493041 158.830345 478.493041"></polygon>
            <polygon id="Fill-78" points="285.895423 482.764389 353.697304 482.764389 353.697304 478.493041 285.895423 478.493041"></polygon>
            <polygon id="Fill-79" points="381.191223 482.764389 417.229843 482.764389 417.229843 478.493041 381.191223 478.493041"></polygon>
            <polygon id="Fill-80" points="476.491034 482.764389 512.527649 482.764389 512.527649 478.493041 476.491034 478.493041"></polygon>
            <polygon id="Fill-81" points="571.78884 482.764389 607.825455 482.764389 607.825455 478.493041 571.78884 478.493041"></polygon>
            <polygon id="Fill-82" points="0 514.529655 163.101693 514.529655 163.101693 510.258307 0 510.258307"></polygon>
            <polygon id="Fill-83" points="254.12815 514.529655 321.930031 514.529655 321.930031 510.258307 254.12815 510.258307"></polygon>
            <polygon id="Fill-84" points="444.723762 514.529655 480.762382 514.529655 480.762382 510.258307 444.723762 510.258307"></polygon>
            <polygon id="Fill-85" points="508.256301 514.529655 576.060188 514.529655 576.060188 510.258307 508.256301 510.258307"></polygon>
            <polygon id="Fill-86" points="31.7652665 546.294922 163.101693 546.294922 163.101693 542.023574 31.7652665 542.023574"></polygon>
            <polygon id="Fill-87" points="254.12815 546.294922 290.166771 546.294922 290.166771 542.023574 254.12815 542.023574"></polygon>
            <polygon id="Fill-88" points="317.66069 546.294922 448.99511 546.294922 448.99511 542.023574 317.66069 542.023574"></polygon>
            <polygon id="Fill-89" points="476.491034 546.294922 512.527649 546.294922 512.527649 542.023574 476.491034 542.023574"></polygon>
            <polygon id="Fill-90" points="540.023574 546.294922 576.060188 546.294922 576.060188 542.023574 540.023574 542.023574"></polygon>
            <polygon id="Fill-91" points="603.554107 546.294922 639.592727 546.294922 639.592727 542.023574 603.554107 542.023574"></polygon>
            <polygon id="Fill-92" points="0 578.060188 36.0366144 578.060188 36.0366144 573.78884 0 573.78884"></polygon>
            <polygon id="Fill-93" points="3.62376795e-13 709.398621 36.0366144 709.398621 36.0366144 705.127273 3.62376795e-13 705.127273"></polygon>
            <polygon id="Fill-93-Copy" points="95 646.271348 131.036614 646.271348 131.036614 642 95 642"></polygon>
            <polygon id="Fill-94" points="95.2957994 578.062194 131.33442 578.062194 131.33442 573.790846 95.2957994 573.790846"></polygon>
            <polygon id="Fill-95" points="158.830345 578.062194 194.866959 578.062194 194.866959 573.790846 158.830345 573.790846"></polygon>
            <polygon id="Fill-96" points="285.895423 578.062194 417.229843 578.062194 417.229843 573.790846 285.895423 573.790846"></polygon>
            <polygon id="Fill-97" points="571.78884 578.062194 607.825455 578.062194 607.825455 573.790846 571.78884 573.790846"></polygon>
            <polygon id="Fill-98" points="127.063072 609.829467 163.101693 609.829467 163.101693 605.558119 127.063072 605.558119"></polygon>
            <polygon id="Fill-99" points="190.595611 609.829467 226.634232 609.829467 226.634232 605.558119 190.595611 605.558119"></polygon>
            <polygon id="Fill-100" points="254.12815 609.829467 290.166771 609.829467 290.166771 605.558119 254.12815 605.558119"></polygon>
            <polygon id="Fill-101" points="381.191223 609.829467 448.99511 609.829467 448.99511 605.558119 381.191223 605.558119"></polygon>
            <polygon id="Fill-102" points="540.023574 609.829467 576.060188 609.829467 576.060188 605.558119 540.023574 605.558119"></polygon>
            <polygon id="Fill-102-Copy" points="540.023574 646.271348 639.023574 646.271348 639.023574 642 540.023574 642"></polygon>
            <polygon id="Fill-103" points="603.554107 609.827461 639.592727 609.827461 639.592727 605.558119 603.554107 605.558119"></polygon>
            <polygon id="Fill-104" points="31.7672727 69.8038871 36.0366144 69.8038871 36.0366144 2 31.7672727 2"></polygon>
            <polygon id="Fill-105" points="31.7652665 196.868966 36.0366144 196.868966 36.0366144 97.2978056 31.7652665 97.2978056"></polygon>
            <polygon id="Fill-106" points="31.7652665 355.69931 36.0366144 355.69931 36.0366144 256.130157 31.7652665 256.130157"></polygon>
            <polygon id="Fill-107" points="31.7652665 419.23185 36.0366144 419.23185 36.0366144 383.193229 31.7652665 383.193229"></polygon>
            <polygon id="Fill-108" points="31.7652665 609.829467 36.0366144 609.829467 36.0366144 573.790846 31.7652665 573.790846"></polygon>
            <polygon id="Fill-109" points="63.5325392 101.569154 67.8038871 101.569154 67.8038871 33.7672727 63.5325392 33.7672727"></polygon>
            <polygon id="Fill-110" points="63.5325392 165.101693 67.8038871 165.101693 67.8038871 129.065078 63.5325392 129.065078"></polygon>
            <polygon id="Fill-111" points="63.5325392 292.166771 67.8038871 292.166771 67.8038871 224.362884 63.5325392 224.362884"></polygon>
            <polygon id="Fill-112" points="63.5325392 387.464577 67.8038871 387.464577 67.8038871 319.66069 63.5325392 319.66069"></polygon>
            <polygon id="Fill-113" points="63.5325392 514.529655 67.8038871 514.529655 67.8038871 446.727774 63.5325392 446.727774"></polygon>
            <polygon id="Fill-114" points="63.5325392 644.023574 67.8038871 644.023574 67.8038871 542.023574 63.5325392 542.023574"></polygon>
            <polygon id="Fill-115" points="95.2957994 133.336426 99.5671473 133.336426 99.5671473 65.5325392 95.2957994 65.5325392"></polygon>
            <polygon id="Fill-116" points="95.2957994 260.399498 99.5671473 260.399498 99.5671473 192.597618 95.2957994 192.597618"></polygon>
            <polygon id="Fill-117" points="95.2957994 323.932038 99.5671473 323.932038 99.5671473 287.895423 95.2957994 287.895423"></polygon>
            <polygon id="Fill-118" points="95.2957994 482.764389 99.5671473 482.764389 99.5671473 383.193229 95.2957994 383.193229"></polygon>
            <polygon id="Fill-119" points="95.2957994 644.023574 99.5671473 644.023574 99.5671473 575.023574 95.2957994 575.023574"></polygon>
            <polygon id="Fill-120" points="127.063072 260.399498 131.33442 260.399498 131.33442 33.7672727 127.063072 33.7672727"></polygon>
            <polygon id="Fill-121" points="127.063072 419.23185 131.33442 419.23185 131.33442 319.66069 127.063072 319.66069"></polygon>
            <polygon id="Fill-122" points="127.063072 514.529655 131.33442 514.529655 131.33442 478.493041 127.063072 478.493041"></polygon>
            <polygon id="Fill-123" points="158.830345 196.868966 163.101693 196.868966 163.101693 160.830345 158.830345 160.830345"></polygon>
            <polygon id="Fill-124" points="158.830345 323.932038 163.101693 323.932038 163.101693 256.130157 158.830345 256.130157"></polygon>
            <polygon id="Fill-125" points="158.830345 419.23185 163.101693 419.23185 163.101693 383.193229 158.830345 383.193229"></polygon>
            <polygon id="Fill-126" points="158.830345 482.764389 163.101693 482.764389 163.101693 446.727774 158.830345 446.727774"></polygon>
            <polygon id="Fill-127" points="158.830345 609.829467 163.101693 609.829467 163.101693 542.023574 158.830345 542.023574"></polygon>
            <polygon id="Fill-128" points="190.595611 101.569154 194.866959 101.569154 194.866959 2 190.595611 2"></polygon>
            <polygon id="Fill-129" points="190.595611 260.399498 194.866959 260.399498 194.866959 192.597618 190.595611 192.597618"></polygon>
            <polygon id="Fill-130" points="190.595611 387.464577 194.866959 387.464577 194.866959 319.66069 190.595611 319.66069"></polygon>
            <polygon id="Fill-131" points="190.595611 578.062194 194.866959 578.062194 194.866959 510.258307 190.595611 510.258307"></polygon>
            <polygon id="Fill-132" points="190.595611 641.594734 194.866959 641.594734 194.866959 605.558119 190.595611 605.558119"></polygon>
            <polygon id="Fill-133" points="222.362884 196.868966 226.634232 196.868966 226.634232 97.2978056 222.362884 97.2978056"></polygon>
            <polygon id="Fill-134" points="226.375423 260.399498 230.646771 260.399498 230.646771 224.362884 226.375423 224.362884"></polygon>
            <polygon id="Fill-135" points="222.362884 609.829467 226.634232 609.829467 226.634232 510.258307 222.362884 510.258307"></polygon>
            <polygon id="Fill-136" points="253.765266 38.0346082 258.036614 38.0346082 258.036614 2 253.765266 2"></polygon>
            <polygon id="Fill-137" points="254.12815 133.336426 258.399498 133.336426 258.399498 65.5325392 254.12815 65.5325392"></polygon>
            <polygon id="Fill-138" points="254.12815 220.609154 258.399498 220.609154 258.399498 160.830345 254.12815 160.830345"></polygon>
            <polygon id="Fill-139" points="254.12815 355.69931 258.399498 355.69931 258.399498 256.130157 254.12815 256.130157"></polygon>
            <polygon id="Fill-140" points="254.12815 578.062194 258.399498 578.062194 258.399498 414.960502 254.12815 414.960502"></polygon>
            <polygon id="Fill-141" points="285.895423 101.569154 290.166771 101.569154 290.166771 65.5325392 285.895423 65.5325392"></polygon>
            <polygon id="Fill-142" points="285.895423 196.868966 290.166771 196.868966 290.166771 129.065078 285.895423 129.065078"></polygon>
            <polygon id="Fill-143" points="285.895423 266.418307 290.166771 266.418307 290.166771 218.344075 285.895423 218.344075"></polygon>
            <polygon id="Fill-144" points="285.895423 609.829467 290.166771 609.829467 290.166771 573.790846 285.895423 573.790846"></polygon>
            <polygon id="Fill-145" points="317.66069 196.868966 321.930031 196.868966 321.930031 65.5325392 317.66069 65.5325392"></polygon>
            <polygon id="Fill-146" points="317.66069 311.786082 321.930031 311.786082 321.930031 262.148966 317.66069 262.148966"></polygon>
            <polygon id="Fill-147" points="317.66069 450.999122 321.930031 450.999122 321.930031 383.193229 317.66069 383.193229"></polygon>
            <polygon id="Fill-148" points="317.66069 546.294922 321.930031 546.294922 321.930031 510.258307 317.66069 510.258307"></polygon>
            <polygon id="Fill-149" points="317.66069 641.594734 321.930031 641.594734 321.930031 573.790846 317.66069 573.790846"></polygon>
            <polygon id="Fill-150" points="349.425956 133.336426 353.697304 133.336426 353.697304 33.7672727 349.425956 33.7672727"></polygon>
            <polygon id="Fill-151" points="349.425956 419.23185 353.697304 419.23185 353.697304 160.830345 349.425956 160.830345"></polygon>
            <polygon id="Fill-152" points="349.425956 514.529655 353.697304 514.529655 353.697304 446.727774 349.425956 446.727774"></polygon>
            <polygon id="Fill-153" points="349.425956 641.594734 353.697304 641.594734 353.697304 605.558119 349.425956 605.558119"></polygon>
            <polygon id="Fill-154" points="381.191223 69.8038871 385.462571 69.8038871 385.462571 2 381.191223 2"></polygon>
            <polygon id="Fill-155" points="381.191223 165.101693 385.462571 165.101693 385.462571 129.065078 381.191223 129.065078"></polygon>
            <polygon id="Fill-156" points="381.191223 220.609154 385.462571 220.609154 385.462571 192.597618 381.191223 192.597618"></polygon>
            <polygon id="Fill-157" points="381.191223 419.23185 385.462571 419.23185 385.462571 319.66069 381.191223 319.66069"></polygon>
            <polygon id="Fill-158" points="381.191223 546.294922 385.462571 546.294922 385.462571 478.493041 381.191223 478.493041"></polygon>
            <polygon id="Fill-159" points="381.191223 609.829467 385.462571 609.829467 385.462571 573.790846 381.191223 573.790846"></polygon>
            <polygon id="Fill-160" points="412.958495 101.569154 417.229843 101.569154 417.229843 33.7672727 412.958495 33.7672727"></polygon>
            <polygon id="Fill-161" points="412.958495 292.166771 417.229843 292.166771 417.229843 129.065078 412.958495 129.065078"></polygon>
            <polygon id="Fill-162" points="381 450.999122 385.271348 450.999122 385.271348 414.960502 381 414.960502"></polygon>
            <polygon id="Fill-163" points="412.958495 514.529655 417.229843 514.529655 417.229843 478.493041 412.958495 478.493041"></polygon>
            <polygon id="Fill-164" points="444.723762 38.0346082 448.993103 38.0346082 448.993103 2 444.723762 2"></polygon>
            <polygon id="Fill-165" points="444.723762 165.101693 448.99511 165.101693 448.99511 97.2978056 444.723762 97.2978056"></polygon>
            <polygon id="Fill-166" points="444.723762 266.677116 448.99511 266.677116 448.99511 230.640502 444.723762 230.640502"></polygon>
            <polygon id="Fill-167" points="444.723762 387.464577 448.99511 387.464577 448.99511 351.427962 444.723762 351.427962"></polygon>
            <polygon id="Fill-168" points="444.723762 482.764389 448.99511 482.764389 448.99511 446.727774 444.723762 446.727774"></polygon>
            <polygon id="Fill-169" points="444.723762 609.829467 448.99511 609.829467 448.99511 510.258307 444.723762 510.258307"></polygon>
            <polygon id="Fill-170" points="476.491034 69.8038871 480.762382 69.8038871 480.762382 33.7672727 476.491034 33.7672727"></polygon>
            <polygon id="Fill-171" points="476.491034 133.336426 480.762382 133.336426 480.762382 97.2978056 476.491034 97.2978056"></polygon>
            <polygon id="Fill-172" points="476.491034 355.69931 480.762382 355.69931 480.762382 256.130157 476.491034 256.130157"></polygon>
            <polygon id="Fill-173" points="476.491034 514.529655 480.762382 514.529655 480.762382 446.529655 476.491034 446.529655"></polygon>
            <polygon id="Fill-174" points="476.491034 641.594734 480.762382 641.594734 480.762382 542.023574 476.491034 542.023574"></polygon>
            <polygon id="Fill-175" points="508.256301 165.101693 512.527649 165.101693 512.527649 97.2978056 508.256301 97.2978056"></polygon>
            <polygon id="Fill-176" points="508.256301 260.399498 512.527649 260.399498 512.527649 192.597618 508.256301 192.597618"></polygon>
            <polygon id="Fill-177" points="508.256301 323.932038 512.527649 323.932038 512.527649 287.895423 508.256301 287.895423"></polygon>
            <polygon id="Fill-178" points="508.256301 387.464577 512.527649 387.464577 512.527649 351.427962 508.256301 351.427962"></polygon>
            <polygon id="Fill-179" points="508.256301 450.999122 512.527649 450.999122 512.527649 414.960502 508.256301 414.960502"></polygon>
            <polygon id="Fill-180" points="508.256301 546.294922 512.527649 546.294922 512.527649 510.258307 508.256301 510.258307"></polygon>
            <polygon id="Fill-181" points="508.256301 677.803887 512.527649 677.803887 512.527649 610 508.256301 610"></polygon>
            <polygon id="Fill-182" points="540.023574 101.569154 544.292915 101.569154 544.292915 33.7672727 540.023574 33.7672727"></polygon>
            <polygon id="Fill-183" points="540.023574 165.101693 544.292915 165.101693 544.292915 129.065078 540.023574 129.065078"></polygon>
            <polygon id="Fill-184" points="540.023574 228.634232 544.292915 228.634232 544.292915 192.597618 540.023574 192.597618"></polygon>
            <polygon id="Fill-185" points="540.023574 292.166771 544.292915 292.166771 544.292915 256.130157 540.023574 256.130157"></polygon>
            <polygon id="Fill-186" points="540.023574 387.464577 544.292915 387.464577 544.292915 319.66069 540.023574 319.66069"></polygon>
            <polygon id="Fill-187" points="540.023574 514.529655 544.292915 514.529655 544.292915 446.727774 540.023574 446.727774"></polygon>
            <polygon id="Fill-188" points="540.023574 578.062194 544.292915 578.062194 544.292915 542.023574 540.023574 542.023574"></polygon>
            <polygon id="Fill-189" points="571.78884 133.336426 576.060188 133.336426 576.060188 33.7672727 571.78884 33.7672727"></polygon>
            <polygon id="Fill-190" points="571.78884 260.399498 576.060188 260.399498 576.060188 160.830345 571.78884 160.830345"></polygon>
            <polygon id="Fill-191" points="571.78884 387.464577 576.060188 387.464577 576.060188 287.895423 571.78884 287.895423"></polygon>
            <polygon id="Fill-192" points="571.78884 546.294922 576.060188 546.294922 576.060188 510.258307 571.78884 510.258307"></polygon>
            <polygon id="Fill-193" points="571.78884 609.829467 576.060188 609.829467 576.060188 573.790846 571.78884 573.790846"></polygon>
            <polygon id="Fill-194" points="603.554107 165.101693 607.825455 165.101693 607.825455 129.065078 603.554107 129.065078"></polygon>
            <polygon id="Fill-195" points="603.554107 292.166771 607.825455 292.166771 607.825455 256.130157 603.554107 256.130157"></polygon>
            <polygon id="Fill-196" points="603.554107 514.529655 607.825455 514.529655 607.825455 351.427962 603.554107 351.427962"></polygon>
            <polygon id="Fill-197" points="603.554107 578.062194 607.825455 578.062194 607.825455 542.023574 603.554107 542.023574"></polygon>
            <polygon id="Fill-198" points="95.2957994 677.629342 163.101693 677.629342 163.101693 673.357994 95.2957994 673.357994"></polygon>
            <polygon id="Fill-199" points="222.362884 677.629342 258.399498 677.629342 258.399498 673.357994 222.362884 673.357994"></polygon>
            <polygon id="Fill-200" points="285.895423 677.629342 353.697304 677.629342 353.697304 673.357994 285.895423 673.357994"></polygon>
            <polygon id="Fill-201" points="412.958495 677.629342 448.99511 677.629342 448.99511 673.357994 412.958495 673.357994"></polygon>
            <polygon id="Fill-202" points="476.491034 677.629342 544.292915 677.629342 544.292915 673.357994 476.491034 673.357994"></polygon>
            <polygon id="Fill-203" points="571.78884 677.629342 607.825455 677.629342 607.825455 673.357994 571.78884 673.357994"></polygon>
            <polygon id="Fill-204" points="63.5325392 721.911724 99.5671473 721.911724 99.5671473 717.640376 63.5325392 717.640376"></polygon>
            <polygon id="Fill-205" points="158.830345 709.396614 194.866959 709.396614 194.866959 705.125266 158.830345 705.125266"></polygon>
            <polygon id="Fill-206" points="222.362884 709.396614 258.399498 709.396614 258.399498 705.125266 222.362884 705.125266"></polygon>
            <polygon id="Fill-207" points="285.895423 709.396614 321.930031 709.396614 321.930031 705.125266 285.895423 705.125266"></polygon>
            <polygon id="Fill-208" points="444.723762 709.396614 512.527649 709.396614 512.527649 705.125266 444.723762 705.125266"></polygon>
            <polygon id="Fill-208-Copy" points="444.723762 741.271348 512.527649 741.271348 512.527649 737 444.723762 737"></polygon>
            <polygon id="Fill-208-Copy-2" points="380.803887 741.271348 416.803887 741.271348 416.803887 737 380.803887 737"></polygon>
            <polygon id="Fill-209" points="603.554107 709.398621 639.592727 709.398621 639.592727 705.127273 603.554107 705.127273"></polygon>
            <polygon id="Fill-210" points="31.7652665 709.396614 36.0366144 709.396614 36.0366144 641.592727 31.7652665 641.592727"></polygon>
            <polygon id="Fill-211" points="63.5325392 753.676991 67.8038871 753.676991 67.8038871 685.87511 63.5325392 685.87511"></polygon>
            <polygon id="Fill-212" points="95.2957994 785.444263 99.5671473 785.444263 99.5671473 717.640376 95.2957994 717.640376"></polygon>
            <polygon id="Fill-213" points="127.063072 785.444263 131.33442 785.444263 131.33442 673.36 127.063072 673.36"></polygon>
            <polygon id="Fill-214" points="190.595611 741.161881 194.866959 741.161881 194.866959 641.592727 190.595611 641.592727"></polygon>
            <polygon id="Fill-215" points="254.12815 677.629342 258.399498 677.629342 258.399498 641.592727 254.12815 641.592727"></polygon>
            <polygon id="Fill-216" points="254.12815 785.444263 258.399498 785.444263 258.399498 705.127273 254.12815 705.127273"></polygon>
            <polygon id="Fill-217" points="285.895423 741.161881 290.166771 741.161881 290.166771 705.125266 285.895423 705.125266"></polygon>
            <polygon id="Fill-218" points="317.66069 787.578934 321.930031 787.578934 321.930031 705.125266 317.66069 705.125266"></polygon>
            <polygon id="Fill-219" points="349.425956 785.444263 353.697304 785.444263 353.697304 673.36 349.425956 673.36"></polygon>
            <polygon id="Fill-220" points="381.191223 709.396614 385.462571 709.396614 385.462571 641.592727 381.191223 641.592727"></polygon>
            <polygon id="Fill-221" points="412.958495 741.357994 417.229843 741.357994 417.229843 673.357994 412.958495 673.357994"></polygon>
            <polygon id="Fill-222" points="444.723762 677.629342 448.99511 677.629342 448.99511 641.592727 444.723762 641.592727"></polygon>
            <polygon id="Fill-223" points="476.491034 709.396614 480.762382 709.396614 480.762382 673.357994 476.491034 673.357994"></polygon>
            <polygon id="Fill-224" points="540.023574 785.357994 544.292915 785.357994 544.292915 704.357994 540.023574 704.357994"></polygon>
            <polygon id="Fill-224-Copy" points="476 785.357994 480.269342 785.357994 480.269342 737.357994 476 737.357994"></polygon>
            <polygon id="Fill-225" points="571.78884 786.076238 576.060188 786.076238 576.060188 673.357994 571.78884 673.357994"></polygon>
        </g>
        <rect id="Rectangle" fill="#0A0A0A" opacity="0.746861049" x="211" y="282" width="220" height="220"></rect>
        <g id="Líneas" opacity="0.33" transform="translate(18.000000, 85.000000)" stroke="#99FF99" stroke-width="2">
            <polyline id="Path-9" points="254 0 254 50 189 50 189 82 222 82 222 145 254 145 254 216"></polyline>
            <polyline id="Path-10" points="254 784 254 622 222 622 222 496 127 496 127 461 95 461 95 495 64 495 64 431 0 431 0 367 32 367 32 399 64 399 64 367 95 367 95 431 193 431 193 399 213 399"></polyline>
            <polyline id="Path-11" points="612 306 572 306 572 272 540 272 540 240 508 240 508 177 413 177 413 113 349 113 349 145 318 145 318 215"></polyline>
            <polyline id="Path-13" points="612 622 508 622 508 590 477 590 477 658 445 658 445 527 477 527 477 495 508 495 508 463 477 463 477 399 399 399"></polyline>
        </g>
        <g id="Iconos/Soluciones" transform="translate(175.000000, 157.000000)">
            <mask id="mask-2" fill="white">
                <use xlink:href="#path-1"></use>
            </mask>
            <g id="Background"></g>
            <path d="M236.318552,140.999869 L245.705649,140.999869 L245.705649,332.981814 L50.9582571,332.981814 L50.9582571,275.906982 L60.3453539,275.906982 L60.3453539,323.842925 L236.318552,323.842925 L236.318552,195.846258 L139.082981,195.846258 L139.082981,186.707369 L236.318552,186.707369 L236.318552,140.999869 Z M50.9585253,140.999869 L190.037751,140.999869 L190.037751,150.138758 L107.723641,150.138758 L107.723641,185.519314 L98.3365438,185.519314 L98.3365438,150.138758 L60.3456221,150.138758 L60.3456221,232.416175 L153.697618,232.416175 L153.697618,260.981731 L190.037751,260.981731 L190.037751,270.120619 L153.697618,270.120619 L153.697618,299.465592 L144.310521,299.465592 L144.310521,241.555064 L107.723641,241.555064 L107.723641,276.940842 L98.3365438,276.940842 L98.3365438,241.555064 L50.9585253,241.555064 L50.9585253,140.999869 Z M55.8135595,257.343635 L63.9568964,249.361111 L66.0313716,251.382554 L57.8369392,259.312832 L66.0313716,267.243109 L63.9568964,269.264553 L55.8135595,261.283273 L47.6702226,269.264553 L45.59447,267.243109 L53.7914572,259.312832 L45.59447,251.382554 L47.6702226,249.361111 L55.8135595,257.343635 Z M218.865346,146.982808 C218.865346,145.03849 218.276471,143.527073 217.099999,142.448555 C215.922249,141.372525 214.477525,140.833888 212.765827,140.833888 C211.05413,140.833888 209.608129,141.372525 208.431656,142.448555 C207.255183,143.527073 206.666308,145.03849 206.666308,146.982808 C206.666308,148.999275 207.255183,150.52562 208.431656,151.568063 C209.608129,152.609262 211.05413,153.130483 212.765827,153.130483 C214.477525,153.130483 215.922249,152.609262 217.099999,151.568063 C218.276471,150.52562 218.865346,148.999275 218.865346,146.982808 Z M222.931266,146.982808 C222.931266,148.511641 222.664293,149.883734 222.129068,151.099088 C221.593843,152.315686 220.861901,153.356885 219.935796,154.225172 C219.007136,155.09346 217.918803,155.771421 216.670797,156.256567 C215.422791,156.745446 214.119857,156.986775 212.765827,156.986775 C209.98368,156.986775 207.575807,156.083656 205.542208,154.277419 C203.509887,152.471182 202.493088,150.040474 202.493088,146.982808 C202.493088,143.997291 203.509887,141.598927 205.542208,139.792689 C207.575807,137.986452 209.98368,137.083333 212.765827,137.083333 C214.119857,137.083333 215.422791,137.32715 216.670797,137.812297 C217.918803,138.298687 219.007136,138.975404 219.935796,139.844936 C220.861901,140.714467 221.593843,141.755666 222.129068,142.969776 C222.664293,144.186374 222.931266,145.523637 222.931266,146.982808 Z" id="Combined-Shape" fill="#99FF99" fill-rule="evenodd" mask="url(#mask-2)"></path>
        </g>
    </g>
</svg>