<?xml version="1.0" encoding="UTF-8"?>
<svg width="640px" height="870px" viewBox="0 0 640 870" version="1.1" xmlns="http://www.w3.org/2000/svg" xmlns:xlink="http://www.w3.org/1999/xlink">
    <!-- Generator: Sketch 55.1 (78136) - https://sketchapp.com -->
    <title>Ilustraciones/Startups</title>
    <desc>Created with Sketch.</desc>
    <defs>
        <rect id="path-1" x="0" y="0" width="210" height="346"></rect>
    </defs>
    <g id="Ilustraciones/Startups" stroke="none" stroke-width="1" fill="none" fill-rule="evenodd">
        <g id="Nuevas/Ventanas">
            <rect id="Rectangle" stroke="#191E28" stroke-width="2" fill="#0A0A0A" fill-rule="evenodd" x="1" y="1" width="638" height="868" rx="8"></rect>
            <rect id="Rectangle" stroke="#191E28" stroke-width="2" x="20" y="12" width="18" height="18"></rect>
            <rect id="Rectangle" fill="#191E28" fill-rule="evenodd" x="23" y="15" width="12" height="12"></rect>
            <rect id="Rectangle-Copy" stroke="#191E28" stroke-width="1.5" x="596.75" y="11.75" width="18.5" height="18.5"></rect>
            <rect id="Rectangle-Copy" stroke="#191E28" stroke-width="2" x="597" y="12" width="8" height="8"></rect>
            <g id="Lineas" fill-rule="evenodd" stroke-width="1" transform="translate(70.000000, 11.000000)" fill="#191E28">
                <rect id="Rectangle" x="0" y="0" width="500" height="2"></rect>
                <rect id="Rectangle-Copy-4" x="0" y="9" width="500" height="2"></rect>
                <rect id="Rectangle-Copy-7" x="0" y="18" width="500" height="2"></rect>
            </g>
            <path d="" id="Path-2" fill="#4A4A4A" fill-rule="nonzero"></path>
            <path d="M1,41 L639,41 L639,8 C639,4.13400675 635.865993,1 632,1 L8,1 C4.13400675,1 1,4.13400675 1,8 L1,41 Z" id="Rectangle" stroke="#191E28" stroke-width="2"></path>
        </g>
        <g id="Estrellas" transform="translate(13.000000, 74.000000)" fill="#191E28">
            <polygon id="+" points="31 42.1417004 37.5215517 42.1417004 37.5215517 35 41.4784483 35 41.4784483 42.1417004 48 42.1417004 48 45.8582996 41.4784483 45.8582996 41.4784483 53 37.5215517 53 37.5215517 45.8582996 31 45.8582996"></polygon>
            <polygon id="+" points="201 71.1417004 207.521552 71.1417004 207.521552 64 211.478448 64 211.478448 71.1417004 218 71.1417004 218 74.8582996 211.478448 74.8582996 211.478448 82 207.521552 82 207.521552 74.8582996 201 74.8582996"></polygon>
            <polygon id="+" points="77 107.967611 80.4525862 107.967611 80.4525862 104 82.5474138 104 82.5474138 107.967611 86 107.967611 86 110.032389 82.5474138 110.032389 82.5474138 114 80.4525862 114 80.4525862 110.032389 77 110.032389"></polygon>
            <polygon id="+" points="261 5.55465587 265.987069 5.55465587 265.987069 0 269.012931 0 269.012931 5.55465587 274 5.55465587 274 8.44534413 269.012931 8.44534413 269.012931 14 265.987069 14 265.987069 8.44534413 261 8.44534413"></polygon>
            <polygon id="+" points="332 80.9676113 335.452586 80.9676113 335.452586 77 337.547414 77 337.547414 80.9676113 341 80.9676113 341 83.0323887 337.547414 83.0323887 337.547414 87 335.452586 87 335.452586 83.0323887 332 83.0323887"></polygon>
            <polygon id="+" points="0 231.380567 1.91810345 231.380567 1.91810345 229 3.08189655 229 3.08189655 231.380567 5 231.380567 5 232.619433 3.08189655 232.619433 3.08189655 235 1.91810345 235 1.91810345 232.619433 0 232.619433"></polygon>
            <polygon id="+" points="489 273.761134 493.219828 273.761134 493.219828 269 495.780172 269 495.780172 273.761134 500 273.761134 500 276.238866 495.780172 276.238866 495.780172 281 493.219828 281 493.219828 276.238866 489 276.238866"></polygon>
            <path d="M280.730964,286.99734 C281.421323,287.660464 282.045682,288.265068 282.604061,288.81117 C283.162439,289.357272 283.74619,290.020386 284.35533,290.800532 L282.649746,292 C282.365481,291.609927 282.1066,291.234488 281.873096,290.87367 C281.639593,290.512853 281.421321,290.152041 281.218274,289.791223 C281.015227,289.430406 280.81726,289.059842 280.624365,288.679521 C280.431471,288.2992 280.223351,287.904257 280,287.494681 C279.776649,287.904257 279.568529,288.2992 279.375635,288.679521 C279.18274,289.059842 278.984773,289.430406 278.781726,289.791223 C278.578679,290.152041 278.360407,290.512853 278.126904,290.87367 C277.8934,291.234488 277.634519,291.609927 277.350254,292 L275.64467,290.800532 C275.94924,290.410459 276.243653,290.054523 276.527919,289.732713 C276.812184,289.410903 277.096445,289.103725 277.380711,288.81117 C277.664976,288.518616 277.964465,288.226065 278.279188,287.933511 C278.59391,287.640956 278.923856,287.328902 279.269036,286.99734 C278.314716,286.860815 277.436552,286.724291 276.634518,286.587766 C275.832483,286.45124 274.954319,286.236704 274,285.944149 L274.639594,284.042553 C275.126906,284.198582 275.573602,284.354609 275.979695,284.510638 C276.385789,284.666667 276.781724,284.832446 277.167513,285.007979 C277.553301,285.183512 277.939084,285.363918 278.324873,285.549202 C278.710662,285.734487 279.116749,285.924644 279.543147,286.119681 L279.314721,284.803191 C279.243654,284.393615 279.182741,283.98892 279.13198,283.589096 C279.081218,283.189271 279.040609,282.779701 279.010152,282.360372 C278.979695,281.941044 278.964467,281.487591 278.964467,281 L281.035533,281 C281.035533,281.487591 281.020305,281.941044 280.989848,282.360372 C280.959391,282.779701 280.918782,283.189271 280.86802,283.589096 C280.817259,283.98892 280.756346,284.393615 280.685279,284.803191 L280.456853,286.119681 C280.883251,285.924644 281.289338,285.734487 281.675127,285.549202 C282.060916,285.363918 282.446699,285.183512 282.832487,285.007979 C283.218276,284.832446 283.614211,284.666667 284.020305,284.510638 C284.426398,284.354609 284.873094,284.198582 285.360406,284.042553 L286,285.944149 C285.045681,286.236704 284.167517,286.45124 283.365482,286.587766 C282.563448,286.724291 281.685284,286.860815 280.730964,286.99734 Z" id="*"></path>
            <polygon id="+" points="604 307.1417 610.521552 307.1417 610.521552 300 614.478448 300 614.478448 307.1417 621 307.1417 621 310.8583 614.478448 310.8583 614.478448 318 610.521552 318 610.521552 310.8583 604 310.8583"></polygon>
            <polygon id="+" points="543 416.761134 547.219828 416.761134 547.219828 412 549.780172 412 549.780172 416.761134 554 416.761134 554 419.238866 549.780172 419.238866 549.780172 424 547.219828 424 547.219828 419.238866 543 419.238866"></polygon>
            <polygon id="+" points="127 356.744939 133.137931 356.744939 133.137931 350 136.862069 350 136.862069 356.744939 143 356.744939 143 360.255061 136.862069 360.255061 136.862069 367 133.137931 367 133.137931 360.255061 127 360.255061"></polygon>
            <polygon id="+" points="447 389.951417 452.37069 389.951417 452.37069 384 455.62931 384 455.62931 389.951417 461 389.951417 461 393.048583 455.62931 393.048583 455.62931 399 452.37069 399 452.37069 393.048583 447 393.048583"></polygon>
            <polygon id="+" points="32 324.761134 36.2198276 324.761134 36.2198276 320 38.7801724 320 38.7801724 324.761134 43 324.761134 43 327.238866 38.7801724 327.238866 38.7801724 332 36.2198276 332 36.2198276 327.238866 32 327.238866"></polygon>
            <path d="M564.266497,40.2659574 C565.934865,41.9539091 567.443733,43.4929009 568.793147,44.8829787 C570.142562,46.2730566 571.553292,47.960983 573.025381,49.9468085 L568.903553,53 C568.216579,52.0070872 567.59095,51.051423 567.02665,50.1329787 C566.462349,49.2145344 565.934859,48.2961039 565.444162,47.3776596 C564.953466,46.4592153 564.475045,45.5159623 564.008883,44.5478723 C563.542722,43.5797824 563.039766,42.5744733 562.5,41.5319149 C561.960234,42.5744733 561.457278,43.5797824 560.991117,44.5478723 C560.524955,45.5159623 560.046534,46.4592153 559.555838,47.3776596 C559.065141,48.2961039 558.537651,49.2145344 557.97335,50.1329787 C557.40905,51.051423 556.783421,52.0070872 556.096447,53 L551.974619,49.9468085 C552.710664,48.9538957 553.422162,48.0478764 554.109137,47.2287234 C554.796112,46.4095745 555.483076,45.6276633 556.170051,44.8829787 C556.857025,44.1382941 557.580791,43.3936207 558.341371,42.6489362 C559.10195,41.9042516 559.899319,41.1099333 560.733503,40.2659574 C558.42723,39.918438 556.305001,39.5709237 554.366751,39.2234043 C552.428501,38.8758848 550.306272,38.329791 548,37.5851064 L549.545685,32.7446809 C550.723356,33.141846 551.802872,33.5390051 552.784264,33.9361702 C553.765656,34.3333353 554.7225,34.7553169 555.654822,35.2021277 C556.587145,35.6489384 557.519454,36.1081537 558.451777,36.5797872 C559.384099,37.0514208 560.365477,37.5354585 561.395939,38.0319149 L560.843909,34.6808511 C560.672165,33.6382927 560.524958,32.6081611 560.402284,31.5904255 C560.27961,30.5726899 560.181472,29.5301472 560.107868,28.462766 C560.034264,27.3953847 559.997462,26.241141 559.997462,25 L565.002538,25 C565.002538,26.241141 564.965736,27.3953847 564.892132,28.462766 C564.818528,29.5301472 564.72039,30.5726899 564.597716,31.5904255 C564.475042,32.6081611 564.327835,33.6382927 564.156091,34.6808511 L563.604061,38.0319149 C564.634523,37.5354585 565.615901,37.0514208 566.548223,36.5797872 C567.480546,36.1081537 568.412855,35.6489384 569.345178,35.2021277 C570.2775,34.7553169 571.234344,34.3333353 572.215736,33.9361702 C573.197128,33.5390051 574.276644,33.141846 575.454315,32.7446809 L577,37.5851064 C574.693728,38.329791 572.571499,38.8758848 570.633249,39.2234043 C568.694999,39.5709237 566.57277,39.918438 564.266497,40.2659574 Z" id="*"></path>
            <path d="M144.266497,207.265957 C145.934865,208.953909 147.443733,210.492901 148.793147,211.882979 C150.142562,213.273057 151.553292,214.960983 153.025381,216.946809 L148.903553,220 C148.216579,219.007087 147.59095,218.051423 147.02665,217.132979 C146.462349,216.214534 145.934859,215.296104 145.444162,214.37766 C144.953466,213.459215 144.475045,212.515962 144.008883,211.547872 C143.542722,210.579782 143.039766,209.574473 142.5,208.531915 C141.960234,209.574473 141.457278,210.579782 140.991117,211.547872 C140.524955,212.515962 140.046534,213.459215 139.555838,214.37766 C139.065141,215.296104 138.537651,216.214534 137.97335,217.132979 C137.40905,218.051423 136.783421,219.007087 136.096447,220 L131.974619,216.946809 C132.710664,215.953896 133.422162,215.047876 134.109137,214.228723 C134.796112,213.409574 135.483076,212.627663 136.170051,211.882979 C136.857025,211.138294 137.580791,210.393621 138.341371,209.648936 C139.10195,208.904252 139.899319,208.109933 140.733503,207.265957 C138.42723,206.918438 136.305001,206.570924 134.366751,206.223404 C132.428501,205.875885 130.306272,205.329791 128,204.585106 L129.545685,199.744681 C130.723356,200.141846 131.802872,200.539005 132.784264,200.93617 C133.765656,201.333335 134.7225,201.755317 135.654822,202.202128 C136.587145,202.648938 137.519454,203.108154 138.451777,203.579787 C139.384099,204.051421 140.365477,204.535459 141.395939,205.031915 L140.843909,201.680851 C140.672165,200.638293 140.524958,199.608161 140.402284,198.590426 C140.27961,197.57269 140.181472,196.530147 140.107868,195.462766 C140.034264,194.395385 139.997462,193.241141 139.997462,192 L145.002538,192 C145.002538,193.241141 144.965736,194.395385 144.892132,195.462766 C144.818528,196.530147 144.72039,197.57269 144.597716,198.590426 C144.475042,199.608161 144.327835,200.638293 144.156091,201.680851 L143.604061,205.031915 C144.634523,204.535459 145.615901,204.051421 146.548223,203.579787 C147.480546,203.108154 148.412855,202.648938 149.345178,202.202128 C150.2775,201.755317 151.234344,201.333335 152.215736,200.93617 C153.197128,200.539005 154.276644,200.141846 155.454315,199.744681 L157,204.585106 C154.693728,205.329791 152.571499,205.875885 150.633249,206.223404 C148.694999,206.570924 146.57277,206.918438 144.266497,207.265957 Z" id="*-copy"></path>
            <path d="M78.5107422,250.708672 L97.4947422,250.708672 L97.4947422,253.060672 L78.5107422,253.060672 L78.5107422,250.708672 Z M78.5107422,241.888672 L97.4947422,241.888672 L97.4947422,244.240672 L78.5107422,244.240672 L78.5107422,241.888672 Z M102.198742,250.708672 L121.182742,250.708672 L121.182742,253.060672 L102.198742,253.060672 L102.198742,250.708672 Z M102.198742,241.888672 L121.182742,241.888672 L121.182742,244.240672 L102.198742,244.240672 L102.198742,241.888672 Z M125.886742,250.708672 L144.870742,250.708672 L144.870742,253.060672 L125.886742,253.060672 L125.886742,250.708672 Z M125.886742,241.888672 L144.870742,241.888672 L144.870742,244.240672 L125.886742,244.240672 L125.886742,241.888672 Z" id="===" transform="translate(111.690742, 247.474672) rotate(-52.000000) translate(-111.690742, -247.474672) "></path>
            <path d="M289.288366,452.857503 C289.288366,461.745289 287.763152,469.928058 284.712678,477.406057 C281.662204,484.884056 277.696647,491.534471 272.815889,497.357503 L268.288366,494.415354 C273.361786,488.408437 277.070464,482.049169 279.414513,475.337359 C281.758561,468.625548 282.930568,461.132338 282.930568,452.857503 C282.930568,444.582668 281.758561,437.089458 279.414513,430.377648 C277.070464,423.665837 273.361786,417.306569 268.288366,411.299652 L272.815889,408.357503 C277.696647,414.180535 281.662204,420.830951 284.712678,428.308949 C287.763152,435.786948 289.288366,443.969718 289.288366,452.857503 Z M294.765883,455.080359 C294.765883,446.192574 296.291097,438.009805 299.341571,430.531806 C302.392045,423.053807 306.357602,416.403391 311.23836,410.580359 L315.765883,413.522508 C310.692463,419.529425 306.983785,425.888694 304.639736,432.600504 C302.295688,439.312315 301.123681,446.805525 301.123681,455.080359 C301.123681,463.355194 302.295688,470.848404 304.639736,477.560215 C306.983785,484.272025 310.692463,490.631294 315.765883,496.638211 L311.23836,499.580359 C306.357602,493.757328 302.392045,487.106912 299.341571,479.628913 C296.291097,472.150914 294.765883,463.968145 294.765883,455.080359 Z" id=")(" transform="translate(291.895567, 453.881451) rotate(15.000000) translate(-291.895567, -453.881451) "></path>
        </g>
        <path d="M630,870 L10,870 C5.581722,870 2,866.418278 2,862 L2,673.34031 C18.7998482,673.725206 33.99013,680.494136 45.3375724,691.315558 C49.2991174,659.012506 76.7442346,634.004341 110.062257,634.004341 C117.786163,634.004341 125.19218,635.356515 132.073076,637.83315 C138.692417,610.870278 162.996868,590.861731 191.948942,590.861731 C201.928253,590.861731 211.324096,593.237608 219.653602,597.449297 C228.848249,574.901646 250.939546,559 276.752966,559 C309.02477,559 335.482016,583.808663 338.176027,615.424545 C340.290595,615.223029 342.42327,615.124286 344.596185,615.124286 C378.658631,615.124286 406.262693,642.770297 406.262693,676.886995 C406.262693,681.078533 405.840182,685.189464 405.055519,689.181501 C405.45791,689.159334 405.860302,689.139182 406.262693,689.139182 C418.81731,689.139182 428.997817,699.235145 429.158774,711.749303 C435.172516,707.799585 442.357217,705.5023 450.063016,705.5023 C469.055898,705.5023 484.789409,719.386769 487.767106,737.583684 C500.5028,722.288602 519.674746,712.535217 541.124229,712.535217 C569.754389,712.535217 594.320395,729.907931 604.943532,754.674276 C614.339376,748.062528 625.706937,744.094674 638,743.810536 L638,862 C638,866.418278 634.418278,870 630,870 Z" id="Fill-2" fill="#191E28"></path>
        <g id="Iconos/Startups" fill="#EBEFEE" fill-rule="nonzero" transform="translate(379.000000, 321.000000) rotate(20.000000) translate(-379.000000, -321.000000) translate(274.000000, 148.000000)">
            <mask id="mask-2" fill="white">
                <use xlink:href="#path-1"></use>
            </mask>
            <g id="Background" fill="none"></g>
            <path d="M118.064516,144.548356 C118.064516,139.403829 116.958239,135.332958 114.745685,132.328805 C112.531394,129.329855 109.447017,127.827778 105.483871,127.827778 C101.522461,127.827778 98.4328744,129.329855 96.222057,132.328805 C94.0077662,135.332958 92.9032258,139.403829 92.9032258,144.548356 C92.9032258,149.758793 94.0077662,153.881699 96.222057,156.915339 C98.4328744,159.950714 101.522461,161.466667 105.483871,161.466667 C109.447017,161.466667 112.531394,159.950714 114.745685,156.915339 C116.958239,153.881699 118.064516,149.758793 118.064516,144.548356 Z M129.677419,144.068877 C129.677419,148.114293 129.086209,151.79943 127.907236,155.126005 C126.72654,158.454295 125.058052,161.291919 122.894878,163.640594 C120.731704,165.987553 118.125553,167.816397 115.07815,169.121979 C112.029023,170.424129 108.669639,171.077778 105,171.077778 C101.328637,171.077778 97.9864902,170.424129 94.9718359,169.121979 C91.9554579,167.816397 89.3682674,165.987553 87.2050934,163.640594 C85.0419195,161.291919 83.3527478,158.454295 82.1410257,155.126005 C80.9275799,151.79943 80.3225806,148.114293 80.3225806,144.068877 C80.3225806,140.025176 80.9275799,136.355479 82.1410257,133.059786 C83.3527478,129.765808 85.0574323,126.943624 87.2533555,124.594949 C89.4492787,122.246275 92.0537056,120.436303 95.0700836,119.163318 C98.084738,117.892048 101.394136,117.255556 105,117.255556 C108.604141,117.255556 111.930775,117.892048 114.979902,119.163318 C118.025582,120.436303 120.631733,122.246275 122.794907,124.594949 C124.958081,126.943624 126.643805,129.765808 127.858974,133.059786 C129.070696,136.355479 129.677419,140.025176 129.677419,144.068877 Z M79.4079599,311.358402 C78.0591832,303.96944 78.0469216,296.949062 79.3711751,290.290344 C80.6919253,283.635087 82.8797463,277.537031 85.9293831,271.994444 L89.9739617,273.80102 C86.8104671,279.521841 84.7943086,285.339567 83.9307412,291.254197 C83.0636704,297.170558 83.2598561,303.56971 84.515795,310.449923 C85.7699822,317.330137 87.8474487,323.393584 90.7516979,328.638536 C93.6489404,333.885218 97.5936745,338.643917 102.580645,342.911172 L99.4294122,346 C94.614104,341.855606 90.4083729,336.897907 86.8174738,331.11652 C83.224823,325.335134 80.7567367,318.749094 79.4079599,311.358402 Z M123.182558,331.11479 C119.590299,336.896176 115.38853,341.855606 110.571995,346 L107.419355,342.911172 C112.405781,338.642186 116.350085,333.886948 119.252266,328.638536 C122.152695,323.393584 124.229935,317.330137 125.483985,310.449923 C126.739787,303.56971 126.935952,297.172288 126.068975,291.254197 C125.203751,285.339567 123.187812,279.521841 120.024663,273.799289 L124.070552,271.994444 C127.119856,277.537031 129.305686,283.635087 130.629796,290.290344 C131.953905,296.947331 131.939893,303.96944 130.591263,311.358402 C129.244385,318.749094 126.774817,325.335134 123.182558,331.11479 Z M78.78036,74.9666667 L69.6774194,71.6568039 L100.329616,0 L109.663491,0 L140.322581,71.6568039 L131.223087,74.9666667 L105,12.5774783 L78.78036,74.9666667 Z M13.5483871,208.30233 L47.4193548,211.444444 C46.7479537,209.853121 46.0922071,208.247699 45.4642905,206.617606 C42.9804543,200.176535 41.0880077,193.44469 39.7260723,186.455556 L13.5483871,208.30233 Z M48.3126551,160.505556 C48.3126551,176.054317 50.4091407,190.133563 54.6055745,202.746763 C58.7968146,215.356493 65.4342432,227.305201 74.516129,238.594622 L66.4989324,244.122222 C60.6751688,236.847511 55.5940908,228.871875 51.2228057,220.224806 L4.38167234,215.427626 L1.93548387,207.467604 L37.9150557,177.123056 C37.2779733,171.734253 36.9334641,166.203183 36.9334641,160.505556 C36.9334641,143.806512 39.6722257,128.431247 45.1480178,114.378025 C50.6203474,100.326539 57.7390501,87.8313169 66.4989324,76.8888889 L74.516129,82.4164893 C65.4342432,93.7059104 58.7968146,105.654618 54.6055745,118.264348 C50.4091407,130.877548 48.3126551,144.956794 48.3126551,160.505556 Z M162.580645,211.444444 L196.451613,208.30233 L170.273928,186.455556 C168.911992,193.446453 167.019546,200.176535 164.537449,206.617606 C163.907793,208.249462 163.252046,209.854883 162.580645,211.444444 Z M208.064516,207.467984 L205.618269,215.427924 L158.776019,220.223319 C154.404629,228.870298 149.32343,236.847587 143.501259,244.122222 L135.483871,238.592944 C144.564242,227.30364 151.201829,215.356791 155.3949,202.745457 C159.589703,190.132388 161.686239,176.053288 161.686239,160.504688 C161.686239,144.956088 159.589703,130.876988 155.3949,118.265654 C151.201829,105.65432 144.564242,93.7057359 135.483871,82.4181669 L143.501259,76.8888889 C152.259619,87.8329383 159.378491,100.328031 164.852683,114.377636 C170.328605,128.430712 173.065701,143.805818 173.065701,160.504688 C173.065701,166.202256 172.721184,171.733269 172.084086,177.122016 L208.064516,207.467984 Z M102.084878,272.955556 C102.084878,271.660413 101.854577,270.553901 101.397439,269.637701 C100.936837,268.718133 100.342904,267.950143 99.6139065,267.330361 C98.8849095,266.710579 98.0485542,266.250795 97.1048407,265.954378 C96.1593956,265.65796 95.2000978,265.509751 94.2304105,265.509751 L79.6539325,265.509751 C77.4409676,265.509751 75.4704245,265.267228 73.7423032,264.780497 C72.0141819,264.29545 70.5561878,263.458408 69.3683208,262.271054 C68.1821855,261.0837 67.2904195,259.507298 66.696486,257.536796 C66.1025526,255.566293 65.8064516,253.125902 65.8064516,250.212253 L65.8064516,249.888889 L71.7163494,249.888889 C71.7163494,252.96422 72.2704564,255.162088 73.3769389,256.485861 C74.4851529,257.806266 76.6028807,258.466469 79.7335854,258.466469 L92.2044567,258.466469 C95.7680575,258.466469 98.5212768,258.939726 100.464115,259.884557 C102.408684,260.827703 103.920357,262.163266 105.000866,263.891245 C106.079643,262.163266 107.591316,260.827703 109.535885,259.884557 C111.478723,258.939726 114.231943,258.466469 117.793812,258.466469 L130.264683,258.466469 C133.395388,258.466469 135.516579,257.806266 136.623061,256.485861 C137.727812,255.162088 138.281919,252.96422 138.281919,249.888889 L144.193548,249.888889 L144.193548,250.212253 C144.193548,253.125902 143.883595,255.566293 143.261956,257.536796 C142.642049,259.507298 141.750283,261.0837 140.590121,262.271054 C139.428228,263.458408 137.984087,264.29545 136.257697,264.780497 C134.529576,265.267228 132.560764,265.509751 130.346067,265.509751 L115.76959,265.509751 C114.798171,265.509751 113.838873,265.65796 112.895159,265.954378 C111.949714,266.250795 111.113359,266.710579 110.384362,267.330361 C109.655365,267.950143 109.061431,268.718133 108.604293,269.637701 C108.143692,270.553901 107.915122,271.660413 107.915122,272.955556 L102.084878,272.955556 Z" id="Combined-Shape" fill="#99FF99" fill-rule="evenodd" mask="url(#mask-2)"></path>
        </g>
    </g>
</svg>