<?xml version="1.0" encoding="UTF-8"?>
<svg width="217px" height="360px" viewBox="0 0 217 360" version="1.1" xmlns="http://www.w3.org/2000/svg" xmlns:xlink="http://www.w3.org/1999/xlink">
    <!-- Generator: Sketch 53.1 (72631) - https://sketchapp.com -->
    <title>Iconos/Startups Copy</title>
    <desc>Created with Sketch.</desc>
    <g id="Iconos/Startups-Copy" stroke="none" stroke-width="1" fill="none" fill-rule="evenodd">
        <path d="M143.260604,152.206355 C143.260604,146.853668 142.117451,142.61808 139.831145,139.492371 C137.543045,136.372076 134.355856,134.809221 130.260604,134.809221 C126.167148,134.809221 122.974574,136.372076 120.690063,139.492371 C118.401963,142.61808 117.260604,146.853668 117.260604,152.206355 C117.260604,157.627619 118.401963,161.917348 120.690063,165.073736 C122.974574,168.231929 126.167148,169.809221 130.260604,169.809221 C134.355856,169.809221 137.543045,168.231929 139.831145,165.073736 C142.117451,161.917348 143.260604,157.627619 143.260604,152.206355 M155.260604,151.707475 C155.260604,155.916578 154.649687,159.750825 153.431415,163.212001 C152.211362,166.674962 150.487258,169.627403 148.251978,172.071111 C146.016698,174.513034 143.323676,176.415877 140.174692,177.774286 C137.023928,179.129124 133.552565,179.809221 129.760604,179.809221 C125.966863,179.809221 122.513311,179.129124 119.398168,177.774286 C116.281244,176.415877 113.607814,174.513034 111.372534,172.071111 C109.137254,169.627403 107.391777,166.674962 106.139664,163.212001 C104.88577,159.750825 104.260604,155.916578 104.260604,151.707475 C104.260604,147.500156 104.88577,143.681974 106.139664,140.252929 C107.391777,136.825669 109.153284,133.889293 111.422405,131.445585 C113.691526,129.001877 116.382767,127.118669 119.499691,125.794176 C122.614834,124.471468 126.034544,123.809221 129.760604,123.809221 C133.484883,123.809221 136.922405,124.471468 140.07317,125.794176 C143.220372,127.118669 145.913395,129.001877 148.148674,131.445585 C150.383954,133.889293 152.125869,136.825669 153.381544,140.252929 C154.633657,143.681974 155.260604,147.500156 155.260604,151.707475" id="Fill-1" fill="#31AEA9" fill-rule="nonzero" transform="translate(129.760604, 151.809221) rotate(20.000000) translate(-129.760604, -151.809221) "></path>
        <path d="M45.5636523,310.292923 C44.1699163,302.604986 44.157246,295.300545 45.5256413,288.3724 C46.8904166,281.447855 49.1511649,275.103057 52.3024563,269.336204 L56.4818541,271.215877 C53.2129098,277.168177 51.129546,283.221302 50.237193,289.375252 C49.3412198,295.531003 49.5439451,302.189081 50.8417486,309.347685 C52.137742,316.506288 54.2844574,322.815078 57.2855149,328.272253 C60.2793322,333.731228 64.3555574,338.682475 69.5087604,343.122394 L66.2524864,346.336204 C61.2766679,342.024117 56.9307457,336.865818 53.22015,330.850502 C49.5077441,324.835187 46.9573883,317.98266 45.5636523,310.292923" id="Fill-3" fill="#31AEA9" fill-rule="nonzero" transform="translate(57.008760, 307.836204) rotate(20.000000) translate(-57.008760, -307.836204) "></path>
        <path d="M88.9881821,341.109306 C85.2761814,347.124621 80.934353,352.284722 75.9572677,356.596808 L72.699539,353.382998 C77.8521798,348.941279 81.9279603,343.993633 84.9268805,338.532857 C87.9239908,333.075682 90.070472,326.766892 91.366324,319.608289 C92.6639859,312.449685 92.866689,305.793408 91.9708137,299.635857 C91.0767482,293.481906 88.9936117,287.428781 85.725024,281.474681 L89.9057757,279.596808 C93.0567232,285.363661 95.3154151,291.708459 96.6836611,298.633004 C98.0519071,305.559349 98.0374283,312.86559 96.6438444,320.553527 C95.2520703,328.243264 92.7001829,335.095791 88.9881821,341.109306" id="Fill-6" fill="#31AEA9" fill-rule="nonzero" transform="translate(85.199539, 318.096808) rotate(20.000000) translate(-85.199539, -318.096808) "></path>
        <polygon id="Fill-9" fill="#31AEA9" fill-rule="nonzero" transform="translate(167.724840, 47.503340) rotate(20.000000) translate(-167.724840, -47.503340) " points="140.631212 86.5033405 131.22484 83.0595527 162.898777 8.50334047 172.54378 8.50334047 204.22484 83.0595527 194.82203 86.5033405 167.72484 21.5897341"></polygon>
        <path d="M33.607471,193.915354 L60.6577458,171.184606 C62.065079,178.456538 64.0206072,185.46077 66.5872379,192.162462 C67.236085,193.858513 67.9136899,195.528894 68.607471,197.184606 L33.607471,193.915354 Z M69.530548,144.184606 C69.530548,128.006704 71.6969165,113.357778 76.0332313,100.234217 C80.3641794,87.1142668 87.2228556,74.682085 96.607471,62.9358665 L88.3230345,57.184606 C79.2711562,68.5697912 71.9151633,81.5706004 66.2604227,96.190644 C60.6021043,110.812493 57.7720506,126.809878 57.7720506,144.184606 C57.7720506,150.112773 58.1280435,155.867644 58.7863619,161.474491 L21.607471,193.046853 L24.1351991,201.328957 L72.5377036,206.320243 C77.0546982,215.317192 82.3051454,223.615543 88.3230345,231.184606 L96.607471,225.433346 C87.2228556,213.687127 80.3641794,201.254945 76.0332313,188.134995 C71.6969165,175.011435 69.530548,160.362508 69.530548,144.184606 L69.530548,144.184606 Z" id="Fill-11" fill="#31AEA9" fill-rule="nonzero" transform="translate(59.107471, 144.184606) rotate(20.000000) translate(-59.107471, -144.184606) "></path>
        <path d="M179.285053,244.383386 C179.978834,242.729507 180.656439,241.059126 181.307083,239.361242 C183.871917,232.659549 185.827445,225.657152 187.234778,218.383386 L214.285053,241.114133 L179.285053,244.383386 Z M226.285053,240.246029 L189.105275,208.672189 C189.763609,203.0654 190.11961,197.310589 190.11961,191.382483 C190.11961,174.007936 187.291278,158.010716 181.632825,143.389019 C175.97616,128.770932 168.619992,115.770258 159.569687,104.383386 L151.285053,110.136392 C160.668103,121.880683 167.526943,134.312736 171.859783,147.434355 C176.194412,160.555975 178.360833,175.204749 178.360833,191.382483 C178.360833,207.560218 176.194412,222.208992 171.859783,235.332416 C167.526943,248.454036 160.668103,260.884283 151.285053,272.63038 L159.569687,278.383386 C165.58593,270.814401 170.836503,262.514332 175.353605,253.517475 L223.757264,248.528047 L226.285053,240.246029 Z" id="Fill-13" fill="#31AEA9" fill-rule="nonzero" transform="translate(188.785053, 191.383386) rotate(20.000000) translate(-188.785053, -191.383386) "></path>
        <path d="M85.0218536,278.451721 C85.0218536,277.104174 84.7838762,275.952889 84.3115,274.999618 C83.8355451,274.042843 83.2218139,273.243777 82.4685169,272.598917 C81.71522,271.954058 80.8509862,271.47567 79.8758155,271.167258 C78.8988556,270.858847 77.9075812,270.704642 76.905571,270.704642 L61.8432104,270.704642 C59.55648,270.704642 57.5202521,270.452305 55.7345268,269.94588 C53.9488014,269.441207 52.4422075,268.570296 51.214745,267.334899 C49.9890718,266.099501 49.0675803,264.459315 48.453849,262.409081 C47.8401178,260.358847 47.5341468,257.819712 47.5341468,254.78817 L47.5341468,254.451721 L53.6410412,254.451721 C53.6410412,257.651487 54.2136184,259.938287 55.3569836,261.315623 C56.5021382,262.689455 58.6904569,263.376371 61.9255184,263.376371 L74.8120854,263.376371 C78.4944729,263.376371 81.3394661,263.868777 83.3470651,264.851838 C85.3564535,265.833146 86.9185158,267.222749 88.0350415,269.020646 C89.1497778,267.222749 90.7118402,265.833146 92.7212285,264.851838 C94.7288275,263.868777 97.5738208,263.376371 101.254419,263.376371 L114.140986,263.376371 C117.376047,263.376371 119.567945,262.689455 120.71131,261.315623 C121.852886,259.938287 122.425463,257.651487 122.425463,254.451721 L128.534147,254.451721 L128.534147,254.78817 C128.534147,257.819712 128.213861,260.358847 127.571501,262.409081 C126.93093,264.459315 126.009439,266.099501 124.810605,267.334899 C123.609982,268.570296 122.117703,269.441207 120.333767,269.94588 C118.548042,270.452305 116.513603,270.704642 114.225083,270.704642 L99.1627227,270.704642 C98.1589232,270.704642 97.1676488,270.858847 96.1924781,271.167258 C95.2155182,271.47567 94.3512844,271.954058 93.5979874,272.598917 C92.8446905,273.243777 92.2309592,274.042843 91.758583,274.999618 C91.2826281,275.952889 91.04644,277.104174 91.04644,278.451721 L85.0218536,278.451721 Z" id="Fill-15" fill="#31AEA9" fill-rule="nonzero" transform="translate(88.034147, 266.451721) rotate(20.000000) translate(-88.034147, -266.451721) "></path>
    </g>
</svg>