<svg xmlns="http://www.w3.org/2000/svg" width="450" height="320" viewBox="0 0 450 320">
    <g fill="none" fill-rule="evenodd">
        <rect width="448" height="318" x="1" y="1" fill="#0A0A0A" stroke="#2E394F" stroke-width="2" rx="8"/>
        <path fill="#2E394F" d="M40 10v22H18V10h22zm-2 2H20v18h18V12zm-3 3v12H23V15h12zM430 10v22h-22V10h22zm-2 2h-8v10h-10v8h18V12zm-10 0h-8v8h8v-8zM380 29v2H70v-2h310zm0-9v2H70v-2h310zm0-9v2H70v-2h310z"/>
        <path stroke="#2E3950" stroke-width="2" d="M442 1H8c-1.933 0-3.683.784-4.95 2.05C1.784 4.317 1 6.067 1 8v33h448V8c0-1.933-.784-3.683-2.05-4.95C445.683 1.784 443.933 1 442 1z"/>
        <rect width="191" height="180" x="34" y="90" stroke="#2E394F" rx="8"/>
        <g fill="#2E394F">
            <path d="M93.598 75.195L53.293 115.5l40.305 40.305 40.305-40.305-40.305-40.305zm0 1.413l38.89 38.891-38.89 38.891-38.892-38.89 38.891-38.892zM117.5 205.5c0 13.531 10.969 24.5 24.5 24.5s24.5-10.969 24.5-24.5S155.531 181 142 181s-24.5 10.969-24.5 24.5zm1 0c0-12.979 10.521-23.5 23.5-23.5s23.5 10.521 23.5 23.5S154.979 229 142 229s-23.5-10.521-23.5-23.5zM155.696 91v49h49V91h-49zm.999 1h47v47h-47V92zM117.5 24.5c0 13.531 10.969 24.5 24.5 24.5s24.5-10.969 24.5-24.5S155.531 0 142 0s-24.5 10.969-24.5 24.5zm1 0C118.5 11.521 129.021 1 142 1s23.5 10.521 23.5 23.5S154.979 48 142 48s-23.5-10.521-23.5-23.5z" transform="translate(225 71)"/>
            <path d="M28 88L28 143 27 143 27 88z" transform="translate(225 71) rotate(-90 27.5 115.5)"/>
            <path d="M145.196 103.5L145.196 127.5 144.196 127.5 144.196 103.5z" transform="translate(225 71) rotate(-90 144.696 115.5)"/>
            <path d="M93 154.5h1v51h24v1H93v-52zM93 76.5h1v-51h24v-1H93v52z" transform="translate(225 71)"/>
        </g>
        <g fill="#9F9">
            <path d="M102.273 95.557l3.497 5.082c-6.922 5.552-14.825 10.064-23.711 13.533-8.888 3.471-18.613 5.206-29.174 5.206-10.563 0-20.287-1.735-29.174-5.206-8.887-3.469-16.79-7.98-23.711-13.533l3.496-5.082c7.141 5.756 14.697 9.963 22.673 12.62 7.977 2.66 16.882 3.99 26.716 3.99s18.738-1.33 26.716-3.99c7.975-2.657 15.532-6.864 22.672-12.62zM52.947 60.835c2.587 0 4.934.385 7.041 1.158 2.107.771 3.913 1.856 5.414 3.254 1.502 1.398 2.661 3.056 3.474 4.976.813 1.92 1.22 4.026 1.22 6.322 0 2.294-.407 4.413-1.22 6.353-.813 1.94-1.972 3.598-3.474 4.976-1.5 1.377-3.307 2.45-5.414 3.223-2.107.771-4.454 1.158-7.04 1.158-2.589 0-4.945-.376-7.073-1.127-2.128-.75-3.944-1.814-5.447-3.19-1.5-1.378-2.669-3.037-3.504-4.978-.834-1.94-1.25-4.08-1.25-6.415 0-2.337.416-4.466 1.25-6.384.835-1.92 2.003-3.568 3.504-4.945 1.503-1.377 3.32-2.452 5.447-3.223 2.128-.773 4.484-1.158 7.072-1.158zm-.062-27.122c10.562 0 20.286 1.735 29.174 5.206 8.887 3.468 16.789 7.981 23.71 13.533l-3.496 5.081c-7.14-5.756-14.697-9.963-22.672-12.62-7.978-2.659-16.882-3.989-26.716-3.989s-18.74 1.33-26.716 3.99c-7.975 2.656-15.532 6.863-22.673 12.62L0 52.451C6.92 46.9 14.824 42.387 23.71 38.92c8.888-3.47 18.612-5.206 29.175-5.206zM70.26 1l5.59 2.213c-1.328 1.92-2.51 3.747-3.542 5.479-1.034 1.735-1.937 3.47-2.711 5.203-.775 1.734-1.422 3.524-1.938 5.367-.516 1.845-.922 3.838-1.216 5.977h-8.966c.439-2.213 1.119-4.444 2.037-6.696.918-2.25 1.948-4.408 3.088-6.475 1.137-2.065 2.369-4.04 3.69-5.921C67.616 4.265 68.94 2.55 70.262 1zM52.11 1l5.589 2.213c-1.328 1.92-2.508 3.747-3.542 5.479-1.034 1.735-1.937 3.47-2.71 5.203-.776 1.734-1.422 3.524-1.938 5.367-.518 1.845-.924 3.838-1.218 5.977h-8.965c.44-2.213 1.12-4.444 2.038-6.696.918-2.25 1.947-4.408 3.086-6.475 1.139-2.065 2.37-4.04 3.693-5.921C49.463 4.265 50.787 2.55 52.11 1z" transform="translate(76 120)"/>
        </g>
    </g>
</svg>
