<svg xmlns="http://www.w3.org/2000/svg" width="449" height="320" viewBox="0 0 449 320">
    <g fill="none" fill-rule="evenodd">
        <rect width="447" height="318" x="1" y="1" fill="#0A0A0A" stroke="#2E394F" stroke-width="2" rx="8"/>
        <path fill="#2E394F" d="M40 10v22H18V10h22zm-2 2H20v18h18V12zm-3 3v12H23V15h12zM429 10v22h-22V10h22zm-2 2h-8v10h-10v8h18V12zm-10 0h-8v8h8v-8zM379 29v2H70v-2h309zm0-9v2H70v-2h309zm0-9v2H70v-2h309z"/>
        <path stroke="#2E3950" stroke-width="2" d="M441 1H8c-1.933 0-3.683.784-4.95 2.05C1.784 4.317 1 6.067 1 8v33h447V8c0-1.933-.784-3.683-2.05-4.95C444.683 1.784 442.933 1 441 1z"/>
        <path fill="#9F9" d="M346.15 256.824c.265 1.152.433 2.377.506 3.673.07 1.297.109 2.449.109 3.458 0 2.089-.247 3.998-.741 5.726-.494 1.729-1.264 3.21-2.315 4.447-1.047 1.237-2.373 2.191-3.974 2.864-1.603.672-3.511 1.008-5.73 1.008-2.167 0-4.052-.336-5.655-1.008-1.603-.673-2.94-1.627-4.012-2.864-1.073-1.236-1.868-2.724-2.385-4.465-.251-.846-.439-1.738-.569-2.67-.107.034-.222.069-.346.102-.24.063-.508.114-.806.153-.3.037-.619.056-.96.056-.665 0-1.262-.102-1.79-.306-.53-.203-.977-.503-1.344-.898-.366-.395-.648-.878-.844-1.447-.196-.569-.294-1.223-.294-1.963 0-.739.113-1.393.34-1.962.225-.57.534-1.052.927-1.447.391-.396.852-.695 1.381-.899.528-.204 1.095-.305 1.7-.305.367 0 .7.027.999.082.298.055.558.117.78.185.15.047.276.095.39.145.085-.567.185-1.125.31-1.665zm-3.435 4.537h-17.491c-.024.264-.041.612-.053 1.045-.015.432-.02 1.02-.02 1.765 0 3.05.779 5.324 2.332 6.825 1.552 1.5 3.73 2.25 6.523 2.25 2.841 0 5.023-.732 6.541-2.196 1.518-1.465 2.277-3.734 2.277-6.807 0-1.346-.035-2.305-.11-2.882zm-23.315-1.857c-.384 0-.742.066-1.074.198-.333.132-.621.329-.864.592-.243.263-.433.594-.57.994-.135.4-.203.863-.203 1.39 0 .467.053.896.16 1.287.106.39.27.729.492 1.014.221.284.503.505.844.662.341.158.75.235 1.228.235.571 0 1.036-.056 1.394-.171.161-.052.302-.102.43-.151-.038-.544-.06-1.1-.06-1.672 0-1.008.04-2.149.126-3.42.012-.172.038-.332.053-.5-.192-.099-.422-.195-.721-.286-.38-.115-.792-.172-1.235-.172zm10.894-13.992c0 .99-.298 1.744-1.031 3.322-.55 1.201-.963 2.073-.963 2.945 0 .847.664 1.247 1.925 1.271v1.413c-2.566.118-3.46-1.248-3.46-2.708 0-.942.276-1.79 1.009-3.416.526-1.106 1.007-1.977 1.007-2.827 0-.847-.572-1.365-1.947-1.412v-1.39c2.29-.094 3.46 1.179 3.46 2.802zm10.588 0c0 .99-.298 1.744-1.031 3.322-.55 1.201-.963 2.073-.963 2.945 0 .847.664 1.247 1.925 1.271v1.413c-2.566.118-3.46-1.248-3.46-2.708 0-.942.276-1.79 1.01-3.416.525-1.106 1.006-1.977 1.006-2.827 0-.847-.572-1.365-1.947-1.412v-1.39c2.291-.094 3.46 1.179 3.46 2.802zm-4.706-4.705c0 .99-.298 1.743-1.031 3.322-.55 1.2-.962 2.072-.962 2.944 0 .848.663 1.248 1.924 1.272v1.413c-2.566.118-3.46-1.249-3.46-2.709 0-.942.276-1.79 1.01-3.415.526-1.106 1.006-1.978 1.006-2.827 0-.847-.572-1.365-1.947-1.412v-1.39c2.291-.095 3.46 1.178 3.46 2.802z"/>
        <g fill="#9F9">
            <path d="M62.04 34.26l2.405 1.64c-1.768 2.232-3.11 4.66-4.027 7.283-.917 2.623-1.383 5.477-1.4 8.562-.016 3.087.419 5.946 1.307 8.579.889 2.63 2.205 5.073 3.949 7.325l-2.424 1.614c-1.89-2.3-3.406-4.942-4.548-7.925-1.143-2.983-1.705-6.186-1.686-9.61.019-3.423.615-6.62 1.79-9.592 1.174-2.97 2.72-5.596 4.634-7.877zm25.414 0c1.914 2.28 3.46 4.906 4.634 7.876 1.175 2.972 1.77 6.169 1.79 9.592.018 3.424-.544 6.627-1.686 9.61-1.143 2.983-2.66 5.625-4.549 7.925L85.22 67.65c1.744-2.252 3.06-4.693 3.948-7.325.888-2.633 1.324-5.492 1.307-8.579-.017-3.085-.483-5.94-1.4-8.562-.916-2.623-2.259-5.05-4.027-7.284l2.406-1.64zm-12.24 3.723l3.948 7.37-1.507.822-3.276-6.111-3.277 6.111-1.506-.823 3.948-7.369h1.67zM55.935 0l2.623 1.814c-1.928 2.47-3.391 5.157-4.39 8.059-.999 2.902-1.507 6.06-1.526 9.474-.018 3.414.457 6.577 1.425 9.49.968 2.912 2.402 5.613 4.304 8.105l-2.642 1.786c-1.827-2.259-3.315-4.831-4.501-7.683-.164.068-.362.142-.597.222-.465.16-1.044.305-1.737.435-.692.13-1.496.229-2.41.295-.917.065-1.904.062-2.962-.01-1.84-.124-3.495-.54-4.965-1.249-1.471-.708-2.71-1.68-3.716-2.917-1.005-1.235-1.748-2.727-2.224-4.473-.479-1.747-.644-3.72-.496-5.92.147-2.2.612-4.13 1.394-5.791.781-1.662 1.779-3.035 2.99-4.122 1.212-1.086 2.594-1.882 4.146-2.387 1.553-.505 3.186-.699 4.9-.584 1.083.074 2.054.215 2.913.425.86.21 1.603.44 2.233.684.502.197.924.387 1.273.573 1.103-2.283 2.422-4.36 3.965-6.226zm37.62 0c1.544 1.865 2.863 3.943 3.966 6.226.349-.186.771-.376 1.273-.573.63-.245 1.374-.474 2.233-.684.859-.21 1.83-.351 2.914-.425 1.714-.115 3.346.08 4.898.584 1.553.505 2.935 1.301 4.147 2.388 1.212 1.086 2.209 2.46 2.99 4.12.783 1.662 1.247 3.593 1.395 5.793.147 2.2-.018 4.172-.496 5.919-.477 1.746-1.22 3.238-2.225 4.474-1.005 1.235-2.244 2.208-3.716 2.916-1.47.709-3.126 1.125-4.965 1.25-1.058.071-2.045.074-2.961.009-.915-.066-1.72-.164-2.411-.295-.693-.13-1.272-.276-1.738-.435-.234-.08-.432-.154-.595-.222-1.187 2.853-2.675 5.424-4.502 7.683l-2.642-1.786c1.901-2.492 3.336-5.193 4.304-8.105.968-2.913 1.443-6.076 1.424-9.49-.018-3.414-.526-6.572-1.525-9.474-1-2.902-2.463-5.588-4.39-8.059zM45.713 7.793c-1.386-.093-2.649.063-3.79.468-1.141.406-2.133 1.038-2.974 1.895-.842.857-1.514 1.924-2.017 3.197-.504 1.274-.81 2.72-.918 4.338-.105 1.569-.018 3.009.262 4.322.277 1.314.752 2.457 1.42 3.43.67.972 1.536 1.747 2.598 2.327 1.062.58 2.324.919 3.785 1.018 1.688.113 3.098.03 4.231-.249.727-.18 1.325-.35 1.822-.513-.81-2.742-1.213-5.64-1.197-8.7.019-3.592.612-6.957 1.765-10.1-.39-.188-.82-.38-1.304-.575-.531-.213-1.113-.399-1.748-.557-.635-.157-1.28-.257-1.935-.301zm61.857.468c-1.14-.405-2.404-.561-3.79-.468-.655.044-1.3.144-1.935.301-.635.159-1.217.344-1.748.557-.484.196-.915.387-1.304.576 1.153 3.143 1.746 6.507 1.765 10.1.016 3.06-.387 5.958-1.197 8.7.497.163 1.095.333 1.822.512 1.133.28 2.544.362 4.231.249 1.462-.1 2.724-.438 3.785-1.018 1.062-.58 1.928-1.355 2.597-2.327.67-.973 1.144-2.116 1.422-3.43.28-1.313.366-2.753.262-4.322-.11-1.617-.415-3.063-.918-4.338-.504-1.273-1.176-2.34-2.018-3.197-.841-.857-1.833-1.489-2.974-1.895zm-16.397 4.766c.148.62.311 1.393.487 2.322.176.928.264 2.001.264 3.221 0 1.125-.176 2.138-.528 3.038-.352.9-.853 1.67-1.501 2.308-.65.636-1.442 1.129-2.377 1.476-.936.347-1.987.52-3.154.52-1.094 0-2.104-.145-3.03-.436-.927-.29-1.724-.716-2.39-1.28-.668-.562-1.186-1.251-1.557-2.067-.37-.816-.556-1.75-.556-2.8 0-.843.112-1.59.333-2.236.223-.647.436-1.13.64-1.449H71.93c.204.319.417.802.64 1.45.221.646.333 1.392.333 2.236 0 1.05-.186 1.983-.556 2.799-.37.816-.89 1.505-1.556 2.068-.668.563-1.464.989-2.392 1.28-.926.29-1.936.436-3.029.436-1.167 0-2.218-.174-3.155-.521-.934-.347-1.727-.84-2.376-1.476-.648-.639-1.149-1.408-1.501-2.308-.352-.9-.528-1.913-.528-3.038 0-1.22.088-2.293.264-3.221.176-.93.338-1.703.487-2.322zm-1.834 2.617h-9.117c-.26.319-.51.778-.75 1.379-.241.6-.362 1.256-.362 1.968 0 .75.135 1.393.403 1.928.269.534.64.97 1.112 1.308.473.338 1.028.581 1.668.732.64.15 1.33.225 2.07.225 1.687 0 2.983-.422 3.892-1.267.908-.843 1.361-1.969 1.361-3.376 0-.787-.027-1.402-.083-1.842-.055-.44-.12-.793-.194-1.055zm-19.826 0h-9.117c-.074.262-.139.614-.194 1.055-.057.44-.084 1.055-.084 1.842 0 1.407.454 2.533 1.362 3.376.908.845 2.205 1.267 3.891 1.267.741 0 1.432-.076 2.072-.225.638-.15 1.195-.394 1.667-.732.473-.338.843-.774 1.111-1.308.27-.535.404-1.178.404-1.928 0-.712-.121-1.368-.362-1.968-.24-.601-.49-1.06-.75-1.379z" transform="translate(150 90)"/>
            <path d="M26.145 103.402V64.715c0-2.881 1.772-5.44 4.411-6.384l18.13-6.472-.494-1.396-18.13 6.472c-3.232 1.155-5.393 4.276-5.393 7.78v40.17h99.662v-40.17c0-3.504-2.16-6.625-5.392-7.78l-18.13-6.472-.495 1.396 18.13 6.472c2.639.944 4.41 3.503 4.41 6.384v38.687H26.146z" transform="translate(150 90)"/>
            <path d="M144.066 177.116H5.427v-64.184c0-4.991 4.057-9.037 9.06-9.037h120.52c5.002 0 9.06 4.046 9.06 9.037v64.184zm-1.482-64.184c0-4.173-3.392-7.557-7.578-7.557H14.487c-4.185 0-7.578 3.384-7.578 7.557v62.703h135.675v-62.703z" transform="translate(150 90)"/>
            <path d="M149 188H0v-10.177c0-1.488 1.253-2.686 2.79-2.686h143.42c1.537 0 2.79 1.198 2.79 2.686V188zm-1.974-10.113c0-.422-.371-.771-.84-.771H2.814c-.469 0-.84.35-.84.77v8.135h145.052v-8.134zM74.007 94L74.007 104.389 75.487 104.389 75.487 94z" transform="translate(150 90)"/>
            <path d="M47.858 86.813L62.987 78.384 74.5 95.979 86.013 78.384 101.142 86.813 101.142 59.368 99.666 59.368 99.666 84.292 85.532 76.417 74.5 93.277 63.468 76.417 49.334 84.292 49.334 59.368 47.858 59.368zM80.028 135.288s.113 4.078-4.295 7.266c-4.41 3.187-8.14 2.015-8.14 2.015v.938s1.696 1.43 4.793 1.43c3.098 0 9.021-2.133 9.021-8.203 0-2.086-.904-3.446-.904-3.446v-.82l.633-1.08-1.017-.304-.294 1.22.203.984z" transform="translate(150 90)"/>
        </g>
    </g>
</svg>
