<?xml version="1.0" encoding="UTF-8"?>
<svg width="39.6px" height="64.8px" viewBox="0 0 132 216" version="1.1" xmlns="http://www.w3.org/2000/svg" xmlns:xlink="http://www.w3.org/1999/xlink">
    <!-- Generator: Sketch 58 (84663) - https://sketch.com -->
    <title>Ilustraciones/Reloj</title>
    <desc>Created with Sketch.</desc>
    <g id="Ilustraciones/Reloj" stroke="none" stroke-width="1" fill="none" fill-rule="evenodd">
        <g id="Group-21" fill="#99FF99">
            <rect id="Rectangle" x="0" y="0" width="132" height="24"></rect>
            <rect id="Rectangle-Copy-44" x="0" y="192" width="132" height="24"></rect>
            <rect id="Rectangle-Copy-19" x="12" y="24" width="12" height="48"></rect>
            <rect id="Rectangle-Copy-35" transform="translate(114.000000, 168.000000) rotate(-180.000000) translate(-114.000000, -168.000000) " x="108" y="144" width="12" height="48"></rect>
            <rect id="Rectangle-Copy-20" x="108" y="24" width="12" height="48"></rect>
            <rect id="Rectangle-Copy-36" transform="translate(18.000000, 168.000000) rotate(-180.000000) translate(-18.000000, -168.000000) " x="12" y="144" width="12" height="48"></rect>
            <rect id="Rectangle-Copy-31" x="96" y="72" width="12" height="12"></rect>
            <rect id="Rectangle-Copy-37" transform="translate(30.000000, 138.000000) rotate(-180.000000) translate(-30.000000, -138.000000) " x="24" y="132" width="12" height="12"></rect>
            <rect id="Rectangle-Copy-32" x="84" y="84" width="12" height="12"></rect>
            <rect id="Rectangle-Copy-38" transform="translate(42.000000, 126.000000) rotate(-180.000000) translate(-42.000000, -126.000000) " x="36" y="120" width="12" height="12"></rect>
            <rect id="Rectangle-Copy-33" x="72" y="96" width="12" height="24"></rect>
            <rect id="Rectangle-Copy-29" x="60" y="73" width="12" height="12"></rect>
            <rect id="Rectangle-Copy-30" x="48" y="61" width="12" height="12"></rect>
            <rect id="Rectangle-Copy-34" x="72" y="61" width="12" height="12"></rect>
            <rect id="Rectangle-Copy-21" x="24" y="72" width="12" height="12"></rect>
            <rect id="Rectangle-Copy-42" transform="translate(102.000000, 138.000000) rotate(-180.000000) translate(-102.000000, -138.000000) " x="96" y="132" width="12" height="12"></rect>
            <rect id="Rectangle-Copy-27" x="36" y="84" width="12" height="12"></rect>
            <rect id="Rectangle-Copy-43" transform="translate(90.000000, 126.000000) rotate(-180.000000) translate(-90.000000, -126.000000) " x="84" y="120" width="12" height="12"></rect>
            <rect id="Rectangle-Copy-28" x="48" y="96" width="12" height="24"></rect>
            <rect id="Rectangle-Copy-46" transform="translate(66.000000, 168.000000) rotate(-180.000000) translate(-66.000000, -168.000000) " x="36" y="156" width="60" height="24"></rect>
            <rect id="Rectangle-Copy-40" transform="translate(66.000000, 150.000000) rotate(-180.000000) translate(-66.000000, -150.000000) " x="48" y="144" width="36" height="12"></rect>
        </g>
    </g>
</svg>