<svg xmlns="http://www.w3.org/2000/svg" width="449" height="320" viewBox="0 0 449 320">
    <g fill="none" fill-rule="evenodd">
        <rect width="447" height="318" x="1" y="1" fill="#0A0A0A" stroke="#2E394F" stroke-width="2" rx="8"/>
        <path fill="#2E394F" d="M40 10v22H18V10h22zm-2 2H20v18h18V12zm-3 3v12H23V15h12zM429 10v22h-22V10h22zm-2 2h-8v10h-10v8h18V12zm-10 0h-8v8h8v-8zM379 29v2H70v-2h309zm0-9v2H70v-2h309zm0-9v2H70v-2h309z"/>
        <path stroke="#2E3950" stroke-width="2" d="M441 1H8c-1.933 0-3.683.784-4.95 2.05C1.784 4.317 1 6.067 1 8v33h447V8c0-1.933-.784-3.683-2.05-4.95C444.683 1.784 442.933 1 441 1z"/>
        <g fill="#191E28" font-family="UbuntuMono-Regular, Ubuntu Mono" font-size="10">
            <text transform="translate(28 60)">
                <tspan x="0" y="9.081">010011100110111101110011001000000110010101101110011000110110000101101110011101</tspan> <tspan x="0" y="19.081">000110000100100000011011000110111100100000011100010111010101100101001000000110</tspan> <tspan x="0" y="29.081">100001100001011000110110010101101101011011110111001100101100001000000111100100</tspan> <tspan x="0" y="39.081">100000011001000110100101110011011001100111001001110101011101000110000101101101</tspan> <tspan x="0" y="49.081">011011110111001100100000011000110110111101101110001000000110010101101100011011</tspan> <tspan x="0" y="59.081">000110111100100000011000110111010101100001011011100110010001101111001000000111</tspan> <tspan x="0" y="69.081">010001110010011000010110001001100001011010100110000101101101011011110111001100</tspan> <tspan x="0" y="79.081">100000011110010010000001100101011011100010000001101110011101010110010101110011</tspan> <tspan x="0" y="89.081">011101000111001001101111001000000111010001101001011001010110110101110000011011</tspan> <tspan x="0" y="99.081">110010000001100100011001010010000001101111011000110110100101101111001011100010</tspan> <tspan x="0" y="109.081">000001000101011011100010000001010000011000010111000001100001010011010110111101</tspan> <tspan x="0" y="119.081">101110011011110010000001110100011010010110010101101110011001010111001100100000</tspan> <tspan x="0" y="129.081">011000010010000001110100011101010010000001101100011000010110010001101111001000</tspan> <tspan x="0" y="139.081">000111010101101110001000000110010101110001011101010110100101110000011011110010</tspan> <tspan x="0" y="149.081">000001110001011101010110010100100000011000010110110101100001001000000110110001</tspan> <tspan x="0" y="159.081">101111001000000111000101110101011001010010000001101000011000010110001101100101</tspan> <tspan x="0" y="169.081">001011100010000001000001011100000110110001101001011000110110000101101101011011</tspan> <tspan x="0" y="179.081">110111001100100000011011000110000101110011001000001100001110111010011011000111</tspan> <tspan x="0" y="189.081">010001101001011011010110000101110011001000000111010001100101011000110110111001</tspan> <tspan x="0" y="199.081">101111011011000110111101100111110000111010110101100001011100110010110000100000</tspan> <tspan x="0" y="209.081">011011010110010101110100011011110110010001101111011011000110111101100111110000</tspan> <tspan x="0" y="219.081">111010110101100001001000000110010001100101001000000111010001110010011000010110</tspan> <tspan x="0" y="229.081">001001100001011010100110111100101100001000000111001001101001011001110110111101</tspan> <tspan x="0" y="239.081">110010001000000111100100100000011100000111001001101111011001100110010101110011</tspan> <tspan x="0" y="249.081">011010010110111101101110011000010110110001101001011001000110000101100100001011</tspan> <tspan x="0" y="259.081">100010000001001110011011110010000001101110011011110111001100100000011101100110</tspan> <tspan x="0" y="269.081">000101101101011011110111001100100000011000010010000001101101011000010111001001</tspan> <tspan x="0" y="279.081">100101011000010111001000100000011010000110000101100010011011001100001110100001</tspan> <tspan x="0" y="289.081">011011100110010001101111011101000110010100100000011001000110010100100000011000</tspan> <tspan x="0" y="299.081">110110111101110011011000010111001100100000011100010111010101100101001000000110</tspan> <tspan x="0" y="309.081">111001101111001000000110010101101110011101000110100101100101011011100110010001</tspan> <tspan x="0" y="319.081">100001011100110010000001101110011010010010000001110001011101010110100101100101</tspan> <tspan x="0" y="329.081">011100100110000101110011001000000110010101101110011101000110010101101110011001</tspan> <tspan x="0" y="339.081">000110010101110010001011100010000001000011011011110110111001100101011000110111</tspan> <tspan x="0" y="349.081">010001100001011100100110010101101101011011110111001100100000011100000110000101</tspan> <tspan x="0" y="359.081">110010011000010010000001110011011000010110001101100001011100100010000001100001</tspan> <tspan x="0" y="369.081">011001000110010101101100011000010110111001110100011001010010000001110110011101</tspan> <tspan x="0" y="379.081">010110010101110011011101000111001001101111001000000111000001110010011011110111</tspan> <tspan x="0" y="389.081">100101100101011000110111010001101111001000000110111100100000011010010110010001</tspan> <tspan x="0" y="399.081">100101011000010010110000100000011000110110111101101110001000000111010101101110</tspan> <tspan x="0" y="409.081">001000000111010001110010011000010111010001101111001000000110010001101001011100</tspan> <tspan x="0" y="419.081">100110010101100011011101000110111100101100001000000110100001110101011011010110</tspan> <tspan x="0" y="429.081">000101101110011011110010000001111001001000000110100001101111011011100110010101</tspan> <tspan x="0" y="439.081">110011011101000110111100101100001000000111100100100000011000110110111101101110</tspan> <tspan x="0" y="449.081">001000000110110001100001001000001100001110111010011011000111010001101001011011</tspan> <tspan x="0" y="459.081">010110000101110011001000000111010001100101011000110110111001101111011011000110</tspan> <tspan x="0" y="469.081">111101100111110000111010110101100001011100110010000001111001001000000110110101</tspan> <tspan x="0" y="479.081">100101011101000110111101100100011011110110110001101111011001111100001110101101</tspan> <tspan x="0" y="489.081">011000010111001100100000011000010010000001110110011101010110010101110011011101</tspan> <tspan x="0" y="499.081">000111001001101111001000000110110001100001011001000110111100101110_</tspan>
            </text>
        </g>
        <g fill="#9F9">
            <path d="M98.614 0l-37.52 107.138H53.79L91.541 0h7.073zM47.925 31.1l2.213 6.09L8.412 54.73l41.726 17.543-2.213 6.086L0 57.85v-6.244L47.925 31.1zm56.445 0l47.924 20.506v6.244L104.37 78.36l-2.214-6.086 41.727-17.543-41.727-17.542 2.214-6.089z" transform="translate(148 118)"/>
        </g>
    </g>
</svg>
