<svg xmlns="http://www.w3.org/2000/svg" width="450" height="320" viewBox="0 0 450 320">
    <g fill="none" fill-rule="evenodd">
        <rect width="448" height="318" x="1" y="1" fill="#0A0A0A" stroke="#2E394F" stroke-width="2" rx="8"/>
        <path fill="#2E394F" d="M40 10v22H18V10h22zm-2 2H20v18h18V12zm-3 3v12H23V15h12zM430 10v22h-22V10h22zm-2 2h-8v10h-10v8h18V12zm-10 0h-8v8h8v-8zM380 29v2H70v-2h310zm0-9v2H70v-2h310zm0-9v2H70v-2h310z"/>
        <path stroke="#2E3950" stroke-width="2" d="M442 1H8c-1.933 0-3.683.784-4.95 2.05C1.784 4.317 1 6.067 1 8v33h448V8c0-1.933-.784-3.683-2.05-4.95C445.683 1.784 443.933 1 442 1z"/>
        <g fill="#2E394F">
            <path d="M19 26.364L23.22 26.364 23.22 22 25.78 22 25.78 26.364 30 26.364 30 28.636 25.78 28.636 25.78 33 23.22 33 23.22 28.636 19 28.636zM125 45.364L129.22 45.364 129.22 41 131.78 41 131.78 45.364 136 45.364 136 47.636 131.78 47.636 131.78 52 129.22 52 129.22 47.636 125 47.636zM48 69.381L49.918 69.381 49.918 67 51.082 67 51.082 69.381 53 69.381 53 70.619 51.082 70.619 51.082 73 49.918 73 49.918 70.619 48 70.619zM163 3.968L166.453 3.968 166.453 0 168.547 0 168.547 3.968 172 3.968 172 6.032 168.547 6.032 168.547 10 166.453 10 166.453 6.032 163 6.032zM207 50.381L208.918 50.381 208.918 48 210.082 48 210.082 50.381 212 50.381 212 51.619 210.082 51.619 210.082 54 208.918 54 208.918 51.619 207 51.619zM0 145.19L1.151 145.19 1.151 144 1.849 144 1.849 145.19 3 145.19 3 145.81 1.849 145.81 1.849 147 1.151 147 1.151 145.81 0 145.81zM306 171.174L308.302 171.174 308.302 168 309.698 168 309.698 171.174 312 171.174 312 172.826 309.698 172.826 309.698 176 308.302 176 308.302 172.826 306 172.826zM175.487 179.271c.46.362.877.692 1.249.99.372.298.761.66 1.168 1.085l-1.138.654c-.189-.213-.362-.418-.517-.614-.156-.197-.301-.394-.437-.59-.135-.198-.267-.4-.396-.607-.128-.208-.267-.423-.416-.646-.149.223-.288.438-.416.646-.129.207-.26.41-.396.606-.136.197-.281.394-.437.59-.155.197-.328.402-.517.615l-1.138-.654c.203-.213.4-.407.59-.583.189-.175.378-.343.568-.502.19-.16.389-.32.599-.48.21-.159.43-.329.66-.51-.637-.074-1.222-.149-1.757-.223-.534-.075-1.12-.192-1.756-.351l.426-1.037c.325.085.623.17.894.255.27.085.534.175.792.271.257.096.514.194.771.295.257.101.528.205.812.312l-.152-.719c-.047-.223-.088-.444-.122-.662-.034-.218-.06-.441-.08-.67-.021-.229-.031-.476-.031-.742h1.38c0 .266-.01.513-.03.742-.02.229-.047.452-.081.67-.034.218-.075.44-.122.662l-.152.719c.284-.107.555-.21.812-.312.257-.1.514-.2.771-.295.258-.096.521-.186.792-.271.27-.085.569-.17.894-.255l.426 1.037c-.636.16-1.222.276-1.756.35-.535.075-1.12.15-1.757.224zM377 192.364L381.22 192.364 381.22 188 383.78 188 383.78 192.364 388 192.364 388 194.636 383.78 194.636 383.78 199 381.22 199 381.22 194.636 377 194.636zM340 261.174L342.302 261.174 342.302 258 343.698 258 343.698 261.174 346 261.174 346 262.826 343.698 262.826 343.698 266 342.302 266 342.302 262.826 340 262.826zM79 223.364L82.836 223.364 82.836 219 85.164 219 85.164 223.364 89 223.364 89 225.636 85.164 225.636 85.164 230 82.836 230 82.836 225.636 79 225.636zM280 244.968L283.453 244.968 283.453 241 285.547 241 285.547 244.968 289 244.968 289 247.032 285.547 247.032 285.547 251 283.453 251 283.453 247.032 280 247.032zM21 203.174L23.302 203.174 23.302 200 24.698 200 24.698 203.174 27 203.174 27 204.826 24.698 204.826 24.698 208 23.302 208 23.302 204.826 21 204.826zM352.096 26.269c1.036 1.024 1.973 1.959 2.81 2.803.838.844 1.713 1.869 2.627 3.074L354.975 34c-.427-.603-.815-1.183-1.165-1.74-.35-.558-.678-1.116-.983-1.674-.304-.557-.601-1.13-.89-1.718-.29-.587-.602-1.198-.937-1.83-.335.632-.647 1.243-.937 1.83-.289.588-.586 1.16-.89 1.718-.305.558-.632 1.116-.983 1.673-.35.558-.738 1.138-1.165 1.741l-2.558-1.854c.457-.603.898-1.153 1.325-1.65.426-.497.853-.972 1.28-1.424.425-.452.875-.904 1.347-1.357.472-.452.967-.934 1.485-1.446-1.432-.211-2.75-.422-3.952-.633-1.203-.211-2.52-.543-3.952-.995l.96-2.939c.73.241 1.4.482 2.01.724.609.24 1.203.497 1.781.768.579.271 1.158.55 1.736.837.579.286 1.188.58 1.828.881l-.343-2.034c-.107-.633-.198-1.259-.274-1.877-.076-.618-.137-1.25-.183-1.899-.045-.648-.068-1.348-.068-2.102h3.106c0 .754-.023 1.454-.068 2.102-.046.648-.107 1.281-.183 1.9-.076.617-.167 1.243-.274 1.876l-.343 2.034c.64-.301 1.249-.595 1.828-.881.578-.287 1.157-.566 1.736-.837.578-.271 1.172-.527 1.781-.768.61-.242 1.28-.483 2.01-.724l.96 2.939c-1.431.452-2.749.784-3.952.995-1.203.21-2.52.422-3.952.633zM89.096 129.269c1.036 1.024 1.973 1.959 2.81 2.803.838.844 1.713 1.869 2.627 3.074L91.975 137c-.427-.603-.815-1.183-1.165-1.74-.35-.558-.678-1.116-.983-1.674-.304-.557-.601-1.13-.89-1.718-.29-.587-.602-1.198-.937-1.83-.335.632-.647 1.243-.937 1.83-.289.588-.586 1.16-.89 1.718-.305.558-.632 1.116-.983 1.673-.35.558-.738 1.138-1.165 1.741l-2.558-1.854c.457-.603.898-1.153 1.325-1.65.426-.497.853-.972 1.28-1.424.425-.452.875-.904 1.347-1.357.472-.452.967-.934 1.485-1.446-1.432-.211-2.75-.422-3.952-.633-1.203-.211-2.52-.543-3.952-.995l.96-2.939c.73.241 1.4.482 2.01.724.609.24 1.203.497 1.781.768.579.271 1.158.55 1.736.837.579.286 1.188.58 1.828.881l-.343-2.034c-.107-.633-.198-1.259-.274-1.877-.076-.618-.137-1.25-.183-1.899-.045-.648-.068-1.348-.068-2.102h3.106c0 .754-.023 1.454-.068 2.102-.046.648-.107 1.281-.183 1.9-.076.617-.167 1.243-.274 1.876l-.343 2.034c.64-.301 1.249-.595 1.828-.881.578-.287 1.157-.566 1.736-.837.578-.271 1.172-.527 1.781-.768.61-.242 1.28-.483 2.01-.724l.96 2.939c-1.431.452-2.749.784-3.952.995-1.203.21-2.52.422-3.952.633zM58.618 172.62l7.302-9.347 1.161.907-7.302 9.347-1.161-.907zm-4.355-3.402l7.303-9.347 1.161.907-7.302 9.347-1.162-.907zm13.467-8.261l7.302-9.347 1.161.907-7.302 9.347-1.161-.907zm-4.355-3.402l7.303-9.347 1.16.907-7.302 9.347-1.16-.907zm13.466-8.26l7.303-9.348 1.161.907-7.302 9.347-1.162-.907zm-4.354-3.403l7.303-9.347 1.16.908-7.302 9.346-1.16-.907z" transform="translate(31 47)"/>
        </g>
        <g fill="#9F9">
            <path d="M42.815 139.65l2.05.923c-1.603 2.922-2.624 5.893-3.062 8.914-.44 3.022-.34 6.29.296 9.803.635 3.515 1.689 6.612 3.16 9.291 1.47 2.679 3.47 5.11 5.998 7.29l-1.599 1.576c-2.441-2.116-4.572-4.648-6.391-7.6-1.823-2.953-3.074-6.317-3.757-10.092-.683-3.773-.69-7.36-.019-10.76.67-3.4 1.78-6.514 3.324-9.344zm19.671 0c1.546 2.831 2.654 5.946 3.325 9.345.671 3.4.664 6.987-.018 10.76-.684 3.775-1.937 7.139-3.757 10.09-1.82 2.953-3.951 5.486-6.393 7.602l-1.599-1.577c2.528-2.18 4.528-4.61 6-7.289 1.47-2.679 2.523-5.776 3.159-9.29.636-3.514.736-6.782.297-9.804-.44-3.02-1.462-5.992-3.065-8.915l2.051-.921zm-26.902-11.365c0 1.615.284 2.767.852 3.462.568.693 1.655 1.04 3.26 1.04h6.393c1.827 0 3.24.248 4.237.744.995.495 1.77 1.196 2.326 2.102.552-.906 1.327-1.607 2.324-2.102.996-.496 2.408-.744 4.236-.744h6.394c1.605 0 2.692-.347 3.26-1.04.567-.695.85-1.847.85-3.462h3.033v.17c0 1.53-.16 2.81-.478 3.844-.32 1.033-.776 1.861-1.371 2.485-.595.623-1.336 1.062-2.221 1.317-.886.254-1.896.382-3.031.382h-7.475c-.498 0-.99.077-1.473.233-.486.155-.914.397-1.288.722-.374.326-.678.729-.913 1.211-.236.48-.354 1.062-.354 1.741h-2.989c0-.68-.118-1.26-.353-1.741-.236-.482-.54-.885-.913-1.21-.374-.326-.804-.568-1.287-.723-.485-.156-.976-.233-1.475-.233h-7.474c-1.134 0-2.145-.128-3.031-.382-.887-.255-1.633-.694-2.242-1.317-.609-.624-1.066-1.452-1.372-2.485-.304-1.034-.455-2.315-.455-3.844v-.17h3.03zm-2.471-88.121l4.111 2.817c-4.657 5.75-8.06 11.837-10.21 18.261-2.153 6.424-3.228 13.597-3.228 21.517s1.075 15.093 3.227 21.518c2.15 6.423 5.554 12.51 10.211 18.26l-4.111 2.817c-2.988-3.708-5.604-7.766-7.848-12.175l-24.01-2.441L0 106.682 18.44 91.235c-.327-2.747-.49-5.572-.49-8.476 0-8.507 1.403-16.339 4.211-23.497 2.807-7.158 6.46-13.523 10.95-19.098zm38.992 0c4.492 5.575 8.143 11.94 10.95 19.097 2.808 7.16 4.212 14.992 4.212 23.498 0 2.904-.164 5.729-.49 8.476l18.44 15.447-1.254 4.055-24.012 2.443c-2.242 4.409-4.858 8.466-7.846 12.174l-4.113-2.816c4.658-5.75 8.062-11.837 10.212-18.261 2.152-6.425 3.227-13.597 3.227-21.518 0-7.92-1.075-15.093-3.227-21.517-2.15-6.424-5.554-12.51-10.212-18.262l4.113-2.816zm10.95 66.093c-.32.817-.652 1.623-.994 2.42l17.286-1.576-13.349-10.944c-.695 3.504-1.676 6.87-2.943 10.1zm-63.836-10.1L5.871 107.103l17.286 1.575c-.343-.797-.674-1.603-.995-2.42-1.267-3.23-2.248-6.596-2.943-10.1zm33.432-35.581c1.856 0 3.57.327 5.14.983 1.57.655 2.912 1.588 4.027 2.798 1.114 1.209 1.982 2.664 2.608 4.36.623 1.698.937 3.588.937 5.672 0 2.083-.305 3.982-.912 5.696-.608 1.714-1.469 3.176-2.583 4.386s-2.456 2.15-4.026 2.823c-1.571.672-3.301 1.008-5.191 1.008-1.891 0-3.613-.336-5.166-1.008-1.554-.672-2.887-1.613-4.001-2.823-1.115-1.21-1.984-2.672-2.608-4.386-.626-1.714-.936-3.613-.936-5.696 0-2.084.31-3.974.936-5.672.624-1.696 1.5-3.151 2.633-4.36 1.131-1.21 2.473-2.143 4.026-2.798 1.553-.656 3.259-.983 5.116-.983zm0 5.293c-2.026 0-3.605.765-4.736 2.294-1.13 1.53-1.696 3.605-1.696 6.226 0 2.654.565 4.755 1.696 6.3 1.13 1.548 2.71 2.32 4.736 2.32s3.603-.772 4.734-2.32c1.132-1.545 1.698-3.646 1.698-6.3 0-2.621-.566-4.697-1.698-6.226-1.131-1.529-2.708-2.294-4.734-2.294zM55.053.805L70.85 37.542l-4.688 1.697-13.51-31.986L39.142 39.24l-4.69-1.697L50.244.805h4.808z" transform="rotate(15 -206.607 787.735)"/>
        </g>
    </g>
</svg>
