<svg xmlns="http://www.w3.org/2000/svg" width="449" height="320" viewBox="0 0 449 320">
    <g fill="none" fill-rule="evenodd">
        <rect width="447" height="318" x="1" y="1" fill="#0A0A0A" stroke="#2E394F" stroke-width="2" rx="8"/>
        <path fill="#2E394F" d="M40 10v22H18V10h22zm-2 2H20v18h18V12zm-3 3v12H23V15h12zM429 10v22h-22V10h22zm-2 2h-8v10h-10v8h18V12zm-10 0h-8v8h8v-8zM379 29v2H70v-2h309zm0-9v2H70v-2h309zm0-9v2H70v-2h309z"/>
        <path stroke="#2E3950" stroke-width="2" d="M441 1H8c-1.933 0-3.683.784-4.95 2.05C1.784 4.317 1 6.067 1 8v33h447V8c0-1.933-.784-3.683-2.05-4.95C444.683 1.784 442.933 1 441 1z"/>
        <text fill="#191E28" font-family="UbuntuMono-Regular, Ubuntu Mono" font-size="10" transform="translate(28 60)">
            <tspan x="0" y="9.081">.+.+.+.+.+.+..+.+.+.+.+.+.+.+.+.+..+.+.+.+.+.+..+.+.+.+.+.+.+.+.+.+..+.+.+.+.</tspan> <tspan x="0" y="19.081">+.+..+.+.+.+.+.+.+.+.+.+..+.+.+.+.+.+..+.+.+.+.+.+.+.+.+.+..+.+.+.+.+.+..+.+.</tspan> <tspan x="0" y="29.081">+.+.+.+.+.+.+.+..+.+.+.+.+.+..+.+.+.+.+.+.+.+.+.+..+.+.+.+.+.+..+.+.+.+.+.+.+.</tspan> <tspan x="0" y="39.081">+.+.+..+.+.+.+.+.+..+.+.+.+.+.+.+.+.+.+..+.+.+.+.+.+..+.+.+.+.+.+.+.+.+.+..+.</tspan> <tspan x="0" y="49.081">+.+.+.+.+..+.+.+.+.+.+.+.+.+.+..+.+.+.+.+.+..+.+.+.+.+.+.+.+.+.+..+.+.+.+.+.</tspan> <tspan x="0" y="59.081">+..+.+.+.+.+.+.+.+.+.+..+.+.+.+.+.+..+.+.+.+.+.+.+.+.+.+..+.+.+.+.+.+..+.+.+.</tspan> <tspan x="0" y="69.081">+.+.+.+.+.+.+..+.+.+.+.+.+..+.+.+.+.+.+.+.+.+.+..+.+.+.+.+.+..+.+.+.+.+.+.+.+.</tspan> <tspan x="0" y="79.081">+.+..+.+.+.+.+.+..+.+.+.+.+.+.+.+.+.+..+.+.+.+.+.+..+.+.+.+.+.+.+.+.+.+..+.+.</tspan> <tspan x="0" y="89.081">+.+.+.+..+.+.+.+.+.+.+.+.+.+..+.+.+.+.+.+..+.+.+.+.+.+.+.+.+.+..+.+.+.+.+.+..</tspan> <tspan x="0" y="99.081">+.+.+.+.+.+.+.+.+.+..+.+.+.+.+.+..+.+.+.+.+.+.+.+.+.+..+.+.+.+.+.+..+.+.+.+.+.</tspan> <tspan x="0" y="109.081">+.+.+.+.+..+.+.+.+.+.+..+.+.+.+.+.+.+.+.+.+..+.+.+.+.+.+..+.+.+.+.+.+.+.+.+.</tspan> <tspan x="0" y="119.081">+..+.+.+.+.+.+..+.+.+.+.+.+.+.+.+.+..+.+.+.+.+.+..+.+.+.+.+.+.+.+.+.+..+.+.+.</tspan> <tspan x="0" y="129.081">+.+.+..+.+.+.+.+.+.+.+.+.+..+.+.+.+.+.+..+.+.+.+.+.+.+.+.+.+..+.+.+.+.+.+..+.</tspan> <tspan x="0" y="139.081">+.+.+.+.+.+.+.+.+..+.+.+.+.+.+..+.+.+.+.+.+.+.+.+.+..+.+.+.+.+.+..+.+.+.+.+.+.</tspan> <tspan x="0" y="149.081">+.+.+.+..+.+.+.+.+.+..+.+.+.+.+.+.+.+.+.+..+.+.+.+.+.+..+.+.+.+.+.+.+.+.+.+..</tspan> <tspan x="0" y="159.081">+.+.+.+.+.+..+.+.+.+.+.+.+.+.+.+..+.+.+.+.+.+..+.+.+.+.+.+.+.+.+.+..+.+.+.+.+.</tspan> <tspan x="0" y="169.081">+..+.+.+.+.+.+.+.+.+.+..+.+.+.+.+.+..+.+.+.+.+.+.+.+.+.+..+.+.+.+.+.+..+.+.+.</tspan> <tspan x="0" y="179.081">+.+.+.+.+.+.+..+.+.+.+.+.+..+.+.+.+.+.+.+.+.+.+..+.+.+.+.+.+..+.+.+.+.+.+.+.+.</tspan> <tspan x="0" y="189.081">+.+..+.+.+.+.+.+..+.+.+.+.+.+.+.+.+.+..+.+.+.+.+.+..+.+.+.+.+.+.+.+.+.+..+.+.</tspan> <tspan x="0" y="199.081">+.+.+.+..+.+.+.+.+.+.+.+.+.+..+.+.+.+.+.+..+.+.+.+.+.+.+.+.+.+..+.+.+.+.+.+..</tspan> <tspan x="0" y="209.081">+.+.+.+.+.+.+.+.+.+..+.+.+.+.+.+..+.+.+.+.+.+.+.+.+.+..+.+.+.+.+.+..+.+.+.+.+.</tspan> <tspan x="0" y="219.081">+.+.+.+.+..+.+.+.+.+.+..+.+.+.+.+.+.+.+.+.+..+.+.+.+.+.+..+.+.+.+.+.+.+.+.+.+.</tspan> <tspan x="0" y="229.081">+.+.+.+.+.+..+.+.+.+.+.+.+.+.+.+.+.+.+.+.+.+..+.+.+.+.+.+.+.+.+.+..+.+.+.+.+.</tspan> <tspan x="0" y="239.081">+..+.+.+.+.+.+.+.+.+.+..+.+.+.+.+.+..+.+.+.+.+.+.+.+.+.+..+.+.+.+.+.+..+.+.+.</tspan> <tspan x="0" y="249.081">+.+.+.+.+.+.+..+.+.+.+.+.+..+.+.+.+.+.+.+.+.+.+..+.+.+.+.+.+..+.+.+.+.+.+.+.+.</tspan> <tspan x="0" y="259.081">+.+..+.+.+.+.+.+..+.+.+.+.+.+.+.+.+.+..+.+.+.+.+.+..+.+.+.+.+.+.+.+.+.+..+.+.</tspan> <tspan x="0" y="269.081">+.+.+.+..+.+.+.+.+.+.+.+.+.+..+.+.+.+.+.+..+.+.+.+.+.+.+.+.+.+..+.+.+.+.+.+..</tspan> <tspan x="0" y="279.081">+.+.+.+.+.+.+.+.+.+..+.+.+.+.+.+..+.+.+.+.+.+.+.+.+.+..+.+.+.+.+.+..+.+.+.+.+.</tspan> <tspan x="0" y="289.081">+.+.+.+.+..+.+.+.+.+.+..+.+.+.+.+.+.+.+.+.+..+.+.+.+.+.+..+.+.+.+.+.+.+.+.+.</tspan> <tspan x="0" y="299.081">+..+.+.+.+.+.+..+.+.+.+.+.+.+.+.+.+..+.+.+.+.+.+..+.+.+.+.+.+.+.+.+.+..+.+.+.</tspan> <tspan x="0" y="309.081">+.+.+..+.+.+.+.+.+.+.+.+.+..+.+.+.+.+.+..+.+.+.+.+.+.+.+.+.+..+.+.+.+.+.+..+.</tspan> <tspan x="0" y="319.081">+.+.+.+.+.+.+.+.+..+.+.+.+.+.+..+.+.+.+.+.+.+.+.+.+..+.+.+.+.+.+..+.+.+.+.+.+.</tspan> <tspan x="0" y="329.081">+.+.+.+..+.+.+.+.+.+..+.+.+.+.+.+.+.+.+.+..+.+.+.+.+.+..+.+.+.+.+.+.+.+.+.+..</tspan> <tspan x="0" y="339.081">+.+.+.+.+.+..+.+.+.+.+.+.+.+.+.+..+.+.+.+.+.+..+.+.+.+.+.+.+.+.+.+..+.+.+.+.+.</tspan> <tspan x="0" y="349.081">+..+.+.+.+.+.+.+.+.+.+..+.+.+.+.+.+..+.+.+.+.+.+.+.+.+.+..+.+.+.+.+.+..+.+.+.</tspan> <tspan x="0" y="359.081">+.+.+.+.+.+.+..+.+.+.+.+.+..+.+.+.+.+.+.+.+.+.+..+.+.+.+.+.+..+.+.+.+.+.+.+.+.</tspan> <tspan x="0" y="369.081">+.+..+.+.+.+.+.+..+.+.+.+.+.+.+.+.+.+..+.+.+.+.+.+..+.+.+.+.+.+.+.+.+.+..+.+.</tspan> <tspan x="0" y="379.081">+.+.+.+..+.+.+.+.+.+.+.+.+.+..+.+.+.+.+.+..+.+.+.+.+.+.+.+.+.+..+.+.+.+.+.+..</tspan> <tspan x="0" y="389.081">+.+.+.+.+.+.+.+.+.+..+.+.+.+.+.+..+.+.+.+.+.+.+.+.+.+..+.+.+.+.+.+..+.+.+.+.+.</tspan> <tspan x="0" y="399.081">+.+.+.+.+..+.+.+.+.+.+..+.+.+.+.+.+.+.+.+.+..+.+.+.+.+.+..+.+.+.+.+.+.+.+.+.</tspan> <tspan x="0" y="409.081">+..+.+.+.+.+.+..+.+.+.+.+.+.+.+.+.+..+.+.+.+.+.+..+.+.+.+.+.+.+.+.+.+..+.+.+.</tspan> <tspan x="0" y="419.081">+.+.+..+.+.+.+.+.+.+.+.+.+..+.+.+.+.+.+..+.+.+.+.+.+.+.+.+.+..+.+.+.+.+.+..+.</tspan> <tspan x="0" y="429.081">+.+.+.+.+.+.+.+.+..+.+.+.+.+.+..+.+.+.+.+.+.+.+.+.+..+.+.+.+.+.+..+.+.+.+.+.+.</tspan> <tspan x="0" y="439.081">+.+.+.+..+.+.+.+.+.+..+.+.+.+.+.+.+.+.+.+..+.+.+.+.+.+..+.+.+.+.+.+.+.+.+.+..</tspan> <tspan x="0" y="449.081">+.+.+.+.+.+..+.+.+.+.+.+.+.+.+.+..+.+.+.+.+.+..+.+.+.+.+.+.+.+.+.+..+.+.+.+.+.</tspan> <tspan x="0" y="459.081">+..+.+.+.+.+.+.+.+.+.+..+.+.+.+.+.+..+.+.+.+.+.+.+.+.+.+..+.+.+.+.+.+..+.+.+.</tspan> <tspan x="0" y="469.081">+.+.+.+.+.+.+.</tspan>
        </text>
        <rect width="82" height="82" x="184" y="71" fill="#0A0A0A" rx="4"/>
        <rect width="82" height="82" x="60" y="144" fill="#0A0A0A" rx="4"/>
        <rect width="82" height="82" x="308" y="144" fill="#0A0A0A" rx="4"/>
        <rect width="82" height="82" x="184" y="209" fill="#0A0A0A" rx="4"/>
        <path fill="#9F9" d="M229.136 127.364l1.772 2.032-6.182 6.604-6.182-6.604 1.773-2.032 4.409 4.064 4.41-4.064zm-2.5-15.123c0 .739.13 1.37.387 1.893.257.524.59.963 1 1.316.409.354.879.617 1.409.785.53.17 1.068.254 1.613.254h8.182c1.243 0 2.348.139 3.318.416.97.277 1.788.755 2.455 1.432.666.677 1.166 1.578 1.5 2.702.333 1.124.5 2.516.5 4.179v.185h-3.318c0-1.755-.311-3.01-.932-3.764s-1.811-1.132-3.568-1.132h-7c-2 0-3.546-.269-4.637-.808-1.09-.538-1.938-1.3-2.545-2.286-.606.986-1.455 1.748-2.545 2.286-1.091.54-2.637.808-4.637.808h-7c-1.757 0-2.946.378-3.568 1.132-.62.755-.932 2.009-.932 3.764H203v-.185c0-1.663.175-3.055.523-4.18.349-1.123.848-2.024 1.5-2.701s1.462-1.155 2.432-1.432c.97-.277 2.076-.416 3.318-.416h8.182c.545 0 1.083-.084 1.613-.254.53-.168 1-.43 1.41-.785.408-.353.742-.792 1-1.316.257-.523.386-1.154.386-1.893h3.272zM235.914 88c1.22 0 2.346.227 3.38.683 1.036.456 1.928 1.104 2.674 1.946.748.84 1.329 1.845 1.743 3.014.414 1.168.621 2.477.621 3.926 0 1.425-.207 2.728-.621 3.908-.414 1.18-.995 2.19-1.743 3.032-.746.841-1.638 1.49-2.673 1.945-1.035.456-2.162.684-3.381.684-1.219 0-2.346-.228-3.38-.684-1.036-.455-1.927-1.104-2.675-1.945-.747-.841-1.328-1.852-1.742-3.032-.414-1.18-.62-2.483-.62-3.908 0-1.45.206-2.758.62-3.926.414-1.169.995-2.173 1.742-3.014.748-.842 1.64-1.49 2.674-1.946 1.035-.456 2.162-.683 3.38-.683zm-20.355 0c1.22 0 2.347.227 3.38.683 1.036.456 1.928 1.104 2.675 1.946.748.84 1.328 1.845 1.742 3.014.414 1.168.621 2.477.621 3.926 0 1.425-.207 2.728-.621 3.908-.414 1.18-.994 2.19-1.742 3.032-.747.841-1.639 1.49-2.674 1.945-1.034.456-2.162.684-3.381.684-1.219 0-2.346-.228-3.38-.684-1.036-.455-1.927-1.104-2.675-1.945-.747-.841-1.328-1.852-1.741-3.032-.415-1.18-.622-2.483-.622-3.908 0-1.45.207-2.758.622-3.926.413-1.169.994-2.173 1.741-3.014.748-.842 1.64-1.49 2.674-1.946 1.035-.456 2.162-.683 3.381-.683zm20.355 2.874c-1.564 0-2.8.601-3.709 1.805-.908 1.203-1.362 2.833-1.362 4.89 0 2.056.454 3.686 1.362 4.89.909 1.203 2.145 1.805 3.709 1.805 1.565 0 2.8-.602 3.709-1.806.909-1.203 1.363-2.833 1.363-4.89 0-2.056-.454-3.686-1.363-4.889-.909-1.204-2.144-1.805-3.71-1.805zm-20.355 0c-1.564 0-2.8.601-3.709 1.805-.908 1.203-1.362 2.833-1.362 4.89 0 2.056.454 3.686 1.362 4.89.909 1.203 2.145 1.805 3.709 1.805 1.565 0 2.8-.602 3.71-1.806.908-1.203 1.362-2.833 1.362-4.89 0-2.056-.454-3.686-1.363-4.889-.908-1.204-2.144-1.805-3.709-1.805zM114.942 195.905l1.037 1.546c-2.052 1.644-4.396 2.98-7.03 4.008-2.636 1.027-5.52 1.541-8.65 1.541-3.133 0-6.016-.514-8.651-1.541-2.635-1.028-4.978-2.364-7.03-4.008l1.036-1.546c2.117 1.714 4.358 2.967 6.723 3.76 2.365.791 5.005 1.187 7.921 1.187 2.916 0 5.556-.396 7.921-1.188 2.365-.792 4.606-2.045 6.723-3.759zm.335-27.905c1.134 0 2.17.216 3.109.648.938.432 1.75 1.041 2.438 1.827.687.787 1.221 1.733 1.604 2.84.381 1.108.572 2.338.572 3.688 0 1.351-.19 2.58-.572 3.687-.383 1.108-.917 2.05-1.604 2.825-.688.775-1.5 1.378-2.438 1.81-.939.432-1.975.648-3.109.648-1.135 0-2.172-.216-3.11-.648-.938-.432-1.75-1.035-2.437-1.81-.688-.776-1.223-1.717-1.604-2.825-.382-1.107-.573-2.336-.573-3.687 0-1.35.191-2.58.573-3.687.381-1.108.916-2.054 1.604-2.841.687-.786 1.5-1.395 2.438-1.827.937-.432 1.974-.648 3.109-.648zm-28.179.094c1.12 0 2.144.215 3.072.644.926.43 1.73 1.035 2.408 1.815.679.782 1.207 1.723 1.584 2.823.377 1.101.566 2.322.566 3.665 0 1.342-.189 2.563-.566 3.664-.377 1.1-.905 2.036-1.584 2.806s-1.482 1.37-2.408 1.799c-.928.43-1.952.644-3.072.644s-2.145-.215-3.071-.644c-.927-.43-1.73-1.029-2.409-1.8-.679-.77-1.207-1.705-1.584-2.805s-.566-2.322-.566-3.664c0-1.343.189-2.564.566-3.665.377-1.1.905-2.04 1.584-2.823.679-.78 1.482-1.386 2.409-1.815.926-.43 1.95-.644 3.071-.644zm28.179 1.866c-1.68 0-3.011.638-3.993 1.91-.982 1.274-1.473 2.985-1.473 5.133 0 2.149.491 3.854 1.473 5.116.982 1.262 2.313 1.894 3.993 1.894 1.68 0 3.01-.632 3.992-1.894.982-1.262 1.473-2.967 1.473-5.116 0-2.148-.491-3.859-1.473-5.132-.982-1.273-2.312-1.91-3.992-1.91zm-28.179.082c-1.66 0-2.974.633-3.944 1.898-.97 1.266-1.455 2.966-1.455 5.1 0 2.135.485 3.83 1.455 5.084.97 1.254 2.284 1.882 3.944 1.882 1.66 0 2.974-.628 3.944-1.882.97-1.254 1.455-2.949 1.455-5.083 0-2.135-.485-3.835-1.455-5.1-.97-1.266-2.284-1.899-3.944-1.899zm17.647 4.58v1.892h-7.49v-1.892h7.49zM326.476 170l1.485 1.018c-1.682 2.08-2.911 4.28-3.688 6.603-.778 2.322-1.166 4.916-1.166 7.779 0 2.863.388 5.457 1.166 7.78.777 2.322 2.006 4.522 3.688 6.601l-1.485 1.019c-1.622-2.016-2.941-4.317-3.955-6.905-1.014-2.587-1.521-5.42-1.521-8.495 0-3.076.507-5.907 1.521-8.495 1.014-2.588 2.333-4.89 3.955-6.905zm45.048 0c1.622 2.016 2.941 4.317 3.955 6.905 1.014 2.587 1.521 5.42 1.521 8.495 0 3.076-.507 5.907-1.521 8.495-1.014 2.588-2.333 4.89-3.955 6.905l-1.485-1.018c1.682-2.08 2.911-4.28 3.688-6.603.778-2.322 1.166-4.916 1.166-7.779 0-2.863-.388-5.457-1.166-7.78-.777-2.322-2.006-4.522-3.688-6.601l1.485-1.019zm-7.201 17.199l1.02.781c-.981 1.526-2.222 2.912-3.72 4.163-1.5 1.25-3.275 2.22-5.326 2.908-2.052.69-4.054.987-6.007.895-1.952-.091-3.782-.448-5.49-1.07l.338-1.238c1.765.653 3.51.98 5.234.977 1.724-.004 3.54-.326 5.45-.967 1.91-.64 3.553-1.48 4.927-2.516 1.374-1.038 2.565-2.348 3.574-3.933zm-5.82-15.268c1.91 0 3.48.526 4.708 1.58 1.228 1.053 2.013 2.55 2.354 4.487l-2.712.715c-.205-1.157-.657-2.1-1.357-2.83-.698-.732-1.696-1.097-2.993-1.097-1.296 0-2.294.365-2.994 1.096-.699.731-1.151 1.674-1.356 2.83l-2.712-.714c.341-1.937 1.126-3.434 2.354-4.486 1.228-1.055 2.798-1.581 4.708-1.581zm-19.241 0c1.91 0 3.48.526 4.708 1.58 1.228 1.053 2.013 2.55 2.354 4.487l-2.712.715c-.205-1.157-.657-2.1-1.357-2.83-.698-.732-1.696-1.097-2.993-1.097-1.296 0-2.294.365-2.994 1.096-.699.731-1.151 1.674-1.356 2.83l-2.712-.714c.341-1.937 1.126-3.434 2.354-4.486 1.228-1.055 2.798-1.581 4.708-1.581zM216.12 249.754l1.683 1.135c-1.236 1.545-2.176 3.226-2.816 5.041-.642 1.816-.968 3.791-.98 5.927-.011 2.136.293 4.115.915 5.937.621 1.822 1.542 3.512 2.761 5.07l-1.695 1.118c-1.321-1.592-2.382-3.42-3.181-5.486-.8-2.064-1.192-4.281-1.18-6.651.014-2.37.43-4.582 1.252-6.64.822-2.055 1.903-3.873 3.242-5.451zm17.618 0c1.339 1.578 2.42 3.396 3.241 5.452.822 2.057 1.239 4.27 1.252 6.639.013 2.37-.38 4.587-1.18 6.652-.798 2.064-1.859 3.893-3.18 5.485l-1.696-1.117c1.22-1.559 2.141-3.249 2.762-5.07.622-1.823.926-3.802.914-5.938-.011-2.136-.338-4.111-.979-5.927-.64-1.815-1.58-3.495-2.817-5.041l1.683-1.135zm-8.703 2.375l2.745 5.128-1.048.573-2.278-4.253-2.278 4.253-1.047-.573 2.745-5.128h1.16zM211.694 226l1.834 1.246c-1.348 1.697-2.372 3.543-3.07 5.536-.7 1.994-1.055 4.163-1.068 6.508-.013 2.346.32 4.519.996 6.52.677 2 1.681 3.856 3.01 5.567l-1.847 1.227c-1.278-1.551-2.319-3.319-3.148-5.278-.115.047-.253.098-.417.153-.326.109-.731.21-1.215.299-.485.09-1.047.157-1.687.202-.64.045-1.33.043-2.071-.006-1.287-.086-2.444-.372-3.473-.859-1.029-.486-1.896-1.154-2.599-2.003-.703-.849-1.222-1.874-1.556-3.073-.334-1.2-.45-2.555-.347-4.066.103-1.512.429-2.838.976-3.98.546-1.14 1.244-2.084 2.091-2.83.848-.747 1.815-1.293 2.9-1.64 1.086-.347 2.228-.48 3.427-.402.758.051 1.437.148 2.038.293.6.144 1.12.301 1.561.47.351.134.647.265.891.393.771-1.569 1.694-2.996 2.774-4.277zm26.47 0c1.08 1.281 2.003 2.708 2.774 4.277.245-.128.54-.259.891-.394.44-.168.96-.325 1.562-.47.6-.144 1.28-.241 2.038-.291 1.199-.08 2.34.054 3.426.4 1.086.348 2.053.895 2.9 1.64.848.747 1.545 1.69 2.092 2.832.547 1.141.872 2.468.975 3.979.103 1.51-.012 2.866-.346 4.066-.334 1.2-.853 2.224-1.557 3.073-.703.849-1.57 1.517-2.599 2.003-1.028.487-2.186.773-3.472.859-.74.049-1.431.05-2.072.006-.64-.045-1.202-.113-1.686-.202-.484-.09-.89-.19-1.215-.3-.164-.054-.303-.105-.417-.152-.83 1.96-1.87 3.727-3.149 5.278l-1.848-1.227c1.33-1.711 2.334-3.567 3.01-5.568.678-2 1.01-4.173.997-6.519-.013-2.345-.368-4.514-1.067-6.508-.699-1.993-1.722-3.839-3.07-5.536zm-33.621 5.353c-.97-.063-1.853.043-2.65.322-.8.279-1.493.713-2.081 1.302-.59.589-1.06 1.321-1.411 2.196-.352.875-.566 1.868-.642 2.98-.073 1.077-.013 2.067.183 2.969.194.902.526 1.688.994 2.356.468.668 1.074 1.2 1.816 1.598.743.399 1.626.632 2.648.7 1.18.078 2.167.02 2.96-.171.508-.123.926-.24 1.274-.352-.567-1.884-.849-3.875-.838-5.976.014-2.468.429-4.78 1.235-6.939-.273-.13-.574-.26-.912-.395-.372-.147-.778-.274-1.222-.383-.445-.107-.896-.176-1.354-.207zm43.424.322c-.798-.279-1.682-.385-2.651-.322-.459.03-.91.1-1.354.207-.444.11-.85.236-1.222.383-.339.134-.64.266-.913.395.807 2.16 1.222 4.47 1.235 6.939.011 2.101-.27 4.092-.837 5.976.347.112.766.229 1.274.352.793.192 1.78.249 2.96.17 1.022-.067 1.905-.3 2.647-.699.743-.398 1.349-.93 1.817-1.598.468-.668.8-1.454.994-2.356.195-.902.256-1.892.183-2.97-.076-1.11-.29-2.104-.642-2.98-.352-.874-.822-1.606-1.411-2.195-.589-.59-1.282-1.023-2.08-1.302z"/>
        <path stroke="#2E394F" d="M168 112L101 112 101 133"/>
        <path stroke="#2E394F" d="M349 112L282 112 282 133" transform="matrix(-1 0 0 1 631 0)"/>
        <path stroke="#2E394F" d="M168 237L101 237 101 258" transform="matrix(1 0 0 -1 0 495)"/>
        <path stroke="#2E394F" d="M349 237L282 237 282 258" transform="rotate(180 315.5 247.5)"/>
    </g>
</svg>
