<svg xmlns="http://www.w3.org/2000/svg" width="449" height="320" viewBox="0 0 449 320">
    <g fill="none" fill-rule="evenodd">
        <rect width="447" height="318" x="1" y="1" fill="#0A0A0A" stroke="#2E394F" stroke-width="2" rx="8"/>
        <path fill="#2E394F" d="M40 10v22H18V10h22zm-2 2H20v18h18V12zm-3 3v12H23V15h12zM429 10v22h-22V10h22zm-2 2h-8v10h-10v8h18V12zm-10 0h-8v8h8v-8zM379 29v2H70v-2h309zm0-9v2H70v-2h309zm0-9v2H70v-2h309z"/>
        <path stroke="#2E3950" stroke-width="2" d="M441 1H8c-1.933 0-3.683.784-4.95 2.05C1.784 4.317 1 6.067 1 8v33h447V8c0-1.933-.784-3.683-2.05-4.95C444.683 1.784 442.933 1 441 1z"/>
        <g fill="#191E28" font-family="UbuntuMono-Regular, Ubuntu Mono" font-size="10">
            <text transform="translate(28 60)">
                <tspan x="0" y="9.081">.+.+.+.+.+.+..+.+.+.+.+.+.+.+.+.+..+.+.+.+.+.+..+.+.+.+.+.+.+.+.+.+..+.+.+.+.</tspan> <tspan x="0" y="19.081">+.+..+.+.+.+.+.+.+.+.+.+..+.+.+.+.+.+..+.+.+.+.+.+.+.+.+.+..+.+.+.+.+.+..+.+.</tspan> <tspan x="0" y="29.081">+.+.+.+.+.+.+.+..+.+.+.+.+.+..+.+.+.+.+.+.+.+.+.+..+.+.+.+.+.+..+.+.+.+.+.+.+.</tspan> <tspan x="0" y="39.081">+.+.+..+.+.+.+.+.+..+.+.+.+.+.+.+.+.+.+..+.+.+.+.+.+..+.+.+.+.+.+.+.+.+.+..+.</tspan> <tspan x="0" y="49.081">+.+.+.+.+..+.+.+.+.+.+.+.+.+.+..+.+.+.+.+.+..+.+.+.+.+.+.+.+.+.+..+.+.+.+.+.</tspan> <tspan x="0" y="59.081">+..+.+.+.+.+.+.+.+.+.+..+.+.+.+.+.+..+.+.+.+.+.+.+.+.+.+..+.+.+.+.+.+..+.+.+.</tspan> <tspan x="0" y="69.081">+.+.+.+.+.+.+..+.+.+.+.+.+..+.+.+.+.+.+.+.+.+.+..+.+.+.+.+.+..+.+.+.+.+.+.+.+.</tspan> <tspan x="0" y="79.081">+.+..+.+.+.+.+.+..+.+.+.+.+.+.+.+.+.+..+.+.+.+.+.+..+.+.+.+.+.+.+.+.+.+..+.+.</tspan> <tspan x="0" y="89.081">+.+.+.+..+.+.+.+.+.+.+.+.+.+..+.+.+.+.+.+..+.+.+.+.+.+.+.+.+.+..+.+.+.+.+.+..</tspan> <tspan x="0" y="99.081">+.+.+.+.+.+.+.+.+.+..+.+.+.+.+.+..+.+.+.+.+.+.+.+.+.+..+.+.+.+.+.+..+.+.+.+.+.</tspan> <tspan x="0" y="109.081">+.+.+.+.+..+.+.+.+.+.+..+.+.+.+.+.+.+.+.+.+..+.+.+.+.+.+..+.+.+.+.+.+.+.+.+.</tspan> <tspan x="0" y="119.081">+..+.+.+.+.+.+..+.+.+.+.+.+.+.+.+.+..+.+.+.+.+.+..+.+.+.+.+.+.+.+.+.+..+.+.+.</tspan> <tspan x="0" y="129.081">+.+.+..+.+.+.+.+.+.+.+.+.+..+.+.+.+.+.+..+.+.+.+.+.+.+.+.+.+..+.+.+.+.+.+..+.</tspan> <tspan x="0" y="139.081">+.+.+.+.+.+.+.+.+..+.+.+.+.+.+..+.+.+.+.+.+.+.+.+.+..+.+.+.+.+.+..+.+.+.+.+.+.</tspan> <tspan x="0" y="149.081">+.+.+.+..+.+.+.+.+.+..+.+.+.+.+.+.+.+.+.+..+.+.+.+.+.+..+.+.+.+.+.+.+.+.+.+..</tspan> <tspan x="0" y="159.081">+.+.+.+.+.+..+.+.+.+.+.+.+.+.+.+..+.+.+.+.+.+..+.+.+.+.+.+.+.+.+.+..+.+.+.+.+.</tspan> <tspan x="0" y="169.081">+..+.+.+.+.+.+.+.+.+.+..+.+.+.+.+.+..+.+.+.+.+.+.+.+.+.+..+.+.+.+.+.+..+.+.+.</tspan> <tspan x="0" y="179.081">+.+.+.+.+.+.+..+.+.+.+.+.+..+.+.+.+.+.+.+.+.+.+..+.+.+.+.+.+..+.+.+.+.+.+.+.+.</tspan> <tspan x="0" y="189.081">+.+..+.+.+.+.+.+..+.+.+.+.+.+.+.+.+.+..+.+.+.+.+.+..+.+.+.+.+.+.+.+.+.+..+.+.</tspan> <tspan x="0" y="199.081">+.+.+.+..+.+.+.+.+.+.+.+.+.+..+.+.+.+.+.+..+.+.+.+.+.+.+.+.+.+..+.+.+.+.+.+..</tspan> <tspan x="0" y="209.081">+.+.+.+.+.+.+.+.+.+..+.+.+.+.+.+..+.+.+.+.+.+.+.+.+.+..+.+.+.+.+.+..+.+.+.+.+.</tspan> <tspan x="0" y="219.081">+.+.+.+.+..+.+.+.+.+.+..+.+.+.+.+.+.+.+.+.+..+.+.+.+.+.+..+.+.+.+.+.+.+.+.+.+.</tspan> <tspan x="0" y="229.081">+.+.+.+.+.+..+.+.+.+.+.+.+.+.+.+.+.+.+.+.+.+..+.+.+.+.+.+.+.+.+.+..+.+.+.+.+.</tspan> <tspan x="0" y="239.081">+..+.+.+.+.+.+.+.+.+.+..+.+.+.+.+.+..+.+.+.+.+.+.+.+.+.+..+.+.+.+.+.+..+.+.+.</tspan> <tspan x="0" y="249.081">+.+.+.+.+.+.+..+.+.+.+.+.+..+.+.+.+.+.+.+.+.+.+..+.+.+.+.+.+..+.+.+.+.+.+.+.+.</tspan> <tspan x="0" y="259.081">+.+..+.+.+.+.+.+..+.+.+.+.+.+.+.+.+.+..+.+.+.+.+.+..+.+.+.+.+.+.+.+.+.+..+.+.</tspan> <tspan x="0" y="269.081">+.+.+.+..+.+.+.+.+.+.+.+.+.+..+.+.+.+.+.+..+.+.+.+.+.+.+.+.+.+..+.+.+.+.+.+..</tspan> <tspan x="0" y="279.081">+.+.+.+.+.+.+.+.+.+..+.+.+.+.+.+..+.+.+.+.+.+.+.+.+.+..+.+.+.+.+.+..+.+.+.+.+.</tspan> <tspan x="0" y="289.081">+.+.+.+.+..+.+.+.+.+.+..+.+.+.+.+.+.+.+.+.+..+.+.+.+.+.+..+.+.+.+.+.+.+.+.+.</tspan> <tspan x="0" y="299.081">+..+.+.+.+.+.+..+.+.+.+.+.+.+.+.+.+..+.+.+.+.+.+..+.+.+.+.+.+.+.+.+.+..+.+.+.</tspan> <tspan x="0" y="309.081">+.+.+..+.+.+.+.+.+.+.+.+.+..+.+.+.+.+.+..+.+.+.+.+.+.+.+.+.+..+.+.+.+.+.+..+.</tspan> <tspan x="0" y="319.081">+.+.+.+.+.+.+.+.+..+.+.+.+.+.+..+.+.+.+.+.+.+.+.+.+..+.+.+.+.+.+..+.+.+.+.+.+.</tspan> <tspan x="0" y="329.081">+.+.+.+..+.+.+.+.+.+..+.+.+.+.+.+.+.+.+.+..+.+.+.+.+.+..+.+.+.+.+.+.+.+.+.+..</tspan> <tspan x="0" y="339.081">+.+.+.+.+.+..+.+.+.+.+.+.+.+.+.+..+.+.+.+.+.+..+.+.+.+.+.+.+.+.+.+..+.+.+.+.+.</tspan> <tspan x="0" y="349.081">+..+.+.+.+.+.+.+.+.+.+..+.+.+.+.+.+..+.+.+.+.+.+.+.+.+.+..+.+.+.+.+.+..+.+.+.</tspan> <tspan x="0" y="359.081">+.+.+.+.+.+.+..+.+.+.+.+.+..+.+.+.+.+.+.+.+.+.+..+.+.+.+.+.+..+.+.+.+.+.+.+.+.</tspan> <tspan x="0" y="369.081">+.+..+.+.+.+.+.+..+.+.+.+.+.+.+.+.+.+..+.+.+.+.+.+..+.+.+.+.+.+.+.+.+.+..+.+.</tspan> <tspan x="0" y="379.081">+.+.+.+..+.+.+.+.+.+.+.+.+.+..+.+.+.+.+.+..+.+.+.+.+.+.+.+.+.+..+.+.+.+.+.+..</tspan> <tspan x="0" y="389.081">+.+.+.+.+.+.+.+.+.+..+.+.+.+.+.+..+.+.+.+.+.+.+.+.+.+..+.+.+.+.+.+..+.+.+.+.+.</tspan> <tspan x="0" y="399.081">+.+.+.+.+..+.+.+.+.+.+..+.+.+.+.+.+.+.+.+.+..+.+.+.+.+.+..+.+.+.+.+.+.+.+.+.</tspan> <tspan x="0" y="409.081">+..+.+.+.+.+.+..+.+.+.+.+.+.+.+.+.+..+.+.+.+.+.+..+.+.+.+.+.+.+.+.+.+..+.+.+.</tspan> <tspan x="0" y="419.081">+.+.+..+.+.+.+.+.+.+.+.+.+..+.+.+.+.+.+..+.+.+.+.+.+.+.+.+.+..+.+.+.+.+.+..+.</tspan> <tspan x="0" y="429.081">+.+.+.+.+.+.+.+.+..+.+.+.+.+.+..+.+.+.+.+.+.+.+.+.+..+.+.+.+.+.+..+.+.+.+.+.+.</tspan> <tspan x="0" y="439.081">+.+.+.+..+.+.+.+.+.+..+.+.+.+.+.+.+.+.+.+..+.+.+.+.+.+..+.+.+.+.+.+.+.+.+.+..</tspan> <tspan x="0" y="449.081">+.+.+.+.+.+..+.+.+.+.+.+.+.+.+.+..+.+.+.+.+.+..+.+.+.+.+.+.+.+.+.+..+.+.+.+.+.</tspan> <tspan x="0" y="459.081">+..+.+.+.+.+.+.+.+.+.+..+.+.+.+.+.+..+.+.+.+.+.+.+.+.+.+..+.+.+.+.+.+..+.+.+.</tspan> <tspan x="0" y="469.081">+.+.+.+.+.+.+.</tspan>
            </text>
        </g>
        <rect width="180" height="180" x="135" y="92" fill="#0A0A0A" rx="4"/>
        <g fill="#9F9">
            <path d="M22.54 105.8l29.755 12.73v3.877L22.54 135.142l-1.374-3.779 25.907-10.893-25.907-10.89 1.374-3.78zm74.92 0l1.374 3.78-25.906 10.89 25.906 10.892-1.374 3.78-29.755-12.735v-3.877L97.46 105.8zm-37.425 10.89c1.19 0 2.119.369 2.783 1.102.664.732.997 1.625.997 2.678 0 1.055-.333 1.948-.997 2.68-.664.733-1.593 1.1-2.783 1.1-1.193 0-2.12-.367-2.783-1.1-.665-.732-.997-1.625-.997-2.68 0-1.053.332-1.946.997-2.678.663-.733 1.59-1.101 2.783-1.101zm-18.08-66.212l3.3 2.276c-2.425 3.1-4.268 6.47-5.524 10.11-1.258 3.64-1.898 7.602-1.92 11.884-.024 4.283.573 8.252 1.792 11.906 1.22 3.652 3.025 7.041 5.417 10.166l-3.324 2.241c-2.593-3.192-4.674-6.86-6.24-11-1.569-4.14-2.339-8.586-2.313-13.338.025-4.75.843-9.187 2.455-13.313 1.61-4.122 3.73-7.766 6.357-10.932zm36.09 0c2.626 3.166 4.747 6.81 6.357 10.932 1.612 4.125 2.43 8.562 2.455 13.313.026 4.752-.744 9.198-2.312 13.339-1.567 4.14-3.648 7.806-6.24 10.999l-3.325-2.24c2.393-3.126 4.199-6.515 5.417-10.168 1.219-3.653 1.816-7.622 1.793-11.906-.023-4.281-.663-8.243-1.921-11.884-1.256-3.64-3.099-7.01-5.524-10.109l3.3-2.276zM61.198 55.83l5.663 9.926-2.16 1.109-4.7-8.232-4.7 8.232-2.16-1.109 5.663-9.926h2.394zM33.38 2.372L37.047 4.9c-2.696 3.443-4.742 7.187-6.14 11.232-1.396 4.045-2.107 8.447-2.134 13.205-.025 4.76.64 9.169 1.993 13.228 1.354 4.059 3.36 7.825 6.02 11.297l-3.695 2.49c-2.556-3.148-4.637-6.734-6.295-10.71-.23.096-.506.2-.834.31-.651.222-1.462.426-2.43.607-.968.182-2.092.319-3.372.411-1.28.09-2.661.087-4.142-.014-2.572-.173-4.887-.753-6.944-1.74-2.057-.988-3.79-2.344-5.196-4.067-1.407-1.72-2.445-3.801-3.111-6.234-.67-2.435-.9-5.185-.694-8.25.206-3.067.856-5.759 1.95-8.074 1.093-2.316 2.488-4.23 4.182-5.745 1.694-1.515 3.628-2.623 5.798-3.328 2.172-.703 4.456-.973 6.852-.814 1.516.103 2.874.3 4.075.594 1.202.292 2.242.611 3.123.952.702.275 1.292.54 1.781.799 1.542-3.183 3.387-6.078 5.546-8.678zm53.24 0c2.16 2.6 4.004 5.495 5.546 8.678.489-.26 1.08-.525 1.781-.799.88-.34 1.921-.66 3.123-.953 1.201-.292 2.56-.49 4.075-.592 2.397-.16 4.68.11 6.85.813 2.172.705 4.105 1.814 5.8 3.328 1.694 1.515 3.09 3.429 4.182 5.745 1.094 2.315 1.744 5.007 1.95 8.073.206 3.066-.025 5.815-.693 8.25-.667 2.434-1.705 4.514-3.112 6.236-1.406 1.722-3.139 3.078-5.196 4.065-2.057.988-4.373 1.568-6.944 1.742-1.48.1-2.861.103-4.142.013-1.28-.092-2.404-.229-3.372-.411-.968-.182-1.779-.385-2.43-.606-.327-.112-.605-.215-.833-.31-1.659 3.976-3.74 7.56-6.296 10.709l-3.694-2.49c2.659-3.473 4.665-7.239 6.018-11.297 1.355-4.06 2.019-8.468 1.993-13.228-.026-4.758-.737-9.16-2.133-13.205-1.398-4.044-3.444-7.79-6.14-11.232zM19.081 13.234c-1.938-.13-3.704.088-5.3.653-1.596.566-2.983 1.446-4.16 2.64-1.177 1.196-2.117 2.682-2.821 4.457-.704 1.776-1.131 3.791-1.283 6.047-.147 2.186-.025 4.193.366 6.024.388 1.831 1.052 3.425 1.987 4.78.936 1.355 2.147 2.436 3.632 3.244 1.486.809 3.25 1.281 5.294 1.419 2.361.158 4.333.043 5.917-.347 1.017-.25 1.854-.487 2.548-.714-1.132-3.823-1.696-7.862-1.673-12.126.026-5.008.856-9.698 2.468-14.079-.545-.262-1.147-.53-1.824-.802-.743-.297-1.556-.556-2.444-.776-.888-.218-1.79-.358-2.707-.42zm87.138.653c-1.596-.566-3.362-.783-5.3-.653-.917.062-1.82.201-2.707.42-.888.22-1.701.479-2.444.776-.677.273-1.28.54-1.824.802 1.612 4.382 2.442 9.071 2.468 14.079.023 4.264-.541 8.304-1.673 12.125.694.228 1.531.465 2.548.715 1.584.39 3.557.505 5.917.346 2.044-.137 3.809-.61 5.294-1.418 1.485-.808 2.696-1.889 3.632-3.244.935-1.355 1.599-2.949 1.988-4.78.39-1.83.512-3.838.366-6.024-.153-2.255-.58-4.27-1.284-6.047-.704-1.775-1.644-3.261-2.821-4.456-1.177-1.196-2.564-2.075-4.16-2.641z" transform="translate(165 116)"/>
        </g>
    </g>
</svg>
